<?xml version="1.0" standalone="yes"?>

<svg version="1.1" viewBox="0.0 0.0 711.0 420.0" fill="none" stroke="none" stroke-linecap="square" stroke-miterlimit="10" xmlns="http://www.w3.org/2000/svg" xmlns:xlink="http://www.w3.org/1999/xlink"><clipPath id="p.0"><path d="m0 0l711.0 0l0 420.0l-711.0 0l0 -420.0z" clip-rule="nonzero"></path></clipPath><g clip-path="url(#p.0)"><path fill="#000000" fill-opacity="0.0" d="m0 0l711.1076 0l0 420.65353l-711.1076 0z" fill-rule="nonzero"></path><path fill="#000000" fill-opacity="0.0" d="m282.46982 146.04199l91.46457 0" fill-rule="nonzero"></path><path stroke="#000000" stroke-width="2.0" stroke-linejoin="round" stroke-linecap="butt" d="m282.46982 146.04199l91.46457 0" fill-rule="nonzero"></path><path fill="#000000" fill-opacity="0.0" d="m373.9449 144.56693l0 157.85828" fill-rule="nonzero"></path><path stroke="#000000" stroke-width="2.0" stroke-linejoin="round" stroke-linecap="butt" d="m373.9449 144.56693l0 157.85828" fill-rule="nonzero"></path><path fill="#000000" fill-opacity="0.0" d="m373.9449 302.4357l-90.01575 0" fill-rule="nonzero"></path><path stroke="#000000" stroke-width="2.0" stroke-linejoin="round" stroke-linecap="butt" d="m373.9449 302.4357l-90.01575 0" fill-rule="nonzero"></path><path fill="#000000" fill-opacity="0.0" d="m345.9134 146.04199l0 154.92914" fill-rule="nonzero"></path><path stroke="#000000" stroke-width="2.0" stroke-linejoin="round" stroke-linecap="butt" d="m345.9134 146.04199l0 154.92914" fill-rule="nonzero"></path><path fill="#000000" fill-opacity="0.0" d="m373.9449 223.49606l0 0c0 -25.257248 21.800568 -45.732285 48.6929 -45.732285l0 0c12.914185 0 25.299408 4.818207 34.43109 13.394684c9.131683 8.576462 14.261841 20.208649 14.261841 32.3376l0 0c0 25.257248 -21.800568 45.73227 -48.692932 45.73227l0 0c-26.892334 0 -48.6929 -20.475021 -48.6929 -45.73227z" fill-rule="nonzero"></path><path stroke="#000000" stroke-width="2.0" stroke-linejoin="round" stroke-linecap="butt" d="m373.9449 223.49606l0 0c0 -25.257248 21.800568 -45.732285 48.6929 -45.732285l0 0c12.914185 0 25.299408 4.818207 34.43109 13.394684c9.131683 8.576462 14.261841 20.208649 14.261841 32.3376l0 0c0 25.257248 -21.800568 45.73227 -48.692932 45.73227l0 0c-26.892334 0 -48.6929 -20.475021 -48.6929 -45.73227z" fill-rule="nonzero"></path><path fill="#000000" fill-opacity="0.0" d="m409.35434 200.59842l40.97638 0l0 45.795288l-40.97638 0z" fill-rule="nonzero"></path><path fill="#000000" d="m423.85434 215.73904q0.484375 0 0.828125 0.34375q0.359375 0.34375 0.359375 0.84375q0 0.484375 -0.359375 0.84375q-0.34375 0.34375 -0.828125 0.34375q-0.5 0 -0.84375 -0.34375q-0.34375 -0.359375 -0.34375 -0.84375q0 -0.5 0.34375 -0.84375q0.34375 -0.34375 0.84375 -0.34375zm0.1875 4.640625l-3.03125 10.484375q-0.8125 2.828125 -2.234375 4.0625q-1.40625 1.25 -3.046875 1.25q-0.734375 0 -1.109375 -0.34375q-0.390625 -0.34375 -0.390625 -0.8125q0 -0.359375 0.296875 -0.640625q0.28125 -0.265625 0.65625 -0.265625q0.328125 0 0.59375 0.21875q0.203125 0.171875 0.203125 0.390625q0 0.3125 -0.28125 0.53125q-0.171875 0.125 -0.171875 0.21875l0.03125 0.046875q0.03125 0.046875 0.109375 0.0625q0.0625 0.03125 0.203125 0.03125q0.953125 0 1.625 -0.609375q0.671875 -0.59375 1.203125 -2.390625l2.625 -9.015625q0.390625 -1.3125 0.390625 -1.453125q0 -0.28125 -0.265625 -0.5q-0.25 -0.234375 -0.625 -0.234375q-0.15625 0 -0.359375 0.03125q-0.15625 0.03125 -0.4375 0.078125l0 -0.40625l4.015625 -0.734375z" fill-rule="nonzero"></path><path fill="#000000" fill-opacity="0.0" d="m22.797901 115.06036l255.2441 91.46457" fill-rule="nonzero"></path><path stroke="#000000" stroke-width="2.0" stroke-linejoin="round" stroke-linecap="butt" d="m22.797901 115.06036l243.9475 87.416534" fill-rule="evenodd"></path><path fill="#000000" stroke="#000000" stroke-width="2.0" stroke-linecap="butt" d="m265.631 205.58672l9.658569 -0.048095703l-7.4298096 -6.1715546z" fill-rule="evenodd"></path><path fill="#000000" fill-opacity="0.0" d="m33.125984 309.81366l241.95276 -81.133865" fill-rule="nonzero"></path><path stroke="#ff0000" stroke-width="2.0" stroke-linejoin="round" stroke-linecap="butt" d="m33.125984 309.81366l230.57541 -77.31871" fill-rule="evenodd"></path><path fill="#ff0000" stroke="#ff0000" stroke-width="2.0" stroke-linecap="butt" d="m264.75165 235.62701l7.5549927 -6.0176544l-9.655548 -0.24645996z" fill-rule="evenodd"></path><path fill="#000000" fill-opacity="0.0" d="m44.774277 137.89502l40.97638 0l0 45.795273l-40.97638 0z" fill-rule="nonzero"></path><path fill="#000000" d="m63.69615 162.9419l0.359375 0q0 1.625 -0.53125 2.359375q-0.515625 0.734375 -1.3125 0.734375q-0.640625 0 -1.234375 -0.484375q-0.59375 -0.484375 -1.078125 -2.609375l-0.875 -3.984375l-3.0625 6.9375l-1.9375 0l4.390625 -9.453125q-0.34375 -1.84375 -0.84375 -2.71875q-0.484375 -0.875 -1.21875 -0.875q-0.578125 0 -1.015625 0.453125q-0.4375 0.4375 -0.484375 1.359375l-0.375 0q0.03125 -1.5 0.609375 -2.40625q0.578125 -0.90625 1.4375 -0.90625q0.546875 0 1.046875 0.453125q0.5 0.453125 0.859375 1.5625q0.375 1.09375 1.140625 4.5625l0.71875 3.25q0.453125 2.015625 0.9375 2.703125q0.484375 0.6875 1.15625 0.6875q1.15625 0 1.3125 -1.625z" fill-rule="nonzero"></path><path fill="#000000" d="m67.318634 165.0044q0.28125 0 0.484375 0.203125q0.203125 0.203125 0.203125 0.484375q0 0.28125 -0.203125 0.484375q-0.203125 0.203125 -0.484375 0.203125q-0.28125 0 -0.484375 -0.203125q-0.203125 -0.203125 -0.203125 -0.484375q0 -0.28125 0.203125 -0.484375q0.203125 -0.203125 0.484375 -0.203125zm0.109375 2.703125l-1.765625 6.125q-0.484375 1.640625 -1.3125 2.359375q-0.8125 0.71875 -1.765625 0.71875q-0.4375 0 -0.65625 -0.203125q-0.21875 -0.1875 -0.21875 -0.453125q0 -0.21875 0.171875 -0.390625q0.15625 -0.15625 0.375 -0.15625q0.203125 0 0.34375 0.140625q0.125 0.09375 0.125 0.234375q0 0.171875 -0.171875 0.296875q-0.09375 0.078125 -0.09375 0.125l0.015625 0.03125q0.015625 0.03125 0.0625 0.046875q0.046875 0.015625 0.125 0.015625q0.546875 0 0.953125 -0.359375q0.390625 -0.34375 0.6875 -1.40625l1.53125 -5.25q0.234375 -0.765625 0.234375 -0.84375q0 -0.171875 -0.15625 -0.296875q-0.140625 -0.125 -0.359375 -0.125q-0.09375 0 -0.203125 0.015625q-0.09375 0.015625 -0.265625 0.03125l0 -0.234375l2.34375 -0.421875z" fill-rule="nonzero"></path><path fill="#000000" fill-opacity="0.0" d="m19.530184 246.34908l91.46457 0l0 45.795273l-91.46457 0z" fill-rule="nonzero"></path><path fill="#ff0000" d="m38.99893 274.42722l-2.40625 -13.703125l1.890625 -0.890625l0.640625 3.359375l8.203125 0l3.125 -3.359375l1.234375 0.890625l-12.6875 13.703125zm0.296875 -9.515625l1.09375 5.828125l5.46875 -5.828125l-6.5625 0z" fill-rule="nonzero"></path><path fill="#ff0000" d="m55.545807 259.77097l-2.921875 10.078125l1.171875 -1.0q1.921875 -1.609375 2.484375 -2.390625q0.1875 -0.265625 0.1875 -0.390625q0 -0.09375 -0.0625 -0.171875q-0.0625 -0.09375 -0.25 -0.140625q-0.171875 -0.046875 -0.609375 -0.046875l-0.359375 0l0.109375 -0.390625l4.484375 0l-0.109375 0.390625q-0.765625 0.03125 -1.328125 0.234375q-0.5625 0.203125 -1.078125 0.59375q-1.03125 0.765625 -1.359375 1.0625l-0.890625 0.78125q0.234375 0.734375 0.5625 2.0625q0.546875 2.1875 0.734375 2.609375q0.203125 0.40625 0.40625 0.40625q0.171875 0 0.40625 -0.171875q0.53125 -0.390625 1.140625 -1.25l0.359375 0.265625q-1.109375 1.40625 -1.71875 1.859375q-0.59375 0.4375 -1.078125 0.4375q-0.4375 0 -0.671875 -0.34375q-0.40625 -0.609375 -1.359375 -4.765625l-1.40625 1.21875l-1.046875 3.640625l-1.609375 0l3.40625 -11.703125l0.28125 -0.984375q0.0625 -0.265625 0.0625 -0.453125q0 -0.25 -0.203125 -0.40625q-0.1875 -0.171875 -0.546875 -0.171875q-0.234375 0 -0.734375 0.09375l0 -0.34375l3.546875 -0.609375zm13.235977 5.28125q0.4375 0 0.734375 0.3125q0.3125 0.296875 0.3125 0.734375q0 0.421875 -0.3125 0.734375q-0.296875 0.3125 -0.734375 0.3125q-0.421875 0 -0.734375 -0.3125q-0.296875 -0.3125 -0.296875 -0.734375q0 -0.4375 0.296875 -0.734375q0.3125 -0.3125 0.734375 -0.3125zm-2.171875 7.4375q0.4375 0 0.734375 0.296875q0.296875 0.296875 0.296875 0.734375q0 0.421875 -0.3125 0.71875q-0.296875 0.296875 -0.71875 0.296875q-0.421875 0 -0.734375 -0.296875q-0.296875 -0.296875 -0.296875 -0.71875q0 -0.4375 0.296875 -0.734375q0.3125 -0.296875 0.734375 -0.296875zm13.7938385 -7.421875q0.5 0.53125 0.75 1.0625q0.1875 0.375 0.609375 1.9375l0.90625 -1.34375q0.359375 -0.5 0.859375 -0.9375q0.515625 -0.453125 0.90625 -0.609375q0.25 -0.109375 0.546875 -0.109375q0.4375 0 0.703125 0.234375q0.265625 0.234375 0.265625 0.578125q0 0.390625 -0.15625 0.53125q-0.296875 0.25 -0.65625 0.25q-0.21875 0 -0.46875 -0.078125q-0.484375 -0.171875 -0.640625 -0.171875q-0.25 0 -0.578125 0.28125q-0.640625 0.546875 -1.53125 2.0625l0.84375 3.53125q0.203125 0.8125 0.328125 0.96875q0.140625 0.15625 0.265625 0.15625q0.21875 0 0.5 -0.234375q0.578125 -0.46875 0.96875 -1.234375l0.359375 0.1875q-0.640625 1.21875 -1.640625 2.015625q-0.5625 0.453125 -0.953125 0.453125q-0.578125 0 -0.90625 -0.65625q-0.21875 -0.390625 -0.890625 -3.4375q-1.609375 2.78125 -2.578125 3.578125q-0.625 0.515625 -1.203125 0.515625q-0.40625 0 -0.75 -0.296875q-0.25 -0.234375 -0.25 -0.609375q0 -0.34375 0.234375 -0.5625q0.21875 -0.234375 0.546875 -0.234375q0.328125 0 0.703125 0.328125q0.265625 0.25 0.40625 0.25q0.125 0 0.3125 -0.171875q0.484375 -0.390625 1.3125 -1.671875q0.84375 -1.296875 1.09375 -1.875q-0.640625 -2.484375 -0.6875 -2.640625q-0.234375 -0.65625 -0.625 -0.9375q-0.375 -0.28125 -1.109375 -0.28125q-0.234375 0 -0.546875 0.03125l0 -0.375l2.75 -0.484375z" fill-rule="nonzero"></path><path fill="#ff0000" d="m90.22957 272.63034l-1.9375 6.71875l0.78125 -0.671875q1.28125 -1.078125 1.65625 -1.59375q0.125 -0.171875 0.125 -0.265625q0 -0.046875 -0.046875 -0.09375q-0.03125 -0.0625 -0.15625 -0.09375q-0.109375 -0.046875 -0.421875 -0.046875l-0.234375 0l0.078125 -0.25l2.984375 0l-0.0625 0.25q-0.515625 0.03125 -0.890625 0.171875q-0.375 0.125 -0.71875 0.390625q-0.6875 0.5 -0.90625 0.703125l-0.59375 0.515625q0.15625 0.5 0.375 1.375q0.359375 1.46875 0.5 1.734375q0.125 0.28125 0.265625 0.28125q0.109375 0 0.265625 -0.125q0.359375 -0.25 0.765625 -0.8125l0.234375 0.15625q-0.75 0.9375 -1.140625 1.25q-0.390625 0.296875 -0.71875 0.296875q-0.296875 0 -0.453125 -0.234375q-0.265625 -0.40625 -0.90625 -3.171875l-0.9375 0.8125l-0.703125 2.421875l-1.0625 0l2.265625 -7.796875l0.1875 -0.671875q0.03125 -0.171875 0.03125 -0.296875q0 -0.15625 -0.125 -0.265625q-0.125 -0.109375 -0.359375 -0.109375q-0.15625 0 -0.5 0.0625l0 -0.234375l2.359375 -0.40625zm5.5139847 0.828125q0.28125 0 0.484375 0.203125q0.203125 0.203125 0.203125 0.484375q0 0.28125 -0.203125 0.484375q-0.203125 0.203125 -0.484375 0.203125q-0.28125 0 -0.484375 -0.203125q-0.203125 -0.203125 -0.203125 -0.484375q0 -0.28125 0.203125 -0.484375q0.203125 -0.203125 0.484375 -0.203125zm0.109375 2.703125l-1.765625 6.125q-0.484375 1.640625 -1.3125 2.359375q-0.8125 0.71875 -1.765625 0.71875q-0.4375 0 -0.65625 -0.203125q-0.21875 -0.1875 -0.21875 -0.453125q0 -0.21875 0.171875 -0.390625q0.15625 -0.15625 0.375 -0.15625q0.203125 0 0.34375 0.140625q0.125 0.09375 0.125 0.234375q0 0.171875 -0.171875 0.296875q-0.09375 0.078125 -0.09375 0.125l0.015625 0.03125q0.015625 0.03125 0.0625 0.046875q0.046875 0.015625 0.125 0.015625q0.546875 0 0.953125 -0.359375q0.390625 -0.34375 0.6875 -1.40625l1.53125 -5.25q0.234375 -0.765625 0.234375 -0.84375q0 -0.171875 -0.15625 -0.296875q-0.140625 -0.125 -0.359375 -0.125q-0.09375 0 -0.203125 0.015625q-0.09375 0.015625 -0.265625 0.03125l0 -0.234375l2.34375 -0.421875z" fill-rule="nonzero"></path><path fill="#000000" fill-opacity="0.0" d="m422.6378 177.76378l166.4252 -152.8189" fill-rule="nonzero"></path><path stroke="#ff0000" stroke-width="2.0" stroke-linejoin="round" stroke-linecap="butt" d="m422.6378 177.76378l157.58627 -144.70262" fill-rule="evenodd"></path><path fill="#ff0000" stroke="#ff0000" stroke-width="2.0" stroke-linecap="butt" d="m582.45844 35.4944l4.4509277 -8.571983l-8.919617 3.7054844z" fill-rule="evenodd"></path><path fill="#000000" fill-opacity="0.0" d="m459.29135 190.27296l200.85037 -84.97638" fill-rule="nonzero"></path><path stroke="#000000" stroke-width="2.0" stroke-linejoin="round" stroke-linecap="butt" d="m459.29135 190.27296l189.7988 -80.30064" fill-rule="evenodd"></path><path fill="#000000" stroke="#000000" stroke-width="2.0" stroke-linecap="butt" d="m650.3773 113.0147l7.0717163 -6.5788727l-9.646057 0.49411774z" fill-rule="evenodd"></path><path fill="#000000" fill-opacity="0.0" d="m459.29135 256.71127l210.14175 64.8819" fill-rule="nonzero"></path><path stroke="#0000ff" stroke-width="2.0" stroke-linejoin="round" stroke-linecap="butt" d="m459.29135 256.71127l198.67581 61.341766" fill-rule="evenodd"></path><path fill="#0000ff" stroke="#0000ff" stroke-width="2.0" stroke-linecap="butt" d="m656.9926 321.20947l9.64679 -0.47885132l-7.697693 -5.834015z" fill-rule="evenodd"></path><path fill="#000000" fill-opacity="0.0" d="m422.6378 269.22833l189.6063 120.346466" fill-rule="nonzero"></path><path stroke="#0000ff" stroke-width="2.0" stroke-linejoin="round" stroke-linecap="butt" d="m422.6378 269.22833l179.47482 113.91583" fill-rule="evenodd"></path><path fill="#0000ff" stroke="#0000ff" stroke-width="2.0" stroke-linecap="butt" d="m600.34235 385.93326l9.433228 2.074707l-5.8927 -7.6528625z" fill-rule="evenodd"></path><path fill="#000000" fill-opacity="0.0" d="m449.4567 18.553806l112.787384 0l0 45.795277l-112.787384 0z" fill-rule="nonzero"></path><path fill="#ff0000" d="m468.92545 46.63193l-2.40625 -13.703125l1.890625 -0.890625l0.640625 3.359375l8.203125 0l3.125 -3.359375l1.234375 0.890625l-12.6875 13.703125zm0.296875 -9.515625l1.09375 5.828125l5.46875 -5.828125l-6.5625 0z" fill-rule="nonzero"></path><path fill="#ff0000" d="m485.47232 31.975681l-2.921875 10.078125l1.171875 -1.0q1.921875 -1.609375 2.484375 -2.390625q0.1875 -0.265625 0.1875 -0.390625q0 -0.09375 -0.0625 -0.171875q-0.0625 -0.09375 -0.25 -0.140625q-0.171875 -0.046875 -0.609375 -0.046875l-0.359375 0l0.109375 -0.390625l4.484375 0l-0.109375 0.390625q-0.765625 0.03125 -1.328125 0.234375q-0.5625 0.203125 -1.078125 0.59375q-1.03125 0.765625 -1.359375 1.0625l-0.890625 0.78125q0.234375 0.734375 0.5625 2.0625q0.546875 2.1875 0.734375 2.609375q0.203125 0.40625 0.40625 0.40625q0.171875 0 0.40625 -0.171875q0.53125 -0.390625 1.140625 -1.25l0.359375 0.265625q-1.109375 1.40625 -1.71875 1.859375q-0.59375 0.4375 -1.078125 0.4375q-0.4375 0 -0.671875 -0.34375q-0.40625 -0.609375 -1.359375 -4.765625l-1.40625 1.21875l-1.046875 3.640625l-1.609375 0l3.40625 -11.703125l0.28125 -0.984375q0.0625 -0.265625 0.0625 -0.453125q0 -0.25 -0.203125 -0.40625q-0.1875 -0.171875 -0.546875 -0.171875q-0.234375 0 -0.734375 0.09375l0 -0.34375l3.546875 -0.609375zm13.235962 5.28125q0.4375 0 0.734375 0.3125q0.3125 0.296875 0.3125 0.734375q0 0.421875 -0.3125 0.734375q-0.296875 0.3125 -0.734375 0.3125q-0.421875 0 -0.734375 -0.3125q-0.296875 -0.3125 -0.296875 -0.734375q0 -0.4375 0.296875 -0.734375q0.3125 -0.3125 0.734375 -0.3125zm-2.171875 7.4375q0.4375 0 0.734375 0.296875q0.296875 0.296875 0.296875 0.734375q0 0.421875 -0.3125 0.71875q-0.296875 0.296875 -0.71875 0.296875q-0.421875 0 -0.734375 -0.296875q-0.296875 -0.296875 -0.296875 -0.71875q0 -0.4375 0.296875 -0.734375q0.3125 -0.296875 0.734375 -0.296875z" fill-rule="nonzero"></path><path fill="#ff0000" d="m508.70526 37.16318l1.671875 0l0 5.46875q0 1.484375 0.1875 2.03125q0.140625 0.40625 0.5 0.671875q0.359375 0.25 0.765625 0.25q1.21875 0 2.421875 -1.375l0 -7.046875l1.703125 0l0 6.703125q0 1.03125 0.078125 1.34375q0.0625 0.25 0.234375 0.390625q0.1875 0.125 0.375 0.125q0.265625 0 0.453125 -0.21875q0.265625 -0.3125 0.375 -1.046875l0.4375 0q-0.09375 1.25 -0.65625 1.8125q-0.546875 0.5625 -1.375 0.5625q-0.796875 0 -1.234375 -0.59375q-0.296875 -0.4375 -0.390625 -1.34375q-0.890625 1.046875 -1.65625 1.5q-0.765625 0.4375 -1.5625 0.4375q-0.546875 0 -0.9375 -0.203125q-0.28125 -0.171875 -0.640625 -0.65625q-0.015625 0.3125 -0.015625 0.46875q0 0.8125 0.34375 2.453125q0.140625 0.625 0.140625 1.0625q0 0.484375 -0.296875 0.796875q-0.28125 0.328125 -0.671875 0.328125q-0.375 0 -0.640625 -0.296875q-0.25 -0.296875 -0.25 -0.8125q0 -0.484375 0.296875 -1.703125q0.203125 -0.8125 0.21875 -1.0625q0.125 -1.0625 0.125 -1.828125q0 -0.0625 0 -0.78125l0 -7.4375z" fill-rule="nonzero"></path><path fill="#ff0000" d="m522.1814 45.66318q0.28125 0 0.484375 0.203125q0.203125 0.203125 0.203125 0.484375q0 0.28125 -0.203125 0.484375q-0.203125 0.203125 -0.484375 0.203125q-0.28125 0 -0.484375 -0.203125q-0.203125 -0.203125 -0.203125 -0.484375q0 -0.28125 0.203125 -0.484375q0.203125 -0.203125 0.484375 -0.203125zm0.109375 2.703125l-1.765625 6.125q-0.484375 1.640625 -1.3125 2.359375q-0.8125 0.71875 -1.765625 0.71875q-0.4375 0 -0.65625 -0.203125q-0.21875 -0.1875 -0.21875 -0.453125q0 -0.21875 0.171875 -0.390625q0.15625 -0.15625 0.375 -0.15625q0.203125 0 0.34375 0.140625q0.125 0.09375 0.125 0.234375q0 0.171875 -0.171875 0.296875q-0.09375 0.078125 -0.09375 0.125l0.015625 0.03125q0.015625 0.03125 0.0625 0.046875q0.046875 0.015625 0.125 0.015625q0.546875 0 0.953125 -0.359375q0.390625 -0.34375 0.6875 -1.40625l1.53125 -5.25q0.234375 -0.765625 0.234375 -0.84375q0 -0.171875 -0.15625 -0.296875q-0.140625 -0.125 -0.359375 -0.125q-0.09375 0 -0.203125 0.015625q-0.09375 0.015625 -0.265625 0.03125l0 -0.234375l2.34375 -0.421875z" fill-rule="nonzero"></path><path fill="#ff0000" d="m531.1239 37.272556l-0.703125 2.359375q1.125 -1.3125 2.0 -1.828125q0.875 -0.53125 1.78125 -0.53125q0.921875 0 1.5625 0.734375q0.640625 0.71875 0.640625 1.875q0 2.25 -1.84375 4.59375q-1.828125 2.328125 -4.265625 2.328125q-0.515625 0 -0.90625 -0.125q-0.390625 -0.109375 -0.890625 -0.390625l-0.75 2.640625q-0.21875 0.78125 -0.21875 1.015625q0 0.234375 0.109375 0.390625q0.125 0.15625 0.390625 0.234375q0.265625 0.09375 1.0625 0.09375l-0.09375 0.375l-4.828125 0l0.09375 -0.375q0.953125 -0.03125 1.296875 -0.328125q0.328125 -0.28125 0.703125 -1.59375l2.59375 -8.96875q0.234375 -0.859375 0.234375 -1.0625q0 -0.28125 -0.171875 -0.421875q-0.15625 -0.15625 -0.484375 -0.15625q-0.296875 0 -0.828125 0.0625l0 -0.390625l3.515625 -0.53125zm-2.390625 8.203125q0.640625 0.765625 1.71875 0.765625q0.53125 0 1.078125 -0.296875q0.5625 -0.296875 1.09375 -0.875q0.53125 -0.59375 0.9375 -1.359375q0.421875 -0.765625 0.75 -1.796875q0.34375 -1.046875 0.34375 -2.0625q0 -0.8125 -0.375 -1.25q-0.375 -0.4375 -0.875 -0.4375q-1.109375 0 -2.1875 1.28125q-1.078125 1.265625 -1.59375 2.96875l-0.890625 3.0625z" fill-rule="nonzero"></path><path fill="#ff0000" d="m540.35046 45.66318q0.28125 0 0.484375 0.203125q0.203125 0.203125 0.203125 0.484375q0 0.28125 -0.203125 0.484375q-0.203125 0.203125 -0.484375 0.203125q-0.28125 0 -0.484375 -0.203125q-0.203125 -0.203125 -0.203125 -0.484375q0 -0.28125 0.203125 -0.484375q0.203125 -0.203125 0.484375 -0.203125zm0.109375 2.703125l-1.765625 6.125q-0.484375 1.640625 -1.3125 2.359375q-0.8125 0.71875 -1.765625 0.71875q-0.4375 0 -0.65625 -0.203125q-0.21875 -0.1875 -0.21875 -0.453125q0 -0.21875 0.171875 -0.390625q0.15625 -0.15625 0.375 -0.15625q0.203125 0 0.34375 0.140625q0.125 0.09375 0.125 0.234375q0 0.171875 -0.171875 0.296875q-0.09375 0.078125 -0.09375 0.125l0.015625 0.03125q0.015625 0.03125 0.0625 0.046875q0.046875 0.015625 0.125 0.015625q0.546875 0 0.953125 -0.359375q0.390625 -0.34375 0.6875 -1.40625l1.53125 -5.25q0.234375 -0.765625 0.234375 -0.84375q0 -0.171875 -0.15625 -0.296875q-0.140625 -0.125 -0.359375 -0.125q-0.09375 0 -0.203125 0.015625q-0.09375 0.015625 -0.265625 0.03125l0 -0.234375l2.34375 -0.421875zm4.6378784 -3.53125l-1.9375 6.71875l0.78125 -0.671875q1.28125 -1.078125 1.65625 -1.59375q0.125 -0.171875 0.125 -0.265625q0 -0.046875 -0.046875 -0.09375q-0.03125 -0.0625 -0.15625 -0.09375q-0.109375 -0.046875 -0.421875 -0.046875l-0.234375 0l0.078125 -0.25l2.984375 0l-0.0625 0.25q-0.515625 0.03125 -0.890625 0.171875q-0.375 0.125 -0.71875 0.390625q-0.6875 0.5 -0.90625 0.703125l-0.59375 0.515625q0.15625 0.5 0.375 1.375q0.359375 1.46875 0.5 1.734375q0.125 0.28125 0.265625 0.28125q0.109375 0 0.265625 -0.125q0.359375 -0.25 0.765625 -0.8125l0.234375 0.15625q-0.75 0.9375 -1.140625 1.25q-0.390625 0.296875 -0.71875 0.296875q-0.296875 0 -0.453125 -0.234375q-0.265625 -0.40625 -0.90625 -3.171875l-0.9375 0.8125l-0.703125 2.421875l-1.0625 0l2.265625 -7.796875l0.1875 -0.671875q0.03125 -0.171875 0.03125 -0.296875q0 -0.15625 -0.125 -0.265625q-0.125 -0.109375 -0.359375 -0.109375q-0.15625 0 -0.5 0.0625l0 -0.234375l2.359375 -0.40625z" fill-rule="nonzero"></path><path fill="#000000" fill-opacity="0.0" d="m576.34644 78.456696l73.385864 0l0 45.795273l-73.385864 0z" fill-rule="nonzero"></path><path fill="#000000" d="m587.36206 97.06607l1.671875 0l0 5.46875q0 1.484375 0.1875 2.03125q0.140625 0.40625 0.5 0.671875q0.359375 0.25 0.765625 0.25q1.21875 0 2.421875 -1.375l0 -7.046875l1.703125 0l0 6.703125q0 1.03125 0.078125 1.34375q0.0625 0.25 0.234375 0.390625q0.1875 0.125 0.375 0.125q0.265625 0 0.453125 -0.21875q0.265625 -0.3125 0.375 -1.046875l0.4375 0q-0.09375 1.25 -0.65625 1.8125q-0.546875 0.5625 -1.375 0.5625q-0.796875 0 -1.234375 -0.59375q-0.296875 -0.4375 -0.390625 -1.34375q-0.890625 1.046875 -1.65625 1.5q-0.765625 0.4375 -1.5625 0.4375q-0.546875 0 -0.9375 -0.203125q-0.28125 -0.171875 -0.640625 -0.65625q-0.015625 0.3125 -0.015625 0.46875q0 0.8125 0.34375 2.453125q0.140625 0.625 0.140625 1.0625q0 0.484375 -0.296875 0.796875q-0.28125 0.328125 -0.671875 0.328125q-0.375 0 -0.640625 -0.296875q-0.25 -0.296875 -0.25 -0.8125q0 -0.484375 0.296875 -1.703125q0.203125 -0.8125 0.21875 -1.0625q0.125 -1.0625 0.125 -1.828125q0 -0.0625 0 -0.78125l0 -7.4375z" fill-rule="nonzero"></path><path fill="#000000" d="m600.83826 105.56607q0.28125 0 0.484375 0.203125q0.203125 0.203125 0.203125 0.484375q0 0.28125 -0.203125 0.484375q-0.203125 0.203125 -0.484375 0.203125q-0.28125 0 -0.484375 -0.203125q-0.203125 -0.203125 -0.203125 -0.484375q0 -0.28125 0.203125 -0.484375q0.203125 -0.203125 0.484375 -0.203125zm0.109375 2.703125l-1.765625 6.125q-0.484375 1.640625 -1.3125 2.359375q-0.8125 0.71875 -1.765625 0.71875q-0.4375 0 -0.65625 -0.203125q-0.21875 -0.1875 -0.21875 -0.453125q0 -0.21875 0.171875 -0.390625q0.15625 -0.15625 0.375 -0.15625q0.203125 0 0.34375 0.140625q0.125 0.09375 0.125 0.234375q0 0.171875 -0.171875 0.296875q-0.09375 0.078125 -0.09375 0.125l0.015625 0.03125q0.015625 0.03125 0.0625 0.046875q0.046875 0.015625 0.125 0.015625q0.546875 0 0.953125 -0.359375q0.390625 -0.34375 0.6875 -1.40625l1.53125 -5.25q0.234375 -0.765625 0.234375 -0.84375q0 -0.171875 -0.15625 -0.296875q-0.140625 -0.125 -0.359375 -0.125q-0.09375 0 -0.203125 0.015625q-0.09375 0.015625 -0.265625 0.03125l0 -0.234375l2.34375 -0.421875z" fill-rule="nonzero"></path><path fill="#000000" d="m609.78076 97.175446l-0.703125 2.359375q1.125 -1.3125 2.0 -1.828125q0.875 -0.53125 1.78125 -0.53125q0.921875 0 1.5625 0.734375q0.640625 0.71875 0.640625 1.875q0 2.25 -1.84375 4.59375q-1.828125 2.328125 -4.265625 2.328125q-0.515625 0 -0.90625 -0.125q-0.390625 -0.109375 -0.890625 -0.390625l-0.75 2.640625q-0.21875 0.78125 -0.21875 1.015625q0 0.234375 0.109375 0.390625q0.125 0.15625 0.390625 0.234375q0.265625 0.09375 1.0625 0.09375l-0.09375 0.375l-4.828125 0l0.09375 -0.375q0.953125 -0.03125 1.296875 -0.328125q0.328125 -0.28125 0.703125 -1.59375l2.59375 -8.96875q0.234375 -0.859375 0.234375 -1.0625q0 -0.28125 -0.171875 -0.421875q-0.15625 -0.15625 -0.484375 -0.15625q-0.296875 0 -0.828125 0.0625l0 -0.390625l3.515625 -0.53125zm-2.390625 8.203125q0.640625 0.765625 1.71875 0.765625q0.53125 0 1.078125 -0.296875q0.5625 -0.296875 1.09375 -0.875q0.53125 -0.59375 0.9375 -1.359375q0.421875 -0.765625 0.75 -1.796875q0.34375 -1.046875 0.34375 -2.0625q0 -0.8125 -0.375 -1.25q-0.375 -0.4375 -0.875 -0.4375q-1.109375 0 -2.1875 1.28125q-1.078125 1.265625 -1.59375 2.96875l-0.890625 3.0625z" fill-rule="nonzero"></path><path fill="#000000" d="m619.0073 105.56607q0.28125 0 0.484375 0.203125q0.203125 0.203125 0.203125 0.484375q0 0.28125 -0.203125 0.484375q-0.203125 0.203125 -0.484375 0.203125q-0.28125 0 -0.484375 -0.203125q-0.203125 -0.203125 -0.203125 -0.484375q0 -0.28125 0.203125 -0.484375q0.203125 -0.203125 0.484375 -0.203125zm0.109375 2.703125l-1.765625 6.125q-0.484375 1.640625 -1.3125 2.359375q-0.8125 0.71875 -1.765625 0.71875q-0.4375 0 -0.65625 -0.203125q-0.21875 -0.1875 -0.21875 -0.453125q0 -0.21875 0.171875 -0.390625q0.15625 -0.15625 0.375 -0.15625q0.203125 0 0.34375 0.140625q0.125 0.09375 0.125 0.234375q0 0.171875 -0.171875 0.296875q-0.09375 0.078125 -0.09375 0.125l0.015625 0.03125q0.015625 0.03125 0.0625 0.046875q0.046875 0.015625 0.125 0.015625q0.546875 0 0.953125 -0.359375q0.390625 -0.34375 0.6875 -1.40625l1.53125 -5.25q0.234375 -0.765625 0.234375 -0.84375q0 -0.171875 -0.15625 -0.296875q-0.140625 -0.125 -0.359375 -0.125q-0.09375 0 -0.203125 0.015625q-0.09375 0.015625 -0.265625 0.03125l0 -0.234375l2.34375 -0.421875z" fill-rule="nonzero"></path><path fill="#000000" d="m620.2545 109.87857q0 -1.59375 0.484375 -2.734375q0.484375 -1.140625 1.265625 -1.703125q0.625 -0.453125 1.28125 -0.453125q1.0625 0 1.90625 1.09375q1.0625 1.34375 1.0625 3.65625q0 1.609375 -0.46875 2.734375q-0.453125 1.125 -1.1875 1.640625q-0.71875 0.515625 -1.390625 0.515625q-1.3125 0 -2.203125 -1.578125q-0.75 -1.3125 -0.75 -3.171875zm1.34375 0.171875q0 1.90625 0.46875 3.125q0.390625 1.015625 1.171875 1.015625q0.359375 0 0.75 -0.328125q0.40625 -0.34375 0.609375 -1.109375q0.3125 -1.1875 0.3125 -3.328125q0 -1.578125 -0.328125 -2.640625q-0.234375 -0.78125 -0.625 -1.109375q-0.28125 -0.234375 -0.6875 -0.234375q-0.453125 0 -0.828125 0.421875q-0.484375 0.5625 -0.671875 1.78125q-0.171875 1.21875 -0.171875 2.40625z" fill-rule="nonzero"></path><path fill="#000000" fill-opacity="0.0" d="m471.33072 223.49606l211.99997 0" fill-rule="nonzero"></path><path stroke="#000000" stroke-width="2.0" stroke-linejoin="round" stroke-linecap="butt" d="m471.33072 223.49606l199.99997 0" fill-rule="evenodd"></path><path fill="#000000" stroke="#000000" stroke-width="2.0" stroke-linecap="butt" d="m671.3307 226.79953l9.076233 -3.3034668l-9.076233 -3.3034668z" fill-rule="evenodd"></path><path fill="#000000" fill-opacity="0.0" d="m606.0761 179.91602l77.25983 0l0 34.519684l-77.25983 0z" fill-rule="nonzero"></path><path fill="#000000" d="m615.35736 207.91602l0 -0.375q0.796875 -0.125 1.21875 -0.515625q0.421875 -0.390625 0.875 -1.5l4.859375 -11.828125l0.375 0l5.171875 11.890625q0.515625 1.203125 0.890625 1.5625q0.390625 0.359375 1.34375 0.390625l0 0.375l-5.671875 0l0 -0.375q0.96875 -0.09375 1.25 -0.328125q0.28125 -0.25 0.28125 -0.640625q0 -0.484375 -0.46875 -1.5625l-3.53125 -8.15625l-3.28125 8.046875q-0.46875 1.125 -0.46875 1.640625q0 0.4375 0.28125 0.6875q0.296875 0.25 1.171875 0.3125l0 0.375l-4.296875 0z" fill-rule="nonzero"></path><path fill="#000000" d="m632.5723 206.18164q0.28125 0 0.484375 0.21875q0.21875 0.203125 0.21875 0.484375q0 0.296875 -0.21875 0.5q-0.203125 0.203125 -0.484375 0.203125q-0.296875 0 -0.5 -0.203125q-0.203125 -0.203125 -0.203125 -0.5q0 -0.28125 0.203125 -0.484375q0.203125 -0.21875 0.5 -0.21875zm0.578125 3.28125l0 6.3125q0 1.609375 -0.6875 2.375q-0.671875 0.78125 -1.765625 0.78125q-0.625 0 -0.921875 -0.21875q-0.3125 -0.21875 -0.3125 -0.46875q0 -0.234375 0.171875 -0.40625q0.171875 -0.171875 0.390625 -0.171875q0.1875 0 0.359375 0.09375q0.125 0.046875 0.453125 0.34375q0.328125 0.296875 0.5625 0.296875q0.15625 0 0.3125 -0.125q0.15625 -0.125 0.234375 -0.421875q0.078125 -0.296875 0.078125 -1.296875l0 -4.453125q0 -1.03125 -0.0625 -1.328125q-0.046875 -0.21875 -0.15625 -0.296875q-0.09375 -0.09375 -0.28125 -0.09375q-0.1875 0 -0.453125 0.09375l-0.09375 -0.25l1.875 -0.765625l0.296875 0z" fill-rule="nonzero"></path><path fill="#000000" fill-opacity="0.0" d="m556.6457 306.50394l112.78735 0l0 45.795288l-112.78735 0z" fill-rule="nonzero"></path><path fill="#0000ff" d="m576.11444 334.58206l-2.40625 -13.703125l1.890625 -0.890625l0.640625 3.359375l8.203125 0l3.125 -3.359375l1.234375 0.890625l-12.6875 13.703125zm0.296875 -9.515625l1.09375 5.828125l5.46875 -5.828125l-6.5625 0z" fill-rule="nonzero"></path><path fill="#0000ff" d="m592.6613 319.9258l-2.921875 10.078125l1.171875 -1.0q1.921875 -1.609375 2.484375 -2.390625q0.1875 -0.265625 0.1875 -0.390625q0 -0.09375 -0.0625 -0.171875q-0.0625 -0.09375 -0.25 -0.140625q-0.171875 -0.046875 -0.609375 -0.046875l-0.359375 0l0.109375 -0.390625l4.484375 0l-0.109375 0.390625q-0.765625 0.03125 -1.328125 0.234375q-0.5625 0.203125 -1.078125 0.59375q-1.03125 0.765625 -1.359375 1.0625l-0.890625 0.78125q0.234375 0.734375 0.5625 2.0625q0.546875 2.1875 0.734375 2.609375q0.203125 0.40625 0.40625 0.40625q0.171875 0 0.40625 -0.171875q0.53125 -0.390625 1.140625 -1.25l0.359375 0.265625q-1.109375 1.40625 -1.71875 1.859375q-0.59375 0.4375 -1.078125 0.4375q-0.4375 0 -0.671875 -0.34375q-0.40625 -0.609375 -1.359375 -4.765625l-1.40625 1.21875l-1.046875 3.640625l-1.609375 0l3.40625 -11.703125l0.28125 -0.984375q0.0625 -0.265625 0.0625 -0.453125q0 -0.25 -0.203125 -0.40625q-0.1875 -0.171875 -0.546875 -0.171875q-0.234375 0 -0.734375 0.09375l0 -0.34375l3.546875 -0.609375zm13.235962 5.28125q0.4375 0 0.734375 0.3125q0.3125 0.296875 0.3125 0.734375q0 0.421875 -0.3125 0.734375q-0.296875 0.3125 -0.734375 0.3125q-0.421875 0 -0.734375 -0.3125q-0.296875 -0.3125 -0.296875 -0.734375q0 -0.4375 0.296875 -0.734375q0.3125 -0.3125 0.734375 -0.3125zm-2.171875 7.4375q0.4375 0 0.734375 0.296875q0.296875 0.296875 0.296875 0.734375q0 0.421875 -0.3125 0.71875q-0.296875 0.296875 -0.71875 0.296875q-0.421875 0 -0.734375 -0.296875q-0.296875 -0.296875 -0.296875 -0.71875q0 -0.4375 0.296875 -0.734375q0.3125 -0.296875 0.734375 -0.296875zm18.871948 1.859375l-2.21875 -6.75q-0.78125 0 -1.59375 -0.15625l-1.203125 4.203125q-0.234375 0.8125 -0.234375 1.375q0 0.4375 0.296875 0.6875q0.21875 0.171875 1.234375 0.265625l-0.09375 0.375l-5.390625 0l0.109375 -0.375q0.765625 -0.03125 1.03125 -0.15625q0.421875 -0.171875 0.609375 -0.46875q0.328125 -0.484375 0.6875 -1.703125l2.4375 -8.40625q0.25 -0.84375 0.25 -1.296875q0 -0.46875 -0.390625 -0.796875q-0.390625 -0.328125 -1.109375 -0.328125l0.125 -0.375l4.53125 0q2.28125 0 3.28125 0.859375q1.015625 0.859375 1.015625 2.265625q0 1.34375 -1.03125 2.46875q-1.03125 1.109375 -2.828125 1.40625l1.359375 4.0625q0.484375 1.5 0.96875 1.953125q0.5 0.453125 1.59375 0.515625l-0.109375 0.375l-3.328125 0zm-3.640625 -7.5q0.65625 0.09375 1.171875 0.09375q1.765625 0 2.78125 -0.96875q1.03125 -0.984375 1.03125 -2.4375q0 -1.140625 -0.640625 -1.75q-0.640625 -0.609375 -1.921875 -0.609375q-0.328125 0 -0.78125 0.09375l-1.640625 5.578125zm11.590576 -1.78125q0.5 0.53125 0.75 1.0625q0.1875 0.375 0.609375 1.9375l0.90625 -1.34375q0.359375 -0.5 0.859375 -0.9375q0.515625 -0.453125 0.90625 -0.609375q0.25 -0.109375 0.546875 -0.109375q0.4375 0 0.703125 0.234375q0.265625 0.234375 0.265625 0.578125q0 0.390625 -0.15625 0.53125q-0.296875 0.25 -0.65625 0.25q-0.21875 0 -0.46875 -0.078125q-0.484375 -0.171875 -0.640625 -0.171875q-0.25 0 -0.578125 0.28125q-0.640625 0.546875 -1.53125 2.0625l0.84375 3.53125q0.203125 0.8125 0.328125 0.96875q0.140625 0.15625 0.265625 0.15625q0.21875 0 0.5 -0.234375q0.578125 -0.46875 0.96875 -1.234375l0.359375 0.1875q-0.640625 1.21875 -1.640625 2.015625q-0.5625 0.453125 -0.953125 0.453125q-0.578125 0 -0.90625 -0.65625q-0.21875 -0.390625 -0.890625 -3.4375q-1.609375 2.78125 -2.578125 3.578125q-0.625 0.515625 -1.203125 0.515625q-0.40625 0 -0.75 -0.296875q-0.25 -0.234375 -0.25 -0.609375q0 -0.34375 0.234375 -0.5625q0.21875 -0.234375 0.546875 -0.234375q0.328125 0 0.703125 0.328125q0.265625 0.25 0.40625 0.25q0.125 0 0.3125 -0.171875q0.484375 -0.390625 1.3125 -1.671875q0.84375 -1.296875 1.09375 -1.875q-0.640625 -2.484375 -0.6875 -2.640625q-0.234375 -0.65625 -0.625 -0.9375q-0.375 -0.28125 -1.109375 -0.28125q-0.234375 0 -0.546875 0.03125l0 -0.375l2.75 -0.484375zm8.591431 1.046875l0.3125 -3.03125q0.125 -1.296875 0.265625 -1.75q0.1875 -0.640625 0.546875 -0.921875q0.359375 -0.28125 0.796875 -0.28125q0.375 0 0.578125 0.203125q0.21875 0.203125 0.21875 0.515625q0 0.234375 -0.09375 0.53125q-0.140625 0.390625 -0.765625 1.703125l-1.421875 3.03125l-0.4375 0z" fill-rule="nonzero"></path><path fill="#0000ff" d="m644.9345 332.7852l-1.9375 6.71875l0.78125 -0.671875q1.28125 -1.078125 1.65625 -1.59375q0.125 -0.171875 0.125 -0.265625q0 -0.046875 -0.046875 -0.09375q-0.03125 -0.0625 -0.15625 -0.09375q-0.109375 -0.046875 -0.421875 -0.046875l-0.234375 0l0.078125 -0.25l2.984375 0l-0.0625 0.25q-0.515625 0.03125 -0.890625 0.171875q-0.375 0.125 -0.71875 0.390625q-0.6875 0.5 -0.90625 0.703125l-0.59375 0.515625q0.15625 0.5 0.375 1.375q0.359375 1.46875 0.5 1.734375q0.125 0.28125 0.265625 0.28125q0.109375 0 0.265625 -0.125q0.359375 -0.25 0.765625 -0.8125l0.234375 0.15625q-0.75 0.9375 -1.140625 1.25q-0.390625 0.296875 -0.71875 0.296875q-0.296875 0 -0.453125 -0.234375q-0.265625 -0.40625 -0.90625 -3.171875l-0.9375 0.8125l-0.703125 2.421875l-1.0625 0l2.265625 -7.796875l0.1875 -0.671875q0.03125 -0.171875 0.03125 -0.296875q0 -0.15625 -0.125 -0.265625q-0.125 -0.109375 -0.359375 -0.109375q-0.15625 0 -0.5 0.0625l0 -0.234375l2.359375 -0.40625zm5.513977 0.828125q0.28125 0 0.484375 0.203125q0.203125 0.203125 0.203125 0.484375q0 0.28125 -0.203125 0.484375q-0.203125 0.203125 -0.484375 0.203125q-0.28125 0 -0.484375 -0.203125q-0.203125 -0.203125 -0.203125 -0.484375q0 -0.28125 0.203125 -0.484375q0.203125 -0.203125 0.484375 -0.203125zm0.109375 2.703125l-1.765625 6.125q-0.484375 1.640625 -1.3125 2.359375q-0.8125 0.71875 -1.765625 0.71875q-0.4375 0 -0.65625 -0.203125q-0.21875 -0.1875 -0.21875 -0.453125q0 -0.21875 0.171875 -0.390625q0.15625 -0.15625 0.375 -0.15625q0.203125 0 0.34375 0.140625q0.125 0.09375 0.125 0.234375q0 0.171875 -0.171875 0.296875q-0.09375 0.078125 -0.09375 0.125l0.015625 0.03125q0.015625 0.03125 0.0625 0.046875q0.046875 0.015625 0.125 0.015625q0.546875 0 0.953125 -0.359375q0.390625 -0.34375 0.6875 -1.40625l1.53125 -5.25q0.234375 -0.765625 0.234375 -0.84375q0 -0.171875 -0.15625 -0.296875q-0.140625 -0.125 -0.359375 -0.125q-0.09375 0 -0.203125 0.015625q-0.09375 0.015625 -0.265625 0.03125l0 -0.234375l2.34375 -0.421875z" fill-rule="nonzero"></path><path fill="#000000" fill-opacity="0.0" d="m505.64304 372.59055l116.188995 0l0 64.8819l-116.188995 0z" fill-rule="nonzero"></path><path fill="#0000ff" d="m525.1118 400.66867l-2.40625 -13.703125l1.890625 -0.890625l0.640625 3.359375l8.203125 0l3.125 -3.359375l1.234375 0.890625l-12.6875 13.703125zm0.296875 -9.515625l1.09375 5.828125l5.46875 -5.828125l-6.5625 0z" fill-rule="nonzero"></path><path fill="#0000ff" d="m541.6587 386.01242l-2.921875 10.078125l1.171875 -1.0q1.921875 -1.609375 2.484375 -2.390625q0.1875 -0.265625 0.1875 -0.390625q0 -0.09375 -0.0625 -0.171875q-0.0625 -0.09375 -0.25 -0.140625q-0.171875 -0.046875 -0.609375 -0.046875l-0.359375 0l0.109375 -0.390625l4.484375 0l-0.109375 0.390625q-0.765625 0.03125 -1.328125 0.234375q-0.5625 0.203125 -1.078125 0.59375q-1.03125 0.765625 -1.359375 1.0625l-0.890625 0.78125q0.234375 0.734375 0.5625 2.0625q0.546875 2.1875 0.734375 2.609375q0.203125 0.40625 0.40625 0.40625q0.171875 0 0.40625 -0.171875q0.53125 -0.390625 1.140625 -1.25l0.359375 0.265625q-1.109375 1.40625 -1.71875 1.859375q-0.59375 0.4375 -1.078125 0.4375q-0.4375 0 -0.671875 -0.34375q-0.40625 -0.609375 -1.359375 -4.765625l-1.40625 1.21875l-1.046875 3.640625l-1.609375 0l3.40625 -11.703125l0.28125 -0.984375q0.0625 -0.265625 0.0625 -0.453125q0 -0.25 -0.203125 -0.40625q-0.1875 -0.171875 -0.546875 -0.171875q-0.234375 0 -0.734375 0.09375l0 -0.34375l3.546875 -0.609375zm13.235962 5.28125q0.4375 0 0.734375 0.3125q0.3125 0.296875 0.3125 0.734375q0 0.421875 -0.3125 0.734375q-0.296875 0.3125 -0.734375 0.3125q-0.421875 0 -0.734375 -0.3125q-0.296875 -0.3125 -0.296875 -0.734375q0 -0.4375 0.296875 -0.734375q0.3125 -0.3125 0.734375 -0.3125zm-2.171875 7.4375q0.4375 0 0.734375 0.296875q0.296875 0.296875 0.296875 0.734375q0 0.421875 -0.3125 0.71875q-0.296875 0.296875 -0.71875 0.296875q-0.421875 0 -0.734375 -0.296875q-0.296875 -0.296875 -0.296875 -0.71875q0 -0.4375 0.296875 -0.734375q0.3125 -0.296875 0.734375 -0.296875z" fill-rule="nonzero"></path><path fill="#0000ff" d="m564.8916 391.19992l1.671875 0l0 5.46875q0 1.484375 0.1875 2.03125q0.140625 0.40625 0.5 0.671875q0.359375 0.25 0.765625 0.25q1.21875 0 2.421875 -1.375l0 -7.046875l1.703125 0l0 6.703125q0 1.03125 0.078125 1.34375q0.0625 0.25 0.234375 0.390625q0.1875 0.125 0.375 0.125q0.265625 0 0.453125 -0.21875q0.265625 -0.3125 0.375 -1.046875l0.4375 0q-0.09375 1.25 -0.65625 1.8125q-0.546875 0.5625 -1.375 0.5625q-0.796875 0 -1.234375 -0.59375q-0.296875 -0.4375 -0.390625 -1.34375q-0.890625 1.046875 -1.65625 1.5q-0.765625 0.4375 -1.5625 0.4375q-0.546875 0 -0.9375 -0.203125q-0.28125 -0.171875 -0.640625 -0.65625q-0.015625 0.3125 -0.015625 0.46875q0 0.8125 0.34375 2.453125q0.140625 0.625 0.140625 1.0625q0 0.484375 -0.296875 0.796875q-0.28125 0.328125 -0.671875 0.328125q-0.375 0 -0.640625 -0.296875q-0.25 -0.296875 -0.25 -0.8125q0 -0.484375 0.296875 -1.703125q0.203125 -0.8125 0.21875 -1.0625q0.125 -1.0625 0.125 -1.828125q0 -0.0625 0 -0.78125l0 -7.4375z" fill-rule="nonzero"></path><path fill="#0000ff" d="m578.3678 399.69992q0.28125 0 0.484375 0.203125q0.203125 0.203125 0.203125 0.484375q0 0.28125 -0.203125 0.484375q-0.203125 0.203125 -0.484375 0.203125q-0.28125 0 -0.484375 -0.203125q-0.203125 -0.203125 -0.203125 -0.484375q0 -0.28125 0.203125 -0.484375q0.203125 -0.203125 0.484375 -0.203125zm0.109375 2.703125l-1.765625 6.125q-0.484375 1.640625 -1.3125 2.359375q-0.8125 0.71875 -1.765625 0.71875q-0.4375 0 -0.65625 -0.203125q-0.21875 -0.1875 -0.21875 -0.453125q0 -0.21875 0.171875 -0.390625q0.15625 -0.15625 0.375 -0.15625q0.203125 0 0.34375 0.140625q0.125 0.09375 0.125 0.234375q0 0.171875 -0.171875 0.296875q-0.09375 0.078125 -0.09375 0.125l0.015625 0.03125q0.015625 0.03125 0.0625 0.046875q0.046875 0.015625 0.125 0.015625q0.546875 0 0.953125 -0.359375q0.390625 -0.34375 0.6875 -1.40625l1.53125 -5.25q0.234375 -0.765625 0.234375 -0.84375q0 -0.171875 -0.15625 -0.296875q-0.140625 -0.125 -0.359375 -0.125q-0.09375 0 -0.203125 0.015625q-0.09375 0.015625 -0.265625 0.03125l0 -0.234375l2.34375 -0.421875z" fill-rule="nonzero"></path><path fill="#0000ff" d="m587.3103 391.3093l-1.375 4.671875q1.921875 -2.859375 2.9375 -3.765625q1.03125 -0.90625 1.96875 -0.90625q0.515625 0 0.84375 0.34375q0.34375 0.328125 0.34375 0.875q0 0.625 -0.3125 1.640625l-1.25 4.3125q-0.203125 0.75 -0.203125 0.921875q0 0.140625 0.078125 0.25q0.078125 0.09375 0.171875 0.09375q0.125 0 0.296875 -0.140625q0.546875 -0.4375 1.1875 -1.3125l0.328125 0.1875q-0.953125 1.375 -1.8125 1.953125q-0.59375 0.40625 -1.0625 0.40625q-0.375 0 -0.609375 -0.234375q-0.21875 -0.234375 -0.21875 -0.625q0 -0.484375 0.34375 -1.6875l1.1875 -4.125q0.234375 -0.765625 0.234375 -1.203125q0 -0.203125 -0.140625 -0.328125q-0.140625 -0.125 -0.328125 -0.125q-0.28125 0 -0.6875 0.25q-0.765625 0.453125 -1.59375 1.515625q-0.8125 1.0625 -1.71875 2.71875q-0.484375 0.859375 -0.796875 1.90625l-0.515625 1.6875l-1.53125 0l1.859375 -6.421875q0.328125 -1.15625 0.328125 -1.390625q0 -0.234375 -0.1875 -0.390625q-0.171875 -0.171875 -0.4375 -0.171875q-0.125 0 -0.4375 0.03125l-0.375 0.0625l-0.0625 -0.359375l3.546875 -0.640625z" fill-rule="nonzero"></path><path fill="#0000ff" d="m596.53687 399.69992q0.28125 0 0.484375 0.203125q0.203125 0.203125 0.203125 0.484375q0 0.28125 -0.203125 0.484375q-0.203125 0.203125 -0.484375 0.203125q-0.28125 0 -0.484375 -0.203125q-0.203125 -0.203125 -0.203125 -0.484375q0 -0.28125 0.203125 -0.484375q0.203125 -0.203125 0.484375 -0.203125zm0.109375 2.703125l-1.765625 6.125q-0.484375 1.640625 -1.3125 2.359375q-0.8125 0.71875 -1.765625 0.71875q-0.4375 0 -0.65625 -0.203125q-0.21875 -0.1875 -0.21875 -0.453125q0 -0.21875 0.171875 -0.390625q0.15625 -0.15625 0.375 -0.15625q0.203125 0 0.34375 0.140625q0.125 0.09375 0.125 0.234375q0 0.171875 -0.171875 0.296875q-0.09375 0.078125 -0.09375 0.125l0.015625 0.03125q0.015625 0.03125 0.0625 0.046875q0.046875 0.015625 0.125 0.015625q0.546875 0 0.953125 -0.359375q0.390625 -0.34375 0.6875 -1.40625l1.53125 -5.25q0.234375 -0.765625 0.234375 -0.84375q0 -0.171875 -0.15625 -0.296875q-0.140625 -0.125 -0.359375 -0.125q-0.09375 0 -0.203125 0.015625q-0.09375 0.015625 -0.265625 0.03125l0 -0.234375l2.34375 -0.421875zm4.6378174 -3.53125l-1.9375 6.71875l0.78125 -0.671875q1.28125 -1.078125 1.65625 -1.59375q0.125 -0.171875 0.125 -0.265625q0 -0.046875 -0.046875 -0.09375q-0.03125 -0.0625 -0.15625 -0.09375q-0.109375 -0.046875 -0.421875 -0.046875l-0.234375 0l0.078125 -0.25l2.984375 0l-0.0625 0.25q-0.515625 0.03125 -0.890625 0.171875q-0.375 0.125 -0.71875 0.390625q-0.6875 0.5 -0.90625 0.703125l-0.59375 0.515625q0.15625 0.5 0.375 1.375q0.359375 1.46875 0.5 1.734375q0.125 0.28125 0.265625 0.28125q0.109375 0 0.265625 -0.125q0.359375 -0.25 0.765625 -0.8125l0.234375 0.15625q-0.75 0.9375 -1.140625 1.25q-0.390625 0.296875 -0.71875 0.296875q-0.296875 0 -0.453125 -0.234375q-0.265625 -0.40625 -0.90625 -3.171875l-0.9375 0.8125l-0.703125 2.421875l-1.0625 0l2.265625 -7.796875l0.1875 -0.671875q0.03125 -0.171875 0.03125 -0.296875q0 -0.15625 -0.125 -0.265625q-0.125 -0.109375 -0.359375 -0.109375q-0.15625 0 -0.5 0.0625l0 -0.234375l2.359375 -0.40625z" fill-rule="nonzero"></path></g></svg>

