<?xml version="1.0" standalone="yes"?>

<svg version="1.1" viewBox="0.0 0.0 521.0 189.0" fill="none" stroke="none" stroke-linecap="square" stroke-miterlimit="10" xmlns="http://www.w3.org/2000/svg" xmlns:xlink="http://www.w3.org/1999/xlink"><clipPath id="p.0"><path d="m0 0l521.0 0l0 189.0l-521.0 0l0 -189.0z" clip-rule="nonzero"></path></clipPath><g clip-path="url(#p.0)"><path fill="#000000" fill-opacity="0.0" d="m0 0l521.89764 0l0 189.0971l-521.89764 0z" fill-rule="nonzero"></path><path fill="#000000" fill-opacity="0.0" d="m186.56955 78.32283l0 0c0 -13.220039 10.103561 -23.937004 22.56694 -23.937004l0 0c5.9851074 0 11.725098 2.5219269 15.957214 7.0109863c4.232132 4.4890594 6.6097107 10.57753 6.6097107 16.926018l0 0c0 13.220047 -10.103561 23.937012 -22.566925 23.937012l0 0c-12.463379 0 -22.56694 -10.716965 -22.56694 -23.937012z" fill-rule="nonzero"></path><path stroke="#000000" stroke-width="2.0" stroke-linejoin="round" stroke-linecap="butt" d="m186.56955 78.32283l0 0c0 -13.220039 10.103561 -23.937004 22.56694 -23.937004l0 0c5.9851074 0 11.725098 2.5219269 15.957214 7.0109863c4.232132 4.4890594 6.6097107 10.57753 6.6097107 16.926018l0 0c0 13.220047 -10.103561 23.937012 -22.566925 23.937012l0 0c-12.463379 0 -22.56694 -10.716965 -22.56694 -23.937012z" fill-rule="nonzero"></path><path fill="#000000" d="m208.64801 74.03377l0 6.734375l-1.03125 0l0 -0.796875q-0.328125 0.5 -0.65625 0.6875q-0.4375 0.265625 -1.03125 0.265625q-0.53125 0 -0.9375 -0.203125q-0.296875 -0.15625 -0.671875 -0.625l0 3.25l-1.125 0l0 -9.3125l1.125 0l0 2.84375q0 1.5625 0.15625 2.03125q0.171875 0.453125 0.546875 0.71875q0.375 0.265625 0.859375 0.265625q0.5 0 0.90625 -0.28125q0.40625 -0.28125 0.5625 -0.71875q0.171875 -0.4375 0.171875 -1.984375l0 -2.875l1.125 0z" fill-rule="nonzero"></path><path fill="#000000" d="m213.21793 85.76814l-0.796875 0l0 -5.046875q-0.28125 0.28125 -0.75 0.5625q-0.46875 0.265625 -0.828125 0.390625l0 -0.765625q0.65625 -0.296875 1.15625 -0.734375q0.5 -0.453125 0.703125 -0.875l0.515625 0l0 6.46875z" fill-rule="nonzero"></path><path fill="#000000" fill-opacity="0.0" d="m150.30708 54.3832l36.25197 0l0 47.874016l-36.25197 0z" fill-rule="nonzero"></path><path stroke="#000000" stroke-width="2.0" stroke-linejoin="round" stroke-linecap="butt" d="m150.30708 54.3832l36.25197 0l0 47.874016l-36.25197 0z" fill-rule="nonzero"></path><path fill="#000000" fill-opacity="0.0" d="m168.43307 54.3832l0 47.874016" fill-rule="nonzero"></path><path stroke="#000000" stroke-width="2.0" stroke-linejoin="round" stroke-linecap="butt" d="m168.43307 54.3832l0 47.874016" fill-rule="nonzero"></path><path fill="#000000" fill-opacity="0.0" d="m160.43307 54.3832l-29.952759 0" fill-rule="nonzero"></path><path stroke="#000000" stroke-width="2.0" stroke-linejoin="round" stroke-linecap="butt" d="m160.43307 54.3832l-29.952759 0" fill-rule="nonzero"></path><path fill="#000000" fill-opacity="0.0" d="m160.43307 102.25722l-27.2126 0" fill-rule="nonzero"></path><path stroke="#000000" stroke-width="2.0" stroke-linejoin="round" stroke-linecap="butt" d="m160.43307 102.25722l-27.2126 0" fill-rule="nonzero"></path><path fill="#000000" fill-opacity="0.0" d="m370.56955 78.32283l0 0c0 -13.220039 10.103577 -23.937004 22.566925 -23.937004l0 0c5.985138 0 11.725128 2.5219269 15.957245 7.0109863c4.2321167 4.4890594 6.60968 10.57753 6.60968 16.926018l0 0c0 13.220047 -10.103546 23.937012 -22.566925 23.937012l0 0c-12.463348 0 -22.566925 -10.716965 -22.566925 -23.937012z" fill-rule="nonzero"></path><path stroke="#000000" stroke-width="2.0" stroke-linejoin="round" stroke-linecap="butt" d="m370.56955 78.32283l0 0c0 -13.220039 10.103577 -23.937004 22.566925 -23.937004l0 0c5.985138 0 11.725128 2.5219269 15.957245 7.0109863c4.2321167 4.4890594 6.60968 10.57753 6.60968 16.926018l0 0c0 13.220047 -10.103546 23.937012 -22.566925 23.937012l0 0c-12.463348 0 -22.566925 -10.716965 -22.566925 -23.937012z" fill-rule="nonzero"></path><path fill="#000000" d="m392.648 74.03377l0 6.734375l-1.03125 0l0 -0.796875q-0.328125 0.5 -0.65625 0.6875q-0.4375 0.265625 -1.03125 0.265625q-0.53125 0 -0.9375 -0.203125q-0.296875 -0.15625 -0.671875 -0.625l0 3.25l-1.125 0l0 -9.3125l1.125 0l0 2.84375q0 1.5625 0.15625 2.03125q0.171875 0.453125 0.546875 0.71875q0.375 0.265625 0.859375 0.265625q0.5 0 0.90625 -0.28125q0.40625 -0.28125 0.5625 -0.71875q0.171875 -0.4375 0.171875 -1.984375l0 -2.875l1.125 0z" fill-rule="nonzero"></path><path fill="#000000" d="m398.3898 85.00252l0 0.765625l-4.265625 0q0 -0.28125 0.09375 -0.546875q0.171875 -0.4375 0.53125 -0.859375q0.359375 -0.421875 1.03125 -0.96875q1.046875 -0.875 1.40625 -1.375q0.375 -0.5 0.375 -0.953125q0 -0.46875 -0.34375 -0.78125q-0.328125 -0.328125 -0.859375 -0.328125q-0.578125 0 -0.921875 0.34375q-0.34375 0.34375 -0.34375 0.953125l-0.8125 -0.09375q0.078125 -0.90625 0.625 -1.375q0.546875 -0.484375 1.46875 -0.484375q0.921875 0 1.453125 0.515625q0.546875 0.515625 0.546875 1.265625q0 0.390625 -0.15625 0.765625q-0.15625 0.375 -0.53125 0.796875q-0.359375 0.40625 -1.203125 1.125q-0.71875 0.59375 -0.921875 0.8125q-0.203125 0.21875 -0.328125 0.421875l3.15625 0z" fill-rule="nonzero"></path><path fill="#000000" fill-opacity="0.0" d="m334.3071 54.3832l36.251953 0l0 47.874016l-36.251953 0z" fill-rule="nonzero"></path><path stroke="#000000" stroke-width="2.0" stroke-linejoin="round" stroke-linecap="butt" d="m334.3071 54.3832l36.251953 0l0 47.874016l-36.251953 0z" fill-rule="nonzero"></path><path fill="#000000" fill-opacity="0.0" d="m352.43307 54.3832l0 47.874016" fill-rule="nonzero"></path><path stroke="#000000" stroke-width="2.0" stroke-linejoin="round" stroke-linecap="butt" d="m352.43307 54.3832l0 47.874016" fill-rule="nonzero"></path><path fill="#000000" fill-opacity="0.0" d="m344.43307 54.3832l-29.952759 0" fill-rule="nonzero"></path><path stroke="#000000" stroke-width="2.0" stroke-linejoin="round" stroke-linecap="butt" d="m344.43307 54.3832l-29.952759 0" fill-rule="nonzero"></path><path fill="#000000" fill-opacity="0.0" d="m344.43307 102.25722l-27.212616 0" fill-rule="nonzero"></path><path stroke="#000000" stroke-width="2.0" stroke-linejoin="round" stroke-linecap="butt" d="m344.43307 102.25722l-27.212616 0" fill-rule="nonzero"></path><path fill="#000000" fill-opacity="0.0" d="m231.70341 78.32283l84.28346 0" fill-rule="nonzero"></path><path stroke="#000000" stroke-width="2.0" stroke-linejoin="round" stroke-linecap="butt" d="m231.70341 78.32284l77.429306 0" fill-rule="evenodd"></path><path fill="#000000" stroke="#000000" stroke-width="2.0" stroke-linecap="butt" d="m309.1327 78.32284l-2.2491455 2.2491608l6.179535 -2.2491608l-6.179535 -2.2491684z" fill-rule="evenodd"></path><path fill="#000000" fill-opacity="0.0" d="m409.09372 95.248856l65.25983 65.25984" fill-rule="nonzero"></path><path stroke="#000000" stroke-width="2.0" stroke-linejoin="round" stroke-linecap="butt" d="m409.09372 95.24885l60.413208 60.413216" fill-rule="evenodd"></path><path fill="#000000" stroke="#000000" stroke-width="2.0" stroke-linecap="butt" d="m469.50693 155.66206l-3.1808167 0l5.9599915 2.77919l-2.7791748 -5.9599915z" fill-rule="evenodd"></path><path fill="#000000" fill-opacity="0.0" d="m225.0937 95.248856l82.14174 82.14174" fill-rule="nonzero"></path><path stroke="#000000" stroke-width="2.0" stroke-linejoin="round" stroke-linecap="butt" d="m225.0937 95.24885l77.29509 77.2951" fill-rule="evenodd"></path><path fill="#000000" stroke="#000000" stroke-width="2.0" stroke-linecap="butt" d="m302.3888 172.54395l-3.1807861 0l5.9599915 2.77919l-2.7792053 -5.9599915z" fill-rule="evenodd"></path><path fill="#000000" fill-opacity="0.0" d="m29.225721 175.47244l91.496056 -91.49606" fill-rule="nonzero"></path><path stroke="#000000" stroke-width="2.0" stroke-linejoin="round" stroke-linecap="butt" d="m29.225721 175.47244l86.64943 -86.64942" fill-rule="evenodd"></path><path fill="#000000" stroke="#000000" stroke-width="2.0" stroke-linecap="butt" d="m115.87515 88.82301l0 3.1808014l2.77919 -5.9599915l-5.9599915 2.77919z" fill-rule="evenodd"></path><path fill="#000000" fill-opacity="0.0" d="m221.32545 181.85301l93.16536 -93.16535" fill-rule="nonzero"></path><path stroke="#000000" stroke-width="2.0" stroke-linejoin="round" stroke-linecap="butt" d="m221.32545 181.85301l88.31871 -88.31872" fill-rule="evenodd"></path><path fill="#000000" stroke="#000000" stroke-width="2.0" stroke-linecap="butt" d="m309.6442 93.534294l0 3.1808014l2.7791748 -5.9599915l-5.9599915 2.77919z" fill-rule="evenodd"></path><path fill="#000000" fill-opacity="0.0" d="m53.351707 78.321526l67.37008 0" fill-rule="nonzero"></path><path stroke="#000000" stroke-width="2.0" stroke-linejoin="round" stroke-linecap="butt" d="m53.351707 78.321526l60.5159 0" fill-rule="evenodd"></path><path fill="#000000" stroke="#000000" stroke-width="2.0" stroke-linecap="butt" d="m113.867615 78.321526l-2.2491684 2.2491608l6.179535 -2.2491608l-6.179535 -2.2491684z" fill-rule="evenodd"></path><path fill="#000000" fill-opacity="0.0" d="m415.7034 78.32284l49.13388 0" fill-rule="nonzero"></path><path stroke="#000000" stroke-width="2.0" stroke-linejoin="round" stroke-linecap="butt" d="m415.7034 78.32284l49.13388 0" fill-rule="nonzero"></path><path fill="#000000" fill-opacity="0.0" d="m466.2126 79.884514l0 -66.89764" fill-rule="nonzero"></path><path stroke="#000000" stroke-width="2.0" stroke-linejoin="round" stroke-linecap="butt" d="m466.2126 79.884514l0 -66.89764" fill-rule="nonzero"></path><path fill="#000000" fill-opacity="0.0" d="m464.84778 11.606299l-412.6614 0" fill-rule="nonzero"></path><path stroke="#000000" stroke-width="2.0" stroke-linejoin="round" stroke-linecap="butt" d="m464.84778 11.606299l-412.6614 0" fill-rule="nonzero"></path><path fill="#000000" fill-opacity="0.0" d="m52.44357 77.15223l0 -64.15748" fill-rule="nonzero"></path><path stroke="#000000" stroke-width="2.0" stroke-linejoin="round" stroke-linecap="butt" d="m52.44357 77.15223l0 -64.15748" fill-rule="nonzero"></path><path fill="#000000" fill-opacity="0.0" d="m11.6745405 131.48032l48.503937 0l0 36.0l-48.503937 0z" fill-rule="nonzero"></path><path fill="#000000" d="m24.424541 147.93344l-2.1875 5.8125l-1.390625 0l2.890625 -7.625l-1.15625 -3.109375l1.390625 0l4.015625 10.734375l-1.390625 0l-2.171875 -5.8125z" fill-rule="nonzero"></path><path fill="#000000" d="m31.721416 159.24594l-0.875 0l0 -5.59375q-0.3125 0.296875 -0.828125 0.609375q-0.515625 0.296875 -0.921875 0.4375l0 -0.84375q0.734375 -0.34375 1.28125 -0.828125q0.5625 -0.5 0.78125 -0.96875l0.5625 0l0 7.1875z" fill-rule="nonzero"></path><path fill="#000000" fill-opacity="0.0" d="m250.94751 42.322834l48.503937 0l0 35.999996l-48.503937 0z" fill-rule="nonzero"></path><path fill="#000000" d="m260.9319 67.57284l0 -10.765629l1.203125 0l0 1.015625q0.421875 -0.59375 0.953125 -0.890625q0.546875 -0.296875 1.3125 -0.296875q0.984375 0 1.75 0.515625q0.765625 0.515625 1.140625 1.453125q0.390625 0.921875 0.390625 2.03125q0 1.203125 -0.421875 2.15625q-0.421875 0.953125 -1.25 1.4687538q-0.8125 0.5 -1.71875 0.5q-0.65625 0 -1.1875 -0.265625q-0.515625 -0.28125 -0.84375 -0.7187538l0 3.7968788l-1.328125 0zm1.203125 -6.828129q0 1.5 0.609375 2.21875q0.609375 0.71875 1.46875 0.71875q0.875 0 1.5 -0.734375q0.625 -0.75 0.625 -2.3125q0 -1.484375 -0.609375 -2.21875q-0.609375 -0.75 -1.453125 -0.75q-0.84375 0 -1.5 0.796875q-0.640625 0.78125 -0.640625 2.28125z" fill-rule="nonzero"></path><path fill="#000000" d="m271.81735 70.08846l-0.875 0l0 -5.59375q-0.3125 0.296875 -0.828125 0.609375q-0.515625 0.296875 -0.921875 0.4375l0 -0.84375q0.734375 -0.34375 1.28125 -0.8281288q0.5625 -0.5 0.78125 -0.96875l0.5625 0l0 7.187504zm6.743622 -0.84375l0 0.84375l-4.734375 0q0 -0.3125 0.109375 -0.609375q0.1875 -0.484375 0.578125 -0.953125q0.390625 -0.46875 1.15625 -1.078125q1.15625 -0.96875 1.5625 -1.515625q0.421875 -0.5625 0.421875 -1.0625q0 -0.53125 -0.375 -0.8750038q-0.375 -0.359375 -0.96875 -0.359375q-0.640625 0 -1.03125 0.3750038q-0.375 0.375 -0.375 1.046875l-0.90625 -0.09375q0.09375 -1.0000038 0.6875 -1.5312538q0.609375 -0.53125 1.640625 -0.53125q1.03125 0 1.625 0.578125q0.609375 0.5625038 0.609375 1.4062538q0 0.4375 -0.1875 0.859375q-0.171875 0.40625 -0.578125 0.875q-0.40625 0.453125 -1.359375 1.25q-0.78125 0.65625 -1.015625 0.90625q-0.21875 0.234375 -0.359375 0.46875l3.5 0z" fill-rule="nonzero"></path><path fill="#000000" fill-opacity="0.0" d="m207.19948 139.48032l48.503937 0l0 36.0l-48.503937 0z" fill-rule="nonzero"></path><path fill="#000000" d="m219.94948 155.93344l-2.1875 5.8125l-1.390625 0l2.890625 -7.625l-1.15625 -3.109375l1.390625 0l4.015625 10.734375l-1.390625 0l-2.171875 -5.8125z" fill-rule="nonzero"></path><path fill="#000000" d="m228.55885 166.40219l0 0.84375l-4.734375 0q0 -0.3125 0.109375 -0.609375q0.1875 -0.484375 0.578125 -0.953125q0.390625 -0.46875 1.15625 -1.078125q1.15625 -0.96875 1.5625 -1.515625q0.421875 -0.5625 0.421875 -1.0625q0 -0.53125 -0.375 -0.875q-0.375 -0.359375 -0.96875 -0.359375q-0.640625 0 -1.03125 0.375q-0.375 0.375 -0.375 1.046875l-0.90625 -0.09375q0.09375 -1.0 0.6875 -1.53125q0.609375 -0.53125 1.640625 -0.53125q1.03125 0 1.625 0.578125q0.609375 0.5625 0.609375 1.40625q0 0.4375 -0.1875 0.859375q-0.171875 0.40625 -0.578125 0.875q-0.40625 0.453125 -1.359375 1.25q-0.78125 0.65625 -1.015625 0.90625q-0.21875 0.234375 -0.359375 0.46875l3.5 0z" fill-rule="nonzero"></path><path fill="#000000" fill-opacity="0.0" d="m425.47244 42.322834l48.503937 0l0 33.6378l-48.503937 0z" fill-rule="nonzero"></path><path fill="#000000" d="m435.45682 67.57284l0 -10.765629l1.203125 0l0 1.015625q0.421875 -0.59375 0.953125 -0.890625q0.546875 -0.296875 1.3125 -0.296875q0.984375 0 1.75 0.515625q0.765625 0.515625 1.140625 1.453125q0.390625 0.921875 0.390625 2.03125q0 1.203125 -0.421875 2.15625q-0.421875 0.953125 -1.25 1.4687538q-0.8125 0.5 -1.71875 0.5q-0.65625 0 -1.1875 -0.265625q-0.515625 -0.28125 -0.84375 -0.7187538l0 3.7968788l-1.328125 0zm1.203125 -6.828129q0 1.5 0.609375 2.21875q0.609375 0.71875 1.46875 0.71875q0.875 0 1.5 -0.734375q0.625 -0.75 0.625 -2.3125q0 -1.484375 -0.609375 -2.21875q-0.609375 -0.75 -1.453125 -0.75q-0.84375 0 -1.5 0.796875q-0.640625 0.78125 -0.640625 2.28125z" fill-rule="nonzero"></path><path fill="#000000" d="m447.6548 69.24471l0 0.84375l-4.734375 0q0 -0.3125 0.109375 -0.609375q0.1875 -0.484375 0.578125 -0.953125q0.390625 -0.46875 1.15625 -1.078125q1.15625 -0.96875 1.5625 -1.515625q0.421875 -0.5625 0.421875 -1.0625q0 -0.53125 -0.375 -0.8750038q-0.375 -0.359375 -0.96875 -0.359375q-0.640625 0 -1.03125 0.3750038q-0.375 0.375 -0.375 1.046875l-0.90625 -0.09375q0.09375 -1.0000038 0.6875 -1.5312538q0.609375 -0.53125 1.640625 -0.53125q1.03125 0 1.625 0.578125q0.609375 0.5625038 0.609375 1.4062538q0 0.4375 -0.1875 0.859375q-0.171875 0.40625 -0.578125 0.875q-0.40625 0.453125 -1.359375 1.25q-0.78125 0.65625 -1.015625 0.90625q-0.21875 0.234375 -0.359375 0.46875l3.5 0zm4.118622 0.84375l-0.875 0l0 -5.59375q-0.3125 0.296875 -0.828125 0.609375q-0.515625 0.296875 -0.921875 0.4375l0 -0.84375q0.734375 -0.34375 1.28125 -0.8281288q0.5625 -0.5 0.78125 -0.96875l0.5625 0l0 7.187504z" fill-rule="nonzero"></path><path fill="#000000" fill-opacity="0.0" d="m458.2126 119.50131l65.25989 0l0 33.637802l-65.25989 0z" fill-rule="nonzero"></path><path fill="#000000" d="m472.80634 141.76694l-1.328125 0l0 -8.40625q-0.46875 0.453125 -1.25 0.921875q-0.765625 0.453125 -1.375 0.671875l0 -1.28125q1.09375 -0.515625 1.921875 -1.25q0.828125 -0.734375 1.171875 -1.4375l0.859375 0l0 10.78125zm3.026123 -3.21875l0 -1.328125l4.0625 0l0 1.328125l-4.0625 0zm5.3962708 6.203125l0 -10.765625l1.203125 0l0 1.015625q0.421875 -0.59375 0.953125 -0.890625q0.546875 -0.296875 1.3125 -0.296875q0.984375 0 1.75 0.515625q0.765625 0.515625 1.140625 1.453125q0.390625 0.921875 0.390625 2.03125q0 1.203125 -0.421875 2.15625q-0.421875 0.953125 -1.25 1.46875q-0.8125 0.5 -1.71875 0.5q-0.65625 0 -1.1875 -0.265625q-0.515625 -0.28125 -0.84375 -0.71875l0 3.796875l-1.328125 0zm1.203125 -6.828125q0 1.5 0.609375 2.21875q0.609375 0.71875 1.46875 0.71875q0.875 0 1.5 -0.734375q0.625 -0.75 0.625 -2.3125q0 -1.484375 -0.609375 -2.21875q-0.609375 -0.75 -1.453125 -0.75q-0.84375 0 -1.5 0.796875q-0.640625 0.78125 -0.640625 2.28125z" fill-rule="nonzero"></path><path fill="#000000" d="m493.4267 146.42319l0 0.84375l-4.734375 0q0 -0.3125 0.109375 -0.609375q0.1875 -0.484375 0.578125 -0.953125q0.390625 -0.46875 1.15625 -1.078125q1.15625 -0.96875 1.5625 -1.515625q0.421875 -0.5625 0.421875 -1.0625q0 -0.53125 -0.375 -0.875q-0.375 -0.359375 -0.96875 -0.359375q-0.640625 0 -1.03125 0.375q-0.375 0.375 -0.375 1.046875l-0.90625 -0.09375q0.09375 -1.0 0.6875 -1.53125q0.609375 -0.53125 1.640625 -0.53125q1.03125 0 1.625 0.578125q0.609375 0.5625 0.609375 1.40625q0 0.4375 -0.1875 0.859375q-0.171875 0.40625 -0.578125 0.875q-0.40625 0.453125 -1.359375 1.25q-0.78125 0.65625 -1.015625 0.90625q-0.21875 0.234375 -0.359375 0.46875l3.5 0zm4.118622 0.84375l-0.875 0l0 -5.59375q-0.3125 0.296875 -0.828125 0.609375q-0.515625 0.296875 -0.921875 0.4375l0 -0.84375q0.734375 -0.34375 1.28125 -0.828125q0.5625 -0.5 0.78125 -0.96875l0.5625 0l0 7.1875z" fill-rule="nonzero"></path><path fill="#000000" fill-opacity="0.0" d="m282.9475 130.32283l65.25983 0l0 36.0l-65.25983 0z" fill-rule="nonzero"></path><path fill="#000000" d="m297.54126 152.58846l-1.328125 0l0 -8.40625q-0.46875 0.453125 -1.25 0.921875q-0.765625 0.453125 -1.375 0.671875l0 -1.28125q1.09375 -0.515625 1.921875 -1.25q0.828125 -0.734375 1.171875 -1.4375l0.859375 0l0 10.78125zm3.0260925 -3.21875l0 -1.328125l4.0625 0l0 1.328125l-4.0625 0zm5.3962708 6.203125l0 -10.765625l1.203125 0l0 1.015625q0.421875 -0.59375 0.953125 -0.890625q0.546875 -0.296875 1.3125 -0.296875q0.984375 0 1.75 0.515625q0.765625 0.515625 1.140625 1.453125q0.390625 0.921875 0.390625 2.03125q0 1.203125 -0.421875 2.15625q-0.421875 0.953125 -1.25 1.46875q-0.8125 0.5 -1.71875 0.5q-0.65625 0 -1.1875 -0.265625q-0.515625 -0.28125 -0.84375 -0.71875l0 3.796875l-1.328125 0zm1.203125 -6.828125q0 1.5 0.609375 2.21875q0.609375 0.71875 1.46875 0.71875q0.875 0 1.5 -0.734375q0.625 -0.75 0.625 -2.3125q0 -1.484375 -0.609375 -2.21875q-0.609375 -0.75 -1.453125 -0.75q-0.84375 0 -1.5 0.796875q-0.640625 0.78125 -0.640625 2.28125z" fill-rule="nonzero"></path><path fill="#000000" d="m316.84912 158.08846l-0.875 0l0 -5.59375q-0.3125 0.296875 -0.828125 0.609375q-0.515625 0.296875 -0.921875 0.4375l0 -0.84375q0.734375 -0.34375 1.28125 -0.828125q0.5625 -0.5 0.78125 -0.96875l0.5625 0l0 7.1875zm6.7435913 -0.84375l0 0.84375l-4.734375 0q0 -0.3125 0.109375 -0.609375q0.1875 -0.484375 0.578125 -0.953125q0.390625 -0.46875 1.15625 -1.078125q1.15625 -0.96875 1.5625 -1.515625q0.421875 -0.5625 0.421875 -1.0625q0 -0.53125 -0.375 -0.875q-0.375 -0.359375 -0.96875 -0.359375q-0.640625 0 -1.03125 0.375q-0.375 0.375 -0.375 1.046875l-0.90625 -0.09375q0.09375 -1.0 0.6875 -1.53125q0.609375 -0.53125 1.640625 -0.53125q1.03125 0 1.625 0.578125q0.609375 0.5625 0.609375 1.40625q0 0.4375 -0.1875 0.859375q-0.171875 0.40625 -0.578125 0.875q-0.40625 0.453125 -1.359375 1.25q-0.78125 0.65625 -1.015625 0.90625q-0.21875 0.234375 -0.359375 0.46875l3.5 0z" fill-rule="nonzero"></path></g></svg>

