<?xml version="1.0" standalone="yes"?>

<svg version="1.1" viewBox="0.0 0.0 790.0 357.0" fill="none" stroke="none" stroke-linecap="square" stroke-miterlimit="10" xmlns="http://www.w3.org/2000/svg" xmlns:xlink="http://www.w3.org/1999/xlink"><clipPath id="p.0"><path d="m0 0l790.0 0l0 357.0l-790.0 0l0 -357.0z" clip-rule="nonzero"></path></clipPath><g clip-path="url(#p.0)"><path fill="#000000" fill-opacity="0.0" d="m0 0l790.9344 0l0 357.7953l-790.9344 0z" fill-rule="nonzero"></path><path fill="#000000" fill-opacity="0.0" d="m104.69554 92.86877l33.92125 0l0 134.2362l-33.92125 0z" fill-rule="nonzero"></path><path stroke="#000000" stroke-width="2.0" stroke-linejoin="round" stroke-linecap="butt" d="m104.69554 92.86877l33.92125 0l0 134.2362l-33.92125 0z" fill-rule="nonzero"></path><path fill="#000000" fill-opacity="0.0" d="m140.10498 92.884514l35.40158 0l0 134.23624l-35.40158 0z" fill-rule="nonzero"></path><path stroke="#000000" stroke-width="2.0" stroke-linejoin="round" stroke-linecap="butt" d="m140.10498 92.884514l35.40158 0l0 134.23624l-35.40158 0z" fill-rule="nonzero"></path><path fill="#000000" fill-opacity="0.0" d="m176.9895 92.884514l33.921265 0l0 134.23624l-33.921265 0z" fill-rule="nonzero"></path><path stroke="#000000" stroke-width="2.0" stroke-linejoin="round" stroke-linecap="butt" d="m176.9895 92.884514l33.921265 0l0 134.23624l-33.921265 0z" fill-rule="nonzero"></path><path fill="#000000" fill-opacity="0.0" d="m10.270338 159.98688l94.4252 0" fill-rule="nonzero"></path><path stroke="#000000" stroke-width="2.0" stroke-linejoin="round" stroke-linecap="butt" d="m10.270339 159.98688l82.4252 0" fill-rule="evenodd"></path><path fill="#000000" stroke="#000000" stroke-width="2.0" stroke-linecap="butt" d="m92.69554 163.29034l9.076195 -3.3034668l-9.076195 -3.3034668z" fill-rule="evenodd"></path><path fill="#000000" fill-opacity="0.0" d="m429.28873 92.86877l33.921234 0l0 140.15747l-33.921234 0z" fill-rule="nonzero"></path><path stroke="#000000" stroke-width="2.0" stroke-linejoin="round" stroke-linecap="butt" d="m429.28873 92.86877l33.921234 0l0 140.15747l-33.921234 0z" fill-rule="nonzero"></path><path fill="#000000" fill-opacity="0.0" d="m464.6972 92.69568l35.40158 0l0 140.34647l-35.40158 0z" fill-rule="nonzero"></path><path stroke="#000000" stroke-width="2.0" stroke-linejoin="round" stroke-linecap="butt" d="m464.6972 92.69568l35.40158 0l0 140.34647l-35.40158 0z" fill-rule="nonzero"></path><path fill="#000000" fill-opacity="0.0" d="m501.58157 92.69568l33.921234 0l0 140.34647l-33.921234 0z" fill-rule="nonzero"></path><path stroke="#000000" stroke-width="2.0" stroke-linejoin="round" stroke-linecap="butt" d="m501.58157 92.69568l33.921234 0l0 140.34647l-33.921234 0z" fill-rule="nonzero"></path><path fill="#000000" fill-opacity="0.0" d="m42.727036 306.8042c26.537895 -5.0091248 65.25701 -4.756073 75.25352 -33.04074c5.003792 -14.1579895 6.1415787 -29.967789 6.1415787 -45.21753" fill-rule="evenodd"></path><path stroke="#000000" stroke-width="2.0" stroke-linejoin="round" stroke-linecap="butt" d="m42.727036 306.80417c26.537895 -5.009094 65.25701 -4.756073 75.25352 -33.04071c2.501892 -7.0789795 4.037285 -14.570923 4.94722 -22.199356c0.2274704 -1.9071198 0.41586304 -3.8227386 0.570488 -5.742584c0.077308655 -0.95991516 0.14618683 -1.9208832 0.20728302 -2.88237c0.030540466 -0.48075867 0.059150696 -0.96162415 0.08589935 -1.4425507l0.04940796 -0.95396423" fill-rule="evenodd"></path><path fill="#000000" stroke="#000000" stroke-width="2.0" stroke-linecap="butt" d="m127.14341 240.62007l-3.0898056 -9.151138l-3.5153122 8.996262z" fill-rule="evenodd"></path><path fill="#000000" fill-opacity="0.0" d="m212.3937 159.98688l0 0c0 -37.068306 30.924072 -67.11811 69.07086 -67.11811l0 0c18.318726 0 35.887177 7.07135 48.840485 19.65844c12.953278 12.58709 20.230377 29.658844 20.230377 47.45967l0 0c0 37.068314 -30.924072 67.1181 -69.07086 67.1181l0 0c-38.14679 0 -69.07086 -30.04979 -69.07086 -67.1181z" fill-rule="nonzero"></path><path stroke="#000000" stroke-width="2.0" stroke-linejoin="round" stroke-linecap="butt" d="m212.3937 159.98688l0 0c0 -37.068306 30.924072 -67.11811 69.07086 -67.11811l0 0c18.318726 0 35.887177 7.07135 48.840485 19.65844c12.953278 12.58709 20.230377 29.658844 20.230377 47.45967l0 0c0 37.068314 -30.924072 67.1181 -69.07086 67.1181l0 0c-38.14679 0 -69.07086 -30.04979 -69.07086 -67.1181z" fill-rule="nonzero"></path><path fill="#000000" fill-opacity="0.0" d="m350.53543 159.98688l76.8504 1.7637787" fill-rule="nonzero"></path><path stroke="#000000" stroke-width="2.0" stroke-linejoin="round" stroke-linecap="butt" d="m350.53543 159.98688l64.853546 1.4884491" fill-rule="evenodd"></path><path fill="#000000" stroke="#000000" stroke-width="2.0" stroke-linecap="butt" d="m415.3132 164.77791l9.149597 -3.094345l-8.998016 -3.5108337z" fill-rule="evenodd"></path><path fill="#000000" fill-opacity="0.0" d="m537.41205 159.98688l0 0c0 -37.068306 30.924133 -67.11811 69.07086 -67.11811l0 0c18.318787 0 35.887207 7.07135 48.840515 19.65844c12.953308 12.58709 20.230408 29.658844 20.230408 47.45967l0 0c0 37.068314 -30.924133 67.1181 -69.07092 67.1181l0 0c-38.14673 0 -69.07086 -30.04979 -69.07086 -67.1181z" fill-rule="nonzero"></path><path stroke="#000000" stroke-width="2.0" stroke-linejoin="round" stroke-linecap="butt" d="m537.41205 159.98688l0 0c0 -37.068306 30.924133 -67.11811 69.07086 -67.11811l0 0c18.318787 0 35.887207 7.07135 48.840515 19.65844c12.953308 12.58709 20.230408 29.658844 20.230408 47.45967l0 0c0 37.068314 -30.924133 67.1181 -69.07092 67.1181l0 0c-38.14673 0 -69.07086 -30.04979 -69.07086 -67.1181z" fill-rule="nonzero"></path><path fill="#000000" fill-opacity="0.0" d="m675.55383 159.98688l76.85034 1.7637787" fill-rule="nonzero"></path><path stroke="#000000" stroke-width="2.0" stroke-linejoin="round" stroke-linecap="butt" d="m675.55383 159.98688l64.85358 1.4884491" fill-rule="evenodd"></path><path fill="#000000" stroke="#000000" stroke-width="2.0" stroke-linecap="butt" d="m740.33154 164.77791l9.149597 -3.094345l-8.997986 -3.5108337z" fill-rule="evenodd"></path><path fill="#000000" fill-opacity="0.0" d="m199.86089 7.414698l61.85826 0l0 54.96063l-61.85826 0z" fill-rule="nonzero"></path><path fill="#000000" d="m213.86089 23.742823l8.34375 0q3.28125 0 4.90625 1.421875q1.625 1.40625 1.625 3.4375q0 1.609375 -1.03125 3.125q-1.03125 1.5156269 -3.0625 2.468752q-2.03125 0.9375 -4.390625 0.9375q-1.46875 0 -3.734375 -0.53125l-1.6875 5.78125q-0.59375 2.0625 -0.59375 2.71875q0 0.5 0.421875 0.828125q0.421875 0.328125 2.015625 0.421875l-0.15625 0.578125l-8.421875 0l0.171875 -0.578125q1.65625 0 2.296875 -0.5625q0.65625 -0.578125 1.40625 -3.15625l3.5 -12.062502q0.625 -2.171875 0.625 -2.90625q0 -0.546875 -0.453125 -0.90625q-0.4375 -0.359375 -1.953125 -0.4375l0.171875 -0.578125zm2.921875 9.875002q1.765625 0.453125 2.84375 0.453125q1.703125 0 3.09375 -0.703125q1.40625 -0.703125 2.1875 -2.109377q0.796875 -1.40625 0.796875 -2.921875q0 -1.578125 -0.96875 -2.5q-0.96875 -0.921875 -2.9375 -0.921875q-1.0625 0 -2.578125 0.265625l-2.4375 8.437502z" fill-rule="nonzero"></path><path fill="#000000" fill-opacity="0.0" d="m524.05774 7.414698l61.858276 0l0 54.96063l-61.858276 0z" fill-rule="nonzero"></path><path fill="#000000" d="m542.4171 45.4147l-4.03125 3.265625q0.953125 -0.171875 1.765625 -0.171875q0.78125 0 1.4375 0.09375q0.671875 0.09375 2.84375 0.578125q2.1875 0.5 3.8125 0.5q1.734375 0 2.9375 -0.609375q1.21875 -0.59375 2.359375 -2.0l0.515625 0.25q-1.609375 2.3125 -3.796875 3.328125q-2.1875 1.03125 -4.640625 1.03125q-1.359375 0 -3.71875 -0.53125q-3.609375 -0.796875 -5.046875 -0.796875q-0.546875 0 -0.890625 0.078125q-0.34375 0.078125 -1.03125 0.375l-0.359375 -0.421875l6.40625 -5.0625q-2.96875 -0.40625 -4.5 -2.609375q-1.53125 -2.203125 -1.53125 -4.703125q0 -3.421875 2.0625 -7.078127q2.078125 -3.65625 5.296875 -5.65625q3.234375 -2.015625 6.34375 -2.015625q2.3125 0 3.9375 0.9375q1.640625 0.9375 2.53125 2.734375q0.890625 1.78125 0.890625 3.65625q0 3.593752 -2.046875 7.281252q-2.046875 3.6875 -5.09375 5.59375q-3.03125 1.890625 -6.453125 1.953125zm5.859375 -21.156252q-1.5625 0 -3.0625 0.78125q-1.484375 0.765625 -2.953125 2.53125q-1.46875 1.75 -2.640625 4.593752q-1.421875 3.5 -1.421875 6.609375q0 2.21875 1.140625 3.9375q1.140625 1.703125 3.5 1.703125q1.40625 0 2.78125 -0.703125q1.375 -0.703125 2.84375 -2.390625q1.875 -2.15625 3.140625 -5.484375q1.265625 -3.328125 1.265625 -6.187502q0 -2.109375 -1.140625 -3.75q-1.140625 -1.640625 -3.453125 -1.640625z" fill-rule="nonzero"></path><path fill="#000000" fill-opacity="0.0" d="m9.566929 111.98688l56.7559 0l0 48.0l-56.7559 0z" fill-rule="nonzero"></path><path fill="#000000" d="m31.316929 140.94l0.46875 0q0 2.078125 -0.6875 3.03125q-0.671875 0.953125 -1.6875 0.953125q-0.828125 0 -1.59375 -0.625q-0.765625 -0.625 -1.359375 -3.359375l-1.140625 -5.109375l-3.921875 8.90625l-2.5 0l5.640625 -12.15625q-0.4375 -2.359375 -1.078125 -3.484375q-0.625 -1.140625 -1.5625 -1.140625q-0.75 0 -1.3125 0.578125q-0.5625 0.5625 -0.625 1.765625l-0.484375 0q0.046875 -1.9375 0.78125 -3.09375q0.734375 -1.171875 1.84375 -1.171875q0.71875 0 1.359375 0.59375q0.640625 0.578125 1.09375 2.0q0.46875 1.40625 1.46875 5.859375l0.9375 4.1875q0.5625 2.59375 1.1875 3.46875q0.625 0.875 1.5 0.875q1.46875 0 1.671875 -2.078125z" fill-rule="nonzero"></path><path fill="#000000" fill-opacity="0.0" d="m210.81627 129.74934l104.40944 0l0 66.39371l-104.40944 0z" fill-rule="nonzero"></path><path fill="#000000" d="m270.3944 150.42122l2.171875 0l0 7.03125q0 1.90625 0.234375 2.609375q0.171875 0.53125 0.625 0.859375q0.46875 0.328125 1.015625 0.328125q1.546875 0 3.109375 -1.765625l0 -9.0625l2.171875 0l0 8.625q0 1.3125 0.109375 1.71875q0.09375 0.328125 0.3125 0.5q0.21875 0.171875 0.46875 0.171875q0.34375 0 0.578125 -0.28125q0.34375 -0.40625 0.5 -1.34375l0.546875 0q-0.125 1.59375 -0.84375 2.328125q-0.703125 0.734375 -1.765625 0.734375q-1.03125 0 -1.578125 -0.765625q-0.40625 -0.578125 -0.5 -1.75q-1.15625 1.34375 -2.140625 1.9375q-0.984375 0.578125 -2.0 0.578125q-0.703125 0 -1.21875 -0.28125q-0.359375 -0.21875 -0.828125 -0.84375q-0.015625 0.40625 -0.015625 0.609375q0 1.03125 0.453125 3.140625q0.171875 0.8125 0.171875 1.375q0 0.640625 -0.375 1.046875q-0.359375 0.40625 -0.875 0.40625q-0.484375 0 -0.8125 -0.390625q-0.328125 -0.375 -0.328125 -1.046875q0 -0.609375 0.390625 -2.171875q0.25 -1.0625 0.28125 -1.375q0.15625 -1.359375 0.15625 -2.359375q0 -0.0625 -0.015625 -0.984375l0 -9.578125z" fill-rule="nonzero"></path><path fill="#000000" d="m285.28424 161.74934l2.90625 -1.421875l0.28125 0l0 10.078125q0 1.0 0.078125 1.25q0.09375 0.234375 0.359375 0.375q0.265625 0.125 1.0625 0.140625l0 0.328125l-4.46875 0l0 -0.328125q0.84375 -0.015625 1.078125 -0.140625q0.25 -0.125 0.34375 -0.34375q0.09375 -0.21875 0.09375 -1.28125l0 -6.4375q0 -1.296875 -0.078125 -1.671875q-0.0625 -0.28125 -0.234375 -0.40625q-0.15625 -0.140625 -0.390625 -0.140625q-0.3125 0 -0.90625 0.265625l-0.125 -0.265625z" fill-rule="nonzero"></path><path fill="#000000" fill-opacity="0.0" d="m535.6221 126.79002l104.409424 0l0 66.39371l-104.409424 0z" fill-rule="nonzero"></path><path fill="#000000" d="m595.2002 147.4619l2.171875 0l0 7.03125q0 1.90625 0.234375 2.609375q0.171875 0.53125 0.625 0.859375q0.46875 0.328125 1.015625 0.328125q1.546875 0 3.109375 -1.765625l0 -9.0625l2.171875 0l0 8.625q0 1.3125 0.109375 1.71875q0.09375 0.328125 0.3125 0.5q0.21875 0.171875 0.46875 0.171875q0.34375 0 0.578125 -0.28125q0.34375 -0.40625 0.5 -1.34375l0.546875 0q-0.125 1.59375 -0.84375 2.328125q-0.703125 0.734375 -1.765625 0.734375q-1.03125 0 -1.578125 -0.765625q-0.40625 -0.578125 -0.5 -1.75q-1.15625 1.34375 -2.140625 1.9375q-0.984375 0.578125 -2.0 0.578125q-0.703125 0 -1.21875 -0.28125q-0.359375 -0.21875 -0.828125 -0.84375q-0.015625 0.40625 -0.015625 0.609375q0 1.03125 0.453125 3.140625q0.171875 0.8125 0.171875 1.375q0 0.640625 -0.375 1.046875q-0.359375 0.40625 -0.875 0.40625q-0.484375 0 -0.8125 -0.390625q-0.328125 -0.375 -0.328125 -1.046875q0 -0.609375 0.390625 -2.171875q0.25 -1.0625 0.28125 -1.375q0.15625 -1.359375 0.15625 -2.359375q0 -0.0625 -0.015625 -0.984375l0 -9.578125z" fill-rule="nonzero"></path><path fill="#000000" d="m616.23065 167.24315l-0.828125 2.296875l-7.03125 0l0 -0.328125q3.09375 -2.828125 4.359375 -4.609375q1.265625 -1.796875 1.265625 -3.296875q0 -1.125 -0.703125 -1.84375q-0.6875 -0.734375 -1.640625 -0.734375q-0.890625 0 -1.59375 0.515625q-0.6875 0.5 -1.015625 1.5l-0.328125 0q0.21875 -1.625 1.125 -2.5q0.90625 -0.875 2.265625 -0.875q1.453125 0 2.421875 0.9375q0.984375 0.9375 0.984375 2.203125q0 0.90625 -0.421875 1.8125q-0.65625 1.421875 -2.109375 3.015625q-2.203125 2.390625 -2.734375 2.875l3.109375 0q0.9375 0 1.3125 -0.0625q0.390625 -0.078125 0.703125 -0.296875q0.3125 -0.21875 0.53125 -0.609375l0.328125 0z" fill-rule="nonzero"></path><path fill="#000000" fill-opacity="0.0" d="m365.25525 111.973755l78.20471 0l0 48.0l-78.20471 0z" fill-rule="nonzero"></path><path fill="#000000" d="m381.94275 145.0675q-1.859375 1.4375 -2.328125 1.65625q-0.71875 0.328125 -1.515625 0.328125q-1.265625 0 -2.078125 -0.859375q-0.796875 -0.859375 -0.796875 -2.25q0 -0.890625 0.390625 -1.53125q0.546875 -0.890625 1.875 -1.6875q1.34375 -0.796875 4.453125 -1.921875l0 -0.484375q0 -1.796875 -0.578125 -2.46875q-0.5625 -0.671875 -1.671875 -0.671875q-0.828125 0 -1.3125 0.4375q-0.5 0.453125 -0.5 1.03125l0.03125 0.765625q0 0.609375 -0.3125 0.9375q-0.3125 0.328125 -0.8125 0.328125q-0.484375 0 -0.796875 -0.34375q-0.3125 -0.34375 -0.3125 -0.9375q0 -1.125 1.15625 -2.078125q1.171875 -0.953125 3.265625 -0.953125q1.609375 0 2.640625 0.546875q0.765625 0.40625 1.140625 1.28125q0.234375 0.5625 0.234375 2.3125l0 4.109375q0 1.71875 0.0625 2.109375q0.078125 0.390625 0.21875 0.53125q0.15625 0.125 0.359375 0.125q0.203125 0 0.359375 -0.09375q0.28125 -0.171875 1.078125 -0.96875l0 0.75q-1.484375 1.96875 -2.828125 1.96875q-0.640625 0 -1.03125 -0.4375q-0.375 -0.453125 -0.390625 -1.53125zm0 -0.859375l0 -4.609375q-1.984375 0.796875 -2.578125 1.125q-1.03125 0.578125 -1.484375 1.21875q-0.453125 0.625 -0.453125 1.375q0 0.953125 0.5625 1.578125q0.578125 0.625 1.3125 0.625q1.0 0 2.640625 -1.3125z" fill-rule="nonzero"></path><path fill="#000000" d="m388.19595 146.05188l2.90625 -1.421875l0.28125 0l0 10.078125q0 1.0 0.078125 1.25q0.09375 0.234375 0.359375 0.375q0.265625 0.125 1.0625 0.140625l0 0.328125l-4.46875 0l0 -0.328125q0.84375 -0.015625 1.078125 -0.140625q0.25 -0.125 0.34375 -0.34375q0.09375 -0.21875 0.09375 -1.28125l0 -6.4375q0 -1.296875 -0.078125 -1.671875q-0.0625 -0.28125 -0.234375 -0.40625q-0.15625 -0.140625 -0.390625 -0.140625q-0.3125 0 -0.90625 0.265625l-0.125 -0.265625zm15.023285 8.453125l-0.828125 2.296875l-7.03125 0l0 -0.328125q3.09375 -2.828125 4.359375 -4.609375q1.265625 -1.796875 1.265625 -3.296875q0 -1.125 -0.703125 -1.84375q-0.6875 -0.734375 -1.640625 -0.734375q-0.890625 0 -1.59375 0.515625q-0.6875 0.5 -1.015625 1.5l-0.328125 0q0.21875 -1.625 1.125 -2.5q0.90625 -0.875 2.265625 -0.875q1.453125 0 2.421875 0.9375q0.984375 0.9375 0.984375 2.203125q0 0.90625 -0.421875 1.8125q-0.65625 1.421875 -2.109375 3.015625q-2.203125 2.390625 -2.734375 2.875l3.109375 0q0.9375 0 1.3125 -0.0625q0.390625 -0.078125 0.703125 -0.296875q0.3125 -0.21875 0.53125 -0.609375l0.328125 0z" fill-rule="nonzero"></path><path fill="#000000" d="m408.55505 135.5675l0 -4.390625l-4.375 0l0 -0.71875l4.375 0l0 -4.375l0.703125 0l0 4.375l4.390625 0l0 0.71875l-4.390625 0l0 4.390625l-0.703125 0z" fill-rule="nonzero"></path><path fill="#000000" fill-opacity="0.0" d="m420.63516 228.54486l65.13388 0l0 48.0l-65.13388 0z" fill-rule="nonzero"></path><path fill="#000000" d="m441.76016 267.998q-0.25 0 -0.90625 -0.578125q-0.59375 -0.546875 -0.875 -0.96875q-1.265625 0.6875 -2.234375 1.03125q-0.96875 0.359375 -1.609375 0.359375q-3.078125 0 -4.5 -1.75q-1.328125 -1.625 -1.328125 -5.0q0 -3.203125 2.1875 -5.46875q2.203125 -2.265625 5.25 -2.265625q1.140625 0 2.5625 0.59375q1.796875 0.734375 1.796875 1.78125q0 0.359375 -0.265625 0.625q-0.125 0.515625 -0.203125 1.65625q-0.0625 1.140625 -0.078125 2.9375q-0.015625 1.640625 0.21875 2.578125q0.140625 0.59375 0.828125 2.328125q0.09375 0.234375 0.3125 0.703125l0.078125 0.21875q0 0.53125 -0.375 0.875q-0.375 0.34375 -0.859375 0.34375zm-2.734375 -9.171875q0 -0.5625 0.0625 -1.21875q0.078125 -0.671875 0.21875 -1.421875q-0.484375 -0.25 -0.84375 -0.375q-0.34375 -0.125 -0.546875 -0.125q-2.046875 0 -3.53125 1.671875q-1.484375 1.671875 -1.484375 3.84375q0 2.171875 0.765625 3.25q0.765625 1.078125 2.296875 1.078125q1.265625 0 2.15625 -0.46875q0.46875 -0.25 1.328125 -1.0q-0.421875 -3.484375 -0.421875 -5.234375z" fill-rule="nonzero"></path><path fill="#000000" d="m449.46317 277.1386l-1.75 0l-1.734375 -0.015625q-0.625 0 -0.859375 -0.078125q-0.453125 -0.15625 -0.453125 -0.671875q0 -0.890625 1.375 -0.890625l0.421875 0.015625l0.359375 0.015625q0 -0.421875 -0.078125 -1.25q-0.0625 -0.828125 -0.0625 -1.234375q0 -1.125 0.203125 -3.390625q0.1875 -2.25 0.171875 -3.40625q-1.171875 0.921875 -1.5 0.921875q-0.34375 0 -0.609375 -0.265625q-0.25 -0.265625 -0.25 -0.609375q0 -0.421875 0.75 -1.0q0.46875 -0.34375 1.34375 -1.078125q0.78125 -0.78125 1.484375 -0.78125q0.578125 0 0.578125 0.671875q0 0.203125 -0.0625 0.609375q-0.046875 0.390625 -0.046875 0.59375q0 0.296875 0.03125 0.890625q0.03125 0.578125 0.03125 0.875q0 1.0 -0.21875 2.984375q-0.203125 1.984375 -0.203125 2.984375q0 0.5 0.0625 1.234375q0.078125 0.734375 0.09375 1.203125l0.921875 -0.015625q0.375 0 0.609375 0.234375q0.25 0.234375 0.25 0.609375q0 0.359375 -0.25 0.609375q-0.234375 0.234375 -0.609375 0.234375zm10.669769 0q-0.21875 0 -0.625 -0.125q-0.390625 -0.140625 -0.609375 -0.140625q-0.4375 0 -1.34375 0.046875q-0.890625 0.046875 -1.34375 0.046875q-0.34375 0 -1.015625 0.09375q-0.671875 0.09375 -1.015625 0.09375q-0.109375 0 -0.296875 -0.03125q-0.171875 -0.046875 -0.265625 -0.046875q-0.609375 0 -0.796875 -0.59375q-0.109375 -0.296875 -0.109375 -1.046875q0 -2.046875 1.125 -3.296875q0.5 -0.578125 2.75 -2.109375q1.25 -0.859375 1.671875 -1.34375q0.765625 -0.84375 0.765625 -1.984375q0 -0.5625 -0.734375 -1.0q-0.640625 -0.390625 -1.265625 -0.390625q-0.796875 0 -1.53125 0.46875l-1.25 0.984375q-0.390625 0.296875 -0.609375 0.296875q-0.90625 0 -0.90625 -0.71875q0 -0.421875 0.328125 -0.71875q1.03125 -0.96875 1.78125 -1.390625q1.0625 -0.609375 2.1875 -0.609375q1.4375 0 2.546875 0.765625q1.25 0.875 1.25 2.234375q0 0.90625 -0.265625 1.65625q-0.25 0.75 -0.765625 1.375q-0.65625 0.796875 -2.234375 1.765625q-1.65625 1.046875 -2.171875 1.578125q-0.96875 1.015625 -0.953125 2.453125l1.8125 -0.171875q1.859375 -0.09375 2.65625 -0.09375q0.671875 0 1.265625 0.21875q0.796875 0.3125 0.796875 0.859375q0 0.34375 -0.234375 0.609375q-0.234375 0.265625 -0.59375 0.265625z" fill-rule="nonzero"></path><path fill="#000000" d="m468.08542 252.95111q-1.203125 0.125 -4.25 0.125q-0.75 0 -0.75 -0.6875q0 -0.6875 0.75 -0.6875q0.6875 0 2.078125 -0.0625q1.390625 -0.0625 2.078125 -0.0625q0.78125 0 0.78125 0.6875q0 0.609375 -0.6875 0.6875z" fill-rule="nonzero"></path><path fill="#000000" fill-opacity="0.0" d="m173.70604 271.2861l76.85039 0l0 54.960632l-76.85039 0z" fill-rule="nonzero"></path><path fill="#000000" d="m190.39354 304.37985q-1.859375 1.4375 -2.328125 1.65625q-0.71875 0.328125 -1.515625 0.328125q-1.265625 0 -2.078125 -0.859375q-0.796875 -0.859375 -0.796875 -2.25q0 -0.890625 0.390625 -1.53125q0.546875 -0.890625 1.875 -1.6875q1.34375 -0.796875 4.453125 -1.921875l0 -0.484375q0 -1.796875 -0.578125 -2.46875q-0.5625 -0.671875 -1.671875 -0.671875q-0.828125 0 -1.3125 0.4375q-0.5 0.453125 -0.5 1.03125l0.03125 0.765625q0 0.609375 -0.3125 0.9375q-0.3125 0.328125 -0.8125 0.328125q-0.484375 0 -0.796875 -0.34375q-0.3125 -0.34375 -0.3125 -0.9375q0 -1.125 1.15625 -2.078125q1.171875 -0.953125 3.265625 -0.953125q1.609375 0 2.640625 0.546875q0.765625 0.40625 1.140625 1.28125q0.234375 0.5625 0.234375 2.3125l0 4.109375q0 1.71875 0.0625 2.109375q0.078125 0.390625 0.21875 0.53125q0.15625 0.125 0.359375 0.125q0.203125 0 0.359375 -0.09375q0.28125 -0.171875 1.078125 -0.96875l0 0.75q-1.484375 1.96875 -2.828125 1.96875q-0.640625 0 -1.03125 -0.4375q-0.375 -0.453125 -0.390625 -1.53125zm0 -0.859375l0 -4.609375q-1.984375 0.796875 -2.578125 1.125q-1.03125 0.578125 -1.484375 1.21875q-0.453125 0.625 -0.453125 1.375q0 0.953125 0.5625 1.578125q0.578125 0.625 1.3125 0.625q1.0 0 2.640625 -1.3125z" fill-rule="nonzero"></path><path fill="#000000" d="m202.78735 313.81735l-0.828125 2.296875l-7.03125 0l0 -0.328125q3.09375 -2.828125 4.359375 -4.609375q1.265625 -1.796875 1.265625 -3.296875q0 -1.125 -0.703125 -1.84375q-0.6875 -0.734375 -1.640625 -0.734375q-0.890625 0 -1.59375 0.515625q-0.6875 0.5 -1.015625 1.5l-0.328125 0q0.21875 -1.625 1.125 -2.5q0.90625 -0.875 2.265625 -0.875q1.453125 0 2.421875 0.9375q0.984375 0.9375 0.984375 2.203125q0 0.90625 -0.421875 1.8125q-0.65625 1.421875 -2.109375 3.015625q-2.203125 2.390625 -2.734375 2.875l3.109375 0q0.9375 0 1.3125 -0.0625q0.390625 -0.078125 0.703125 -0.296875q0.3125 -0.21875 0.53125 -0.609375l0.328125 0zm2.7420502 -8.453125l2.90625 -1.421875l0.28125 0l0 10.078125q0 1.0 0.078125 1.25q0.09375 0.234375 0.359375 0.375q0.265625 0.125 1.0625 0.140625l0 0.328125l-4.46875 0l0 -0.328125q0.84375 -0.015625 1.078125 -0.140625q0.25 -0.125 0.34375 -0.34375q0.09375 -0.21875 0.09375 -1.28125l0 -6.4375q0 -1.296875 -0.078125 -1.671875q-0.0625 -0.28125 -0.234375 -0.40625q-0.15625 -0.140625 -0.390625 -0.140625q-0.3125 0 -0.90625 0.265625l-0.125 -0.265625z" fill-rule="nonzero"></path><path fill="#000000" d="m213.03708 291.4111l4.546875 0l0 1.328125l-4.546875 0l0 -1.328125z" fill-rule="nonzero"></path><path fill="#000000" fill-opacity="0.0" d="m60.94488 291.98163l55.181103 0l0 48.0l-55.181103 0z" fill-rule="nonzero"></path><path fill="#000000" d="m73.569885 330.51288l-2.171875 0q0.46875 -2.234375 0.46875 -4.046875l0 -14.34375q0 -2.25 0.40625 -3.34375q0.40625 -1.09375 1.5625 -1.921875q1.171875 -0.84375 2.921875 -0.84375q2.09375 0 3.5 1.109375q1.421875 1.09375 1.421875 3.125q0 2.375 -2.25 3.890625q3.359375 1.578125 3.359375 4.96875q0 1.84375 -0.890625 3.296875q-0.890625 1.453125 -2.0625 2.078125q-1.15625 0.625 -2.78125 0.625q-1.84375 0 -3.015625 -1.390625l0 2.453125q0 2.53125 -0.46875 4.34375zm0.46875 -7.984375q1.03125 1.703125 2.875 1.703125q1.78125 0 2.609375 -1.296875q0.84375 -1.296875 0.84375 -3.15625q0 -1.421875 -0.546875 -2.90625q-0.546875 -1.484375 -1.40625 -2.265625q-0.796875 0.203125 -1.421875 0.203125q-1.34375 0 -1.34375 -0.703125q0 -0.640625 1.125 -0.640625q0.703125 0 1.734375 0.328125q0.9375 -1.59375 0.9375 -3.453125q0 -1.65625 -0.734375 -2.53125q-0.71875 -0.890625 -1.890625 -0.890625q-0.9375 0 -1.609375 0.53125q-0.671875 0.53125 -0.921875 1.265625q-0.25 0.71875 -0.25 2.390625l0 11.421875z" fill-rule="nonzero"></path><path fill="#000000" fill-opacity="0.0" d="m173.47507 228.79265c22.235779 7.902008 85.45145 46.67717 133.4147 47.412064c47.963257 0.7349243 128.63736 -35.83551 154.36484 -43.00261" fill-rule="nonzero"></path><path stroke="#000000" stroke-width="2.0" stroke-linejoin="round" stroke-linecap="butt" d="m173.47507 228.79265c22.235794 7.902008 85.45145 46.67717 133.4147 47.412064c23.981628 0.36746216 56.14096 -8.591431 85.52081 -18.538055c14.689941 -4.9733124 28.684998 -10.193558 40.61554 -14.618423c5.9653015 -2.2124329 11.414459 -4.2260284 16.17627 -5.9104767l0.6403198 -0.2250061" fill-rule="evenodd"></path><path fill="#000000" stroke="#000000" stroke-width="2.0" stroke-linecap="butt" d="m450.86423 240.05432l7.6098633 -5.94812l-9.652893 -0.3350067z" fill-rule="evenodd"></path><path fill="#000000" fill-opacity="0.0" d="m493.22833 235.40683c-9.18808 10.842514 -16.721344 54.212585 -55.1286 65.055115c-38.407257 10.842529 -125.88144 11.761139 -175.31494 0c-49.433517 -11.761169 -101.07175 -58.80577 -121.2861 -70.566925" fill-rule="nonzero"></path><path stroke="#000000" stroke-width="2.0" stroke-linejoin="round" stroke-linecap="butt" d="m493.22833 235.40683c-9.18811 10.842514 -16.721313 54.212585 -55.1286 65.055115c-38.407257 10.842529 -125.88144 11.761139 -175.31494 0c-24.716751 -5.8805847 -49.984695 -20.582031 -71.60025 -35.283478c-10.8077545 -7.350708 -20.702423 -14.701431 -29.158554 -20.94954c-2.114029 -1.5620422 -4.138153 -3.0551453 -6.064163 -4.4621277c-0.96299744 -0.70347595 -1.901474 -1.385437 -2.814392 -2.0437012c-0.45645142 -0.32913208 -0.90652466 -0.6523285 -1.3500671 -0.9693451l-0.3045807 -0.21659851" fill-rule="evenodd"></path><path fill="#000000" stroke="#000000" stroke-width="2.0" stroke-linecap="butt" d="m153.32129 233.7859l-9.387543 -2.272522l5.73053 7.7750397z" fill-rule="evenodd"></path></g></svg>

