<?xml version="1.0" standalone="yes"?>

<svg version="1.1" viewBox="0.0 0.0 492.0 330.0" fill="none" stroke="none" stroke-linecap="square" stroke-miterlimit="10" xmlns="http://www.w3.org/2000/svg" xmlns:xlink="http://www.w3.org/1999/xlink"><clipPath id="p.0"><path d="m0 0l492.0 0l0 330.0l-492.0 0l0 -330.0z" clip-rule="nonzero"></path></clipPath><g clip-path="url(#p.0)"><path fill="#000000" fill-opacity="0.0" d="m0 0l492.30447 0l0 330.94226l-492.30447 0z" fill-rule="nonzero"></path><path fill="#000000" fill-opacity="0.0" d="m219.48557 172.51706l66.77164 0" fill-rule="nonzero"></path><path stroke="#000000" stroke-width="2.0" stroke-linejoin="round" stroke-linecap="butt" d="m219.48557 172.51706l59.91748 0" fill-rule="evenodd"></path><path fill="#000000" stroke="#000000" stroke-width="2.0" stroke-linecap="butt" d="m279.40305 172.51706l-2.249176 2.2491608l6.179535 -2.2491608l-6.179535 -2.2491608z" fill-rule="evenodd"></path><path fill="#000000" fill-opacity="0.0" d="m22.871391 50.598427l0 0c0 -8.419083 6.825014 -15.244095 15.244095 -15.244095l0 0c4.042984 0 7.9203796 1.6060677 10.7792015 4.4648895c2.8588219 2.8588219 4.4648933 6.7362175 4.4648933 10.779205l0 0c0 8.419079 -6.825016 15.244095 -15.244095 15.244095l0 0c-8.419081 0 -15.244095 -6.825016 -15.244095 -15.244095z" fill-rule="nonzero"></path><path stroke="#000000" stroke-width="2.0" stroke-linejoin="round" stroke-linecap="butt" d="m22.871391 50.598427l0 0c0 -8.419083 6.825014 -15.244095 15.244095 -15.244095l0 0c4.042984 0 7.9203796 1.6060677 10.7792015 4.4648895c2.8588219 2.8588219 4.4648933 6.7362175 4.4648933 10.779205l0 0c0 8.419079 -6.825016 15.244095 -15.244095 15.244095l0 0c-8.419081 0 -15.244095 -6.825016 -15.244095 -15.244095z" fill-rule="nonzero"></path><path fill="#000000" fill-opacity="0.0" d="m142.87138 170.59842l0 0c0 -8.419067 6.8250275 -15.244095 15.244095 -15.244095l0 0c4.0429993 0 7.9203796 1.6060791 10.779205 4.464905c2.8588257 2.8588104 4.4648895 6.736206 4.4648895 10.77919l0 0c0 8.419083 -6.825012 15.244095 -15.244095 15.244095l0 0c-8.419067 0 -15.244095 -6.825012 -15.244095 -15.244095z" fill-rule="nonzero"></path><path stroke="#000000" stroke-width="2.0" stroke-linejoin="round" stroke-linecap="butt" d="m142.87138 170.59842l0 0c0 -8.419067 6.8250275 -15.244095 15.244095 -15.244095l0 0c4.0429993 0 7.9203796 1.6060791 10.779205 4.464905c2.8588257 2.8588104 4.4648895 6.736206 4.4648895 10.77919l0 0c0 8.419083 -6.825012 15.244095 -15.244095 15.244095l0 0c-8.419067 0 -15.244095 -6.825012 -15.244095 -15.244095z" fill-rule="nonzero"></path><path fill="#000000" fill-opacity="0.0" d="m22.871391 298.59842l0 0c0 -8.419067 6.825014 -15.24408 15.244095 -15.24408l0 0c4.042984 0 7.9203796 1.6060486 10.7792015 4.4648743c2.8588219 2.8588257 4.4648933 6.7362366 4.4648933 10.779205l0 0c0 8.419098 -6.825016 15.24411 -15.244095 15.24411l0 0c-8.419081 0 -15.244095 -6.825012 -15.244095 -15.24411z" fill-rule="nonzero"></path><path stroke="#000000" stroke-width="2.0" stroke-linejoin="round" stroke-linecap="butt" d="m22.871391 298.59842l0 0c0 -8.419067 6.825014 -15.24408 15.244095 -15.24408l0 0c4.042984 0 7.9203796 1.6060486 10.7792015 4.4648743c2.8588219 2.8588257 4.4648933 6.7362366 4.4648933 10.779205l0 0c0 8.419098 -6.825016 15.24411 -15.244095 15.24411l0 0c-8.419081 0 -15.244095 -6.825012 -15.244095 -15.24411z" fill-rule="nonzero"></path><path fill="#000000" fill-opacity="0.0" d="m48.894688 287.8192l0 -226.44159" fill-rule="nonzero"></path><path stroke="#000000" stroke-width="1.0" stroke-linejoin="round" stroke-linecap="butt" d="m48.89469 287.8192l0 -220.44159" fill-rule="evenodd"></path><path fill="#000000" stroke="#000000" stroke-width="1.0" stroke-linecap="butt" d="m50.54642 67.37763l-1.6517296 -4.538101l-1.6517334 4.538101z" fill-rule="evenodd"></path><path fill="#000000" fill-opacity="0.0" d="m53.35958 298.59842l104.7559 -112.755905" fill-rule="nonzero"></path><path stroke="#000000" stroke-width="1.0" stroke-linejoin="round" stroke-linecap="butt" d="m53.35958 298.59842l100.672066 -108.36018" fill-rule="evenodd"></path><path fill="#000000" stroke="#000000" stroke-width="1.0" stroke-linecap="butt" d="m155.24174 191.36247l1.8787079 -4.448929l-4.298889 2.2004547z" fill-rule="evenodd"></path><path fill="#000000" fill-opacity="0.0" d="m158.11548 155.35432l-104.7559 -104.7559" fill-rule="nonzero"></path><path stroke="#000000" stroke-width="1.0" stroke-linejoin="round" stroke-linecap="butt" d="m158.11548 155.35432l-100.51326 -100.51326" fill-rule="evenodd"></path><path fill="#000000" stroke="#000000" stroke-width="1.0" stroke-linecap="butt" d="m58.770172 53.673115l-4.376869 -2.0409698l2.040966 4.376873z" fill-rule="evenodd"></path><path fill="#000000" fill-opacity="0.0" d="m27.336283 61.37763l0 226.44159" fill-rule="nonzero"></path><path stroke="#000000" stroke-width="1.0" stroke-linejoin="round" stroke-linecap="butt" d="m27.336283 61.37763l0 220.44159" fill-rule="evenodd"></path><path fill="#000000" stroke="#000000" stroke-width="1.0" stroke-linecap="butt" d="m25.684551 281.8192l1.6517315 4.5381165l1.6517334 -4.5381165z" fill-rule="evenodd"></path><path fill="#000000" fill-opacity="0.0" d="m12.708661 11.385827l17.417324 0l0 23.2126l-17.417324 0z" fill-rule="nonzero"></path><path fill="#000000" d="m25.791965 27.546814l0 1.609375l-8.984377 0q-0.015625 -0.609375 0.1875 -1.15625q0.34375 -0.921875 1.09375 -1.8125q0.765625 -0.890625 2.1875 -2.0625q2.218752 -1.8125 3.000002 -2.875q0.78125 -1.0625 0.78125 -2.015625q0 -0.984375 -0.71875 -1.671875q-0.703125 -0.6875 -1.84375 -0.6875q-1.2031269 0 -1.9375019 0.734375q-0.71875 0.71875 -0.71875 2.0l-1.71875 -0.171875q0.171875 -1.921875 1.328125 -2.921875q1.15625 -1.015624 3.093752 -1.015624q1.953125 0 3.09375 1.093749q1.140625 1.078125 1.140625 2.6875q0 0.8125 -0.34375 1.609375q-0.328125 0.78125 -1.109375 1.65625q-0.765625 0.859375 -2.5625 2.390625q-1.5000019 1.265625 -1.9375019 1.71875q-0.421875 0.4375 -0.703125 0.890625l6.671877 0z" fill-rule="nonzero"></path><path fill="#000000" fill-opacity="0.0" d="m4.7086616 307.38583l17.417322 0l0 23.212585l-17.417322 0z" fill-rule="nonzero"></path><path fill="#000000" d="m9.02634 321.56244l1.671875 -0.21875q0.28125 1.421875 0.96875 2.046875q0.703125 0.625 1.6875 0.625q1.1875 0 2.0 -0.8125q0.81250095 -0.828125 0.81250095 -2.03125q0 -1.140625 -0.76562595 -1.890625q-0.75 -0.75 -1.90625 -0.75q-0.46875 0 -1.171875 0.1875l0.1875 -1.46875q0.15625 0.015625 0.265625 0.015625q1.0625 0 1.90625 -0.546875q0.859375 -0.5625 0.859375 -1.71875q0 -0.921875 -0.625 -1.515625q-0.609375 -0.609375 -1.59375 -0.609375q-0.96875 0 -1.625 0.609375q-0.640625 0.609375 -0.828125 1.84375l-1.671875 -0.296875q0.296875 -1.6875 1.375 -2.609375q1.09375 -0.921875 2.71875 -0.921875q1.109375 0 2.046875 0.484375q0.93750095 0.46875 1.421876 1.296875q0.5 0.828125 0.5 1.75q0 0.890625 -0.46875 1.609375q-0.46875 0.71875 -1.406251 1.15625q1.218751 0.265625 1.875001 1.15625q0.671875 0.875 0.671875 2.1875q0 1.78125 -1.296875 3.015625q-1.296876 1.234375 -3.281251 1.234375q-1.796875 0 -2.984375 -1.0625q-1.171875 -1.0625 -1.34375 -2.765625z" fill-rule="nonzero"></path><path fill="#000000" fill-opacity="0.0" d="m52.70866 155.38583l17.417324 0l0 23.212585l-17.417324 0z" fill-rule="nonzero"></path><path fill="#000000" d="m61.417324 166.07025l-2.328125 6.203125l-1.484375 0l3.078125 -8.140625l-1.234375 -3.3125l1.484375 0l4.281246 11.453125l-1.4843712 0l-2.3125 -6.203125z" fill-rule="nonzero"></path><path fill="#000000" fill-opacity="0.0" d="m108.708664 91.385826l17.41732 0l0 23.2126l-17.41732 0z" fill-rule="nonzero"></path><path fill="#000000" d="m117.41732 102.07025l-2.328125 6.203125l-1.484375 0l3.078125 -8.140625l-1.234375 -3.3125l1.484375 0l4.28125 11.453125l-1.484375 0l-2.3125 -6.203125z" fill-rule="nonzero"></path><path fill="#000000" fill-opacity="0.0" d="m100.708664 235.38583l17.41732 0l0 23.212585l-17.41732 0z" fill-rule="nonzero"></path><path fill="#000000" d="m112.76107 243.9765l0 8.296875l-1.25 0l0 -0.984375q-0.40625 0.625 -0.8125 0.859375q-0.546875 0.328125 -1.265625 0.328125q-0.65625 0 -1.15625 -0.265625q-0.375 -0.203125 -0.828125 -0.78125l0 4.03125l-1.390625 0l0 -11.484375l1.390625 0l0 3.515625q0 1.90625 0.203125 2.484375q0.203125 0.5625 0.65625 0.890625q0.46875 0.328125 1.0625 0.328125q0.625 0 1.109375 -0.34375q0.5 -0.34375 0.703125 -0.890625q0.203125 -0.546875 0.203125 -2.453125l0 -3.53125l1.375 0z" fill-rule="nonzero"></path><path fill="#000000" fill-opacity="0.0" d="m4.7086616 155.38583l17.417322 0l0 23.212585l-17.417322 0z" fill-rule="nonzero"></path><path fill="#000000" d="m16.761074 163.9765l0 8.296875l-1.250001 0l0 -0.984375q-0.40625 0.625 -0.8125 0.859375q-0.546875 0.328125 -1.265625 0.328125q-0.65625 0 -1.15625 -0.265625q-0.375 -0.203125 -0.828125 -0.78125l0 4.03125l-1.390625 0l0 -11.484375l1.390625 0l0 3.515625q0 1.90625 0.203125 2.484375q0.203125 0.5625 0.65625 0.890625q0.46875 0.328125 1.0625 0.328125q0.625 0 1.109375 -0.34375q0.5 -0.34375 0.703125 -0.890625q0.203125 -0.546875 0.203125 -2.453125l0 -3.53125l1.375001 0z" fill-rule="nonzero"></path><path fill="#000000" fill-opacity="0.0" d="m169.04199 146.93701l22.29921 0l0 19.275589l-22.29921 0z" fill-rule="nonzero"></path><path fill="#000000" d="m185.12012 172.82764l-1.671875 0l0 -10.640625q-0.59375 0.578125 -1.578125 1.15625q-0.984375 0.5625 -1.765625 0.859375l0 -1.625q1.40625 -0.65625 2.453125 -1.59375q1.046875 -0.9375 1.484375 -1.8125l1.078125 0l0 13.65625z" fill-rule="nonzero"></path><path fill="#000000" fill-opacity="0.0" d="m318.8714 50.598427l0 0c0 -8.419083 6.825012 -15.244095 15.24408 -15.244095l0 0c4.0429993 0 7.9203796 1.6060677 10.779205 4.4648895c2.8588257 2.8588219 4.464905 6.7362175 4.464905 10.779205l0 0c0 8.419079 -6.825012 15.244095 -15.24411 15.244095l0 0c-8.419067 0 -15.24408 -6.825016 -15.24408 -15.244095z" fill-rule="nonzero"></path><path stroke="#000000" stroke-width="2.0" stroke-linejoin="round" stroke-linecap="butt" d="m318.8714 50.598427l0 0c0 -8.419083 6.825012 -15.244095 15.24408 -15.244095l0 0c4.0429993 0 7.9203796 1.6060677 10.779205 4.4648895c2.8588257 2.8588219 4.464905 6.7362175 4.464905 10.779205l0 0c0 8.419079 -6.825012 15.244095 -15.24411 15.244095l0 0c-8.419067 0 -15.24408 -6.825016 -15.24408 -15.244095z" fill-rule="nonzero"></path><path fill="#000000" fill-opacity="0.0" d="m438.8714 170.59842l0 0c0 -8.419067 6.825012 -15.244095 15.24408 -15.244095l0 0c4.0429993 0 7.9203796 1.6060791 10.779205 4.464905c2.8588257 2.8588104 4.464905 6.736206 4.464905 10.77919l0 0c0 8.419083 -6.825012 15.244095 -15.24411 15.244095l0 0c-8.419067 0 -15.24408 -6.825012 -15.24408 -15.244095z" fill-rule="nonzero"></path><path stroke="#000000" stroke-width="2.0" stroke-linejoin="round" stroke-linecap="butt" d="m438.8714 170.59842l0 0c0 -8.419067 6.825012 -15.244095 15.24408 -15.244095l0 0c4.0429993 0 7.9203796 1.6060791 10.779205 4.464905c2.8588257 2.8588104 4.464905 6.736206 4.464905 10.77919l0 0c0 8.419083 -6.825012 15.244095 -15.24411 15.244095l0 0c-8.419067 0 -15.24408 -6.825012 -15.24408 -15.244095z" fill-rule="nonzero"></path><path fill="#000000" fill-opacity="0.0" d="m318.8714 298.59842l0 0c0 -8.419067 6.825012 -15.24408 15.24408 -15.24408l0 0c4.0429993 0 7.9203796 1.6060486 10.779205 4.4648743c2.8588257 2.8588257 4.464905 6.7362366 4.464905 10.779205l0 0c0 8.419098 -6.825012 15.24411 -15.24411 15.24411l0 0c-8.419067 0 -15.24408 -6.825012 -15.24408 -15.24411z" fill-rule="nonzero"></path><path stroke="#000000" stroke-width="2.0" stroke-linejoin="round" stroke-linecap="butt" d="m318.8714 298.59842l0 0c0 -8.419067 6.825012 -15.24408 15.24408 -15.24408l0 0c4.0429993 0 7.9203796 1.6060486 10.779205 4.4648743c2.8588257 2.8588257 4.464905 6.7362366 4.464905 10.779205l0 0c0 8.419098 -6.825012 15.24411 -15.24411 15.24411l0 0c-8.419067 0 -15.24408 -6.825012 -15.24408 -15.24411z" fill-rule="nonzero"></path><path fill="#000000" fill-opacity="0.0" d="m344.89468 61.37763l0 225.22836" fill-rule="nonzero"></path><path stroke="#000000" stroke-width="1.0" stroke-linejoin="round" stroke-linecap="butt" d="m344.89468 61.37763l0 219.22833" fill-rule="evenodd"></path><path fill="#000000" stroke="#000000" stroke-width="1.0" stroke-linecap="butt" d="m343.24295 280.60596l1.6517334 4.5381165l1.6517334 -4.5381165z" fill-rule="evenodd"></path><path fill="#000000" fill-opacity="0.0" d="m349.3596 50.598427l104.75589 104.7559" fill-rule="nonzero"></path><path stroke="#000000" stroke-width="1.0" stroke-linejoin="round" stroke-linecap="butt" d="m349.3596 50.598427l100.513245 100.51327" fill-rule="evenodd"></path><path fill="#000000" stroke="#000000" stroke-width="1.0" stroke-linecap="butt" d="m448.7049 152.27965l4.3768616 2.0409546l-2.0409546 -4.3768616z" fill-rule="evenodd"></path><path fill="#000000" fill-opacity="0.0" d="m454.12305 185.83498l-109.22836 101.98424" fill-rule="nonzero"></path><path stroke="#000000" stroke-width="1.0" stroke-linejoin="round" stroke-linecap="butt" d="m454.12302 185.83498l-104.84274 97.88954" fill-rule="evenodd"></path><path fill="#000000" stroke="#000000" stroke-width="1.0" stroke-linecap="butt" d="m348.153 282.5172l-2.1897888 4.3043213l4.444275 -1.88974z" fill-rule="evenodd"></path><path fill="#000000" fill-opacity="0.0" d="m323.33627 287.8192l0 -226.45668" fill-rule="nonzero"></path><path stroke="#000000" stroke-width="1.0" stroke-linejoin="round" stroke-linecap="butt" d="m323.33627 287.8192l0 -220.4567" fill-rule="evenodd"></path><path fill="#000000" stroke="#000000" stroke-width="1.0" stroke-linecap="butt" d="m324.988 67.362526l-1.6517334 -4.5380974l-1.6517334 4.5380974z" fill-rule="evenodd"></path><path fill="#000000" fill-opacity="0.0" d="m308.70865 11.385827l17.417328 0l0 23.2126l-17.417328 0z" fill-rule="nonzero"></path><path fill="#000000" d="m321.79196 27.546812l0 1.609375l-8.984375 0q-0.015625 -0.609375 0.1875 -1.15625q0.34375 -0.921875 1.09375 -1.8125q0.765625 -0.890625 2.1875 -2.0625q2.21875 -1.8125 3.0 -2.875q0.78125 -1.0625 0.78125 -2.015625q0 -0.984375 -0.71875 -1.671875q-0.703125 -0.6875 -1.84375 -0.6875q-1.203125 0 -1.9375 0.734375q-0.71875 0.71875 -0.71875 2.0l-1.71875 -0.171875q0.171875 -1.921875 1.328125 -2.921875q1.15625 -1.015624 3.09375 -1.015624q1.953125 0 3.09375 1.093749q1.140625 1.078125 1.140625 2.6875q0 0.8125 -0.34375 1.609375q-0.328125 0.78125 -1.109375 1.65625q-0.765625 0.859375 -2.5625 2.390625q-1.5 1.265625 -1.9375 1.71875q-0.421875 0.4375 -0.703125 0.890625l6.671875 0z" fill-rule="nonzero"></path><path fill="#000000" fill-opacity="0.0" d="m300.70865 307.38583l17.417328 0l0 23.212585l-17.417328 0z" fill-rule="nonzero"></path><path fill="#000000" d="m305.02634 321.56244l1.671875 -0.21875q0.28125 1.421875 0.96875 2.046875q0.703125 0.625 1.6875 0.625q1.1875 0 2.0 -0.8125q0.8125 -0.828125 0.8125 -2.03125q0 -1.140625 -0.765625 -1.890625q-0.75 -0.75 -1.90625 -0.75q-0.46875 0 -1.171875 0.1875l0.1875 -1.46875q0.15625 0.015625 0.265625 0.015625q1.0625 0 1.90625 -0.546875q0.859375 -0.5625 0.859375 -1.71875q0 -0.921875 -0.625 -1.515625q-0.609375 -0.609375 -1.59375 -0.609375q-0.96875 0 -1.625 0.609375q-0.640625 0.609375 -0.828125 1.84375l-1.671875 -0.296875q0.296875 -1.6875 1.375 -2.609375q1.09375 -0.921875 2.71875 -0.921875q1.109375 0 2.046875 0.484375q0.9375 0.46875 1.421875 1.296875q0.5 0.828125 0.5 1.75q0 0.890625 -0.46875 1.609375q-0.46875 0.71875 -1.40625 1.15625q1.21875 0.265625 1.875 1.15625q0.671875 0.875 0.671875 2.1875q0 1.78125 -1.296875 3.015625q-1.296875 1.234375 -3.28125 1.234375q-1.796875 0 -2.984375 -1.0625q-1.171875 -1.0625 -1.34375 -2.765625z" fill-rule="nonzero"></path><path fill="#000000" fill-opacity="0.0" d="m465.042 146.93701l22.299225 0l0 19.275589l-22.299225 0z" fill-rule="nonzero"></path><path fill="#000000" d="m481.12012 172.82764l-1.671875 0l0 -10.640625q-0.59375 0.578125 -1.578125 1.15625q-0.984375 0.5625 -1.765625 0.859375l0 -1.625q1.40625 -0.65625 2.453125 -1.59375q1.046875 -0.9375 1.484375 -1.8125l1.078125 0l0 13.65625z" fill-rule="nonzero"></path></g></svg>

