<?xml version="1.0" standalone="yes"?>

<svg version="1.1" viewBox="0.0 0.0 635.0 370.0" fill="none" stroke="none" stroke-linecap="square" stroke-miterlimit="10" xmlns="http://www.w3.org/2000/svg" xmlns:xlink="http://www.w3.org/1999/xlink"><clipPath id="p.0"><path d="m0 0l635.0 0l0 370.0l-635.0 0l0 -370.0z" clip-rule="nonzero"></path></clipPath><g clip-path="url(#p.0)"><path fill="#000000" fill-opacity="0.0" d="m0 0l635.47766 0l0 370.53543l-635.47766 0z" fill-rule="nonzero"></path><path fill="#000000" d="m62.87139 66.59843l0 0c0 -8.419083 6.825012 -15.244095 15.244095 -15.244095l0 0c4.042984 0 7.9203796 1.6060677 10.779205 4.4648895c2.858818 2.8588219 4.4648895 6.7362175 4.4648895 10.779205l0 0c0 8.419083 -6.825012 15.244095 -15.244095 15.244095l0 0c-8.419083 0 -15.244095 -6.825012 -15.244095 -15.244095z" fill-rule="nonzero"></path><path fill="#000000" d="m182.87138 186.59842l0 0c0 -8.419067 6.8250275 -15.244095 15.244095 -15.244095l0 0c4.0429993 0 7.920395 1.6060791 10.779205 4.464905c2.8588257 2.8588104 4.4648895 6.736206 4.4648895 10.77919l0 0c0 8.419083 -6.825012 15.244095 -15.244095 15.244095l0 0c-8.419067 0 -15.244095 -6.825012 -15.244095 -15.244095z" fill-rule="nonzero"></path><path fill="#000000" d="m62.87139 314.59842l0 0c0 -8.419067 6.825012 -15.24408 15.244095 -15.24408l0 0c4.042984 0 7.9203796 1.6060486 10.779205 4.4648743c2.858818 2.8588257 4.4648895 6.7362366 4.4648895 10.779205l0 0c0 8.419098 -6.825012 15.24411 -15.244095 15.24411l0 0c-8.419083 0 -15.244095 -6.825012 -15.244095 -15.24411z" fill-rule="nonzero"></path><path fill="#000000" fill-opacity="0.0" d="m88.89469 303.8192l0 -226.44159" fill-rule="nonzero"></path><path stroke="#000000" stroke-width="2.0" stroke-linejoin="round" stroke-linecap="butt" d="m88.894684 303.8192l0 -214.44159" fill-rule="evenodd"></path><path fill="#000000" stroke="#000000" stroke-width="2.0" stroke-linecap="butt" d="m92.19815 89.37763l-3.3034668 -9.076195l-3.3034668 9.076195z" fill-rule="evenodd"></path><path fill="#000000" fill-opacity="0.0" d="m93.35958 314.59842l104.7559 -112.755905" fill-rule="nonzero"></path><path stroke="#000000" stroke-width="2.0" stroke-linejoin="round" stroke-linecap="butt" d="m93.35958 314.59842l96.588234 -103.96448" fill-rule="evenodd"></path><path fill="#000000" stroke="#000000" stroke-width="2.0" stroke-linecap="butt" d="m192.368 212.88242l3.757431 -8.897858l-8.597794 4.4009094z" fill-rule="evenodd"></path><path fill="#000000" fill-opacity="0.0" d="m198.11548 171.35432l-104.7559 -104.7559" fill-rule="nonzero"></path><path stroke="#000000" stroke-width="2.0" stroke-linejoin="round" stroke-linecap="butt" d="m198.11548 171.35432l-96.27062 -96.270615" fill-rule="evenodd"></path><path fill="#000000" stroke="#000000" stroke-width="2.0" stroke-linecap="butt" d="m104.18076 72.7478l-8.753738 -4.081932l4.081932 8.753738z" fill-rule="evenodd"></path><path fill="#000000" fill-opacity="0.0" d="m67.33628 77.377625l0 226.44159" fill-rule="nonzero"></path><path stroke="#000000" stroke-width="2.0" stroke-linejoin="round" stroke-linecap="butt" d="m67.33628 77.37763l0 214.44159" fill-rule="evenodd"></path><path fill="#000000" stroke="#000000" stroke-width="2.0" stroke-linecap="butt" d="m64.032814 291.8192l3.3034668 9.076202l3.3034668 -9.076202z" fill-rule="evenodd"></path><path fill="#000000" fill-opacity="0.0" d="m52.70866 35.385826l17.417324 0l0 23.2126l-17.417324 0z" fill-rule="nonzero"></path><path fill="#000000" d="m65.79196 51.546814l0 1.609375l-8.984371 0q-0.015625 -0.609375 0.1875 -1.15625q0.34375 -0.921875 1.09375 -1.8125q0.765625 -0.890625 2.1875 -2.0625q2.21875 -1.8125 3.0 -2.875q0.7812462 -1.0625 0.7812462 -2.015625q0 -0.984375 -0.7187462 -1.671875q-0.703125 -0.6875 -1.84375 -0.6875q-1.203125 0 -1.9375 0.734375q-0.71875 0.71875 -0.71875 2.0l-1.71875 -0.171875q0.171875 -1.921875 1.328125 -2.921875q1.15625 -1.015625 3.09375 -1.015625q1.953125 0 3.0937462 1.09375q1.140625 1.078125 1.140625 2.6875q0 0.8125 -0.34375 1.609375q-0.328125 0.78125 -1.109375 1.65625q-0.7656212 0.859375 -2.5624962 2.390625q-1.5 1.265625 -1.9375 1.71875q-0.421875 0.4375 -0.703125 0.890625l6.671871 0z" fill-rule="nonzero"></path><path fill="#000000" fill-opacity="0.0" d="m52.70866 323.38583l17.417324 0l0 23.212585l-17.417324 0z" fill-rule="nonzero"></path><path fill="#000000" d="m57.02634 337.56244l1.671875 -0.21875q0.28125 1.421875 0.96875 2.046875q0.703125 0.625 1.6875 0.625q1.1875 0 2.0 -0.8125q0.8124962 -0.828125 0.8124962 -2.03125q0 -1.140625 -0.7656212 -1.890625q-0.75 -0.75 -1.90625 -0.75q-0.46875 0 -1.171875 0.1875l0.1875 -1.46875q0.15625 0.015625 0.265625 0.015625q1.0625 0 1.90625 -0.546875q0.859375 -0.5625 0.859375 -1.71875q0 -0.921875 -0.625 -1.515625q-0.609375 -0.609375 -1.59375 -0.609375q-0.96875 0 -1.625 0.609375q-0.640625 0.609375 -0.828125 1.84375l-1.671875 -0.296875q0.296875 -1.6875 1.375 -2.609375q1.09375 -0.921875 2.71875 -0.921875q1.109375 0 2.046875 0.484375q0.9374962 0.46875 1.4218712 1.296875q0.5 0.828125 0.5 1.75q0 0.890625 -0.46875 1.609375q-0.46875 0.71875 -1.4062462 1.15625q1.2187462 0.265625 1.8749962 1.15625q0.671875 0.875 0.671875 2.1875q0 1.78125 -1.296875 3.015625q-1.2968712 1.234375 -3.2812462 1.234375q-1.796875 0 -2.984375 -1.0625q-1.171875 -1.0625 -1.34375 -2.765625z" fill-rule="nonzero"></path><path fill="#000000" fill-opacity="0.0" d="m212.70866 171.38583l17.417328 0l0 23.212585l-17.417328 0z" fill-rule="nonzero"></path><path fill="#000000" d="m223.30759 189.15619l-1.671875 0l0 -10.640625q-0.59375 0.578125 -1.578125 1.15625q-0.984375 0.5625 -1.765625 0.859375l0 -1.625q1.40625 -0.65625 2.453125 -1.59375q1.046875 -0.9375 1.484375 -1.8125l1.078125 0l0 13.65625z" fill-rule="nonzero"></path><path fill="#000000" fill-opacity="0.0" d="m92.708664 171.38583l17.41732 0l0 23.212585l-17.41732 0z" fill-rule="nonzero"></path><path fill="#000000" d="m101.48763 181.79681l-2.75 7.359375l-1.765625 0l3.65625 -9.671875l-1.46875 -3.921875l1.765625 0l5.09375 13.59375l-1.765625 0l-2.765625 -7.359375z" fill-rule="nonzero"></path><path fill="#000000" fill-opacity="0.0" d="m148.70866 99.385826l17.417328 0l0 23.2126l-17.417328 0z" fill-rule="nonzero"></path><path fill="#000000" d="m157.48764 109.796814l-2.75 7.359375l-1.765625 0l3.65625 -9.671875l-1.46875 -3.921875l1.765625 0l5.09375 13.59375l-1.765625 0l-2.765625 -7.359375z" fill-rule="nonzero"></path><path fill="#000000" fill-opacity="0.0" d="m140.70866 259.38583l17.417328 0l0 23.212585l-17.417328 0z" fill-rule="nonzero"></path><path fill="#000000" d="m153.48022 267.2968l0 9.859375l-1.484375 0l0 -1.171875q-0.484375 0.75 -0.953125 1.015625q-0.65625 0.390625 -1.515625 0.390625q-0.765625 0 -1.359375 -0.3125q-0.453125 -0.234375 -0.984375 -0.921875l0 4.78125l-1.65625 0l0 -13.640625l1.65625 0l0 4.1875q0 2.265625 0.234375 2.9375q0.25 0.671875 0.78125 1.0625q0.546875 0.390625 1.25 0.390625q0.75 0 1.328125 -0.40625q0.578125 -0.40625 0.8125 -1.046875q0.25 -0.65625 0.25 -2.921875l0 -4.203125l1.640625 0z" fill-rule="nonzero"></path><path fill="#000000" fill-opacity="0.0" d="m44.70866 171.38583l17.417324 0l0 23.212585l-17.417324 0z" fill-rule="nonzero"></path><path fill="#000000" d="m57.48022 179.29681l0 9.859375l-1.484375 0l0 -1.171875q-0.484375 0.75 -0.953125 1.015625q-0.65625 0.390625 -1.515625 0.390625q-0.765625 0 -1.359375 -0.3125q-0.453125 -0.234375 -0.984375 -0.921875l0 4.78125l-1.65625 0l0 -13.640625l1.65625 0l0 4.1875q0 2.265625 0.234375 2.9375q0.25 0.671875 0.78125 1.0625q0.546875 0.390625 1.25 0.390625q0.75 0 1.328125 -0.40625q0.578125 -0.40625 0.8125 -1.046875q0.25 -0.65625 0.25 -2.921875l0 -4.203125l1.640625 0z" fill-rule="nonzero"></path><path fill="#000000" d="m454.8714 66.59843l0 0c0 -8.419083 6.825012 -15.244095 15.24408 -15.244095l0 0c4.0429993 0 7.9203796 1.6060677 10.779205 4.4648895c2.8588257 2.8588219 4.464905 6.7362175 4.464905 10.779205l0 0c0 8.419083 -6.825012 15.244095 -15.24411 15.244095l0 0c-8.419067 0 -15.24408 -6.825012 -15.24408 -15.244095z" fill-rule="nonzero"></path><path fill="#000000" d="m574.8714 186.59842l0 0c0 -8.419067 6.825012 -15.244095 15.24408 -15.244095l0 0c4.0429688 0 7.92041 1.6060791 10.779236 4.464905c2.8588257 2.8588104 4.4648438 6.736206 4.4648438 10.77919l0 0c0 8.419083 -6.825012 15.244095 -15.24408 15.244095l0 0c-8.419067 0 -15.24408 -6.825012 -15.24408 -15.244095z" fill-rule="nonzero"></path><path fill="#000000" d="m454.8714 314.59842l0 0c0 -8.419067 6.825012 -15.24408 15.24408 -15.24408l0 0c4.0429993 0 7.9203796 1.6060486 10.779205 4.4648743c2.8588257 2.8588257 4.464905 6.7362366 4.464905 10.779205l0 0c0 8.419098 -6.825012 15.24411 -15.24411 15.24411l0 0c-8.419067 0 -15.24408 -6.825012 -15.24408 -15.24411z" fill-rule="nonzero"></path><path fill="#000000" fill-opacity="0.0" d="m444.70865 35.385826l17.417328 0l0 23.2126l-17.417328 0z" fill-rule="nonzero"></path><path fill="#000000" d="m457.79196 51.546814l0 1.609375l-8.984375 0q-0.015625 -0.609375 0.1875 -1.15625q0.34375 -0.921875 1.09375 -1.8125q0.765625 -0.890625 2.1875 -2.0625q2.21875 -1.8125 3.0 -2.875q0.78125 -1.0625 0.78125 -2.015625q0 -0.984375 -0.71875 -1.671875q-0.703125 -0.6875 -1.84375 -0.6875q-1.203125 0 -1.9375 0.734375q-0.71875 0.71875 -0.71875 2.0l-1.71875 -0.171875q0.171875 -1.921875 1.328125 -2.921875q1.15625 -1.015625 3.09375 -1.015625q1.953125 0 3.09375 1.09375q1.140625 1.078125 1.140625 2.6875q0 0.8125 -0.34375 1.609375q-0.328125 0.78125 -1.109375 1.65625q-0.765625 0.859375 -2.5625 2.390625q-1.5 1.265625 -1.9375 1.71875q-0.421875 0.4375 -0.703125 0.890625l6.671875 0z" fill-rule="nonzero"></path><path fill="#000000" fill-opacity="0.0" d="m444.70865 323.38583l17.417328 0l0 23.212585l-17.417328 0z" fill-rule="nonzero"></path><path fill="#000000" d="m449.02634 337.56244l1.671875 -0.21875q0.28125 1.421875 0.96875 2.046875q0.703125 0.625 1.6875 0.625q1.1875 0 2.0 -0.8125q0.8125 -0.828125 0.8125 -2.03125q0 -1.140625 -0.765625 -1.890625q-0.75 -0.75 -1.90625 -0.75q-0.46875 0 -1.171875 0.1875l0.1875 -1.46875q0.15625 0.015625 0.265625 0.015625q1.0625 0 1.90625 -0.546875q0.859375 -0.5625 0.859375 -1.71875q0 -0.921875 -0.625 -1.515625q-0.609375 -0.609375 -1.59375 -0.609375q-0.96875 0 -1.625 0.609375q-0.640625 0.609375 -0.828125 1.84375l-1.671875 -0.296875q0.296875 -1.6875 1.375 -2.609375q1.09375 -0.921875 2.71875 -0.921875q1.109375 0 2.046875 0.484375q0.9375 0.46875 1.421875 1.296875q0.5 0.828125 0.5 1.75q0 0.890625 -0.46875 1.609375q-0.46875 0.71875 -1.40625 1.15625q1.21875 0.265625 1.875 1.15625q0.671875 0.875 0.671875 2.1875q0 1.78125 -1.296875 3.015625q-1.296875 1.234375 -3.28125 1.234375q-1.796875 0 -2.984375 -1.0625q-1.171875 -1.0625 -1.34375 -2.765625z" fill-rule="nonzero"></path><path fill="#000000" fill-opacity="0.0" d="m604.7087 171.38583l17.417297 0l0 23.212585l-17.417297 0z" fill-rule="nonzero"></path><path fill="#000000" d="m615.3076 189.15619l-1.671875 0l0 -10.640625q-0.59375 0.578125 -1.578125 1.15625q-0.984375 0.5625 -1.765625 0.859375l0 -1.625q1.40625 -0.65625 2.453125 -1.59375q1.046875 -0.9375 1.484375 -1.8125l1.078125 0l0 13.65625z" fill-rule="nonzero"></path><path fill="#000000" fill-opacity="0.0" d="m459.33627 303.8192l0 -226.44159" fill-rule="nonzero"></path><path stroke="#000000" stroke-width="2.0" stroke-linejoin="round" stroke-linecap="butt" d="m459.33627 303.8192l0 -214.44159" fill-rule="evenodd"></path><path fill="#000000" stroke="#000000" stroke-width="2.0" stroke-linecap="butt" d="m462.63974 89.37763l-3.3034668 -9.076195l-3.3034668 9.076195z" fill-rule="evenodd"></path><path fill="#000000" fill-opacity="0.0" d="m480.89468 77.377625l0 226.44159" fill-rule="nonzero"></path><path stroke="#000000" stroke-width="2.0" stroke-linejoin="round" stroke-linecap="butt" d="m480.89468 77.37763l0 214.44159" fill-rule="evenodd"></path><path fill="#000000" stroke="#000000" stroke-width="2.0" stroke-linecap="butt" d="m477.59122 291.8192l3.3034668 9.076202l3.3034668 -9.076202z" fill-rule="evenodd"></path><path fill="#000000" fill-opacity="0.0" d="m485.3596 66.59843l93.976715 109.2208" fill-rule="nonzero"></path><path stroke="#000000" stroke-width="2.0" stroke-linejoin="round" stroke-linecap="butt" d="m485.3596 66.59843l86.149994 100.124504" fill-rule="evenodd"></path><path fill="#000000" stroke="#000000" stroke-width="2.0" stroke-linecap="butt" d="m569.0055 168.87753l8.423828 4.7253723l-3.4156494 -9.034576z" fill-rule="evenodd"></path><path fill="#000000" fill-opacity="0.0" d="m590.1155 201.84251l-104.75589 112.755905" fill-rule="nonzero"></path><path stroke="#000000" stroke-width="2.0" stroke-linejoin="round" stroke-linecap="butt" d="m590.1155 201.84251l-96.588196 103.96449" fill-rule="evenodd"></path><path fill="#000000" stroke="#000000" stroke-width="2.0" stroke-linecap="butt" d="m491.1071 303.55853l-3.7574463 8.897858l8.597778 -4.4009094z" fill-rule="evenodd"></path><path fill="#000000" fill-opacity="0.0" d="m299.48557 196.51706l66.77167 0" fill-rule="nonzero"></path><path stroke="#000000" stroke-width="3.0" stroke-linejoin="round" stroke-linecap="butt" d="m299.48557 196.51706l48.771667 0" fill-rule="evenodd"></path><path fill="#000000" stroke="#000000" stroke-width="3.0" stroke-linecap="butt" d="m348.25723 201.47226l13.614288 -4.9552l-13.614288 -4.9552z" fill-rule="evenodd"></path></g></svg>

