<?xml version="1.0" standalone="yes"?>

<svg version="1.1" viewBox="0.0 0.0 844.0 251.0" fill="none" stroke="none" stroke-linecap="square" stroke-miterlimit="10" xmlns="http://www.w3.org/2000/svg" xmlns:xlink="http://www.w3.org/1999/xlink"><clipPath id="p.0"><path d="m0 0l844.0 0l0 251.0l-844.0 0l0 -251.0z" clip-rule="nonzero"></path></clipPath><g clip-path="url(#p.0)"><path fill="#000000" fill-opacity="0.0" d="m0 0l844.8399 0l0 251.12862l-844.8399 0z" fill-rule="nonzero"></path><path fill="#000000" fill-opacity="0.0" d="m6.386644 120.573326l0 0c0 -20.077225 15.137386 -36.353027 33.8103 -36.353027l0 0c8.967049 0 17.566833 3.83004 23.90749 10.6475525c6.3406677 6.8175125 9.902809 16.064049 9.902809 25.705475l0 0c0 20.077217 -15.137386 36.35302 -33.8103 36.35302l0 0c-18.67291 0 -33.8103 -16.275803 -33.8103 -36.35302z" fill-rule="nonzero"></path><path stroke="#000000" stroke-width="2.0" stroke-linejoin="round" stroke-linecap="butt" d="m6.386644 120.573326l0 0c0 -20.077225 15.137386 -36.353027 33.8103 -36.353027l0 0c8.967049 0 17.566833 3.83004 23.90749 10.6475525c6.3406677 6.8175125 9.902809 16.064049 9.902809 25.705475l0 0c0 20.077217 -15.137386 36.35302 -33.8103 36.35302l0 0c-18.67291 0 -33.8103 -16.275803 -33.8103 -36.35302z" fill-rule="nonzero"></path><path fill="#000000" d="m40.138348 114.354576q1.671875 0 2.609375 1.1875q1.109375 1.40625 1.109375 4.65625q0 3.25 -1.125 4.671875q-0.921875 1.1875 -2.59375 1.1875q-1.671875 0 -2.703125 -1.28125q-1.015625 -1.296875 -1.015625 -4.59375q0 -3.234375 1.125 -4.65625q0.9375 -1.171875 2.59375 -1.171875zm0 1.8125q-0.390625 0 -0.703125 0.265625q-0.3125 0.25 -0.484375 0.90625q-0.234375 0.84375 -0.234375 2.859375q0 2.015625 0.203125 2.78125q0.203125 0.75 0.515625 1.0q0.3125 0.25 0.703125 0.25q0.40625 0 0.71875 -0.25q0.3125 -0.265625 0.484375 -0.921875q0.21875 -0.84375 0.21875 -2.859375q0 -2.015625 -0.203125 -2.765625q-0.203125 -0.75 -0.515625 -1.0q-0.296875 -0.265625 -0.703125 -0.265625z" fill-rule="nonzero"></path><path fill="#000000" fill-opacity="0.0" d="m134.88264 120.573326l0 0c0 -20.077225 15.13739 -36.353027 33.810303 -36.353027l0 0c8.967041 0 17.566833 3.83004 23.907486 10.6475525c6.3406677 6.8175125 9.9028015 16.064049 9.9028015 25.705475l0 0c0 20.077217 -15.137375 36.35302 -33.810287 36.35302l0 0c-18.672913 0 -33.810303 -16.275803 -33.810303 -36.35302z" fill-rule="nonzero"></path><path stroke="#000000" stroke-width="2.0" stroke-linejoin="round" stroke-linecap="butt" d="m134.88264 120.573326l0 0c0 -20.077225 15.13739 -36.353027 33.810303 -36.353027l0 0c8.967041 0 17.566833 3.83004 23.907486 10.6475525c6.3406677 6.8175125 9.9028015 16.064049 9.9028015 25.705475l0 0c0 20.077217 -15.137375 36.35302 -33.810287 36.35302l0 0c-18.672913 0 -33.810303 -16.275803 -33.810303 -36.35302z" fill-rule="nonzero"></path><path fill="#000000" d="m170.5406 125.854576l-2.1875 0l0 -8.28125q-1.203125 1.125 -2.84375 1.671875l0 -2.0q0.859375 -0.28125 1.859375 -1.0625q1.015625 -0.78125 1.390625 -1.828125l1.78125 0l0 11.5z" fill-rule="nonzero"></path><path fill="#000000" fill-opacity="0.0" d="m263.37863 120.573326l0 0c0 -20.077225 15.13739 -36.353027 33.810303 -36.353027l0 0c8.967072 0 17.566833 3.83004 23.907501 10.6475525c6.3406677 6.8175125 9.9028015 16.064049 9.9028015 25.705475l0 0c0 20.077217 -15.13739 36.35302 -33.810303 36.35302l0 0c-18.672913 0 -33.810303 -16.275803 -33.810303 -36.35302z" fill-rule="nonzero"></path><path stroke="#000000" stroke-width="2.0" stroke-linejoin="round" stroke-linecap="butt" d="m263.37863 120.573326l0 0c0 -20.077225 15.13739 -36.353027 33.810303 -36.353027l0 0c8.967072 0 17.566833 3.83004 23.907501 10.6475525c6.3406677 6.8175125 9.9028015 16.064049 9.9028015 25.705475l0 0c0 20.077217 -15.13739 36.35302 -33.810303 36.35302l0 0c-18.672913 0 -33.810303 -16.275803 -33.810303 -36.35302z" fill-rule="nonzero"></path><path fill="#000000" d="m300.83347 123.8077l0 2.046875l-7.6875 0q0.125 -1.15625 0.75 -2.1875q0.625 -1.046875 2.46875 -2.75q1.484375 -1.390625 1.8125 -1.875q0.453125 -0.6875 0.453125 -1.34375q0 -0.734375 -0.390625 -1.125q-0.390625 -0.40625 -1.09375 -0.40625q-0.6875 0 -1.09375 0.421875q-0.40625 0.40625 -0.46875 1.375l-2.1875 -0.21875q0.203125 -1.8125 1.234375 -2.59375q1.03125 -0.796875 2.578125 -0.796875q1.6875 0 2.65625 0.921875q0.96875 0.90625 0.96875 2.265625q0 0.765625 -0.28125 1.46875q-0.265625 0.703125 -0.875 1.46875q-0.390625 0.5 -1.4375 1.453125q-1.03125 0.953125 -1.3125 1.265625q-0.28125 0.3125 -0.453125 0.609375l4.359375 0z" fill-rule="nonzero"></path><path fill="#000000" fill-opacity="0.0" d="m642.33606 120.573494l0 0c0 -20.077217 16.60205 -36.35302 37.081726 -36.35302l0 0c9.834656 0 19.26654 3.83004 26.220703 10.6475525c6.9541626 6.8175125 10.861023 16.064049 10.861023 25.705467l0 0c0 20.077217 -16.60205 36.353035 -37.081726 36.353035l0 0c-20.479675 0 -37.081726 -16.275818 -37.081726 -36.353035z" fill-rule="nonzero"></path><path stroke="#000000" stroke-width="2.0" stroke-linejoin="round" stroke-linecap="butt" d="m642.33606 120.573494l0 0c0 -20.077217 16.60205 -36.35302 37.081726 -36.35302l0 0c9.834656 0 19.26654 3.83004 26.220703 10.6475525c6.9541626 6.8175125 10.861023 16.064049 10.861023 25.705467l0 0c0 20.077217 -16.60205 36.353035 -37.081726 36.353035l0 0c-20.479675 0 -37.081726 -16.275818 -37.081726 -36.353035z" fill-rule="nonzero"></path><path fill="#000000" d="m674.1131 125.854744l-2.203125 0l0 -4.234375q0 -1.34375 -0.140625 -1.734375q-0.140625 -0.40625 -0.453125 -0.625q-0.3125 -0.21875 -0.765625 -0.21875q-0.5625 0 -1.015625 0.3125q-0.453125 0.3125 -0.625 0.828125q-0.171875 0.515625 -0.171875 1.90625l0 3.765625l-2.1875 0l0 -8.296875l2.03125 0l0 1.21875q1.09375 -1.40625 2.734375 -1.40625q0.734375 0 1.328125 0.265625q0.609375 0.25 0.90625 0.65625q0.3125 0.40625 0.4375 0.921875q0.125 0.515625 0.125 1.484375l0 5.15625zm4.7421875 -1.65625l0 -2.96875l-3.0 0l0 -2.0625l3.0 0l0 -2.96875l2.0 0l0 2.96875l3.0 0l0 2.0625l-3.0 0l0 2.96875l-2.0 0zm11.96875 1.65625l-2.1875 0l0 -8.28125q-1.203125 1.125 -2.84375 1.671875l0 -2.0q0.859375 -0.28125 1.859375 -1.0625q1.015625 -0.78125 1.390625 -1.828125l1.78125 0l0 11.5z" fill-rule="nonzero"></path><path fill="#000000" fill-opacity="0.0" d="m520.37067 120.573326l0 0c0 -20.077225 15.13739 -36.353027 33.810303 -36.353027l0 0c8.967041 0 17.566833 3.83004 23.90747 10.6475525c6.340637 6.8175125 9.902832 16.064049 9.902832 25.705475l0 0c0 20.077217 -15.13739 36.35302 -33.810303 36.35302l0 0c-18.672913 0 -33.810303 -16.275803 -33.810303 -36.35302z" fill-rule="nonzero"></path><path stroke="#000000" stroke-width="2.0" stroke-linejoin="round" stroke-linecap="butt" d="m520.37067 120.573326l0 0c0 -20.077225 15.13739 -36.353027 33.810303 -36.353027l0 0c8.967041 0 17.566833 3.83004 23.90747 10.6475525c6.340637 6.8175125 9.902832 16.064049 9.902832 25.705475l0 0c0 20.077217 -15.13739 36.35302 -33.810303 36.35302l0 0c-18.672913 0 -33.810303 -16.275803 -33.810303 -36.35302z" fill-rule="nonzero"></path><path fill="#000000" d="m557.9974 125.854576l-2.203125 0l0 -4.234375q0 -1.34375 -0.140625 -1.734375q-0.140625 -0.40625 -0.453125 -0.625q-0.3125 -0.21875 -0.765625 -0.21875q-0.5625 0 -1.015625 0.3125q-0.453125 0.3125 -0.625 0.828125q-0.171875 0.515625 -0.171875 1.90625l0 3.765625l-2.1875 0l0 -8.296875l2.03125 0l0 1.21875q1.09375 -1.40625 2.734375 -1.40625q0.734375 0 1.328125 0.265625q0.609375 0.25 0.90625 0.65625q0.3125 0.40625 0.4375 0.921875q0.125 0.515625 0.125 1.484375l0 5.15625z" fill-rule="nonzero"></path><path fill="#000000" fill-opacity="0.0" d="m41.56646 85.141365c11.466408 -27.526882 36.401123 -45.057674 63.73873 -44.812656c27.337616 0.245018 52.013657 18.220463 63.077515 45.94927l-63.639847 31.239006z" fill-rule="nonzero"></path><path fill="#000000" fill-opacity="0.0" d="m41.56646 85.141365c11.466408 -27.526882 36.401123 -45.057674 63.73873 -44.812656c27.337616 0.245018 52.013657 18.220463 63.077515 45.94927" fill-rule="nonzero"></path><path stroke="#000000" stroke-width="2.0" stroke-linejoin="round" stroke-linecap="butt" d="m41.566456 85.141365c11.466408 -27.526878 36.401127 -45.057674 63.738735 -44.812656c13.668808 0.122509 26.672226 4.6776276 37.64142 12.668217c5.4845886 3.9952927 10.460632 8.849453 14.757034 14.437851c2.148178 2.7941895 4.126465 5.771942 5.913437 8.917671c0.89349365 1.5728607 1.739151 3.1877213 2.534317 4.842621l0.2598114 0.54673004" fill-rule="evenodd"></path><path fill="#000000" stroke="#000000" stroke-width="2.0" stroke-linecap="butt" d="m166.41121 81.7418l-1.5226288 -0.60006714l2.3287048 2.45475l-0.20600891 -3.3773117z" fill-rule="evenodd"></path><path fill="#000000" fill-opacity="0.0" d="m170.06245 85.141365c11.466415 -27.526882 36.401123 -45.057674 63.73874 -44.812656c27.337631 0.245018 52.013657 18.220463 63.0775 45.94927l-63.63983 31.239006z" fill-rule="nonzero"></path><path fill="#000000" fill-opacity="0.0" d="m170.06245 85.141365c11.466415 -27.526882 36.401123 -45.057674 63.73874 -44.812656c27.337631 0.245018 52.013657 18.220463 63.0775 45.94927" fill-rule="nonzero"></path><path stroke="#000000" stroke-width="2.0" stroke-linejoin="round" stroke-linecap="butt" d="m170.06245 85.141365c11.466415 -27.526878 36.401123 -45.057674 63.738754 -44.812656c13.668793 0.122509 26.67221 4.6776276 37.641388 12.668217c5.484619 3.9952927 10.460663 8.849453 14.75705 14.437851c2.1481934 2.7941895 4.126465 5.771942 5.913452 8.917671c0.89346313 1.5728607 1.7391357 3.1877213 2.5343018 4.842621l0.25982666 0.54673004" fill-rule="evenodd"></path><path fill="#000000" stroke="#000000" stroke-width="2.0" stroke-linecap="butt" d="m294.90723 81.7418l-1.522644 -0.60007477l2.3287048 2.4547577l-0.20599365 -3.3773117z" fill-rule="evenodd"></path><path fill="#000000" fill-opacity="0.0" d="m546.9841 85.141365c11.46637 -27.526882 36.401123 -45.057674 63.73871 -44.812656c27.337646 0.245018 52.01367 18.220463 63.077515 45.94927l-63.63983 31.239006z" fill-rule="nonzero"></path><path fill="#000000" fill-opacity="0.0" d="m546.9841 85.141365c11.46637 -27.526882 36.401123 -45.057674 63.73871 -44.812656c27.337646 0.245018 52.01367 18.220463 63.077515 45.94927" fill-rule="nonzero"></path><path stroke="#000000" stroke-width="2.0" stroke-linejoin="round" stroke-linecap="butt" d="m546.9841 85.141365c11.46637 -27.526878 36.401123 -45.057674 63.73877 -44.812656c13.668762 0.122509 26.67218 4.6776276 37.641357 12.668217c5.484619 3.9952927 10.460632 8.849453 14.757019 14.437851c2.1481934 2.7941895 4.126465 5.771942 5.913452 8.917671c0.89349365 1.5728607 1.7391357 3.1877213 2.5343628 4.842621l0.25976562 0.54673004" fill-rule="evenodd"></path><path fill="#000000" stroke="#000000" stroke-width="2.0" stroke-linecap="butt" d="m671.8288 81.7418l-1.522583 -0.60007477l2.3286743 2.4547577l-0.20599365 -3.3773117z" fill-rule="evenodd"></path><path fill="#000000" fill-opacity="0.0" d="m675.48004 85.141365c16.092651 -38.63285 57.3396 -55.531174 92.20972 -37.77708l-29.033325 70.152695z" fill-rule="nonzero"></path><path fill="#000000" fill-opacity="0.0" d="m675.48004 85.141365c16.092651 -38.63285 57.3396 -55.531174 92.20972 -37.77708" fill-rule="nonzero"></path><path stroke="#000000" stroke-width="2.0" stroke-linejoin="round" stroke-linecap="butt" d="m675.48004 85.141365c8.046326 -19.31643 22.381165 -33.19922 39.063293 -40.033646c8.341003 -3.4172096 17.26892 -5.0723343 26.290894 -4.7635193c4.5109253 0.15440369 9.045471 0.79979706 13.541931 1.9613991c2.248291 0.5808029 4.4869385 1.290657 6.708496 2.132721c0.5553589 0.21051025 1.1096802 0.4292946 1.6627197 0.6563835l0.45465088 0.1902771" fill-rule="evenodd"></path><path fill="#000000" stroke="#000000" stroke-width="2.0" stroke-linecap="butt" d="m763.202 45.284985l-1.53656 0.56352615l3.37146 0.2866249l-2.3984375 -2.3866806z" fill-rule="evenodd"></path><path fill="#000000" fill-opacity="0.0" d="m789.6033 170.10226l0 0c-15.21698 18.137375 -37.358337 27.070816 -59.52527 24.01683c-22.166931 -3.0539856 -41.664978 -17.724182 -52.419006 -39.439636l60.997437 -37.162476z" fill-rule="nonzero"></path><path fill="#000000" fill-opacity="0.0" d="m789.6033 170.10226l0 0c-15.21698 18.137375 -37.358337 27.070816 -59.52527 24.01683c-22.166931 -3.0539856 -41.664978 -17.724182 -52.419006 -39.439636" fill-rule="nonzero"></path><path stroke="#000000" stroke-width="2.0" stroke-linejoin="round" stroke-linecap="butt" d="m789.6033 170.10226l0 0c-15.21698 18.137375 -37.358337 27.070816 -59.52527 24.01683c-11.083435 -1.5269928 -21.499756 -5.958023 -30.489319 -12.721771c-4.494873 -3.3818665 -8.632996 -7.3469086 -12.31958 -11.823685c-1.8432617 -2.238388 -3.5736694 -4.604721 -5.1793213 -7.0900574c-0.40142822 -0.6213379 -0.7949829 -1.2501068 -1.1806641 -1.8861847c-0.19281006 -0.31803894 -0.38360596 -0.6378937 -0.57244873 -0.9595642c-0.09436035 -0.16082764 -0.18823242 -0.32211304 -0.2816162 -0.48384094l-0.064453125 -0.112472534" fill-rule="evenodd"></path><path fill="#000000" stroke="#000000" stroke-width="2.0" stroke-linecap="butt" d="m679.9906 159.04152l1.5661621 0.47506714l-2.5194702 -2.2585602l0.47827148 3.3496246z" fill-rule="evenodd"></path><path fill="#000000" fill-opacity="0.0" d="m165.34843 155.46l0 0c-12.404602 24.375656 -35.73413 39.393112 -60.96956 39.24672c-25.23542 -0.14639282 -48.422054 -15.433701 -60.596104 -39.95195l60.960087 -37.237793z" fill-rule="nonzero"></path><path fill="#000000" fill-opacity="0.0" d="m165.34843 155.46l0 0c-12.404602 24.375656 -35.73413 39.393112 -60.96956 39.24672c-25.23542 -0.14639282 -48.422054 -15.433701 -60.596104 -39.95195" fill-rule="nonzero"></path><path stroke="#000000" stroke-width="2.0" stroke-linejoin="round" stroke-linecap="butt" d="m165.34842 155.45999l0 0c-12.404587 24.375656 -35.734116 39.393127 -60.969543 39.24672c-12.617714 -0.07318115 -24.723228 -3.93161 -35.196068 -10.836502c-5.2364197 -3.4524689 -10.064671 -7.6665344 -14.344696 -12.549881c-2.1400146 -2.441681 -4.142975 -5.0506897 -5.9913635 -7.815445c-0.92419815 -1.3824005 -1.8097534 -2.803711 -2.6544762 -4.262558l-0.073394775 -0.12791443" fill-rule="evenodd"></path><path fill="#000000" stroke="#000000" stroke-width="2.0" stroke-linecap="butt" d="m46.11888 159.11441l1.5666313 0.4734497l-2.5217857 -2.255951l0.4817009 3.349121z" fill-rule="evenodd"></path><path fill="#000000" fill-opacity="0.0" d="m295.80368 156.00212l0 0c-11.9496765 27.891098 -37.26129 45.936203 -65.32524 46.571564c-28.063934 0.63534546 -54.031357 -16.24884 -67.01776 -43.575394l65.49498 -37.531822z" fill-rule="nonzero"></path><path fill="#000000" fill-opacity="0.0" d="m295.80368 156.00212l0 0c-11.9496765 27.891098 -37.26129 45.936203 -65.32524 46.571564c-28.063934 0.63534546 -54.031357 -16.24884 -67.01776 -43.575394" fill-rule="nonzero"></path><path stroke="#000000" stroke-width="2.0" stroke-linejoin="round" stroke-linecap="butt" d="m295.80368 156.00212l0 0c-11.9496765 27.891083 -37.261322 45.936203 -65.32526 46.57155c-14.031967 0.317688 -27.539795 -3.744522 -39.16295 -11.301971c-5.8115845 -3.778717 -11.151962 -8.431244 -15.851135 -13.847015c-2.3495789 -2.7078857 -4.5388336 -5.6065674 -6.5465393 -8.682236c-1.0038452 -1.5378418 -1.9622955 -3.1199188 -2.8727112 -4.744522l-0.33106995 -0.5966644" fill-rule="evenodd"></path><path fill="#000000" stroke="#000000" stroke-width="2.0" stroke-linecap="butt" d="m165.71404 163.40128l1.5574036 0.5029602l-2.4787292 -2.3031921l0.41836548 3.3576355z" fill-rule="evenodd"></path><path fill="#000000" fill-opacity="0.0" d="m681.2917 156.00212l0 0c-12.14209 28.340164 -38.05597 46.473618 -66.57764 46.588257c-28.521667 0.11462402 -54.555725 -17.810043 -66.88641 -46.051834l66.61603 -35.072075z" fill-rule="nonzero"></path><path fill="#000000" fill-opacity="0.0" d="m681.2917 156.00212l0 0c-12.14209 28.340164 -38.05597 46.473618 -66.57764 46.588257c-28.521667 0.11462402 -54.555725 -17.810043 -66.88641 -46.051834" fill-rule="nonzero"></path><path stroke="#000000" stroke-width="2.0" stroke-linejoin="round" stroke-linecap="butt" d="m681.2917 156.00212l0 0c-12.14209 28.34018 -38.05597 46.473618 -66.57764 46.58824c-14.260864 0.05731201 -27.89978 -4.395172 -39.51483 -12.392242c-5.807556 -3.99852 -11.10907 -8.883194 -15.729431 -14.53334c-2.3101807 -2.8250885 -4.4500732 -5.841522 -6.397705 -9.034271c-0.9738159 -1.5963593 -1.8996582 -3.2368011 -2.7745972 -4.9194183c-0.109375 -0.21032715 -0.21795654 -0.42132568 -0.32574463 -0.6329498l-0.033447266 -0.066467285" fill-rule="evenodd"></path><path fill="#000000" stroke="#000000" stroke-width="2.0" stroke-linecap="butt" d="m549.93823 161.01169l1.5404663 0.5527649l-2.4033813 -2.3816833l0.31018066 3.369339z" fill-rule="evenodd"></path><path fill="#000000" fill-opacity="0.0" d="m298.55847 85.141365c16.09262 -38.63285 57.33957 -55.531174 92.20969 -37.77708l-29.033295 70.152695z" fill-rule="nonzero"></path><path fill="#000000" fill-opacity="0.0" d="m298.55847 85.141365c16.09262 -38.63285 57.33957 -55.531174 92.20969 -37.77708" fill-rule="nonzero"></path><path stroke="#000000" stroke-width="2.0" stroke-linejoin="round" stroke-linecap="butt" d="m298.55847 85.141365c8.046295 -19.31643 22.381195 -33.19922 39.063293 -40.033646c8.341034 -3.4172096 17.26886 -5.0723343 26.290833 -4.7635193c4.510956 0.15440369 9.045502 0.79979706 13.541962 1.9613991c2.2481995 0.5808029 4.486908 1.290657 6.7084045 2.132721c0.5554199 0.21051025 1.1097107 0.4292946 1.6628113 0.6563835l0.45462036 0.1902771" fill-rule="evenodd"></path><path fill="#000000" stroke="#000000" stroke-width="2.0" stroke-linecap="butt" d="m386.28036 45.28498l-1.5365295 0.56352615l3.3714294 0.28662872l-2.398407 -2.3866844z" fill-rule="evenodd"></path><path fill="#000000" fill-opacity="0.0" d="m397.39847 191.12915l0 0c-16.786285 11.677368 -37.01175 14.5867 -55.729706 8.016434c-18.717987 -6.5702667 -34.202423 -22.014267 -42.66617 -42.55475l62.73227 -35.124367z" fill-rule="nonzero"></path><path fill="#000000" fill-opacity="0.0" d="m397.39847 191.12915l0 0c-16.786285 11.677368 -37.01175 14.5867 -55.729706 8.016434c-18.717987 -6.5702667 -34.202423 -22.014267 -42.66617 -42.55475" fill-rule="nonzero"></path><path stroke="#000000" stroke-width="2.0" stroke-linejoin="round" stroke-linecap="butt" d="m397.39847 191.12914l0 0c-16.786316 11.677383 -37.01175 14.5867 -55.729736 8.016449c-9.358978 -3.285141 -17.909576 -8.788712 -25.178375 -16.038544c-3.63443 -3.6249237 -6.948395 -7.6864166 -9.882751 -12.125458c-1.4671631 -2.219513 -2.839447 -4.5334167 -4.109375 -6.9343414c-0.31750488 -0.6002197 -0.6286316 -1.2059021 -0.933197 -1.8168793c-0.15231323 -0.30549622 -0.30297852 -0.61231995 -0.45199585 -0.9204712l-0.096069336 -0.20173645" fill-rule="evenodd"></path><path fill="#000000" stroke="#000000" stroke-width="2.0" stroke-linecap="butt" d="m301.01697 161.10815l1.5282288 0.58561707l-2.3518372 -2.4325867l0.23797607 3.3752136z" fill-rule="evenodd"></path><path fill="#000000" fill-opacity="0.0" d="m391.87463 88.55618l105.697235 0l0 42.148987l-105.697235 0z" fill-rule="nonzero"></path><path fill="#000000" d="m416.51233 120.20099l0 -3.203125l3.203125 0l0 3.203125l-3.203125 0zm8.890625 0l0 -3.203125l3.203125 0l0 3.203125l-3.203125 0zm8.890625 0l0 -3.203125l3.203125 0l0 3.203125l-3.203125 0zm8.890625 0l0 -3.203125l3.203125 0l0 3.203125l-3.203125 0zm8.890625 0l0 -3.203125l3.203125 0l0 3.203125l-3.203125 0zm8.890625 0l0 -3.203125l3.203125 0l0 3.203125l-3.203125 0zm8.890625 0l0 -3.203125l3.203125 0l0 3.203125l-3.203125 0z" fill-rule="nonzero"></path><path fill="#000000" fill-opacity="0.0" d="m494.74274 50.142185l0 0c23.049255 1.6609535 43.85376 15.897984 55.53174 38.001743l-60.04361 39.026657z" fill-rule="nonzero"></path><path fill="#000000" fill-opacity="0.0" d="m494.74274 50.142185l0 0c23.049255 1.6609535 43.85376 15.897984 55.53174 38.001743" fill-rule="nonzero"></path><path stroke="#000000" stroke-width="2.0" stroke-linejoin="round" stroke-linecap="butt" d="m494.74274 50.142185l0 0c11.524658 0.83047485 22.488098 4.8049736 32.03015 11.33482c4.770996 3.264923 9.1866455 7.168686 13.139404 11.637703c1.9763794 2.2345047 3.8370972 4.6103287 5.5686035 7.118271c0.43286133 0.62698364 0.857666 1.2622223 1.2741699 1.9055786c0.20825195 0.32167816 0.41448975 0.64538574 0.6185913 0.97109985c0.10205078 0.16285706 0.20355225 0.32621765 0.3045044 0.4900818l0.15002441 0.24541473" fill-rule="evenodd"></path><path fill="#000000" stroke="#000000" stroke-width="2.0" stroke-linecap="butt" d="m547.8282 83.84515l-1.578125 -0.43343353l2.5783691 2.1910553l-0.56677246 -3.335785z" fill-rule="evenodd"></path><path fill="#000000" fill-opacity="0.0" d="m547.7645 160.97365l0 0c-5.911438 19.905762 -18.866089 36.28981 -35.887848 45.388107l-30.21222 -69.53757z" fill-rule="nonzero"></path><path fill="#000000" fill-opacity="0.0" d="m547.7645 160.97365l0 0c-5.911438 19.905762 -18.866089 36.28981 -35.887848 45.388107" fill-rule="nonzero"></path><path stroke="#000000" stroke-width="2.0" stroke-linejoin="round" stroke-linecap="butt" d="m547.7645 160.97365l0 0c-2.9556885 9.952881 -7.672241 19.02533 -13.777588 26.746872c-3.0526123 3.8607483 -6.4525146 7.383774 -10.153015 10.510239c-1.8502808 1.5632477 -3.7757568 3.027359 -5.770569 4.3849792c-0.49865723 0.33940125 -1.001709 0.6721344 -1.5090332 0.99812317l-0.40490723 0.25642395" fill-rule="evenodd"></path><path fill="#000000" stroke="#000000" stroke-width="2.0" stroke-linecap="butt" d="m516.1494 203.87029l0.41680908 -1.5826569l-2.1637573 2.6013336l3.3295898 -0.6018982z" fill-rule="evenodd"></path><path fill="#000000" fill-opacity="0.0" d="m757.01465 89.84523l105.697205 0l0 42.148987l-105.697205 0z" fill-rule="nonzero"></path><path fill="#000000" d="m781.65234 121.490036l0 -3.203125l3.203125 0l0 3.203125l-3.203125 0zm8.890625 0l0 -3.203125l3.203125 0l0 3.203125l-3.203125 0zm8.890625 0l0 -3.203125l3.203125 0l0 3.203125l-3.203125 0zm8.890625 0l0 -3.203125l3.203125 0l0 3.203125l-3.203125 0zm8.890625 0l0 -3.203125l3.203125 0l0 3.203125l-3.203125 0zm8.890625 0l0 -3.203125l3.203125 0l0 3.203125l-3.203125 0zm8.890625 0l0 -3.203125l3.203125 0l0 3.203125l-3.203125 0z" fill-rule="nonzero"></path><path fill="#000000" fill-opacity="0.0" d="m80.12861 0l44.34646 0l0 48.0l-44.34646 0z" fill-rule="nonzero"></path><path fill="#000000" d="m99.50361 25.890625l-2.6875 0l-1.703125 -4.46875q-0.328125 -0.84375 -0.75 -2.234375q-0.359375 1.1875 -0.734375 2.1875l-1.6875 4.515625l-2.671875 0l3.78125 -9.84375l-1.4375 -3.75l2.578125 0l1.46875 3.75l3.84375 9.84375z" fill-rule="nonzero"></path><path fill="#000000" d="m102.8012 24.265625q1.25 0 1.953125 0.890625q0.828125 1.046875 0.828125 3.5q0 2.4375 -0.84375 3.5q-0.6875 0.875 -1.9375 0.875q-1.25 0 -2.03125 -0.953125q-0.765625 -0.96875 -0.765625 -3.4375q0 -2.4375 0.84375 -3.5q0.703125 -0.875 1.953125 -0.875zm0 1.359375q-0.296875 0 -0.53125 0.203125q-0.234375 0.1875 -0.375 0.671875q-0.15625 0.640625 -0.15625 2.15625q0 1.515625 0.140625 2.078125q0.15625 0.5625 0.390625 0.75q0.234375 0.1875 0.53125 0.1875q0.296875 0 0.53125 -0.1875q0.234375 -0.1875 0.359375 -0.6875q0.171875 -0.625 0.171875 -2.140625q0 -1.515625 -0.15625 -2.078125q-0.140625 -0.5625 -0.375 -0.75q-0.234375 -0.203125 -0.53125 -0.203125z" fill-rule="nonzero"></path><path fill="#000000" fill-opacity="0.0" d="m216.12862 0l44.34645 0l0 48.0l-44.34645 0z" fill-rule="nonzero"></path><path fill="#000000" d="m235.50362 25.890625l-2.6875 0l-1.703125 -4.46875q-0.328125 -0.84375 -0.75 -2.234375q-0.359375 1.1875 -0.734375 2.1875l-1.6875 4.515625l-2.671875 0l3.78125 -9.84375l-1.4375 -3.75l2.578125 0l1.46875 3.75l3.84375 9.84375z" fill-rule="nonzero"></path><path fill="#000000" d="m240.22308 32.890625l-1.640625 0l0 -6.203125q-0.90625 0.84375 -2.125 1.25l0 -1.5q0.640625 -0.203125 1.390625 -0.796875q0.765625 -0.59375 1.046875 -1.375l1.328125 0l0 8.625z" fill-rule="nonzero"></path><path fill="#000000" fill-opacity="0.0" d="m720.1286 0l72.66144 0l0 48.0l-72.66144 0z" fill-rule="nonzero"></path><path fill="#000000" d="m739.5036 25.890625l-2.6875 0l-1.703125 -4.46875q-0.328125 -0.84375 -0.75 -2.234375q-0.359375 1.1875 -0.734375 2.1875l-1.6875 4.515625l-2.671875 0l3.78125 -9.84375l-1.4375 -3.75l2.578125 0l1.46875 3.75l3.84375 9.84375z" fill-rule="nonzero"></path><path fill="#000000" d="m746.01996 32.890625l-1.640625 0l0 -3.171875q0 -1.015625 -0.109375 -1.3125q-0.09375 -0.296875 -0.34375 -0.453125q-0.234375 -0.171875 -0.5625 -0.171875q-0.4375 0 -0.78125 0.234375q-0.328125 0.234375 -0.453125 0.625q-0.125 0.390625 -0.125 1.4375l0 2.8125l-1.65625 0l0 -6.21875l1.53125 0l0 0.90625q0.8125 -1.046875 2.0625 -1.046875q0.53125 0 0.984375 0.203125q0.453125 0.1875 0.6875 0.5q0.234375 0.296875 0.3125 0.6875q0.09375 0.375 0.09375 1.09375l0 3.875zm3.831543 -1.234375l0 -2.234375l-2.25 0l0 -1.546875l2.25 0l0 -2.234375l1.5 0l0 2.234375l2.250061 0l0 1.546875l-2.250061 0l0 2.234375l-1.5 0zm9.231995 1.234375l-1.640625 0l0 -6.203125q-0.90625 0.84375 -2.125 1.25l0 -1.5q0.640625 -0.203125 1.390625 -0.796875q0.765625 -0.59375 1.046875 -1.375l1.328125 0l0 8.625z" fill-rule="nonzero"></path><path fill="#000000" fill-opacity="0.0" d="m592.1286 0l44.346436 0l0 48.0l-44.346436 0z" fill-rule="nonzero"></path><path fill="#000000" d="m611.5036 25.890625l-2.6875 0l-1.703125 -4.46875q-0.328125 -0.84375 -0.75 -2.234375q-0.359375 1.1875 -0.734375 2.1875l-1.6875 4.515625l-2.671875 0l3.78125 -9.84375l-1.4375 -3.75l2.578125 0l1.46875 3.75l3.84375 9.84375z" fill-rule="nonzero"></path><path fill="#000000" d="m618.01996 32.890625l-1.640625 0l0 -3.171875q0 -1.015625 -0.109375 -1.3125q-0.09375 -0.296875 -0.34375 -0.453125q-0.234375 -0.171875 -0.5625 -0.171875q-0.4375 0 -0.78125 0.234375q-0.328125 0.234375 -0.453125 0.625q-0.125 0.390625 -0.125 1.4375l0 2.8125l-1.65625 0l0 -6.21875l1.53125 0l0 0.90625q0.8125 -1.046875 2.0625 -1.046875q0.53125 0 0.984375 0.203125q0.453125 0.1875 0.6875 0.5q0.234375 0.296875 0.3125 0.6875q0.09375 0.375 0.09375 1.09375l0 3.875z" fill-rule="nonzero"></path><path fill="#000000" fill-opacity="0.0" d="m480.1286 8.0l64.66144 0l0 48.0l-64.66144 0z" fill-rule="nonzero"></path><path fill="#000000" d="m499.5036 33.890625l-2.6875 0l-1.703125 -4.46875q-0.328125 -0.84375 -0.75 -2.234375q-0.359375 1.1875 -0.734375 2.1875l-1.6875 4.515625l-2.671875 0l3.78125 -9.84375l-1.4375 -3.75l2.578125 0l1.46875 3.75l3.84375 9.84375z" fill-rule="nonzero"></path><path fill="#000000" d="m506.01996 40.890625l-1.640625 0l0 -3.171875q0 -1.015625 -0.109375 -1.3125q-0.09375 -0.296875 -0.34375 -0.453125q-0.234375 -0.171875 -0.5625 -0.171875q-0.4375 0 -0.78125 0.234375q-0.328125 0.234375 -0.453125 0.625q-0.125 0.390625 -0.125 1.4375l0 2.8125l-1.65625 0l0 -6.21875l1.53125 0l0 0.90625q0.8125 -1.046875 2.0625 -1.046875q0.53125 0 0.984375 0.203125q0.453125 0.1875 0.6875 0.5q0.234375 0.296875 0.3125 0.6875q0.09375 0.375 0.09375 1.09375l0 3.875zm1.7534485 -2.296875l0 -1.640625l3.234375 0l0 1.640625l-3.234375 0zm8.188568 2.296875l-1.640625 0l0 -6.203125q-0.90625 0.84375 -2.125 1.25l0 -1.5q0.640625 -0.203125 1.390625 -0.796875q0.765625 -0.59375 1.046875 -1.375l1.328125 0l0 8.625z" fill-rule="nonzero"></path><path fill="#000000" fill-opacity="0.0" d="m344.1286 0l44.346466 0l0 48.0l-44.346466 0z" fill-rule="nonzero"></path><path fill="#000000" d="m363.5036 25.890625l-2.6875 0l-1.703125 -4.46875q-0.328125 -0.84375 -0.75 -2.234375q-0.359375 1.1875 -0.734375 2.1875l-1.6875 4.515625l-2.671875 0l3.78125 -9.84375l-1.4375 -3.75l2.578125 0l1.46875 3.75l3.84375 9.84375z" fill-rule="nonzero"></path><path fill="#000000" d="m369.58246 31.359375l0 1.53125l-5.78125 0q0.09375 -0.875 0.5625 -1.640625q0.46875 -0.78125 1.859375 -2.0625q1.109375 -1.03125 1.359375 -1.40625q0.34375 -0.515625 0.34375 -1.015625q0 -0.546875 -0.296875 -0.84375q-0.296875 -0.296875 -0.8125 -0.296875q-0.515625 0 -0.828125 0.3125q-0.296875 0.3125 -0.34375 1.03125l-1.640625 -0.15625q0.140625 -1.359375 0.90625 -1.953125q0.78125 -0.59375 1.9375 -0.59375q1.28125 0 2.0 0.6875q0.734375 0.6875 0.734375 1.703125q0 0.578125 -0.21875 1.109375q-0.203125 0.515625 -0.65625 1.09375q-0.296875 0.375 -1.078125 1.09375q-0.78125 0.71875 -0.984375 0.953125q-0.203125 0.234375 -0.34375 0.453125l3.28125 0z" fill-rule="nonzero"></path><path fill="#000000" fill-opacity="0.0" d="m88.12861 184.0l64.661415 0l0 48.0l-64.661415 0z" fill-rule="nonzero"></path><path fill="#000000" d="m98.47236 200.03125l2.59375 0l0 4.484375q0 1.25 0.125 1.96875q0.140625 0.703125 0.59375 1.140625q0.46875 0.421875 1.109375 0.421875q0.65625 0 1.140625 -0.453125q0.5 -0.453125 0.640625 -1.09375q0.140625 -0.65625 0.140625 -1.953125l0 -4.515625l2.59375 0l0 9.859375l-2.390625 0l0 -1.1875q-0.734375 1.40625 -1.984375 1.40625q-1.34375 0 -1.96875 -1.40625l0 4.9375l-2.59375 0l0 -13.609375z" fill-rule="nonzero"></path><path fill="#000000" d="m113.26156 216.89062l-1.640625 0l0 -6.203125q-0.90625 0.84375 -2.125 1.25l0 -1.5q0.640625 -0.203125 1.390625 -0.796875q0.765625 -0.59375 1.046875 -1.375l1.328125 0l0 8.625z" fill-rule="nonzero"></path><path fill="#000000" fill-opacity="0.0" d="m208.12862 192.0l64.66142 0l0 48.0l-64.66142 0z" fill-rule="nonzero"></path><path fill="#000000" d="m218.47237 208.03125l2.59375 0l0 4.484375q0 1.25 0.125 1.96875q0.140625 0.703125 0.59375 1.140625q0.46875 0.421875 1.109375 0.421875q0.65625 0 1.140625 -0.453125q0.5 -0.453125 0.640625 -1.09375q0.140625 -0.65625 0.140625 -1.953125l0 -4.515625l2.59375 0l0 9.859375l-2.390625 0l0 -1.1875q-0.734375 1.40625 -1.984375 1.40625q-1.34375 0 -1.96875 -1.40625l0 4.9375l-2.59375 0l0 -13.609375z" fill-rule="nonzero"></path><path fill="#000000" d="m234.62094 223.35938l0 1.53125l-5.78125 0q0.09375 -0.875 0.5625 -1.640625q0.46875 -0.78125 1.859375 -2.0625q1.109375 -1.03125 1.359375 -1.40625q0.34375 -0.515625 0.34375 -1.015625q0 -0.546875 -0.296875 -0.84375q-0.296875 -0.296875 -0.8125 -0.296875q-0.515625 0 -0.828125 0.3125q-0.296875 0.3125 -0.34375 1.03125l-1.640625 -0.15625q0.140625 -1.359375 0.90625 -1.953125q0.78125 -0.59375 1.9375 -0.59375q1.28125 0 2.0 0.6875q0.734375 0.6875 0.734375 1.703125q0 0.578125 -0.21875 1.109375q-0.203125 0.515625 -0.65625 1.09375q-0.296875 0.375 -1.078125 1.09375q-0.78125 0.71875 -0.984375 0.953125q-0.203125 0.234375 -0.34375 0.453125l3.28125 0z" fill-rule="nonzero"></path><path fill="#000000" fill-opacity="0.0" d="m328.1286 192.0l64.66144 0l0 48.0l-64.66144 0z" fill-rule="nonzero"></path><path fill="#000000" d="m338.47235 208.03125l2.59375 0l0 4.484375q0 1.25 0.125 1.96875q0.140625 0.703125 0.59375 1.140625q0.46875 0.421875 1.109375 0.421875q0.65625 0 1.140625 -0.453125q0.5 -0.453125 0.640625 -1.09375q0.140625 -0.65625 0.140625 -1.953125l0 -4.515625l2.59375 0l0 9.859375l-2.390625 0l0 -1.1875q-0.734375 1.40625 -1.984375 1.40625q-1.34375 0 -1.96875 -1.40625l0 4.9375l-2.59375 0l0 -13.609375z" fill-rule="nonzero"></path><path fill="#000000" d="m348.99594 222.60938l1.59375 -0.1875q0.078125 0.609375 0.40625 0.9375q0.34375 0.3125 0.8125 0.3125q0.515625 0 0.859375 -0.390625q0.34375 -0.390625 0.34375 -1.046875q0 -0.609375 -0.34375 -0.96875q-0.328125 -0.375 -0.796875 -0.375q-0.328125 0 -0.765625 0.125l0.1875 -1.34375q0.671875 0.015625 1.015625 -0.28125q0.359375 -0.3125 0.359375 -0.828125q0 -0.421875 -0.265625 -0.671875q-0.25 -0.265625 -0.6875 -0.265625q-0.421875 0 -0.71875 0.296875q-0.296875 0.28125 -0.359375 0.84375l-1.515625 -0.25q0.15625 -0.78125 0.46875 -1.25q0.328125 -0.46875 0.890625 -0.734375q0.578125 -0.265625 1.28125 -0.265625q1.21875 0 1.953125 0.765625q0.59375 0.640625 0.59375 1.4375q0 1.125 -1.234375 1.796875q0.75 0.171875 1.1875 0.71875q0.4375 0.546875 0.4375 1.328125q0 1.125 -0.828125 1.921875q-0.828125 0.796875 -2.046875 0.796875q-1.171875 0 -1.9375 -0.671875q-0.765625 -0.671875 -0.890625 -1.75z" fill-rule="nonzero"></path><path fill="#000000" fill-opacity="0.0" d="m488.1286 192.0l64.66144 0l0 48.0l-64.66144 0z" fill-rule="nonzero"></path><path fill="#000000" d="m498.47235 208.03125l2.59375 0l0 4.484375q0 1.25 0.125 1.96875q0.140625 0.703125 0.59375 1.140625q0.46875 0.421875 1.109375 0.421875q0.65625 0 1.140625 -0.453125q0.5 -0.453125 0.640625 -1.09375q0.140625 -0.65625 0.140625 -1.953125l0 -4.515625l2.59375 0l0 9.859375l-2.390625 0l0 -1.1875q-0.734375 1.40625 -1.984375 1.40625q-1.34375 0 -1.96875 -1.40625l0 4.9375l-2.59375 0l0 -13.609375z" fill-rule="nonzero"></path><path fill="#000000" d="m515.0584 224.89062l-1.640625 0l0 -3.171875q0 -1.015625 -0.109375 -1.3125q-0.09375 -0.296875 -0.34375 -0.453125q-0.234375 -0.171875 -0.5625 -0.171875q-0.43746948 0 -0.7812195 0.234375q-0.328125 0.234375 -0.453125 0.625q-0.125 0.390625 -0.125 1.4375l0 2.8125l-1.65625 0l0 -6.21875l1.53125 0l0 0.90625q0.8125 -1.046875 2.0624695 -1.046875q0.53125 0 0.984375 0.203125q0.453125 0.1875 0.6875 0.5q0.234375 0.296875 0.3125 0.6875q0.09375 0.375 0.09375 1.09375l0 3.875z" fill-rule="nonzero"></path><path fill="#000000" fill-opacity="0.0" d="m600.1286 192.0l64.66144 0l0 48.0l-64.66144 0z" fill-rule="nonzero"></path><path fill="#000000" d="m610.47235 208.03125l2.59375 0l0 4.484375q0 1.25 0.125 1.96875q0.140625 0.703125 0.59375 1.140625q0.46875 0.421875 1.109375 0.421875q0.65625 0 1.140625 -0.453125q0.5 -0.453125 0.640625 -1.09375q0.140625 -0.65625 0.140625 -1.953125l0 -4.515625l2.59375 0l0 9.859375l-2.390625 0l0 -1.1875q-0.734375 1.40625 -1.984375 1.40625q-1.34375 0 -1.96875 -1.40625l0 4.9375l-2.59375 0l0 -13.609375z" fill-rule="nonzero"></path><path fill="#000000" d="m627.0584 224.89062l-1.640625 0l0 -3.171875q0 -1.015625 -0.109375 -1.3125q-0.09375 -0.296875 -0.34375 -0.453125q-0.234375 -0.171875 -0.5625 -0.171875q-0.4375 0 -0.78125 0.234375q-0.328125 0.234375 -0.453125 0.625q-0.125 0.390625 -0.125 1.4375l0 2.8125l-1.65625 0l0 -6.21875l1.53125 0l0 0.90625q0.8125 -1.046875 2.0625 -1.046875q0.53125 0 0.984375 0.203125q0.453125 0.1875 0.6875 0.5q0.234375 0.296875 0.3125 0.6875q0.09375 0.375 0.09375 1.09375l0 3.875zm3.831604 -1.234375l0 -2.234375l-2.25 0l0 -1.546875l2.25 0l0 -2.234375l1.5 0l0 2.234375l2.25 0l0 1.546875l-2.25 0l0 2.234375l-1.5 0zm9.231934 1.234375l-1.640625 0l0 -6.203125q-0.90625 0.84375 -2.125 1.25l0 -1.5q0.640625 -0.203125 1.390625 -0.796875q0.765625 -0.59375 1.046875 -1.375l1.328125 0l0 8.625z" fill-rule="nonzero"></path><path fill="#000000" fill-opacity="0.0" d="m728.1286 192.0l64.66144 0l0 48.0l-64.66144 0z" fill-rule="nonzero"></path><path fill="#000000" d="m738.47235 208.03125l2.59375 0l0 4.484375q0 1.25 0.125 1.96875q0.140625 0.703125 0.59375 1.140625q0.46875 0.421875 1.109375 0.421875q0.65625 0 1.140625 -0.453125q0.5 -0.453125 0.640625 -1.09375q0.140625 -0.65625 0.140625 -1.953125l0 -4.515625l2.59375 0l0 9.859375l-2.390625 0l0 -1.1875q-0.734375 1.40625 -1.984375 1.40625q-1.34375 0 -1.96875 -1.40625l0 4.9375l-2.59375 0l0 -13.609375z" fill-rule="nonzero"></path><path fill="#000000" d="m755.0584 224.89062l-1.640625 0l0 -3.171875q0 -1.015625 -0.109375 -1.3125q-0.09375 -0.296875 -0.34375 -0.453125q-0.234375 -0.171875 -0.5625 -0.171875q-0.4375 0 -0.78125 0.234375q-0.328125 0.234375 -0.453125 0.625q-0.125 0.390625 -0.125 1.4375l0 2.8125l-1.65625 0l0 -6.21875l1.53125 0l0 0.90625q0.8125 -1.046875 2.0625 -1.046875q0.53125 0 0.984375 0.203125q0.453125 0.1875 0.6875 0.5q0.234375 0.296875 0.3125 0.6875q0.09375 0.375 0.09375 1.09375l0 3.875zm3.831604 -1.234375l0 -2.234375l-2.25 0l0 -1.546875l2.25 0l0 -2.234375l1.5 0l0 2.234375l2.25 0l0 1.546875l-2.25 0l0 2.234375l-1.5 0zm9.231934 1.234375l-1.640625 0l0 -6.203125q-0.90625 0.84375 -2.125 1.25l0 -1.5q0.640625 -0.203125 1.390625 -0.796875q0.765625 -0.59375 1.046875 -1.375l1.328125 0l0 8.625z" fill-rule="nonzero"></path></g></svg>

