<?xml version="1.0" standalone="yes"?>

<svg version="1.1" viewBox="0.0 0.0 538.0 304.0" fill="none" stroke="none" stroke-linecap="square" stroke-miterlimit="10" xmlns="http://www.w3.org/2000/svg" xmlns:xlink="http://www.w3.org/1999/xlink"><clipPath id="p.0"><path d="m0 0l538.0 0l0 304.0l-538.0 0l0 -304.0z" clip-rule="nonzero"></path></clipPath><g clip-path="url(#p.0)"><path fill="#000000" fill-opacity="0.0" d="m0 0l538.4068 0l0 304.2467l-538.4068 0z" fill-rule="nonzero"></path><path fill="#000000" fill-opacity="0.0" d="m52.38845 154.43045l0 0c0 -15.046509 11.936722 -27.244102 26.661415 -27.244102l0 0c7.0710526 0 13.852486 2.8703537 18.85247 7.979622c4.9999847 5.109253 7.8089523 12.038895 7.8089523 19.26448l0 0c0 15.046494 -11.936722 27.244095 -26.661423 27.244095l0 0c-14.724693 0 -26.661415 -12.197601 -26.661415 -27.244095z" fill-rule="nonzero"></path><path stroke="#000000" stroke-width="2.0" stroke-linejoin="round" stroke-linecap="butt" d="m52.38845 154.43045l0 0c0 -15.046509 11.936722 -27.244102 26.661415 -27.244102l0 0c7.0710526 0 13.852486 2.8703537 18.85247 7.979622c4.9999847 5.109253 7.8089523 12.038895 7.8089523 19.26448l0 0c0 15.046494 -11.936722 27.244095 -26.661423 27.244095l0 0c-14.724693 0 -26.661415 -12.197601 -26.661415 -27.244095z" fill-rule="nonzero"></path><path fill="#000000" fill-opacity="0.0" d="m212.38846 154.43045l0 0c0 -15.046509 11.936722 -27.244102 26.661407 -27.244102l0 0c7.071045 0 13.852493 2.8703537 18.852478 7.979622c4.9999695 5.109253 7.8089294 12.038895 7.8089294 19.26448l0 0c0 15.046494 -11.936707 27.244095 -26.661407 27.244095l0 0c-14.724686 0 -26.661407 -12.197601 -26.661407 -27.244095z" fill-rule="nonzero"></path><path stroke="#000000" stroke-width="2.0" stroke-linejoin="round" stroke-linecap="butt" d="m212.38846 154.43045l0 0c0 -15.046509 11.936722 -27.244102 26.661407 -27.244102l0 0c7.071045 0 13.852493 2.8703537 18.852478 7.979622c4.9999695 5.109253 7.8089294 12.038895 7.8089294 19.26448l0 0c0 15.046494 -11.936707 27.244095 -26.661407 27.244095l0 0c-14.724686 0 -26.661407 -12.197601 -26.661407 -27.244095z" fill-rule="nonzero"></path><path fill="#000000" fill-opacity="0.0" d="m372.38846 154.43045l0 0c0 -15.046509 11.936707 -27.244102 26.661407 -27.244102l0 0c7.071045 0 13.852478 2.8703537 18.852478 7.979622c4.9999695 5.109253 7.8089294 12.038895 7.8089294 19.26448l0 0c0 15.046494 -11.936707 27.244095 -26.661407 27.244095l0 0c-14.724701 0 -26.661407 -12.197601 -26.661407 -27.244095z" fill-rule="nonzero"></path><path stroke="#000000" stroke-width="2.0" stroke-linejoin="round" stroke-linecap="butt" d="m372.38846 154.43045l0 0c0 -15.046509 11.936707 -27.244102 26.661407 -27.244102l0 0c7.071045 0 13.852478 2.8703537 18.852478 7.979622c4.9999695 5.109253 7.8089294 12.038895 7.8089294 19.26448l0 0c0 15.046494 -11.936707 27.244095 -26.661407 27.244095l0 0c-14.724701 0 -26.661407 -12.197601 -26.661407 -27.244095z" fill-rule="nonzero"></path><path fill="#000000" fill-opacity="0.0" d="m124.7979 55.645668l68.50394 0" fill-rule="nonzero"></path><path stroke="#000000" stroke-width="2.0" stroke-linejoin="round" stroke-linecap="butt" d="m124.7979 55.645668l68.50394 0" fill-rule="nonzero"></path><path fill="#000000" fill-opacity="0.0" d="m124.7979 247.64568l68.50394 0" fill-rule="nonzero"></path><path stroke="#000000" stroke-width="2.0" stroke-linejoin="round" stroke-linecap="butt" d="m124.7979 247.64568l68.50394 0" fill-rule="nonzero"></path><path fill="#000000" fill-opacity="0.0" d="m284.9029 247.64568l68.50394 0" fill-rule="nonzero"></path><path stroke="#000000" stroke-width="2.0" stroke-linejoin="round" stroke-linecap="butt" d="m284.9029 247.64568l68.50394 0" fill-rule="nonzero"></path><path fill="#000000" fill-opacity="0.0" d="m284.9029 55.645668l68.50394 0" fill-rule="nonzero"></path><path stroke="#000000" stroke-width="2.0" stroke-linejoin="round" stroke-linecap="butt" d="m284.9029 55.645668l68.50394 0" fill-rule="nonzero"></path><path fill="#000000" fill-opacity="0.0" d="m158.41995 57.107613l-79.37009 70.078735" fill-rule="nonzero"></path><path stroke="#000000" stroke-width="2.0" stroke-linejoin="round" stroke-linecap="butt" d="m158.41995 57.107613l-74.232056 65.54219" fill-rule="evenodd"></path><path fill="#000000" stroke="#000000" stroke-width="2.0" stroke-linecap="butt" d="m84.1879 122.649796l0.19737244 -3.174675l-3.1436539 5.776062l6.1209564 -2.4040146z" fill-rule="evenodd"></path><path fill="#000000" fill-opacity="0.0" d="m159.11285 57.107613l79.93701 70.078735" fill-rule="nonzero"></path><path stroke="#000000" stroke-width="2.0" stroke-linejoin="round" stroke-linecap="butt" d="m159.11285 57.107613l74.783005 65.56035" fill-rule="evenodd"></path><path fill="#000000" stroke="#000000" stroke-width="2.0" stroke-linecap="butt" d="m233.89586 122.66796l-3.1739655 0.20857239l6.12941 2.382393l-3.1640167 -5.764923z" fill-rule="evenodd"></path><path fill="#000000" fill-opacity="0.0" d="m318.41995 55.501312l-79.37009 71.685036" fill-rule="nonzero"></path><path stroke="#000000" stroke-width="2.0" stroke-linejoin="round" stroke-linecap="butt" d="m318.41995 55.501312l-74.28345 67.09092" fill-rule="evenodd"></path><path fill="#000000" stroke="#000000" stroke-width="2.0" stroke-linecap="butt" d="m244.1365 122.59224l0.16160583 -3.1766968l-3.0784302 5.811081l6.093506 -2.4727707z" fill-rule="evenodd"></path><path fill="#000000" fill-opacity="0.0" d="m318.41995 57.107613l80.62991 70.078735" fill-rule="nonzero"></path><path stroke="#000000" stroke-width="2.0" stroke-linejoin="round" stroke-linecap="butt" d="m318.41995 57.107613l75.456635 65.58243" fill-rule="evenodd"></path><path fill="#000000" stroke="#000000" stroke-width="2.0" stroke-linecap="butt" d="m393.8766 122.69004l-3.1730347 0.22214508l6.1395264 2.356163l-3.1886292 -5.751343z" fill-rule="evenodd"></path><path fill="#000000" fill-opacity="0.0" d="m79.049866 181.67455l73.70079 66.58267" fill-rule="nonzero"></path><path stroke="#000000" stroke-width="2.0" stroke-linejoin="round" stroke-linecap="butt" d="m79.049866 181.67455l68.61478 61.98787" fill-rule="evenodd"></path><path fill="#000000" stroke="#000000" stroke-width="2.0" stroke-linecap="butt" d="m147.66464 243.66241l-3.176712 0.16119385l6.09317 2.473587l-3.077652 -5.811493z" fill-rule="evenodd"></path><path fill="#000000" fill-opacity="0.0" d="m239.04987 181.67455l-81.543304 64.97638" fill-rule="nonzero"></path><path stroke="#000000" stroke-width="2.0" stroke-linejoin="round" stroke-linecap="butt" d="m239.04987 181.67455l-76.182816 60.70497" fill-rule="evenodd"></path><path fill="#000000" stroke="#000000" stroke-width="2.0" stroke-linecap="butt" d="m162.86705 242.37952l0.35736084 -3.160675l-3.4312134 5.610016l6.2345123 -2.0919647z" fill-rule="evenodd"></path><path fill="#000000" fill-opacity="0.0" d="m239.04987 181.67455l79.37009 66.58267" fill-rule="nonzero"></path><path stroke="#000000" stroke-width="2.0" stroke-linejoin="round" stroke-linecap="butt" d="m239.04987 181.67455l74.11893 62.17755" fill-rule="evenodd"></path><path fill="#000000" stroke="#000000" stroke-width="2.0" stroke-linecap="butt" d="m313.1688 243.8521l-3.1686707 0.27760315l6.17984 2.248413l-3.2887878 -5.694687z" fill-rule="evenodd"></path><path fill="#000000" fill-opacity="0.0" d="m399.04987 181.67455l-80.62991 66.58267" fill-rule="nonzero"></path><path stroke="#000000" stroke-width="2.0" stroke-linejoin="round" stroke-linecap="butt" d="m399.04987 181.67455l-75.34482 62.218338" fill-rule="evenodd"></path><path fill="#000000" stroke="#000000" stroke-width="2.0" stroke-linecap="butt" d="m323.70505 243.89288l0.30215454 -3.1664276l-3.3327637 5.669052l6.1970215 -2.2004852z" fill-rule="evenodd"></path><path fill="#000000" fill-opacity="0.0" d="m412.9029 55.645668l68.50394 0" fill-rule="nonzero"></path><path stroke="#000000" stroke-width="2.0" stroke-linejoin="round" stroke-linecap="butt" d="m412.9029 55.645668l68.50394 0" fill-rule="nonzero"></path><path fill="#000000" fill-opacity="0.0" d="m412.9029 247.64568l68.50394 0" fill-rule="nonzero"></path><path stroke="#000000" stroke-width="2.0" stroke-linejoin="round" stroke-linecap="butt" d="m412.9029 247.64568l68.50394 0" fill-rule="nonzero"></path><path fill="#000000" fill-opacity="0.0" d="m452.3727 57.107613l-53.322845 70.078735" fill-rule="nonzero"></path><path stroke="#000000" stroke-width="2.0" stroke-linejoin="round" stroke-linecap="butt" d="m452.3727 57.107613l-49.172363 64.62407" fill-rule="evenodd"></path><path fill="#000000" stroke="#000000" stroke-width="2.0" stroke-linecap="butt" d="m403.20032 121.73168l-0.42797852 -3.1518784l-1.9519958 6.2797318l5.5318604 -3.5558243z" fill-rule="evenodd"></path><path fill="#000000" fill-opacity="0.0" d="m399.04987 181.67455l49.984253 66.58267" fill-rule="nonzero"></path><path stroke="#000000" stroke-width="2.0" stroke-linejoin="round" stroke-linecap="butt" d="m399.04987 181.67455l45.869263 61.10121" fill-rule="evenodd"></path><path fill="#000000" stroke="#000000" stroke-width="2.0" stroke-linecap="butt" d="m444.91913 242.77574l-3.1490479 -0.44839478l5.5086975 3.591629l-1.9112549 -6.292267z" fill-rule="evenodd"></path><path fill="#000000" fill-opacity="0.0" d="m11.92126 130.30183l53.322834 0l0 35.370087l-53.322834 0z" fill-rule="nonzero"></path><path fill="#000000" d="m25.233759 151.78621l0 4.046875q0 1.3125 0.28125 1.640625q0.390625 0.453125 1.171875 0.453125l0.546875 0l0 0.375l-5.96875 0l0 -0.375l0.53125 0q0.875 0 1.265625 -0.578125q0.203125 -0.3125 0.203125 -1.515625l0 -8.96875q0 -1.3125 -0.28125 -1.640625q-0.40625 -0.453125 -1.1875 -0.453125l-0.53125 0l0 -0.375l5.09375 0q1.875 0 2.953125 0.390625q1.078125 0.375 1.8125 1.296875q0.734375 0.90625 0.734375 2.15625q0 1.703125 -1.125 2.78125q-1.109375 1.0625 -3.171875 1.0625q-0.5 0 -1.09375 -0.078125q-0.578125 -0.078125 -1.234375 -0.21875zm0 -0.578125q0.53125 0.09375 0.953125 0.15625q0.421875 0.046875 0.71875 0.046875q1.078125 0 1.84375 -0.828125q0.78125 -0.828125 0.78125 -2.140625q0 -0.890625 -0.375 -1.671875q-0.375 -0.78125 -1.046875 -1.15625q-0.671875 -0.390625 -1.53125 -0.390625q-0.53125 0 -1.34375 0.203125l0 5.78125z" fill-rule="nonzero"></path><path fill="#000000" d="m34.42358 157.94246l2.25 -1.109375l0.234375 0l0 7.828125q0 0.78125 0.0625 0.984375q0.0625 0.1875 0.265625 0.296875q0.203125 0.09375 0.84375 0.109375l0 0.25l-3.484375 0l0 -0.25q0.65625 -0.015625 0.84375 -0.109375q0.1875 -0.109375 0.265625 -0.265625q0.078125 -0.171875 0.078125 -1.015625l0 -5.0q0 -1.015625 -0.078125 -1.296875q-0.046875 -0.21875 -0.171875 -0.3125q-0.125 -0.109375 -0.296875 -0.109375q-0.265625 0 -0.703125 0.203125l-0.109375 -0.203125z" fill-rule="nonzero"></path><path fill="#000000" fill-opacity="0.0" d="m171.92126 130.30183l53.32283 0l0 51.370087l-53.32283 0z" fill-rule="nonzero"></path><path fill="#000000" d="m185.23376 151.78621l0 4.046875q0 1.3125 0.28125 1.640625q0.390625 0.453125 1.171875 0.453125l0.546875 0l0 0.375l-5.96875 0l0 -0.375l0.53125 0q0.875 0 1.265625 -0.578125q0.203125 -0.3125 0.203125 -1.515625l0 -8.96875q0 -1.3125 -0.28125 -1.640625q-0.40625 -0.453125 -1.1875 -0.453125l-0.53125 0l0 -0.375l5.09375 0q1.875 0 2.953125 0.390625q1.078125 0.375 1.8125 1.296875q0.734375 0.90625 0.734375 2.15625q0 1.703125 -1.125 2.78125q-1.109375 1.0625 -3.171875 1.0625q-0.5 0 -1.09375 -0.078125q-0.578125 -0.078125 -1.234375 -0.21875zm0 -0.578125q0.53125 0.09375 0.953125 0.15625q0.421875 0.046875 0.71875 0.046875q1.078125 0 1.84375 -0.828125q0.78125 -0.828125 0.78125 -2.140625q0 -0.890625 -0.375 -1.671875q-0.375 -0.78125 -1.046875 -1.15625q-0.671875 -0.390625 -1.53125 -0.390625q-0.53125 0 -1.34375 0.203125l0 5.78125z" fill-rule="nonzero"></path><path fill="#000000" d="m199.20483 164.52058l-0.65625 1.78125l-5.46875 0l0 -0.25q2.421875 -2.203125 3.40625 -3.59375q0.984375 -1.40625 0.984375 -2.5625q0 -0.875 -0.546875 -1.4375q-0.53125 -0.578125 -1.296875 -0.578125q-0.671875 0 -1.21875 0.40625q-0.546875 0.40625 -0.796875 1.171875l-0.265625 0q0.171875 -1.265625 0.875 -1.9375q0.71875 -0.6875 1.78125 -0.6875q1.125 0 1.875 0.734375q0.765625 0.71875 0.765625 1.703125q0 0.703125 -0.328125 1.40625q-0.515625 1.109375 -1.640625 2.34375q-1.703125 1.859375 -2.140625 2.25l2.421875 0q0.75 0 1.046875 -0.046875q0.296875 -0.0625 0.53125 -0.234375q0.234375 -0.171875 0.421875 -0.46875l0.25 0z" fill-rule="nonzero"></path><path fill="#000000" fill-opacity="0.0" d="m331.92126 130.30183l53.322815 0l0 51.370087l-53.322815 0z" fill-rule="nonzero"></path><path fill="#000000" d="m345.23376 151.78621l0 4.046875q0 1.3125 0.28125 1.640625q0.390625 0.453125 1.171875 0.453125l0.546875 0l0 0.375l-5.96875 0l0 -0.375l0.53125 0q0.875 0 1.265625 -0.578125q0.203125 -0.3125 0.203125 -1.515625l0 -8.96875q0 -1.3125 -0.28125 -1.640625q-0.40625 -0.453125 -1.1875 -0.453125l-0.53125 0l0 -0.375l5.09375 0q1.875 0 2.953125 0.390625q1.078125 0.375 1.8125 1.296875q0.734375 0.90625 0.734375 2.15625q0 1.703125 -1.125 2.78125q-1.109375 1.0625 -3.171875 1.0625q-0.5 0 -1.09375 -0.078125q-0.578125 -0.078125 -1.234375 -0.21875zm0 -0.578125q0.53125 0.09375 0.953125 0.15625q0.421875 0.046875 0.71875 0.046875q1.078125 0 1.84375 -0.828125q0.78125 -0.828125 0.78125 -2.140625q0 -0.890625 -0.375 -1.671875q-0.375 -0.78125 -1.046875 -1.15625q-0.671875 -0.390625 -1.53125 -0.390625q-0.53125 0 -1.34375 0.203125l0 5.78125z" fill-rule="nonzero"></path><path fill="#000000" d="m353.5017 158.80183q0.390625 -0.9375 0.984375 -1.453125q0.609375 -0.515625 1.515625 -0.515625q1.109375 0 1.703125 0.734375q0.453125 0.53125 0.453125 1.15625q0 1.015625 -1.265625 2.09375q0.859375 0.328125 1.296875 0.953125q0.4375 0.625 0.4375 1.46875q0 1.203125 -0.765625 2.078125q-1.0 1.15625 -2.890625 1.15625q-0.9375 0 -1.28125 -0.234375q-0.34375 -0.234375 -0.34375 -0.5q0 -0.203125 0.15625 -0.34375q0.171875 -0.15625 0.390625 -0.15625q0.171875 0 0.359375 0.046875q0.109375 0.03125 0.515625 0.25q0.421875 0.21875 0.578125 0.265625q0.25 0.0625 0.53125 0.0625q0.703125 0 1.21875 -0.53125q0.515625 -0.546875 0.515625 -1.28125q0 -0.546875 -0.234375 -1.046875q-0.1875 -0.390625 -0.390625 -0.59375q-0.296875 -0.265625 -0.8125 -0.484375q-0.515625 -0.21875 -1.046875 -0.21875l-0.21875 0l0 -0.21875q0.546875 -0.0625 1.078125 -0.375q0.546875 -0.328125 0.796875 -0.78125q0.25 -0.453125 0.25 -0.984375q0 -0.703125 -0.453125 -1.140625q-0.4375 -0.4375 -1.09375 -0.4375q-1.0625 0 -1.765625 1.140625l-0.21875 -0.109375z" fill-rule="nonzero"></path><path fill="#000000" fill-opacity="0.0" d="m299.92126 242.30183l68.50394 0l0 54.488205l-68.50394 0z" fill-rule="nonzero"></path><path fill="#000000" d="m321.0775 256.3956l0.15625 3.265625l-0.390625 0q-0.125 -0.859375 -0.3125 -1.234375q-0.3125 -0.59375 -0.84375 -0.875q-0.53125 -0.28125 -1.390625 -0.28125l-1.96875 0l0 10.625q0 1.28125 0.28125 1.59375q0.390625 0.4375 1.203125 0.4375l0.484375 0l0 0.375l-5.90625 0l0 -0.375l0.5 0q0.875 0 1.25 -0.53125q0.21875 -0.328125 0.21875 -1.5l0 -10.625l-1.65625 0q-0.984375 0 -1.390625 0.140625q-0.53125 0.203125 -0.921875 0.75q-0.375 0.546875 -0.4375 1.5l-0.390625 0l0.15625 -3.265625l11.359375 0zm2.4968262 5.671875l-0.5625 -3.03125q-0.234375 -1.265625 -0.234375 -1.703125q0 -0.65625 0.265625 -0.953125q0.265625 -0.296875 0.734375 -0.296875q0.453125 0 0.75 0.296875q0.3125 0.296875 0.3125 0.796875q0 0.375 -0.265625 1.859375l-0.546875 3.03125l-0.453125 0z" fill-rule="nonzero"></path><path fill="#000000" d="m332.21402 276.5206l-0.65625 1.78125l-5.46875 0l0 -0.25q2.421875 -2.203125 3.40625 -3.59375q0.984375 -1.40625 0.984375 -2.5625q0 -0.875 -0.546875 -1.4375q-0.53125 -0.578125 -1.296875 -0.578125q-0.671875 0 -1.21875 0.40625q-0.546875 0.40625 -0.796875 1.171875l-0.265625 0q0.171875 -1.265625 0.875 -1.9375q0.71875 -0.6875 1.78125 -0.6875q1.125 0 1.875 0.734375q0.765625 0.71875 0.765625 1.703125q0 0.703125 -0.328125 1.40625q-0.515625 1.109375 -1.640625 2.34375q-1.703125 1.859375 -2.140625 2.25l2.421875 0q0.75 0 1.046875 -0.046875q0.296875 -0.0625 0.53125 -0.234375q0.234375 -0.171875 0.421875 -0.46875l0.25 0zm1.4061584 -5.71875q0.390625 -0.9375 0.984375 -1.453125q0.609375 -0.515625 1.515625 -0.515625q1.109375 0 1.703125 0.734375q0.453125 0.53125 0.453125 1.15625q0 1.015625 -1.265625 2.09375q0.859375 0.328125 1.296875 0.953125q0.4375 0.625 0.4375 1.46875q0 1.203125 -0.765625 2.078125q-1.0 1.15625 -2.890625 1.15625q-0.9375 0 -1.28125 -0.234375q-0.34375 -0.234375 -0.34375 -0.5q0 -0.203125 0.15625 -0.34375q0.171875 -0.15625 0.390625 -0.15625q0.171875 0 0.359375 0.046875q0.109375 0.03125 0.515625 0.25q0.421875 0.21875 0.578125 0.265625q0.25 0.0625 0.53125 0.0625q0.703125 0 1.21875 -0.53125q0.515625 -0.546875 0.515625 -1.28125q0 -0.546875 -0.234375 -1.046875q-0.1875 -0.390625 -0.390625 -0.59375q-0.296875 -0.265625 -0.8125 -0.484375q-0.515625 -0.21875 -1.046875 -0.21875l-0.21875 0l0 -0.21875q0.546875 -0.0625 1.078125 -0.375q0.546875 -0.328125 0.796875 -0.78125q0.25 -0.453125 0.25 -0.984375q0 -0.703125 -0.453125 -1.140625q-0.4375 -0.4375 -1.09375 -0.4375q-1.0625 0 -1.765625 1.140625l-0.21875 -0.109375z" fill-rule="nonzero"></path><path fill="#000000" fill-opacity="0.0" d="m427.92126 242.30183l68.50394 0l0 54.488205l-68.50394 0z" fill-rule="nonzero"></path><path fill="#000000" d="m449.0775 256.3956l0.15625 3.265625l-0.390625 0q-0.125 -0.859375 -0.3125 -1.234375q-0.3125 -0.59375 -0.84375 -0.875q-0.53125 -0.28125 -1.390625 -0.28125l-1.96875 0l0 10.625q0 1.28125 0.28125 1.59375q0.390625 0.4375 1.203125 0.4375l0.484375 0l0 0.375l-5.90625 0l0 -0.375l0.5 0q0.875 0 1.25 -0.53125q0.21875 -0.328125 0.21875 -1.5l0 -10.625l-1.65625 0q-0.984375 0 -1.390625 0.140625q-0.53125 0.203125 -0.921875 0.75q-0.375 0.546875 -0.4375 1.5l-0.390625 0l0.15625 -3.265625l11.359375 0zm2.4968262 5.671875l-0.5625 -3.03125q-0.234375 -1.265625 -0.234375 -1.703125q0 -0.65625 0.265625 -0.953125q0.265625 -0.296875 0.734375 -0.296875q0.453125 0 0.75 0.296875q0.3125 0.296875 0.3125 0.796875q0 0.375 -0.265625 1.859375l-0.546875 3.03125l-0.453125 0z" fill-rule="nonzero"></path><path fill="#000000" d="m454.5109 270.80185q0.390625 -0.9375 0.984375 -1.453125q0.609375 -0.515625 1.515625 -0.515625q1.109375 0 1.703125 0.734375q0.453125 0.53125 0.453125 1.15625q0 1.015625 -1.265625 2.09375q0.859375 0.328125 1.296875 0.953125q0.4375 0.625 0.4375 1.46875q0 1.203125 -0.765625 2.078125q-1.0 1.15625 -2.890625 1.15625q-0.9375 0 -1.28125 -0.234375q-0.34375 -0.234375 -0.34375 -0.5q0 -0.203125 0.15625 -0.34375q0.171875 -0.15625 0.390625 -0.15625q0.171875 0 0.359375 0.046875q0.109375 0.03125 0.515625 0.25q0.421875 0.21875 0.578125 0.265625q0.25 0.0625 0.53125 0.0625q0.703125 0 1.21875 -0.53125q0.515625 -0.546875 0.515625 -1.28125q0 -0.546875 -0.234375 -1.046875q-0.1875 -0.390625 -0.390625 -0.59375q-0.296875 -0.265625 -0.8125 -0.484375q-0.515625 -0.21875 -1.046875 -0.21875l-0.21875 0l0 -0.21875q0.546875 -0.0625 1.078125 -0.375q0.546875 -0.328125 0.796875 -0.78125q0.25 -0.453125 0.25 -0.984375q0 -0.703125 -0.453125 -1.140625q-0.4375 -0.4375 -1.09375 -0.4375q-1.0625 0 -1.765625 1.140625l-0.21875 -0.109375z" fill-rule="nonzero"></path><path fill="#000000" fill-opacity="0.0" d="m139.92126 242.30183l68.50394 0l0 54.488205l-68.50394 0z" fill-rule="nonzero"></path><path fill="#000000" d="m161.07751 256.3956l0.15625 3.265625l-0.390625 0q-0.125 -0.859375 -0.3125 -1.234375q-0.3125 -0.59375 -0.84375 -0.875q-0.53125 -0.28125 -1.390625 -0.28125l-1.96875 0l0 10.625q0 1.28125 0.28125 1.59375q0.390625 0.4375 1.203125 0.4375l0.484375 0l0 0.375l-5.90625 0l0 -0.375l0.5 0q0.875 0 1.25 -0.53125q0.21875 -0.328125 0.21875 -1.5l0 -10.625l-1.65625 0q-0.984375 0 -1.390625 0.140625q-0.53125 0.203125 -0.921875 0.75q-0.375 0.546875 -0.4375 1.5l-0.390625 0l0.15625 -3.265625l11.359375 0zm2.4968262 5.671875l-0.5625 -3.03125q-0.234375 -1.265625 -0.234375 -1.703125q0 -0.65625 0.265625 -0.953125q0.265625 -0.296875 0.734375 -0.296875q0.453125 0 0.75 0.296875q0.3125 0.296875 0.3125 0.796875q0 0.375 -0.265625 1.859375l-0.546875 3.03125l-0.453125 0z" fill-rule="nonzero"></path><path fill="#000000" d="m167.43279 269.94247l2.25 -1.109375l0.234375 0l0 7.828125q0 0.78125 0.0625 0.984375q0.0625 0.1875 0.265625 0.296875q0.203125 0.09375 0.84375 0.109375l0 0.25l-3.484375 0l0 -0.25q0.65625 -0.015625 0.84375 -0.109375q0.1875 -0.109375 0.265625 -0.265625q0.078125 -0.171875 0.078125 -1.015625l0 -5.0q0 -1.015625 -0.078125 -1.296875q-0.046875 -0.21875 -0.171875 -0.3125q-0.125 -0.109375 -0.296875 -0.109375q-0.265625 0 -0.703125 0.203125l-0.109375 -0.203125zm11.890518 6.578125l-0.65625 1.78125l-5.46875 0l0 -0.25q2.421875 -2.203125 3.40625 -3.59375q0.984375 -1.40625 0.984375 -2.5625q0 -0.875 -0.546875 -1.4375q-0.53125 -0.578125 -1.296875 -0.578125q-0.671875 0 -1.21875 0.40625q-0.546875 0.40625 -0.796875 1.171875l-0.265625 0q0.171875 -1.265625 0.875 -1.9375q0.71875 -0.6875 1.78125 -0.6875q1.125 0 1.875 0.734375q0.765625 0.71875 0.765625 1.703125q0 0.703125 -0.328125 1.40625q-0.515625 1.109375 -1.640625 2.34375q-1.703125 1.859375 -2.140625 2.25l2.421875 0q0.75 0 1.046875 -0.046875q0.296875 -0.0625 0.53125 -0.234375q0.234375 -0.171875 0.421875 -0.46875l0.25 0z" fill-rule="nonzero"></path><path fill="#000000" fill-opacity="0.0" d="m427.92126 10.301837l68.50394 0l0 54.488186l-68.50394 0z" fill-rule="nonzero"></path><path fill="#000000" d="m449.0775 24.395588l0.15625 3.265625l-0.390625 0q-0.125 -0.859375 -0.3125 -1.234375q-0.3125 -0.59375 -0.84375 -0.875q-0.53125 -0.28125 -1.390625 -0.28125l-1.96875 0l0 10.625q0 1.28125 0.28125 1.59375q0.390625 0.4375 1.203125 0.4375l0.484375 0l0 0.375l-5.90625 0l0 -0.375l0.5 0q0.875 0 1.25 -0.53125q0.21875 -0.328125 0.21875 -1.5l0 -10.625l-1.65625 0q-0.984375 0 -1.390625 0.140625q-0.53125 0.203125 -0.921875 0.75q-0.375 0.546875 -0.4375 1.5l-0.390625 0l0.15625 -3.265625l11.359375 0z" fill-rule="nonzero"></path><path fill="#000000" d="m450.6681 38.801838q0.390625 -0.9375 0.984375 -1.453125q0.609375 -0.515625 1.515625 -0.515625q1.109375 0 1.703125 0.734375q0.453125 0.53125 0.453125 1.15625q0 1.015625 -1.265625 2.09375q0.859375 0.328125 1.296875 0.953125q0.4375 0.625 0.4375 1.46875q0 1.203125 -0.765625 2.078125q-1.0 1.15625 -2.890625 1.15625q-0.9375 0 -1.28125 -0.234375q-0.34375 -0.234375 -0.34375 -0.5q0 -0.203125 0.15625 -0.34375q0.171875 -0.15625 0.390625 -0.15625q0.171875 0 0.359375 0.046875q0.109375 0.03125 0.515625 0.25q0.421875 0.21875 0.578125 0.265625q0.25 0.0625 0.53125 0.0625q0.703125 0 1.21875 -0.53125q0.515625 -0.546875 0.515625 -1.28125q0 -0.546875 -0.234375 -1.046875q-0.1875 -0.390625 -0.390625 -0.59375q-0.296875 -0.265625 -0.8125 -0.484375q-0.515625 -0.21875 -1.046875 -0.21875l-0.21875 0l0 -0.21875q0.546875 -0.0625 1.078125 -0.375q0.546875 -0.328125 0.796875 -0.78125q0.25 -0.453125 0.25 -0.984375q0 -0.703125 -0.453125 -1.140625q-0.4375 -0.4375 -1.09375 -0.4375q-1.0625 0 -1.765625 1.140625l-0.21875 -0.109375z" fill-rule="nonzero"></path><path fill="#000000" fill-opacity="0.0" d="m291.92126 10.301837l68.50394 0l0 54.488186l-68.50394 0z" fill-rule="nonzero"></path><path fill="#000000" d="m313.0775 24.395588l0.15625 3.265625l-0.390625 0q-0.125 -0.859375 -0.3125 -1.234375q-0.3125 -0.59375 -0.84375 -0.875q-0.53125 -0.28125 -1.390625 -0.28125l-1.96875 0l0 10.625q0 1.28125 0.28125 1.59375q0.390625 0.4375 1.203125 0.4375l0.484375 0l0 0.375l-5.90625 0l0 -0.375l0.5 0q0.875 0 1.25 -0.53125q0.21875 -0.328125 0.21875 -1.5l0 -10.625l-1.65625 0q-0.984375 0 -1.390625 0.140625q-0.53125 0.203125 -0.921875 0.75q-0.375 0.546875 -0.4375 1.5l-0.390625 0l0.15625 -3.265625l11.359375 0z" fill-rule="nonzero"></path><path fill="#000000" d="m320.37122 44.520588l-0.65625 1.78125l-5.46875 0l0 -0.25q2.421875 -2.203125 3.40625 -3.59375q0.984375 -1.40625 0.984375 -2.5625q0 -0.875 -0.546875 -1.4375q-0.53125 -0.578125 -1.296875 -0.578125q-0.671875 0 -1.21875 0.40625q-0.546875 0.40625 -0.796875 1.171875l-0.265625 0q0.171875 -1.265625 0.875 -1.9375q0.71875 -0.6875 1.78125 -0.6875q1.125 0 1.875 0.734375q0.765625 0.71875 0.765625 1.703125q0 0.703125 -0.328125 1.40625q-0.515625 1.109375 -1.640625 2.34375q-1.703125 1.859375 -2.140625 2.25l2.421875 0q0.75 0 1.046875 -0.046875q0.296875 -0.0625 0.53125 -0.234375q0.234375 -0.171875 0.421875 -0.46875l0.25 0zm1.4061279 -5.71875q0.390625 -0.9375 0.984375 -1.453125q0.609375 -0.515625 1.515625 -0.515625q1.109375 0 1.703125 0.734375q0.453125 0.53125 0.453125 1.15625q0 1.015625 -1.265625 2.09375q0.859375 0.328125 1.296875 0.953125q0.4375 0.625 0.4375 1.46875q0 1.203125 -0.765625 2.078125q-1.0 1.15625 -2.890625 1.15625q-0.9375 0 -1.28125 -0.234375q-0.34375 -0.234375 -0.34375 -0.5q0 -0.203125 0.15625 -0.34375q0.171875 -0.15625 0.390625 -0.15625q0.171875 0 0.359375 0.046875q0.109375 0.03125 0.515625 0.25q0.421875 0.21875 0.578125 0.265625q0.25 0.0625 0.53125 0.0625q0.703125 0 1.21875 -0.53125q0.515625 -0.546875 0.515625 -1.28125q0 -0.546875 -0.234375 -1.046875q-0.1875 -0.390625 -0.390625 -0.59375q-0.296875 -0.265625 -0.8125 -0.484375q-0.515625 -0.21875 -1.046875 -0.21875l-0.21875 0l0 -0.21875q0.546875 -0.0625 1.078125 -0.375q0.546875 -0.328125 0.796875 -0.78125q0.25 -0.453125 0.25 -0.984375q0 -0.703125 -0.453125 -1.140625q-0.4375 -0.4375 -1.09375 -0.4375q-1.0625 0 -1.765625 1.140625l-0.21875 -0.109375z" fill-rule="nonzero"></path><path fill="#000000" fill-opacity="0.0" d="m139.92126 10.301837l68.50394 0l0 54.488186l-68.50394 0z" fill-rule="nonzero"></path><path fill="#000000" d="m161.07751 24.395588l0.15625 3.265625l-0.390625 0q-0.125 -0.859375 -0.3125 -1.234375q-0.3125 -0.59375 -0.84375 -0.875q-0.53125 -0.28125 -1.390625 -0.28125l-1.96875 0l0 10.625q0 1.28125 0.28125 1.59375q0.390625 0.4375 1.203125 0.4375l0.484375 0l0 0.375l-5.90625 0l0 -0.375l0.5 0q0.875 0 1.25 -0.53125q0.21875 -0.328125 0.21875 -1.5l0 -10.625l-1.65625 0q-0.984375 0 -1.390625 0.140625q-0.53125 0.203125 -0.921875 0.75q-0.375 0.546875 -0.4375 1.5l-0.390625 0l0.15625 -3.265625l11.359375 0z" fill-rule="nonzero"></path><path fill="#000000" d="m163.58997 37.942463l2.25 -1.109375l0.234375 0l0 7.828125q0 0.78125 0.0625 0.984375q0.0625 0.1875 0.265625 0.296875q0.203125 0.09375 0.84375 0.109375l0 0.25l-3.484375 0l0 -0.25q0.65625 -0.015625 0.84375 -0.109375q0.1875 -0.109375 0.265625 -0.265625q0.078125 -0.171875 0.078125 -1.015625l0 -5.0q0 -1.015625 -0.078125 -1.296875q-0.046875 -0.21875 -0.171875 -0.3125q-0.125 -0.109375 -0.296875 -0.109375q-0.265625 0 -0.703125 0.203125l-0.109375 -0.203125zm11.890518 6.578125l-0.65625 1.78125l-5.46875 0l0 -0.25q2.421875 -2.203125 3.40625 -3.59375q0.984375 -1.40625 0.984375 -2.5625q0 -0.875 -0.546875 -1.4375q-0.53125 -0.578125 -1.296875 -0.578125q-0.671875 0 -1.21875 0.40625q-0.546875 0.40625 -0.796875 1.171875l-0.265625 0q0.171875 -1.265625 0.875 -1.9375q0.71875 -0.6875 1.78125 -0.6875q1.125 0 1.875 0.734375q0.765625 0.71875 0.765625 1.703125q0 0.703125 -0.328125 1.40625q-0.515625 1.109375 -1.640625 2.34375q-1.703125 1.859375 -2.140625 2.25l2.421875 0q0.75 0 1.046875 -0.046875q0.296875 -0.0625 0.53125 -0.234375q0.234375 -0.171875 0.421875 -0.46875l0.25 0z" fill-rule="nonzero"></path></g></svg>

