<?xml version="1.0" standalone="yes"?>

<svg version="1.1" viewBox="0.0 0.0 559.0 645.0" fill="none" stroke="none" stroke-linecap="square" stroke-miterlimit="10" xmlns="http://www.w3.org/2000/svg" xmlns:xlink="http://www.w3.org/1999/xlink"><clipPath id="p.0"><path d="m0 0l559.0 0l0 645.0l-559.0 0l0 -645.0z" clip-rule="nonzero"></path></clipPath><g clip-path="url(#p.0)"><path fill="#000000" fill-opacity="0.0" d="m0 0l559.1155 0l0 645.13385l-559.1155 0z" fill-rule="nonzero"></path><path fill="#000000" fill-opacity="0.0" d="m147.71523 287.00262l89.79527 119.1496" fill-rule="nonzero"></path><path stroke="#000000" stroke-width="2.0" stroke-linejoin="round" stroke-linecap="butt" stroke-dasharray="2.0,6.0" d="m147.71523 287.00262l89.79527 119.1496" fill-rule="nonzero"></path><path fill="#000000" fill-opacity="0.0" d="m312.63123 285.6378l-73.25984 119.46457" fill-rule="nonzero"></path><path stroke="#000000" stroke-width="2.0" stroke-linejoin="round" stroke-linecap="butt" stroke-dasharray="2.0,6.0" d="m312.63123 285.6378l-73.25984 119.46457" fill-rule="nonzero"></path><path fill="#000000" fill-opacity="0.0" d="m312.62466 97.34955c4.495758 -7.4424286 8.991119 -29.769714 26.974548 -44.65457c17.983429 -14.884857 53.20169 -44.920418 80.92609 -44.65457c27.724365 0.26584816 70.184265 -11.1643 85.4202 46.24966c15.235962 57.41396 5.246002 207.32855 5.9954224 298.2341c0.7494507 90.90552 22.729004 205.20221 -1.4988403 247.19916c-24.227875 41.99695 -119.89029 3.9855347 -143.86832 4.782654" fill-rule="nonzero"></path><path stroke="#000000" stroke-width="2.0" stroke-linejoin="round" stroke-linecap="butt" stroke-dasharray="2.0,6.0" d="m312.62466 97.34955c4.495758 -7.4424286 8.991119 -29.769714 26.974548 -44.65457c17.983429 -14.884857 53.20169 -44.920418 80.92609 -44.65457c27.724365 0.26584816 70.184265 -11.1643 85.4202 46.24966c15.235962 57.41396 5.246002 207.32855 5.9954224 298.2341c0.7494507 90.90552 22.729004 205.20221 -1.4988403 247.19916c-24.227875 41.99695 -119.89029 3.9855347 -143.86832 4.782654" fill-rule="nonzero"></path><path fill="#000000" fill-opacity="0.0" d="m52.38845 194.43045l0 0c0 -15.046509 11.936722 -27.244095 26.661415 -27.244095l0 0c7.0710526 0 13.852486 2.870346 18.85247 7.979599c4.9999924 5.109268 7.8089523 12.03891 7.8089523 19.264496l0 0c0 15.046494 -11.936722 27.244095 -26.661423 27.244095l0 0c-14.724693 0 -26.661415 -12.197601 -26.661415 -27.244095z" fill-rule="nonzero"></path><path stroke="#000000" stroke-width="2.0" stroke-linejoin="round" stroke-linecap="butt" d="m52.38845 194.43045l0 0c0 -15.046509 11.936722 -27.244095 26.661415 -27.244095l0 0c7.0710526 0 13.852486 2.870346 18.85247 7.979599c4.9999924 5.109268 7.8089523 12.03891 7.8089523 19.264496l0 0c0 15.046494 -11.936722 27.244095 -26.661423 27.244095l0 0c-14.724693 0 -26.661415 -12.197601 -26.661415 -27.244095z" fill-rule="nonzero"></path><path fill="#000000" fill-opacity="0.0" d="m212.38846 194.43045l0 0c0 -15.046509 11.936722 -27.244095 26.661407 -27.244095l0 0c7.071045 0 13.852493 2.870346 18.852478 7.979599c4.9999695 5.109268 7.8089294 12.03891 7.8089294 19.264496l0 0c0 15.046494 -11.936707 27.244095 -26.661407 27.244095l0 0c-14.724686 0 -26.661407 -12.197601 -26.661407 -27.244095z" fill-rule="nonzero"></path><path stroke="#000000" stroke-width="2.0" stroke-linejoin="round" stroke-linecap="butt" d="m212.38846 194.43045l0 0c0 -15.046509 11.936722 -27.244095 26.661407 -27.244095l0 0c7.071045 0 13.852493 2.870346 18.852478 7.979599c4.9999695 5.109268 7.8089294 12.03891 7.8089294 19.264496l0 0c0 15.046494 -11.936707 27.244095 -26.661407 27.244095l0 0c-14.724686 0 -26.661407 -12.197601 -26.661407 -27.244095z" fill-rule="nonzero"></path><path fill="#000000" fill-opacity="0.0" d="m372.38846 194.43045l0 0c0 -15.046509 11.936707 -27.244095 26.661407 -27.244095l0 0c7.071045 0 13.852478 2.870346 18.852478 7.979599c4.9999695 5.109268 7.8089294 12.03891 7.8089294 19.264496l0 0c0 15.046494 -11.936707 27.244095 -26.661407 27.244095l0 0c-14.724701 0 -26.661407 -12.197601 -26.661407 -27.244095z" fill-rule="nonzero"></path><path stroke="#000000" stroke-width="2.0" stroke-linejoin="round" stroke-linecap="butt" d="m372.38846 194.43045l0 0c0 -15.046509 11.936707 -27.244095 26.661407 -27.244095l0 0c7.071045 0 13.852478 2.870346 18.852478 7.979599c4.9999695 5.109268 7.8089294 12.03891 7.8089294 19.264496l0 0c0 15.046494 -11.936707 27.244095 -26.661407 27.244095l0 0c-14.724701 0 -26.661407 -12.197601 -26.661407 -27.244095z" fill-rule="nonzero"></path><path fill="#000000" fill-opacity="0.0" d="m116.7979 95.64567l68.50394 0" fill-rule="nonzero"></path><path stroke="#000000" stroke-width="2.0" stroke-linejoin="round" stroke-linecap="butt" d="m116.7979 95.64567l68.50394 0" fill-rule="nonzero"></path><path fill="#000000" fill-opacity="0.0" d="m124.7979 287.64566l68.50394 0" fill-rule="nonzero"></path><path stroke="#000000" stroke-width="2.0" stroke-linejoin="round" stroke-linecap="butt" d="m124.7979 287.64566l68.50394 0" fill-rule="nonzero"></path><path fill="#000000" fill-opacity="0.0" d="m284.9029 287.64566l68.50394 0" fill-rule="nonzero"></path><path stroke="#000000" stroke-width="2.0" stroke-linejoin="round" stroke-linecap="butt" d="m284.9029 287.64566l68.50394 0" fill-rule="nonzero"></path><path fill="#000000" fill-opacity="0.0" d="m284.9029 95.64567l68.50394 0" fill-rule="nonzero"></path><path stroke="#000000" stroke-width="2.0" stroke-linejoin="round" stroke-linecap="butt" d="m284.9029 95.64567l68.50394 0" fill-rule="nonzero"></path><path fill="#000000" fill-opacity="0.0" d="m412.9029 95.64567l68.50394 0" fill-rule="nonzero"></path><path stroke="#000000" stroke-width="2.0" stroke-linejoin="round" stroke-linecap="butt" d="m412.9029 95.64567l68.50394 0" fill-rule="nonzero"></path><path fill="#000000" fill-opacity="0.0" d="m412.9029 287.64566l68.50394 0" fill-rule="nonzero"></path><path stroke="#000000" stroke-width="2.0" stroke-linejoin="round" stroke-linecap="butt" d="m412.9029 287.64566l68.50394 0" fill-rule="nonzero"></path><path fill="#000000" fill-opacity="0.0" d="m11.92126 170.30183l53.322834 0l0 35.370087l-53.322834 0z" fill-rule="nonzero"></path><path fill="#000000" d="m25.233759 191.78621l0 4.046875q0 1.3125 0.28125 1.640625q0.390625 0.453125 1.171875 0.453125l0.546875 0l0 0.375l-5.96875 0l0 -0.375l0.53125 0q0.875 0 1.265625 -0.578125q0.203125 -0.3125 0.203125 -1.515625l0 -8.96875q0 -1.3125 -0.28125 -1.640625q-0.40625 -0.453125 -1.1875 -0.453125l-0.53125 0l0 -0.375l5.09375 0q1.875 0 2.953125 0.390625q1.078125 0.375 1.8125 1.296875q0.734375 0.90625 0.734375 2.15625q0 1.703125 -1.125 2.78125q-1.109375 1.0625 -3.171875 1.0625q-0.5 0 -1.09375 -0.078125q-0.578125 -0.078125 -1.234375 -0.21875zm0 -0.578125q0.53125 0.09375 0.953125 0.15625q0.421875 0.046875 0.71875 0.046875q1.078125 0 1.84375 -0.828125q0.78125 -0.828125 0.78125 -2.140625q0 -0.890625 -0.375 -1.671875q-0.375 -0.78125 -1.046875 -1.15625q-0.671875 -0.390625 -1.53125 -0.390625q-0.53125 0 -1.34375 0.203125l0 5.78125z" fill-rule="nonzero"></path><path fill="#000000" d="m34.42358 197.94246l2.25 -1.109375l0.234375 0l0 7.828125q0 0.78125 0.0625 0.984375q0.0625 0.1875 0.265625 0.296875q0.203125 0.09375 0.84375 0.109375l0 0.25l-3.484375 0l0 -0.25q0.65625 -0.015625 0.84375 -0.109375q0.1875 -0.109375 0.265625 -0.265625q0.078125 -0.171875 0.078125 -1.015625l0 -5.0q0 -1.015625 -0.078125 -1.296875q-0.046875 -0.21875 -0.171875 -0.3125q-0.125 -0.109375 -0.296875 -0.109375q-0.265625 0 -0.703125 0.203125l-0.109375 -0.203125z" fill-rule="nonzero"></path><path fill="#000000" fill-opacity="0.0" d="m171.92126 170.30183l53.32283 0l0 51.370087l-53.32283 0z" fill-rule="nonzero"></path><path fill="#000000" d="m185.23376 191.78621l0 4.046875q0 1.3125 0.28125 1.640625q0.390625 0.453125 1.171875 0.453125l0.546875 0l0 0.375l-5.96875 0l0 -0.375l0.53125 0q0.875 0 1.265625 -0.578125q0.203125 -0.3125 0.203125 -1.515625l0 -8.96875q0 -1.3125 -0.28125 -1.640625q-0.40625 -0.453125 -1.1875 -0.453125l-0.53125 0l0 -0.375l5.09375 0q1.875 0 2.953125 0.390625q1.078125 0.375 1.8125 1.296875q0.734375 0.90625 0.734375 2.15625q0 1.703125 -1.125 2.78125q-1.109375 1.0625 -3.171875 1.0625q-0.5 0 -1.09375 -0.078125q-0.578125 -0.078125 -1.234375 -0.21875zm0 -0.578125q0.53125 0.09375 0.953125 0.15625q0.421875 0.046875 0.71875 0.046875q1.078125 0 1.84375 -0.828125q0.78125 -0.828125 0.78125 -2.140625q0 -0.890625 -0.375 -1.671875q-0.375 -0.78125 -1.046875 -1.15625q-0.671875 -0.390625 -1.53125 -0.390625q-0.53125 0 -1.34375 0.203125l0 5.78125z" fill-rule="nonzero"></path><path fill="#000000" d="m199.20483 204.52058l-0.65625 1.78125l-5.46875 0l0 -0.25q2.421875 -2.203125 3.40625 -3.59375q0.984375 -1.40625 0.984375 -2.5625q0 -0.875 -0.546875 -1.4375q-0.53125 -0.578125 -1.296875 -0.578125q-0.671875 0 -1.21875 0.40625q-0.546875 0.40625 -0.796875 1.171875l-0.265625 0q0.171875 -1.265625 0.875 -1.9375q0.71875 -0.6875 1.78125 -0.6875q1.125 0 1.875 0.734375q0.765625 0.71875 0.765625 1.703125q0 0.703125 -0.328125 1.40625q-0.515625 1.109375 -1.640625 2.34375q-1.703125 1.859375 -2.140625 2.25l2.421875 0q0.75 0 1.046875 -0.046875q0.296875 -0.0625 0.53125 -0.234375q0.234375 -0.171875 0.421875 -0.46875l0.25 0z" fill-rule="nonzero"></path><path fill="#000000" fill-opacity="0.0" d="m331.92126 170.30183l53.322845 0l0 51.370087l-53.322845 0z" fill-rule="nonzero"></path><path fill="#000000" d="m345.23376 191.78621l0 4.046875q0 1.3125 0.28125 1.640625q0.390625 0.453125 1.171875 0.453125l0.546875 0l0 0.375l-5.96875 0l0 -0.375l0.53125 0q0.875 0 1.265625 -0.578125q0.203125 -0.3125 0.203125 -1.515625l0 -8.96875q0 -1.3125 -0.28125 -1.640625q-0.40625 -0.453125 -1.1875 -0.453125l-0.53125 0l0 -0.375l5.09375 0q1.875 0 2.953125 0.390625q1.078125 0.375 1.8125 1.296875q0.734375 0.90625 0.734375 2.15625q0 1.703125 -1.125 2.78125q-1.109375 1.0625 -3.171875 1.0625q-0.5 0 -1.09375 -0.078125q-0.578125 -0.078125 -1.234375 -0.21875zm0 -0.578125q0.53125 0.09375 0.953125 0.15625q0.421875 0.046875 0.71875 0.046875q1.078125 0 1.84375 -0.828125q0.78125 -0.828125 0.78125 -2.140625q0 -0.890625 -0.375 -1.671875q-0.375 -0.78125 -1.046875 -1.15625q-0.671875 -0.390625 -1.53125 -0.390625q-0.53125 0 -1.34375 0.203125l0 5.78125z" fill-rule="nonzero"></path><path fill="#000000" d="m353.5017 198.80183q0.390625 -0.9375 0.984375 -1.453125q0.609375 -0.515625 1.515625 -0.515625q1.109375 0 1.703125 0.734375q0.453125 0.53125 0.453125 1.15625q0 1.015625 -1.265625 2.09375q0.859375 0.328125 1.296875 0.953125q0.4375 0.625 0.4375 1.46875q0 1.203125 -0.765625 2.078125q-1.0 1.15625 -2.890625 1.15625q-0.9375 0 -1.28125 -0.234375q-0.34375 -0.234375 -0.34375 -0.5q0 -0.203125 0.15625 -0.34375q0.171875 -0.15625 0.390625 -0.15625q0.171875 0 0.359375 0.046875q0.109375 0.03125 0.515625 0.25q0.421875 0.21875 0.578125 0.265625q0.25 0.0625 0.53125 0.0625q0.703125 0 1.21875 -0.53125q0.515625 -0.546875 0.515625 -1.28125q0 -0.546875 -0.234375 -1.046875q-0.1875 -0.390625 -0.390625 -0.59375q-0.296875 -0.265625 -0.8125 -0.484375q-0.515625 -0.21875 -1.046875 -0.21875l-0.21875 0l0 -0.21875q0.546875 -0.0625 1.078125 -0.375q0.546875 -0.328125 0.796875 -0.78125q0.25 -0.453125 0.25 -0.984375q0 -0.703125 -0.453125 -1.140625q-0.4375 -0.4375 -1.09375 -0.4375q-1.0625 0 -1.765625 1.140625l-0.21875 -0.109375z" fill-rule="nonzero"></path><path fill="#000000" fill-opacity="0.0" d="m328.4462 281.72964l68.50394 0l0 54.48819l-68.50394 0z" fill-rule="nonzero"></path><path fill="#000000" d="m349.60245 295.8234l0.15625 3.265625l-0.390625 0q-0.125 -0.859375 -0.3125 -1.234375q-0.3125 -0.59375 -0.84375 -0.875q-0.53125 -0.28125 -1.390625 -0.28125l-1.96875 0l0 10.625q0 1.28125 0.28125 1.59375q0.390625 0.4375 1.203125 0.4375l0.484375 0l0 0.375l-5.90625 0l0 -0.375l0.5 0q0.875 0 1.25 -0.53125q0.21875 -0.328125 0.21875 -1.5l0 -10.625l-1.65625 0q-0.984375 0 -1.390625 0.140625q-0.53125 0.203125 -0.921875 0.75q-0.375 0.546875 -0.4375 1.5l-0.390625 0l0.15625 -3.265625l11.359375 0zm2.4968262 5.671875l-0.5625 -3.03125q-0.234375 -1.265625 -0.234375 -1.703125q0 -0.65625 0.265625 -0.953125q0.265625 -0.296875 0.734375 -0.296875q0.453125 0 0.75 0.296875q0.3125 0.296875 0.3125 0.796875q0 0.375 -0.265625 1.859375l-0.546875 3.03125l-0.453125 0z" fill-rule="nonzero"></path><path fill="#000000" d="m360.73895 315.9484l-0.65625 1.78125l-5.46875 0l0 -0.25q2.421875 -2.203125 3.40625 -3.59375q0.984375 -1.40625 0.984375 -2.5625q0 -0.875 -0.546875 -1.4375q-0.53125 -0.578125 -1.296875 -0.578125q-0.671875 0 -1.21875 0.40625q-0.546875 0.40625 -0.796875 1.171875l-0.265625 0q0.171875 -1.265625 0.875 -1.9375q0.71875 -0.6875 1.78125 -0.6875q1.125 0 1.875 0.734375q0.765625 0.71875 0.765625 1.703125q0 0.703125 -0.328125 1.40625q-0.515625 1.109375 -1.640625 2.34375q-1.703125 1.859375 -2.140625 2.25l2.421875 0q0.75 0 1.046875 -0.046875q0.296875 -0.0625 0.53125 -0.234375q0.234375 -0.171875 0.421875 -0.46875l0.25 0zm1.4061584 -5.71875q0.390625 -0.9375 0.984375 -1.453125q0.609375 -0.515625 1.515625 -0.515625q1.109375 0 1.703125 0.734375q0.453125 0.53125 0.453125 1.15625q0 1.015625 -1.265625 2.09375q0.859375 0.328125 1.296875 0.953125q0.4375 0.625 0.4375 1.46875q0 1.203125 -0.765625 2.078125q-1.0 1.15625 -2.890625 1.15625q-0.9375 0 -1.28125 -0.234375q-0.34375 -0.234375 -0.34375 -0.5q0 -0.203125 0.15625 -0.34375q0.171875 -0.15625 0.390625 -0.15625q0.171875 0 0.359375 0.046875q0.109375 0.03125 0.515625 0.25q0.421875 0.21875 0.578125 0.265625q0.25 0.0625 0.53125 0.0625q0.703125 0 1.21875 -0.53125q0.515625 -0.546875 0.515625 -1.28125q0 -0.546875 -0.234375 -1.046875q-0.1875 -0.390625 -0.390625 -0.59375q-0.296875 -0.265625 -0.8125 -0.484375q-0.515625 -0.21875 -1.046875 -0.21875l-0.21875 0l0 -0.21875q0.546875 -0.0625 1.078125 -0.375q0.546875 -0.328125 0.796875 -0.78125q0.25 -0.453125 0.25 -0.984375q0 -0.703125 -0.453125 -1.140625q-0.4375 -0.4375 -1.09375 -0.4375q-1.0625 0 -1.765625 1.140625l-0.21875 -0.109375z" fill-rule="nonzero"></path><path fill="#000000" fill-opacity="0.0" d="m427.92126 282.30185l68.50394 0l0 54.48819l-68.50394 0z" fill-rule="nonzero"></path><path fill="#000000" d="m449.0775 296.3956l0.15625 3.265625l-0.390625 0q-0.125 -0.859375 -0.3125 -1.234375q-0.3125 -0.59375 -0.84375 -0.875q-0.53125 -0.28125 -1.390625 -0.28125l-1.96875 0l0 10.625q0 1.28125 0.28125 1.59375q0.390625 0.4375 1.203125 0.4375l0.484375 0l0 0.375l-5.90625 0l0 -0.375l0.5 0q0.875 0 1.25 -0.53125q0.21875 -0.328125 0.21875 -1.5l0 -10.625l-1.65625 0q-0.984375 0 -1.390625 0.140625q-0.53125 0.203125 -0.921875 0.75q-0.375 0.546875 -0.4375 1.5l-0.390625 0l0.15625 -3.265625l11.359375 0zm2.4968262 5.671875l-0.5625 -3.03125q-0.234375 -1.265625 -0.234375 -1.703125q0 -0.65625 0.265625 -0.953125q0.265625 -0.296875 0.734375 -0.296875q0.453125 0 0.75 0.296875q0.3125 0.296875 0.3125 0.796875q0 0.375 -0.265625 1.859375l-0.546875 3.03125l-0.453125 0z" fill-rule="nonzero"></path><path fill="#000000" d="m454.5109 310.80185q0.390625 -0.9375 0.984375 -1.453125q0.609375 -0.515625 1.515625 -0.515625q1.109375 0 1.703125 0.734375q0.453125 0.53125 0.453125 1.15625q0 1.015625 -1.265625 2.09375q0.859375 0.328125 1.296875 0.953125q0.4375 0.625 0.4375 1.46875q0 1.203125 -0.765625 2.078125q-1.0 1.15625 -2.890625 1.15625q-0.9375 0 -1.28125 -0.234375q-0.34375 -0.234375 -0.34375 -0.5q0 -0.203125 0.15625 -0.34375q0.171875 -0.15625 0.390625 -0.15625q0.171875 0 0.359375 0.046875q0.109375 0.03125 0.515625 0.25q0.421875 0.21875 0.578125 0.265625q0.25 0.0625 0.53125 0.0625q0.703125 0 1.21875 -0.53125q0.515625 -0.546875 0.515625 -1.28125q0 -0.546875 -0.234375 -1.046875q-0.1875 -0.390625 -0.390625 -0.59375q-0.296875 -0.265625 -0.8125 -0.484375q-0.515625 -0.21875 -1.046875 -0.21875l-0.21875 0l0 -0.21875q0.546875 -0.0625 1.078125 -0.375q0.546875 -0.328125 0.796875 -0.78125q0.25 -0.453125 0.25 -0.984375q0 -0.703125 -0.453125 -1.140625q-0.4375 -0.4375 -1.09375 -0.4375q-1.0625 0 -1.765625 1.140625l-0.21875 -0.109375z" fill-rule="nonzero"></path><path fill="#000000" fill-opacity="0.0" d="m91.92126 274.30185l68.503944 0l0 54.48819l-68.503944 0z" fill-rule="nonzero"></path><path fill="#000000" d="m113.07751 288.3956l0.15625 3.265625l-0.390625 0q-0.125 -0.859375 -0.3125 -1.234375q-0.3125 -0.59375 -0.84375 -0.875q-0.53125 -0.28125 -1.390625 -0.28125l-1.96875 0l0 10.625q0 1.28125 0.28125 1.59375q0.390625 0.4375 1.203125 0.4375l0.484375 0l0 0.375l-5.90625 0l0 -0.375l0.5 0q0.875 0 1.25 -0.53125q0.21875 -0.328125 0.21875 -1.5l0 -10.625l-1.65625 0q-0.984375 0 -1.390625 0.140625q-0.53125 0.203125 -0.921875 0.75q-0.375 0.546875 -0.4375 1.5l-0.390625 0l0.15625 -3.265625l11.359375 0zm2.4968262 5.671875l-0.5625 -3.03125q-0.234375 -1.265625 -0.234375 -1.703125q0 -0.65625 0.265625 -0.953125q0.265625 -0.296875 0.734375 -0.296875q0.453125 0 0.75 0.296875q0.3125 0.296875 0.3125 0.796875q0 0.375 -0.265625 1.859375l-0.546875 3.03125l-0.453125 0z" fill-rule="nonzero"></path><path fill="#000000" d="m119.43278 301.94247l2.25 -1.109375l0.234375 0l0 7.828125q0 0.78125 0.0625 0.984375q0.0625 0.1875 0.265625 0.296875q0.203125 0.09375 0.84375 0.109375l0 0.25l-3.484375 0l0 -0.25q0.65625 -0.015625 0.84375 -0.109375q0.1875 -0.109375 0.265625 -0.265625q0.078125 -0.171875 0.078125 -1.015625l0 -5.0q0 -1.015625 -0.078125 -1.296875q-0.046875 -0.21875 -0.171875 -0.3125q-0.125 -0.109375 -0.296875 -0.109375q-0.265625 0 -0.703125 0.203125l-0.109375 -0.203125zm11.890526 6.578125l-0.65625 1.78125l-5.4687576 0l0 -0.25q2.421875 -2.203125 3.4062576 -3.59375q0.984375 -1.40625 0.984375 -2.5625q0 -0.875 -0.546875 -1.4375q-0.53125 -0.578125 -1.2968826 -0.578125q-0.671875 0 -1.21875 0.40625q-0.546875 0.40625 -0.796875 1.171875l-0.265625 0q0.171875 -1.265625 0.875 -1.9375q0.71875 -0.6875 1.7812576 -0.6875q1.125 0 1.875 0.734375q0.765625 0.71875 0.765625 1.703125q0 0.703125 -0.328125 1.40625q-0.515625 1.109375 -1.640625 2.34375q-1.7031326 1.859375 -2.1406326 2.25l2.4218826 0q0.75 0 1.046875 -0.046875q0.296875 -0.0625 0.53125 -0.234375q0.234375 -0.171875 0.421875 -0.46875l0.25 0z" fill-rule="nonzero"></path><path fill="#000000" fill-opacity="0.0" d="m427.92126 50.301838l68.50394 0l0 54.488186l-68.50394 0z" fill-rule="nonzero"></path><path fill="#000000" d="m449.0775 64.395584l0.15625 3.265625l-0.390625 0q-0.125 -0.859375 -0.3125 -1.234375q-0.3125 -0.59375 -0.84375 -0.875q-0.53125 -0.28125 -1.390625 -0.28125l-1.96875 0l0 10.625q0 1.28125 0.28125 1.59375q0.390625 0.4375 1.203125 0.4375l0.484375 0l0 0.375l-5.90625 0l0 -0.375l0.5 0q0.875 0 1.25 -0.53125q0.21875 -0.328125 0.21875 -1.5l0 -10.625l-1.65625 0q-0.984375 0 -1.390625 0.140625q-0.53125 0.203125 -0.921875 0.75q-0.375 0.546875 -0.4375 1.5l-0.390625 0l0.15625 -3.265625l11.359375 0z" fill-rule="nonzero"></path><path fill="#000000" d="m450.6681 78.801834q0.390625 -0.9375 0.984375 -1.453125q0.609375 -0.515625 1.515625 -0.515625q1.109375 0 1.703125 0.734375q0.453125 0.53125 0.453125 1.15625q0 1.015625 -1.265625 2.09375q0.859375 0.328125 1.296875 0.953125q0.4375 0.625 0.4375 1.46875q0 1.203125 -0.765625 2.078125q-1.0 1.15625 -2.890625 1.15625q-0.9375 0 -1.28125 -0.234375q-0.34375 -0.234375 -0.34375 -0.5q0 -0.203125 0.15625 -0.34375q0.171875 -0.15625 0.390625 -0.15625q0.171875 0 0.359375 0.046875q0.109375 0.03125 0.515625 0.25q0.421875 0.21875 0.578125 0.265625q0.25 0.0625 0.53125 0.0625q0.703125 0 1.21875 -0.53125q0.515625 -0.546875 0.515625 -1.28125q0 -0.546875 -0.234375 -1.046875q-0.1875 -0.390625 -0.390625 -0.59375q-0.296875 -0.265625 -0.8125 -0.484375q-0.515625 -0.21875 -1.046875 -0.21875l-0.21875 0l0 -0.21875q0.546875 -0.0625 1.078125 -0.375q0.546875 -0.328125 0.796875 -0.78125q0.25 -0.453125 0.25 -0.984375q0 -0.703125 -0.453125 -1.140625q-0.4375 -0.4375 -1.09375 -0.4375q-1.0625 0 -1.765625 1.140625l-0.21875 -0.109375z" fill-rule="nonzero"></path><path fill="#000000" fill-opacity="0.0" d="m267.92126 50.301838l68.50394 0l0 54.488186l-68.50394 0z" fill-rule="nonzero"></path><path fill="#000000" d="m289.0775 64.395584l0.15625 3.265625l-0.390625 0q-0.125 -0.859375 -0.3125 -1.234375q-0.3125 -0.59375 -0.84375 -0.875q-0.53125 -0.28125 -1.390625 -0.28125l-1.96875 0l0 10.625q0 1.28125 0.28125 1.59375q0.390625 0.4375 1.203125 0.4375l0.484375 0l0 0.375l-5.90625 0l0 -0.375l0.5 0q0.875 0 1.25 -0.53125q0.21875 -0.328125 0.21875 -1.5l0 -10.625l-1.65625 0q-0.984375 0 -1.390625 0.140625q-0.53125 0.203125 -0.921875 0.75q-0.375 0.546875 -0.4375 1.5l-0.390625 0l0.15625 -3.265625l11.359375 0z" fill-rule="nonzero"></path><path fill="#000000" d="m296.37122 84.520584l-0.65625 1.78125l-5.46875 0l0 -0.25q2.421875 -2.203125 3.40625 -3.59375q0.984375 -1.40625 0.984375 -2.5625q0 -0.875 -0.546875 -1.4375q-0.53125 -0.578125 -1.296875 -0.578125q-0.671875 0 -1.21875 0.40625q-0.546875 0.40625 -0.796875 1.171875l-0.265625 0q0.171875 -1.265625 0.875 -1.9375q0.71875 -0.6875 1.78125 -0.6875q1.125 0 1.875 0.734375q0.765625 0.71875 0.765625 1.703125q0 0.703125 -0.328125 1.40625q-0.515625 1.109375 -1.640625 2.34375q-1.703125 1.859375 -2.140625 2.25l2.421875 0q0.75 0 1.046875 -0.046875q0.296875 -0.0625 0.53125 -0.234375q0.234375 -0.171875 0.421875 -0.46875l0.25 0zm1.4061279 -5.71875q0.390625 -0.9375 0.984375 -1.453125q0.609375 -0.515625 1.515625 -0.515625q1.109375 0 1.703125 0.734375q0.453125 0.53125 0.453125 1.15625q0 1.015625 -1.265625 2.09375q0.859375 0.328125 1.296875 0.953125q0.4375 0.625 0.4375 1.46875q0 1.203125 -0.765625 2.078125q-1.0 1.15625 -2.890625 1.15625q-0.9375 0 -1.28125 -0.234375q-0.34375 -0.234375 -0.34375 -0.5q0 -0.203125 0.15625 -0.34375q0.171875 -0.15625 0.390625 -0.15625q0.171875 0 0.359375 0.046875q0.109375 0.03125 0.515625 0.25q0.421875 0.21875 0.578125 0.265625q0.25 0.0625 0.53125 0.0625q0.703125 0 1.21875 -0.53125q0.515625 -0.546875 0.515625 -1.28125q0 -0.546875 -0.234375 -1.046875q-0.1875 -0.390625 -0.390625 -0.59375q-0.296875 -0.265625 -0.8125 -0.484375q-0.515625 -0.21875 -1.046875 -0.21875l-0.21875 0l0 -0.21875q0.546875 -0.0625 1.078125 -0.375q0.546875 -0.328125 0.796875 -0.78125q0.25 -0.453125 0.25 -0.984375q0 -0.703125 -0.453125 -1.140625q-0.4375 -0.4375 -1.09375 -0.4375q-1.0625 0 -1.765625 1.140625l-0.21875 -0.109375z" fill-rule="nonzero"></path><path fill="#000000" fill-opacity="0.0" d="m123.92126 52.028458l68.503944 0l0 54.48819l-68.503944 0z" fill-rule="nonzero"></path><path fill="#000000" d="m145.07751 66.12221l0.15625 3.265625l-0.390625 0q-0.125 -0.859375 -0.3125 -1.234375q-0.3125 -0.59375 -0.84375 -0.875q-0.53125 -0.28125 -1.390625 -0.28125l-1.96875 0l0 10.625q0 1.28125 0.28125 1.59375q0.390625 0.4375 1.203125 0.4375l0.484375 0l0 0.375l-5.90625 0l0 -0.375l0.5 0q0.875 0 1.25 -0.53125q0.21875 -0.328125 0.21875 -1.5l0 -10.625l-1.65625 0q-0.984375 0 -1.390625 0.140625q-0.53125 0.203125 -0.921875 0.75q-0.375 0.546875 -0.4375 1.5l-0.390625 0l0.15625 -3.265625l11.359375 0z" fill-rule="nonzero"></path><path fill="#000000" d="m147.58997 79.66908l2.25 -1.109375l0.234375 0l0 7.828125q0 0.78125 0.0625 0.984375q0.0625 0.1875 0.265625 0.296875q0.203125 0.09375 0.84375 0.109375l0 0.25l-3.484375 0l0 -0.25q0.65625 -0.015625 0.84375 -0.109375q0.1875 -0.109375 0.265625 -0.265625q0.078125 -0.171875 0.078125 -1.015625l0 -5.0q0 -1.015625 -0.078125 -1.296875q-0.046875 -0.21875 -0.171875 -0.3125q-0.125 -0.109375 -0.296875 -0.109375q-0.265625 0 -0.703125 0.203125l-0.109375 -0.203125zm11.890518 6.578125l-0.65625 1.78125l-5.46875 0l0 -0.25q2.421875 -2.203125 3.40625 -3.59375q0.984375 -1.40625 0.984375 -2.5625q0 -0.875 -0.546875 -1.4375q-0.53125 -0.578125 -1.296875 -0.578125q-0.671875 0 -1.21875 0.40625q-0.546875 0.40625 -0.796875 1.171875l-0.265625 0q0.171875 -1.265625 0.875 -1.9375q0.71875 -0.6875 1.78125 -0.6875q1.125 0 1.875 0.734375q0.765625 0.71875 0.765625 1.703125q0 0.703125 -0.328125 1.40625q-0.515625 1.109375 -1.640625 2.34375q-1.703125 1.859375 -2.140625 2.25l2.421875 0q0.75 0 1.046875 -0.046875q0.296875 -0.0625 0.53125 -0.234375q0.234375 -0.171875 0.421875 -0.46875l0.25 0z" fill-rule="nonzero"></path><path fill="#000000" fill-opacity="0.0" d="m150.19948 97.32809l-71.14961 69.85827" fill-rule="nonzero"></path><path stroke="#000000" stroke-width="2.0" stroke-linejoin="round" stroke-linecap="butt" d="m150.19948 97.32809l-66.2588 65.05622" fill-rule="evenodd"></path><path fill="#000000" stroke="#000000" stroke-width="2.0" stroke-linecap="butt" d="m83.94068 162.38431l0.029129028 -3.180664l-2.8336563 5.9342804l5.985199 -2.7244873z" fill-rule="evenodd"></path><path fill="#000000" fill-opacity="0.0" d="m151.33333 95.53281l87.71654 71.65355" fill-rule="nonzero"></path><path stroke="#000000" stroke-width="2.0" stroke-linejoin="round" stroke-linecap="butt" d="m151.33333 95.53281l82.40831 67.31737" fill-rule="evenodd"></path><path fill="#000000" stroke="#000000" stroke-width="2.0" stroke-linecap="butt" d="m233.74164 162.85019l-3.1647644 0.31896973l6.2086487 2.1674957l-3.3628693 -5.651245z" fill-rule="evenodd"></path><path fill="#000000" fill-opacity="0.0" d="m317.00262 95.53281l-77.95276 71.65355" fill-rule="nonzero"></path><path stroke="#000000" stroke-width="2.0" stroke-linejoin="round" stroke-linecap="butt" d="m317.00262 95.53281l-72.90651 67.01509" fill-rule="evenodd"></path><path fill="#000000" stroke="#000000" stroke-width="2.0" stroke-linecap="butt" d="m244.0961 162.5479l0.13380432 -3.1779938l-3.0274506 5.8378143l6.0716248 -2.5260162z" fill-rule="evenodd"></path><path fill="#000000" fill-opacity="0.0" d="m318.57742 97.13911l80.47244 70.04725" fill-rule="nonzero"></path><path stroke="#000000" stroke-width="2.0" stroke-linejoin="round" stroke-linecap="butt" d="m318.57742 97.13911l75.30249 65.54708" fill-rule="evenodd"></path><path fill="#000000" stroke="#000000" stroke-width="2.0" stroke-linecap="butt" d="m393.87994 162.68619l-3.1732178 0.21977234l6.137787 2.3607483l-3.1843567 -5.753723z" fill-rule="evenodd"></path><path fill="#000000" fill-opacity="0.0" d="m444.4252 95.54068l-45.385834 71.65355" fill-rule="nonzero"></path><path stroke="#000000" stroke-width="2.0" stroke-linejoin="round" stroke-linecap="butt" d="m444.4252 95.54068l-41.71817 65.863205" fill-rule="evenodd"></path><path fill="#000000" stroke="#000000" stroke-width="2.0" stroke-linecap="butt" d="m402.707 161.40388l-0.6965332 -3.1036072l-1.4065857 6.42395l5.206726 -4.0169067z" fill-rule="evenodd"></path><path fill="#000000" fill-opacity="0.0" d="m396.6378 219.7874l54.17325 70.110245" fill-rule="nonzero"></path><path stroke="#000000" stroke-width="2.0" stroke-linejoin="round" stroke-linecap="butt" d="m396.6378 219.7874l49.98242 64.68651" fill-rule="evenodd"></path><path fill="#000000" stroke="#000000" stroke-width="2.0" stroke-linecap="butt" d="m446.6202 284.47394l-3.1549683 -0.40457153l5.558075 3.5146484l-1.9985657 -6.265045z" fill-rule="evenodd"></path><path fill="#000000" fill-opacity="0.0" d="m399.04987 221.67455l-88.44095 66.61418" fill-rule="nonzero"></path><path stroke="#000000" stroke-width="2.0" stroke-linejoin="round" stroke-linecap="butt" d="m399.04987 221.67455l-82.966034 62.490433" fill-rule="evenodd"></path><path fill="#000000" stroke="#000000" stroke-width="2.0" stroke-linecap="butt" d="m316.08383 284.16498l0.4433899 -3.1497498l-3.5828552 5.5144043l6.289215 -1.9212646z" fill-rule="evenodd"></path><path fill="#000000" fill-opacity="0.0" d="m239.04987 221.67455l74.74017 65.00786" fill-rule="nonzero"></path><path stroke="#000000" stroke-width="2.0" stroke-linejoin="round" stroke-linecap="butt" d="m239.04987 221.67455l69.56854 60.50966" fill-rule="evenodd"></path><path fill="#000000" stroke="#000000" stroke-width="2.0" stroke-linecap="butt" d="m308.61838 282.1842l-3.1730957 0.22097778l6.138672 2.358429l-3.186554 -5.752533z" fill-rule="evenodd"></path><path fill="#000000" fill-opacity="0.0" d="m240.53018 222.97375l-86.01575 63.716522" fill-rule="nonzero"></path><path stroke="#000000" stroke-width="2.0" stroke-linejoin="round" stroke-linecap="butt" d="m240.53018 222.97375l-80.50806 59.63669" fill-rule="evenodd"></path><path fill="#000000" stroke="#000000" stroke-width="2.0" stroke-linecap="butt" d="m160.02213 282.61044l0.46853638 -3.1460876l-3.6268005 5.4855957l6.304367 -1.8709717z" fill-rule="evenodd"></path><path fill="#000000" fill-opacity="0.0" d="m79.049866 221.67455l77.03937 66.61418" fill-rule="nonzero"></path><path stroke="#000000" stroke-width="2.0" stroke-linejoin="round" stroke-linecap="butt" d="m79.049866 221.67455l71.854645 62.131058" fill-rule="evenodd"></path><path fill="#000000" stroke="#000000" stroke-width="2.0" stroke-linecap="butt" d="m150.90451 283.8056l-3.1724548 0.23022461l6.145523 2.3405151l-3.2032928 -5.7431946z" fill-rule="evenodd"></path><path fill="#000000" fill-opacity="0.0" d="m132.38846 506.43045l0 0c0 -15.046509 11.936722 -27.24411 26.661407 -27.24411l0 0c7.071045 0 13.852493 2.8703613 18.852478 7.9796143c4.9999847 5.109253 7.8089447 12.03891 7.8089447 19.264496l0 0c0 15.046478 -11.936722 27.24411 -26.661423 27.24411l0 0c-14.724686 0 -26.661407 -12.197632 -26.661407 -27.24411z" fill-rule="nonzero"></path><path stroke="#000000" stroke-width="2.0" stroke-linejoin="round" stroke-linecap="butt" d="m132.38846 506.43045l0 0c0 -15.046509 11.936722 -27.24411 26.661407 -27.24411l0 0c7.071045 0 13.852493 2.8703613 18.852478 7.9796143c4.9999847 5.109253 7.8089447 12.03891 7.8089447 19.264496l0 0c0 15.046478 -11.936722 27.24411 -26.661423 27.24411l0 0c-14.724686 0 -26.661407 -12.197632 -26.661407 -27.24411z" fill-rule="nonzero"></path><path fill="#000000" fill-opacity="0.0" d="m292.38846 506.43045l0 0c0 -15.046509 11.936707 -27.24411 26.661407 -27.24411l0 0c7.071045 0 13.852478 2.8703613 18.852478 7.9796143c4.9999695 5.109253 7.8089294 12.03891 7.8089294 19.264496l0 0c0 15.046478 -11.936707 27.24411 -26.661407 27.24411l0 0c-14.724701 0 -26.661407 -12.197632 -26.661407 -27.24411z" fill-rule="nonzero"></path><path stroke="#000000" stroke-width="2.0" stroke-linejoin="round" stroke-linecap="butt" d="m292.38846 506.43045l0 0c0 -15.046509 11.936707 -27.24411 26.661407 -27.24411l0 0c7.071045 0 13.852478 2.8703613 18.852478 7.9796143c4.9999695 5.109253 7.8089294 12.03891 7.8089294 19.264496l0 0c0 15.046478 -11.936707 27.24411 -26.661407 27.24411l0 0c-14.724701 0 -26.661407 -12.197632 -26.661407 -27.24411z" fill-rule="nonzero"></path><path fill="#000000" fill-opacity="0.0" d="m36.7979 407.64566l68.50394 0" fill-rule="nonzero"></path><path stroke="#000000" stroke-width="2.0" stroke-linejoin="round" stroke-linecap="butt" d="m36.7979 407.64566l68.50394 0" fill-rule="nonzero"></path><path fill="#000000" fill-opacity="0.0" d="m44.7979 599.6457l68.50394 0" fill-rule="nonzero"></path><path stroke="#000000" stroke-width="2.0" stroke-linejoin="round" stroke-linecap="butt" d="m44.7979 599.6457l68.50394 0" fill-rule="nonzero"></path><path fill="#000000" fill-opacity="0.0" d="m204.9029 599.6457l68.50394 0" fill-rule="nonzero"></path><path stroke="#000000" stroke-width="2.0" stroke-linejoin="round" stroke-linecap="butt" d="m204.9029 599.6457l68.50394 0" fill-rule="nonzero"></path><path fill="#000000" fill-opacity="0.0" d="m204.9029 407.64566l68.50394 0" fill-rule="nonzero"></path><path stroke="#000000" stroke-width="2.0" stroke-linejoin="round" stroke-linecap="butt" d="m204.9029 407.64566l68.50394 0" fill-rule="nonzero"></path><path fill="#000000" fill-opacity="0.0" d="m332.9029 407.64566l68.50394 0" fill-rule="nonzero"></path><path stroke="#000000" stroke-width="2.0" stroke-linejoin="round" stroke-linecap="butt" d="m332.9029 407.64566l68.50394 0" fill-rule="nonzero"></path><path fill="#000000" fill-opacity="0.0" d="m332.9029 599.6457l68.50394 0" fill-rule="nonzero"></path><path stroke="#000000" stroke-width="2.0" stroke-linejoin="round" stroke-linecap="butt" d="m332.9029 599.6457l68.50394 0" fill-rule="nonzero"></path><path fill="#000000" fill-opacity="0.0" d="m91.92126 482.30185l53.322838 0l0 51.370087l-53.322838 0z" fill-rule="nonzero"></path><path fill="#000000" d="m105.23376 503.78622l0 4.046875q0 1.3125 0.28125 1.640625q0.390625 0.453125 1.171875 0.453125l0.546875 0l0 0.375l-5.96875 0l0 -0.375l0.53125 0q0.875 0 1.265625 -0.578125q0.203125 -0.3125 0.203125 -1.515625l0 -8.96875q0 -1.3125 -0.28125 -1.640625q-0.40625 -0.453125 -1.1875 -0.453125l-0.53125 0l0 -0.375l5.09375 0q1.875 0 2.953125 0.390625q1.078125 0.375 1.8125 1.296875q0.734375 0.90625 0.734375 2.15625q0 1.703125 -1.125 2.78125q-1.109375 1.0625 -3.171875 1.0625q-0.5 0 -1.09375 -0.078125q-0.578125 -0.078125 -1.234375 -0.21875zm0 -0.578125q0.53125 0.09375 0.953125 0.15625q0.421875 0.046875 0.71875 0.046875q1.078125 0 1.84375 -0.828125q0.78125 -0.828125 0.78125 -2.140625q0 -0.890625 -0.375 -1.671875q-0.375 -0.78125 -1.046875 -1.15625q-0.671875 -0.390625 -1.53125 -0.390625q-0.53125 0 -1.34375 0.203125l0 5.78125z" fill-rule="nonzero"></path><path fill="#000000" d="m119.29858 514.87994l0 0.96875l-1.25 0l0 2.453125l-1.125 0l0 -2.453125l-3.921875 0l0 -0.875l4.296875 -6.1405945l0.75 0l0 6.0468445l1.25 0zm-2.375 0l0 -4.5937195l-3.25 4.5937195l3.25 0z" fill-rule="nonzero"></path><path fill="#000000" fill-opacity="0.0" d="m251.92126 482.30185l53.322815 0l0 51.370087l-53.322815 0z" fill-rule="nonzero"></path><path fill="#000000" d="m265.23376 503.78622l0 4.046875q0 1.3125 0.28125 1.640625q0.390625 0.453125 1.171875 0.453125l0.546875 0l0 0.375l-5.96875 0l0 -0.375l0.53125 0q0.875 0 1.265625 -0.578125q0.203125 -0.3125 0.203125 -1.515625l0 -8.96875q0 -1.3125 -0.28125 -1.640625q-0.40625 -0.453125 -1.1875 -0.453125l-0.53125 0l0 -0.375l5.09375 0q1.875 0 2.953125 0.390625q1.078125 0.375 1.8125 1.296875q0.734375 0.90625 0.734375 2.15625q0 1.703125 -1.125 2.78125q-1.109375 1.0625 -3.171875 1.0625q-0.5 0 -1.09375 -0.078125q-0.578125 -0.078125 -1.234375 -0.21875zm0 -0.578125q0.53125 0.09375 0.953125 0.15625q0.421875 0.046875 0.71875 0.046875q1.078125 0 1.84375 -0.828125q0.78125 -0.828125 0.78125 -2.140625q0 -0.890625 -0.375 -1.671875q-0.375 -0.78125 -1.046875 -1.15625q-0.671875 -0.390625 -1.53125 -0.390625q-0.53125 0 -1.34375 0.203125l0 5.78125z" fill-rule="nonzero"></path><path fill="#000000" d="m278.86108 509.03622l-0.53125 1.15625l-2.796875 0l-0.609375 1.25q1.8125 0.265625 2.875 1.3437195q0.90625 0.921875 0.90625 2.1875q0 0.734375 -0.296875 1.359375q-0.296875 0.609375 -0.75 1.046875q-0.4375 0.4375 -1.0 0.703125q-0.78125 0.390625 -1.609375 0.390625q-0.84375 0 -1.21875 -0.28125q-0.375 -0.296875 -0.375 -0.640625q0 -0.1875 0.15625 -0.328125q0.15625 -0.15625 0.390625 -0.15625q0.1875 0 0.3125 0.0625q0.140625 0.046875 0.453125 0.28125q0.515625 0.34375 1.046875 0.34375q0.796875 0 1.390625 -0.59375q0.609375 -0.609375 0.609375 -1.484375q0 -0.828125 -0.546875 -1.5625q-0.53125 -0.734375 -1.46875 -1.125q-0.75 -0.3125 -2.03125 -0.359375l1.765625 -3.5937195l3.328125 0z" fill-rule="nonzero"></path><path fill="#000000" fill-opacity="0.0" d="m216.4462 593.7297l68.50394 0l0 54.48816l-68.50394 0z" fill-rule="nonzero"></path><path fill="#000000" d="m237.60245 607.8234l0.15625 3.265625l-0.390625 0q-0.125 -0.859375 -0.3125 -1.234375q-0.3125 -0.59375 -0.84375 -0.875q-0.53125 -0.28125 -1.390625 -0.28125l-1.96875 0l0 10.625q0 1.28125 0.28125 1.59375q0.390625 0.4375 1.203125 0.4375l0.484375 0l0 0.375l-5.90625 0l0 -0.375l0.5 0q0.875 0 1.25 -0.53125q0.21875 -0.328125 0.21875 -1.5l0 -10.625l-1.65625 0q-0.984375 0 -1.390625 0.140625q-0.53125 0.203125 -0.921875 0.75q-0.375 0.546875 -0.4375 1.5l-0.390625 0l0.15625 -3.265625l11.359375 0zm2.4968262 5.671875l-0.5625 -3.03125q-0.234375 -1.265625 -0.234375 -1.703125q0 -0.65625 0.265625 -0.953125q0.265625 -0.296875 0.734375 -0.296875q0.453125 0 0.75 0.296875q0.3125 0.296875 0.3125 0.796875q0 0.375 -0.265625 1.859375l-0.546875 3.03125l-0.453125 0z" fill-rule="nonzero"></path><path fill="#000000" d="m248.83272 626.3078l0 0.96875l-1.25 0l0 2.453125l-1.125 0l0 -2.453125l-3.921875 0l0 -0.875l4.296875 -6.140625l0.75 0l0 6.046875l1.25 0zm-2.375 0l0 -4.59375l-3.25 4.59375l3.25 0zm9.046768 -5.84375l-0.53125 1.15625l-2.796875 0l-0.609375 1.25q1.8125 0.265625 2.875 1.34375q0.90625 0.921875 0.90625 2.1875q0 0.734375 -0.296875 1.359375q-0.296875 0.609375 -0.75 1.046875q-0.4375 0.4375 -1.0 0.703125q-0.78125 0.390625 -1.609375 0.390625q-0.84375 0 -1.21875 -0.28125q-0.375 -0.296875 -0.375 -0.640625q0 -0.1875 0.15625 -0.328125q0.15625 -0.15625 0.390625 -0.15625q0.1875 0 0.3125 0.0625q0.140625 0.046875 0.453125 0.28125q0.515625 0.34375 1.046875 0.34375q0.796875 0 1.390625 -0.59375q0.609375 -0.609375 0.609375 -1.484375q0 -0.828125 -0.546875 -1.5625q-0.53125 -0.734375 -1.46875 -1.125q-0.75 -0.3125 -2.03125 -0.359375l1.765625 -3.59375l3.328125 0z" fill-rule="nonzero"></path><path fill="#000000" fill-opacity="0.0" d="m315.92126 594.3018l68.50394 0l0 54.48822l-68.50394 0z" fill-rule="nonzero"></path><path fill="#000000" d="m337.0775 608.39557l0.15625 3.265625l-0.390625 0q-0.125 -0.859375 -0.3125 -1.234375q-0.3125 -0.59375 -0.84375 -0.875q-0.53125 -0.28125 -1.390625 -0.28125l-1.96875 0l0 10.625q0 1.28125 0.28125 1.59375q0.390625 0.4375 1.203125 0.4375l0.484375 0l0 0.375l-5.90625 0l0 -0.375l0.5 0q0.875 0 1.25 -0.53125q0.21875 -0.328125 0.21875 -1.5l0 -10.625l-1.65625 0q-0.984375 0 -1.390625 0.140625q-0.53125 0.203125 -0.921875 0.75q-0.375 0.546875 -0.4375 1.5l-0.390625 0l0.15625 -3.265625l11.359375 0zm2.4968262 5.671875l-0.5625 -3.03125q-0.234375 -1.265625 -0.234375 -1.703125q0 -0.65625 0.265625 -0.953125q0.265625 -0.296875 0.734375 -0.296875q0.453125 0 0.75 0.296875q0.3125 0.296875 0.3125 0.796875q0 0.375 -0.265625 1.859375l-0.546875 3.03125l-0.453125 0z" fill-rule="nonzero"></path><path fill="#000000" d="m347.87027 621.0362l-0.53125 1.15625l-2.796875 0l-0.609375 1.25q1.8125 0.265625 2.875 1.34375q0.90625 0.921875 0.90625 2.1875q0 0.734375 -0.296875 1.359375q-0.296875 0.609375 -0.75 1.046875q-0.4375 0.4375 -1.0 0.703125q-0.78125 0.390625 -1.609375 0.390625q-0.84375 0 -1.21875 -0.28125q-0.375 -0.296875 -0.375 -0.640625q0 -0.1875 0.15625 -0.328125q0.15625 -0.15625 0.390625 -0.15625q0.1875 0 0.3125 0.0625q0.140625 0.046875 0.453125 0.28125q0.515625 0.34375 1.046875 0.34375q0.796875 0 1.390625 -0.59375q0.609375 -0.609375 0.609375 -1.484375q0 -0.828125 -0.546875 -1.5625q-0.53125 -0.734375 -1.46875 -1.125q-0.75 -0.3125 -2.03125 -0.359375l1.765625 -3.59375l3.328125 0z" fill-rule="nonzero"></path><path fill="#000000" fill-opacity="0.0" d="m59.92126 594.3018l68.50394 0l0 54.48822l-68.50394 0z" fill-rule="nonzero"></path><path fill="#000000" d="m81.07751 608.39557l0.15625 3.265625l-0.390625 0q-0.125 -0.859375 -0.3125 -1.234375q-0.3125 -0.59375 -0.84375 -0.875q-0.53125 -0.28125 -1.390625 -0.28125l-1.96875 0l0 10.625q0 1.28125 0.28125 1.59375q0.390625 0.4375 1.203125 0.4375l0.484375 0l0 0.375l-5.90625 0l0 -0.375l0.5 0q0.875 0 1.25 -0.53125q0.21875 -0.328125 0.21875 -1.5l0 -10.625l-1.65625 0q-0.984375 0 -1.390625 0.140625q-0.53125 0.203125 -0.921875 0.75q-0.375 0.546875 -0.4375 1.5l-0.390625 0l0.15625 -3.265625l11.359375 0zm2.4968262 5.671875l-0.5625 -3.03125q-0.234375 -1.265625 -0.234375 -1.703125q0 -0.65625 0.265625 -0.953125q0.265625 -0.296875 0.734375 -0.296875q0.453125 0 0.75 0.296875q0.3125 0.296875 0.3125 0.796875q0 0.375 -0.265625 1.859375l-0.546875 3.03125l-0.453125 0z" fill-rule="nonzero"></path><path fill="#000000" d="m92.30778 626.87994l0 0.96875l-1.25 0l0 2.453125l-1.125 0l0 -2.453125l-3.921875 0l0 -0.875l4.296875 -6.140625l0.75 0l0 6.046875l1.25 0zm-2.375 0l0 -4.59375l-3.25 4.59375l3.25 0z" fill-rule="nonzero"></path><path fill="#000000" fill-opacity="0.0" d="m347.92126 362.30185l68.50394 0l0 54.48819l-68.50394 0z" fill-rule="nonzero"></path><path fill="#000000" d="m369.0775 376.3956l0.15625 3.265625l-0.390625 0q-0.125 -0.859375 -0.3125 -1.234375q-0.3125 -0.59375 -0.84375 -0.875q-0.53125 -0.28125 -1.390625 -0.28125l-1.96875 0l0 10.625q0 1.28125 0.28125 1.59375q0.390625 0.4375 1.203125 0.4375l0.484375 0l0 0.375l-5.90625 0l0 -0.375l0.5 0q0.875 0 1.25 -0.53125q0.21875 -0.328125 0.21875 -1.5l0 -10.625l-1.65625 0q-0.984375 0 -1.390625 0.140625q-0.53125 0.203125 -0.921875 0.75q-0.375 0.546875 -0.4375 1.5l-0.390625 0l0.15625 -3.265625l11.359375 0z" fill-rule="nonzero"></path><path fill="#000000" d="m376.02747 389.03622l-0.53125 1.15625l-2.796875 0l-0.609375 1.25q1.8125 0.265625 2.875 1.34375q0.90625 0.921875 0.90625 2.1875q0 0.734375 -0.296875 1.359375q-0.296875 0.609375 -0.75 1.046875q-0.4375 0.4375 -1.0 0.703125q-0.78125 0.390625 -1.609375 0.390625q-0.84375 0 -1.21875 -0.28125q-0.375 -0.296875 -0.375 -0.640625q0 -0.1875 0.15625 -0.328125q0.15625 -0.15625 0.390625 -0.15625q0.1875 0 0.3125 0.0625q0.140625 0.046875 0.453125 0.28125q0.515625 0.34375 1.046875 0.34375q0.796875 0 1.390625 -0.59375q0.609375 -0.609375 0.609375 -1.484375q0 -0.828125 -0.546875 -1.5625q-0.53125 -0.734375 -1.46875 -1.125q-0.75 -0.3125 -2.03125 -0.359375l1.765625 -3.59375l3.328125 0z" fill-rule="nonzero"></path><path fill="#000000" fill-opacity="0.0" d="m187.92126 362.30185l68.50394 0l0 54.48819l-68.50394 0z" fill-rule="nonzero"></path><path fill="#000000" d="m209.07751 376.3956l0.15625 3.265625l-0.390625 0q-0.125 -0.859375 -0.3125 -1.234375q-0.3125 -0.59375 -0.84375 -0.875q-0.53125 -0.28125 -1.390625 -0.28125l-1.96875 0l0 10.625q0 1.28125 0.28125 1.59375q0.390625 0.4375 1.203125 0.4375l0.484375 0l0 0.375l-5.90625 0l0 -0.375l0.5 0q0.875 0 1.25 -0.53125q0.21875 -0.328125 0.21875 -1.5l0 -10.625l-1.65625 0q-0.984375 0 -1.390625 0.140625q-0.53125 0.203125 -0.921875 0.75q-0.375 0.546875 -0.4375 1.5l-0.390625 0l0.15625 -3.265625l11.359375 0z" fill-rule="nonzero"></path><path fill="#000000" d="m216.46497 394.87997l0 0.96875l-1.25 0l0 2.453125l-1.125 0l0 -2.453125l-3.921875 0l0 -0.875l4.296875 -6.140625l0.75 0l0 6.046875l1.25 0zm-2.375 0l0 -4.59375l-3.25 4.59375l3.25 0zm9.046768 -5.84375l-0.53125 1.15625l-2.796875 0l-0.609375 1.25q1.8125 0.265625 2.875 1.34375q0.90625 0.921875 0.90625 2.1875q0 0.734375 -0.296875 1.359375q-0.296875 0.609375 -0.75 1.046875q-0.4375 0.4375 -1.0 0.703125q-0.78125 0.390625 -1.609375 0.390625q-0.84375 0 -1.21875 -0.28125q-0.375 -0.296875 -0.375 -0.640625q0 -0.1875 0.15625 -0.328125q0.15625 -0.15625 0.390625 -0.15625q0.1875 0 0.3125 0.0625q0.140625 0.046875 0.453125 0.28125q0.515625 0.34375 1.046875 0.34375q0.796875 0 1.390625 -0.59375q0.609375 -0.609375 0.609375 -1.484375q0 -0.828125 -0.546875 -1.5625q-0.53125 -0.734375 -1.46875 -1.125q-0.75 -0.3125 -2.03125 -0.359375l1.765625 -3.59375l3.328125 0z" fill-rule="nonzero"></path><path fill="#000000" fill-opacity="0.0" d="m43.92126 364.02844l68.50394 0l0 54.48819l-68.50394 0z" fill-rule="nonzero"></path><path fill="#000000" d="m65.07751 378.1222l0.15625 3.265625l-0.390625 0q-0.125 -0.859375 -0.3125 -1.234375q-0.3125 -0.59375 -0.8437462 -0.875q-0.53125 -0.28125 -1.390625 -0.28125l-1.96875 0l0 10.625q0 1.28125 0.28125 1.59375q0.390625 0.4375 1.203125 0.4375l0.484375 0l0 0.375l-5.90625 0l0 -0.375l0.5 0q0.875 0 1.25 -0.53125q0.21875 -0.328125 0.21875 -1.5l0 -10.625l-1.65625 0q-0.984375 0 -1.390625 0.140625q-0.53125 0.203125 -0.921875 0.75q-0.375 0.546875 -0.4375 1.5l-0.390625 0l0.15625 -3.265625l11.359371 0z" fill-rule="nonzero"></path><path fill="#000000" d="m72.46496 396.60657l0 0.96875l-1.25 0l0 2.453125l-1.125 0l0 -2.453125l-3.921875 0l0 -0.875l4.296875 -6.140625l0.75 0l0 6.046875l1.25 0zm-2.375 0l0 -4.59375l-3.25 4.59375l3.25 0z" fill-rule="nonzero"></path><path fill="#000000" fill-opacity="0.0" d="m71.333336 407.5328l87.71653 71.653534" fill-rule="nonzero"></path><path stroke="#000000" stroke-width="2.0" stroke-linejoin="round" stroke-linecap="butt" d="m71.333336 407.5328l82.4083 67.31738" fill-rule="evenodd"></path><path fill="#000000" stroke="#000000" stroke-width="2.0" stroke-linecap="butt" d="m153.74164 474.8502l-3.1647644 0.31896973l6.2086487 2.167511l-3.3628693 -5.651245z" fill-rule="evenodd"></path><path fill="#000000" fill-opacity="0.0" d="m237.00262 407.5328l-77.95276 71.653534" fill-rule="nonzero"></path><path stroke="#000000" stroke-width="2.0" stroke-linejoin="round" stroke-linecap="butt" d="m237.00262 407.5328l-72.906525 67.01511" fill-rule="evenodd"></path><path fill="#000000" stroke="#000000" stroke-width="2.0" stroke-linecap="butt" d="m164.0961 474.5479l0.13380432 -3.178009l-3.0274506 5.837799l6.0716248 -2.526001z" fill-rule="evenodd"></path><path fill="#000000" fill-opacity="0.0" d="m238.57742 409.1391l80.47244 70.04724" fill-rule="nonzero"></path><path stroke="#000000" stroke-width="2.0" stroke-linejoin="round" stroke-linecap="butt" d="m238.57742 409.1391l75.30252 65.54709" fill-rule="evenodd"></path><path fill="#000000" stroke="#000000" stroke-width="2.0" stroke-linecap="butt" d="m313.87994 474.6862l-3.1732178 0.2197876l6.137787 2.3607178l-3.1843567 -5.753723z" fill-rule="evenodd"></path><path fill="#000000" fill-opacity="0.0" d="m364.4357 407.5328l-45.385834 71.653534" fill-rule="nonzero"></path><path stroke="#000000" stroke-width="2.0" stroke-linejoin="round" stroke-linecap="butt" d="m364.4357 407.5328l-41.71817 65.86319" fill-rule="evenodd"></path><path fill="#000000" stroke="#000000" stroke-width="2.0" stroke-linecap="butt" d="m322.7175 473.396l-0.6965332 -3.1035767l-1.4065857 6.4239197l5.206726 -4.016876z" fill-rule="evenodd"></path><path fill="#000000" fill-opacity="0.0" d="m316.6378 531.7874l52.503937 68.75592" fill-rule="nonzero"></path><path stroke="#000000" stroke-width="2.0" stroke-linejoin="round" stroke-linecap="butt" d="m316.6378 531.7874l48.344086 63.30841" fill-rule="evenodd"></path><path fill="#000000" stroke="#000000" stroke-width="2.0" stroke-linecap="butt" d="m364.98187 595.0958l-3.1526184 -0.4225464l5.5379944 3.5462646l-1.9628601 -6.276367z" fill-rule="evenodd"></path><path fill="#000000" fill-opacity="0.0" d="m319.04987 533.67456l-88.44095 66.614136" fill-rule="nonzero"></path><path stroke="#000000" stroke-width="2.0" stroke-linejoin="round" stroke-linecap="butt" d="m319.04987 533.67456l-82.966034 62.490417" fill-rule="evenodd"></path><path fill="#000000" stroke="#000000" stroke-width="2.0" stroke-linecap="butt" d="m236.08383 596.165l0.44337463 -3.1497192l-3.58284 5.5144043l6.289215 -1.9212646z" fill-rule="evenodd"></path><path fill="#000000" fill-opacity="0.0" d="m159.04987 533.67456l74.74016 65.00787" fill-rule="nonzero"></path><path stroke="#000000" stroke-width="2.0" stroke-linejoin="round" stroke-linecap="butt" d="m159.04987 533.67456l69.56853 60.509644" fill-rule="evenodd"></path><path fill="#000000" stroke="#000000" stroke-width="2.0" stroke-linecap="butt" d="m228.6184 594.1842l-3.173111 0.2210083l6.138672 2.3583984l-3.1865387 -5.7525024z" fill-rule="evenodd"></path><path fill="#000000" fill-opacity="0.0" d="m160.53018 534.97375l-86.01575 63.716553" fill-rule="nonzero"></path><path stroke="#000000" stroke-width="2.0" stroke-linejoin="round" stroke-linecap="butt" d="m160.53018 534.97375l-80.508064 59.636658" fill-rule="evenodd"></path><path fill="#000000" stroke="#000000" stroke-width="2.0" stroke-linecap="butt" d="m80.02212 594.6105l0.468544 -3.1461182l-3.6268005 5.4855957l6.304367 -1.8709717z" fill-rule="evenodd"></path></g></svg>

