<?xml version="1.0" standalone="yes"?>

<svg version="1.1" viewBox="0.0 0.0 1146.0 603.0" fill="none" stroke="none" stroke-linecap="square" stroke-miterlimit="10" xmlns="http://www.w3.org/2000/svg" xmlns:xlink="http://www.w3.org/1999/xlink"><clipPath id="p.0"><path d="m0 0l1146.0 0l0 603.0l-1146.0 0l0 -603.0z" clip-rule="nonzero"></path></clipPath><g clip-path="url(#p.0)"><path fill="#000000" fill-opacity="0.0" d="m0 0l1146.5538 0l0 603.3779l-1146.5538 0z" fill-rule="nonzero"></path><path fill="#000000" fill-opacity="0.0" d="m95.058266 122.95115l0 0c0 -17.102562 14.69722 -30.966927 32.827156 -30.966927l0 0c8.706299 0 17.056015 3.2625809 23.21231 9.07c6.1562805 5.8074265 9.614853 13.683983 9.614853 21.896927l0 0c0 17.102562 -14.69722 30.966911 -32.827164 30.966911l0 0c-18.129936 0 -32.827156 -13.864349 -32.827156 -30.966911z" fill-rule="nonzero"></path><path stroke="#000000" stroke-width="3.0" stroke-linejoin="round" stroke-linecap="butt" d="m95.058266 122.95115l0 0c0 -17.102562 14.69722 -30.966927 32.827156 -30.966927l0 0c8.706299 0 17.056015 3.2625809 23.21231 9.07c6.1562805 5.8074265 9.614853 13.683983 9.614853 21.896927l0 0c0 17.102562 -14.69722 30.966911 -32.827164 30.966911l0 0c-18.129936 0 -32.827156 -13.864349 -32.827156 -30.966911z" fill-rule="nonzero"></path><path fill="#000000" d="m119.67387 126.38083l0 -13.59375l5.125 0q1.359375 0 2.078125 0.125q1.0 0.171875 1.6718674 0.640625q0.671875 0.46875 1.078125 1.3125q0.421875 0.84375 0.421875 1.84375q0 1.734375 -1.109375 2.9375q-1.0937424 1.203125 -3.9843674 1.203125l-3.484375 0l0 5.53125l-1.796875 0zm1.796875 -7.140625l3.515625 0q1.75 0 2.46875 -0.640625q0.7343674 -0.65625 0.7343674 -1.828125q0 -0.859375 -0.43749237 -1.46875q-0.421875 -0.609375 -1.125 -0.796875q-0.453125 -0.125 -1.671875 -0.125l-3.484375 0l0 4.859375z" fill-rule="nonzero"></path><path fill="#000000" d="m135.11743 133.38083l-1.046875 0l0 -6.71875q-0.390625 0.359375 -1.015625 0.734375q-0.609375 0.359375 -1.09375 0.53125l0 -1.015625q0.875 -0.421875 1.53125 -1.0q0.671875 -0.59375 0.953125 -1.15625l0.671875 0l0 8.625z" fill-rule="nonzero"></path><path fill="#000000" fill-opacity="0.0" d="m280.95386 327.44073l0 0c0 -17.10257 14.697235 -30.966919 32.82718 -30.966919l0 0c8.706299 0 17.056 3.2625732 23.21228 9.069977c6.156311 5.807434 9.614868 13.6839905 9.614868 21.896942l0 0c0 17.10254 -14.697235 30.966919 -32.82715 30.966919l0 0c-18.129944 0 -32.82718 -13.86438 -32.82718 -30.966919z" fill-rule="nonzero"></path><path stroke="#000000" stroke-width="3.0" stroke-linejoin="round" stroke-linecap="butt" d="m280.95386 327.44073l0 0c0 -17.10257 14.697235 -30.966919 32.82718 -30.966919l0 0c8.706299 0 17.056 3.2625732 23.21228 9.069977c6.156311 5.807434 9.614868 13.6839905 9.614868 21.896942l0 0c0 17.10254 -14.697235 30.966919 -32.82715 30.966919l0 0c-18.129944 0 -32.82718 -13.86438 -32.82718 -30.966919z" fill-rule="nonzero"></path><path fill="#000000" d="m305.56946 330.87042l0 -13.59375l5.125 0q1.359375 0 2.078125 0.125q1.0 0.171875 1.671875 0.640625q0.671875 0.46875 1.078125 1.3125q0.421875 0.84375 0.421875 1.84375q0 1.734375 -1.109375 2.9375q-1.09375 1.203125 -3.984375 1.203125l-3.484375 0l0 5.53125l-1.796875 0zm1.796875 -7.140625l3.515625 0q1.75 0 2.46875 -0.640625q0.734375 -0.65625 0.734375 -1.828125q0 -0.859375 -0.4375 -1.46875q-0.421875 -0.609375 -1.125 -0.796875q-0.453125 -0.125 -1.671875 -0.125l-3.484375 0l0 4.859375z" fill-rule="nonzero"></path><path fill="#000000" d="m320.41928 337.87042l0 -2.0625l-3.71875 0l0 -0.96875l3.921875 -5.5625l0.859375 0l0 5.5625l1.15625 0l0 0.96875l-1.15625 0l0 2.0625l-1.0625 0zm0 -3.03125l0 -3.859375l-2.6875 3.859375l2.6875 0z" fill-rule="nonzero"></path><path fill="#000000" fill-opacity="0.0" d="m404.25253 122.95115l0 0c0 -17.102562 14.697205 -30.966927 32.82715 -30.966927l0 0c8.706299 0 17.056 3.2625809 23.21231 9.07c6.1562805 5.8074265 9.614838 13.683983 9.614838 21.896927l0 0c0 17.102562 -14.697205 30.966911 -32.82715 30.966911l0 0c-18.129944 0 -32.82715 -13.864349 -32.82715 -30.966911z" fill-rule="nonzero"></path><path stroke="#000000" stroke-width="3.0" stroke-linejoin="round" stroke-linecap="butt" d="m404.25253 122.95115l0 0c0 -17.102562 14.697205 -30.966927 32.82715 -30.966927l0 0c8.706299 0 17.056 3.2625809 23.21231 9.07c6.1562805 5.8074265 9.614838 13.683983 9.614838 21.896927l0 0c0 17.102562 -14.697205 30.966911 -32.82715 30.966911l0 0c-18.129944 0 -32.82715 -13.864349 -32.82715 -30.966911z" fill-rule="nonzero"></path><path fill="#000000" d="m428.86813 126.38083l0 -13.59375l5.125 0q1.359375 0 2.078125 0.125q1.0 0.171875 1.671875 0.640625q0.671875 0.46875 1.078125 1.3125q0.421875 0.84375 0.421875 1.84375q0 1.734375 -1.109375 2.9375q-1.09375 1.203125 -3.984375 1.203125l-3.484375 0l0 5.53125l-1.796875 0zm1.796875 -7.140625l3.515625 0q1.75 0 2.46875 -0.640625q0.734375 -0.65625 0.734375 -1.828125q0 -0.859375 -0.4375 -1.46875q-0.421875 -0.609375 -1.125 -0.796875q-0.453125 -0.125 -1.671875 -0.125l-3.484375 0l0 4.859375z" fill-rule="nonzero"></path><path fill="#000000" d="m445.88983 132.3652l0 1.015625l-5.6875 0q0 -0.375 0.125 -0.734375q0.21875 -0.578125 0.6875 -1.140625q0.484375 -0.5625 1.390625 -1.296875q1.40625 -1.15625 1.890625 -1.828125q0.5 -0.671875 0.5 -1.265625q0 -0.625 -0.453125 -1.046875q-0.453125 -0.4375 -1.171875 -0.4375q-0.765625 0 -1.21875 0.453125q-0.453125 0.453125 -0.46875 1.265625l-1.078125 -0.109375q0.109375 -1.21875 0.828125 -1.84375q0.734375 -0.640625 1.96875 -0.640625q1.234375 0 1.953125 0.6875q0.71875 0.6875 0.71875 1.703125q0 0.515625 -0.21875 1.015625q-0.203125 0.484375 -0.703125 1.046875q-0.484375 0.546875 -1.609375 1.5q-0.953125 0.796875 -1.234375 1.09375q-0.265625 0.28125 -0.4375 0.5625l4.21875 0z" fill-rule="nonzero"></path><path fill="#000000" fill-opacity="0.0" d="m95.058266 327.44073l0 0c0 -17.10257 14.69722 -30.966919 32.827156 -30.966919l0 0c8.706299 0 17.056015 3.2625732 23.21231 9.069977c6.1562805 5.807434 9.614853 13.6839905 9.614853 21.896942l0 0c0 17.10254 -14.69722 30.966919 -32.827164 30.966919l0 0c-18.129936 0 -32.827156 -13.86438 -32.827156 -30.966919z" fill-rule="nonzero"></path><path stroke="#000000" stroke-width="3.0" stroke-linejoin="round" stroke-linecap="butt" d="m95.058266 327.44073l0 0c0 -17.10257 14.69722 -30.966919 32.827156 -30.966919l0 0c8.706299 0 17.056015 3.2625732 23.21231 9.069977c6.1562805 5.807434 9.614853 13.6839905 9.614853 21.896942l0 0c0 17.10254 -14.69722 30.966919 -32.827164 30.966919l0 0c-18.129936 0 -32.827156 -13.86438 -32.827156 -30.966919z" fill-rule="nonzero"></path><path fill="#000000" d="m119.67387 330.87042l0 -13.59375l5.125 0q1.359375 0 2.078125 0.125q1.0 0.171875 1.6718674 0.640625q0.671875 0.46875 1.078125 1.3125q0.421875 0.84375 0.421875 1.84375q0 1.734375 -1.109375 2.9375q-1.0937424 1.203125 -3.9843674 1.203125l-3.484375 0l0 5.53125l-1.796875 0zm1.796875 -7.140625l3.515625 0q1.75 0 2.46875 -0.640625q0.7343674 -0.65625 0.7343674 -1.828125q0 -0.859375 -0.43749237 -1.46875q-0.421875 -0.609375 -1.125 -0.796875q-0.453125 -0.125 -1.671875 -0.125l-3.484375 0l0 4.859375z" fill-rule="nonzero"></path><path fill="#000000" d="m131.14868 335.6048l1.0625 -0.140625q0.171875 0.890625 0.609375 1.296875q0.4375 0.390625 1.0625 0.390625q0.75 0 1.265625 -0.515625q0.515625 -0.515625 0.515625 -1.28125q0 -0.71875 -0.484375 -1.1875q-0.46875 -0.484375 -1.203125 -0.484375q-0.296875 0 -0.75 0.125l0.125 -0.9375q0.109375 0.015625 0.171875 0.015625q0.671875 0 1.203125 -0.34375q0.546875 -0.359375 0.546875 -1.09375q0 -0.578125 -0.390625 -0.953125q-0.390625 -0.390625 -1.015625 -0.390625q-0.609375 0 -1.03125 0.390625q-0.40625 0.390625 -0.515625 1.15625l-1.0625 -0.1875q0.1875 -1.046875 0.875 -1.625q0.6875 -0.59375 1.703125 -0.59375q0.703125 0 1.296875 0.3125q0.59375 0.296875 0.90625 0.8125q0.3125 0.515625 0.3125 1.109375q0 0.546875 -0.296875 1.015625q-0.296875 0.453125 -0.875 0.71875q0.75 0.171875 1.171875 0.734375q0.421875 0.546875 0.421875 1.390625q0 1.125 -0.828125 1.90625q-0.8125 0.78125 -2.0625 0.78125q-1.125 0 -1.875 -0.671875q-0.75 -0.6875 -0.859375 -1.75z" fill-rule="nonzero"></path><path fill="#000000" fill-opacity="0.0" d="m404.25253 327.44073l0 0c0 -17.10257 14.697205 -30.966919 32.82715 -30.966919l0 0c8.706299 0 17.056 3.2625732 23.21231 9.069977c6.1562805 5.807434 9.614838 13.6839905 9.614838 21.896942l0 0c0 17.10254 -14.697205 30.966919 -32.82715 30.966919l0 0c-18.129944 0 -32.82715 -13.86438 -32.82715 -30.966919z" fill-rule="nonzero"></path><path stroke="#000000" stroke-width="3.0" stroke-linejoin="round" stroke-linecap="butt" d="m404.25253 327.44073l0 0c0 -17.10257 14.697205 -30.966919 32.82715 -30.966919l0 0c8.706299 0 17.056 3.2625732 23.21231 9.069977c6.1562805 5.807434 9.614838 13.6839905 9.614838 21.896942l0 0c0 17.10254 -14.697205 30.966919 -32.82715 30.966919l0 0c-18.129944 0 -32.82715 -13.86438 -32.82715 -30.966919z" fill-rule="nonzero"></path><path fill="#000000" d="m428.86813 330.87042l0 -13.59375l5.125 0q1.359375 0 2.078125 0.125q1.0 0.171875 1.671875 0.640625q0.671875 0.46875 1.078125 1.3125q0.421875 0.84375 0.421875 1.84375q0 1.734375 -1.109375 2.9375q-1.09375 1.203125 -3.984375 1.203125l-3.484375 0l0 5.53125l-1.796875 0zm1.796875 -7.140625l3.515625 0q1.75 0 2.46875 -0.640625q0.734375 -0.65625 0.734375 -1.828125q0 -0.859375 -0.4375 -1.46875q-0.421875 -0.609375 -1.125 -0.796875q-0.453125 -0.125 -1.671875 -0.125l-3.484375 0l0 4.859375z" fill-rule="nonzero"></path><path fill="#000000" d="m440.34296 335.62042l1.109375 -0.09375q0.125 0.8125 0.5625 1.21875q0.453125 0.40625 1.09375 0.40625q0.75 0 1.28125 -0.578125q0.53125 -0.578125 0.53125 -1.515625q0 -0.90625 -0.515625 -1.421875q-0.5 -0.53125 -1.328125 -0.53125q-0.5 0 -0.921875 0.234375q-0.40625 0.234375 -0.640625 0.59375l-0.984375 -0.125l0.828125 -4.40625l4.28125 0l0 1.0l-3.4375 0l-0.453125 2.3125q0.765625 -0.546875 1.609375 -0.546875q1.125 0 1.890625 0.78125q0.78125 0.78125 0.78125 2.015625q0 1.15625 -0.671875 2.015625q-0.828125 1.03125 -2.25 1.03125q-1.171875 0 -1.921875 -0.65625q-0.734375 -0.65625 -0.84375 -1.734375z" fill-rule="nonzero"></path><path fill="#000000" fill-opacity="0.0" d="m87.57312 225.98079l80.6246 0" fill-rule="nonzero"></path><path stroke="#000000" stroke-width="3.0" stroke-linejoin="round" stroke-linecap="butt" d="m87.57312 225.98079l80.6246 0" fill-rule="nonzero"></path><path fill="#000000" fill-opacity="0.0" d="m87.57312 429.79037l80.6246 0" fill-rule="nonzero"></path><path stroke="#000000" stroke-width="3.0" stroke-linejoin="round" stroke-linecap="butt" d="m87.57312 429.79037l80.6246 0" fill-rule="nonzero"></path><path fill="#000000" fill-opacity="0.0" d="m341.49313 435.99597l80.6246 0" fill-rule="nonzero"></path><path stroke="#000000" stroke-width="3.0" stroke-linejoin="round" stroke-linecap="butt" d="m341.49313 435.99597l80.6246 0" fill-rule="nonzero"></path><path fill="#000000" fill-opacity="0.0" d="m474.80112 435.99597l80.6246 0" fill-rule="nonzero"></path><path stroke="#000000" stroke-width="3.0" stroke-linejoin="round" stroke-linecap="butt" d="m474.80112 435.99597l80.6246 0" fill-rule="nonzero"></path><path fill="#000000" fill-opacity="0.0" d="m468.45312 225.98079l80.62457 0" fill-rule="nonzero"></path><path stroke="#000000" stroke-width="3.0" stroke-linejoin="round" stroke-linecap="butt" d="m468.45312 225.98079l80.62457 0" fill-rule="nonzero"></path><path fill="#000000" fill-opacity="0.0" d="m328.79712 225.98079l80.6246 0" fill-rule="nonzero"></path><path stroke="#000000" stroke-width="3.0" stroke-linejoin="round" stroke-linecap="butt" d="m328.79712 225.98079l80.6246 0" fill-rule="nonzero"></path><path fill="#000000" fill-opacity="0.0" d="m127.88542 153.91806l0.57481384 73.19676" fill-rule="nonzero"></path><path stroke="#000000" stroke-width="2.0" stroke-linejoin="round" stroke-linecap="butt" d="m127.885414 153.91808l0.48059845 61.19713" fill-rule="evenodd"></path><path fill="#000000" stroke="#000000" stroke-width="2.0" stroke-linecap="butt" d="m125.062645 215.14114l3.3746414 9.049973l3.2320862 -9.101852z" fill-rule="evenodd"></path><path fill="#000000" fill-opacity="0.0" d="m127.598015 357.80093l0.5748215 73.19675" fill-rule="nonzero"></path><path stroke="#000000" stroke-width="2.0" stroke-linejoin="round" stroke-linecap="butt" d="m127.598015 357.80093l0.4805832 61.197144" fill-rule="evenodd"></path><path fill="#000000" stroke="#000000" stroke-width="2.0" stroke-linecap="butt" d="m124.77523 419.02402l3.3746414 9.049957l3.2320862 -9.101837z" fill-rule="evenodd"></path><path fill="#000000" fill-opacity="0.0" d="m128.46024 227.1128l-0.57481384 69.36102" fill-rule="nonzero"></path><path stroke="#000000" stroke-width="2.0" stroke-linejoin="round" stroke-linecap="butt" d="m128.46024 227.1128l-0.47536469 57.36142" fill-rule="evenodd"></path><path fill="#000000" stroke="#000000" stroke-width="2.0" stroke-linecap="butt" d="m124.68151 284.44684l3.2281342 9.103241l3.378563 -9.048492z" fill-rule="evenodd"></path><path fill="#000000" fill-opacity="0.0" d="m437.07968 153.91806l-71.95233 70.33829" fill-rule="nonzero"></path><path stroke="#000000" stroke-width="2.0" stroke-linejoin="round" stroke-linecap="butt" d="m437.07968 153.91808l-63.371338 61.949768" fill-rule="evenodd"></path><path fill="#000000" stroke="#000000" stroke-width="2.0" stroke-linecap="butt" d="m371.39908 213.5056l-4.180969 8.706879l8.799469 -3.982376z" fill-rule="evenodd"></path><path fill="#000000" fill-opacity="0.0" d="m437.07968 153.91806l72.02731 70.411575" fill-rule="nonzero"></path><path stroke="#000000" stroke-width="2.0" stroke-linejoin="round" stroke-linecap="butt" d="m437.07968 153.91808l63.44632 62.02307" fill-rule="evenodd"></path><path fill="#000000" stroke="#000000" stroke-width="2.0" stroke-linecap="butt" d="m498.21677 218.3034l8.799469 3.982376l-4.180969 -8.706879z" fill-rule="evenodd"></path><path fill="#000000" fill-opacity="0.0" d="m366.9018 227.1128l70.17789 69.36102" fill-rule="nonzero"></path><path stroke="#000000" stroke-width="2.0" stroke-linejoin="round" stroke-linecap="butt" d="m366.9018 227.1128l61.643066 60.925537" fill-rule="evenodd"></path><path fill="#000000" stroke="#000000" stroke-width="2.0" stroke-linecap="butt" d="m426.2227 290.38788l8.777496 4.030609l-4.1331177 -8.729706z" fill-rule="evenodd"></path><path fill="#000000" fill-opacity="0.0" d="m509.73178 227.1128l-72.6521 69.36102" fill-rule="nonzero"></path><path stroke="#000000" stroke-width="2.0" stroke-linejoin="round" stroke-linecap="butt" d="m509.73178 227.1128l-63.972504 61.074585" fill-rule="evenodd"></path><path fill="#000000" stroke="#000000" stroke-width="2.0" stroke-linecap="butt" d="m443.47812 285.79797l-4.283661 8.65683l8.845978 -3.8780212z" fill-rule="evenodd"></path><path fill="#000000" fill-opacity="0.0" d="m363.7403 227.67471l-49.95926 68.7991" fill-rule="nonzero"></path><path stroke="#000000" stroke-width="2.0" stroke-linejoin="round" stroke-linecap="butt" d="m363.7403 227.6747l-42.908264 59.089157" fill-rule="evenodd"></path><path fill="#000000" stroke="#000000" stroke-width="2.0" stroke-linecap="butt" d="m318.159 284.82278l-2.6600037 9.285187l8.006073 -5.403076z" fill-rule="evenodd"></path><path fill="#000000" fill-opacity="0.0" d="m313.78104 358.40765l69.253174 80.37961" fill-rule="nonzero"></path><path stroke="#000000" stroke-width="2.0" stroke-linejoin="round" stroke-linecap="butt" d="m313.78104 358.40765l61.42044 71.28851" fill-rule="evenodd"></path><path fill="#000000" stroke="#000000" stroke-width="2.0" stroke-linecap="butt" d="m372.69882 431.8524l8.426941 4.7198486l-3.4215698 -9.032349z" fill-rule="evenodd"></path><path fill="#000000" fill-opacity="0.0" d="m437.07968 358.40765l-56.35724 75.88422" fill-rule="nonzero"></path><path stroke="#000000" stroke-width="2.0" stroke-linejoin="round" stroke-linecap="butt" d="m437.07968 358.40765l-49.202515 66.25043" fill-rule="evenodd"></path><path fill="#000000" stroke="#000000" stroke-width="2.0" stroke-linecap="butt" d="m385.22513 422.68848l-2.75943 9.256134l8.063568 -5.3168945z" fill-rule="evenodd"></path><path fill="#000000" fill-opacity="0.0" d="m437.07968 358.40765l80.899506 79.08475" fill-rule="nonzero"></path><path stroke="#000000" stroke-width="2.0" stroke-linejoin="round" stroke-linecap="butt" d="m437.07968 358.40765l72.31854 70.69626" fill-rule="evenodd"></path><path fill="#000000" stroke="#000000" stroke-width="2.0" stroke-linecap="butt" d="m507.08896 431.46616l8.799469 3.9823914l-4.1809387 -8.706879z" fill-rule="evenodd"></path><path fill="#000000" fill-opacity="0.0" d="m127.88542 153.91806l237.85005 73.19676" fill-rule="nonzero"></path><path stroke="#000000" stroke-width="2.0" stroke-linejoin="round" stroke-linecap="butt" d="m127.885414 153.91808l226.38089 69.66719" fill-rule="evenodd"></path><path fill="#000000" stroke="#000000" stroke-width="2.0" stroke-linecap="butt" d="m353.29465 226.7426l9.646362 -0.4877472l-7.703064 -5.8269196z" fill-rule="evenodd"></path><path fill="#000000" fill-opacity="0.0" d="m128.45944 432.04196c-10.558472 9.758667 -50.680557 111.85007 -63.35087 58.552094c-12.670315 -53.297974 -21.501907 -312.09265 -12.671009 -378.34003c8.830898 -66.24736 54.713665 -15.95343 65.6564 -19.144112" fill-rule="nonzero"></path><path stroke="#000000" stroke-width="2.0" stroke-linejoin="round" stroke-linecap="butt" d="m128.45946 432.04196c-10.558487 9.7586975 -50.680573 111.85013 -63.350883 58.552124c-12.670315 -53.298004 -21.501907 -312.0927 -12.671009 -378.34006c4.415455 -33.123672 18.093868 -37.11203 32.03626 -33.2183c6.971199 1.9468613 14.008385 5.8642426 19.986702 9.095497c0.74729156 0.40390015 1.4780426 0.7970886 2.1900482 1.1743698l0.053108215 0.027893066" fill-rule="evenodd"></path><path fill="#000000" stroke="#000000" stroke-width="2.0" stroke-linecap="butt" d="m105.66407 92.46911l9.654648 -0.27931213l-7.575424 -5.9919205z" fill-rule="evenodd"></path><path fill="#000000" fill-opacity="0.0" d="m380.71814 436.546c-16.12616 12.198425 -79.479126 127.23923 -96.75702 73.19064c-17.277893 -54.048584 -28.603485 -329.73358 -6.910309 -397.48212c21.693146 -67.748535 114.22443 -7.507599 137.0693 -9.009117" fill-rule="nonzero"></path><path stroke="#000000" stroke-width="2.0" stroke-linejoin="round" stroke-linecap="butt" d="m380.71814 436.54596c-16.12616 12.198456 -79.479126 127.23926 -96.75702 73.190674c-17.277893 -54.048553 -28.603485 -329.73355 -6.9103394 -397.48212c10.846619 -33.874275 39.40271 -35.751167 68.10275 -29.34719c14.350067 3.2019958 28.736115 8.474197 40.962402 12.852058c3.05661 1.0944672 5.97818 2.1330414 8.73053 3.0693893c1.3761292 0.4681778 2.709961 0.91080475 3.9971924 1.3220749c0.6435852 0.2056427 1.2755737 0.40344238 1.8953552 0.5926895c0.3098755 0.09461975 0.6166992 0.1871109 0.9204407 0.27735138l0.6350708 0.18592072" fill-rule="evenodd"></path><path fill="#000000" stroke="#000000" stroke-width="2.0" stroke-linecap="butt" d="m401.73334 104.46227l9.505463 -1.713562l-8.383057 -4.797333z" fill-rule="evenodd"></path><path fill="#000000" fill-opacity="0.0" d="m515.48413 437.67245c13.054565 11.635498 65.27283 127.2399 78.32739 69.81299c13.054565 -57.42691 21.501587 -347.00122 0 -414.37445c-21.501526 -67.37324 -107.50778 8.445831 -129.00934 10.135002" fill-rule="nonzero"></path><path stroke="#000000" stroke-width="2.0" stroke-linejoin="round" stroke-linecap="butt" d="m515.48413 437.67245c13.054565 11.635498 65.27283 127.2399 78.32745 69.81299c13.054504 -57.42691 21.501526 -347.00122 0 -414.37445c-10.750793 -33.686615 -37.627747 -31.575161 -64.5047 -20.830902c-13.438477 5.3721313 -26.876923 12.902466 -38.299652 19.195335c-2.8556519 1.5732117 -5.5853577 3.0690918 -8.157562 4.4345627c-1.2861023 0.6827469 -2.5328674 1.3328857 -3.736267 1.9437866c-0.6017151 0.30545807 -1.1925964 0.60110474 -1.7721863 0.886116c-0.28979492 0.14250183 -0.5767517 0.28234863 -0.8607788 0.41942596l-0.3383484 0.16159058" fill-rule="evenodd"></path><path fill="#000000" stroke="#000000" stroke-width="2.0" stroke-linecap="butt" d="m475.06158 96.19915l-7.496399 6.0904922l9.657471 0.15301514z" fill-rule="evenodd"></path><path fill="#000000" fill-opacity="0.0" d="m513.1805 438.79794c0 18.76712 38.01129 92.522064 0 112.60275c-38.01126 20.080627 -149.7417 6.942932 -228.06772 7.8811646c-78.326004 0.9382324 -200.03766 29.276733 -241.88837 -2.25177c-41.850704 -31.528503 -7.6798706 -103.21866 -9.215847 -186.91925c-1.5359726 -83.70062 -15.934216 -268.93002 0 -315.2844c15.934216 -46.35435 79.67108 30.965225 95.6053 37.15827" fill-rule="nonzero"></path><path stroke="#000000" stroke-width="2.0" stroke-linejoin="round" stroke-linecap="butt" d="m513.1805 438.79794c0 18.76709 38.011353 92.522064 0 112.60275c-38.01126 20.080627 -149.7417 6.942932 -228.06769 7.8811646c-78.32605 0.9382324 -200.03769 29.276733 -241.8884 -2.25177c-41.850704 -31.528503 -7.6798706 -103.21866 -9.215847 -186.91928c-1.5359764 -83.70059 -15.934216 -268.93 0 -315.28436c7.967106 -23.177176 27.884876 -15.435871 47.802647 -1.1261368c9.958893 7.1548653 19.917763 15.951828 28.382828 23.347153c2.1162643 1.8488312 4.13916 3.610054 6.0453415 5.236122c0.95310974 0.81303406 1.8770218 1.5922775 2.7688446 2.3317795c0.22296906 0.18488312 0.4439087 0.36727905 0.6628113 0.5470886l0.045318604 0.03703308" fill-rule="evenodd"></path><path fill="#000000" stroke="#000000" stroke-width="2.0" stroke-linecap="butt" d="m117.84844 87.92417l9.353874 2.4073257l-5.61808 -7.856674z" fill-rule="evenodd"></path><path fill="#000000" fill-opacity="0.0" d="m140.58142 186.06308l39.212646 0l0 37.233597l-39.212646 0z" fill-rule="nonzero"></path><path fill="#000000" d="m154.5033 211.9537l0 -12.0l-4.46875 0l0 -1.59375l10.765625 0l0 1.59375l-4.5 0l0 12.0l-1.796875 0z" fill-rule="nonzero"></path><path fill="#000000" d="m165.44615 218.9537l-1.046875 0l0 -6.71875q-0.390625 0.359375 -1.015625 0.734375q-0.609375 0.359375 -1.09375 0.53125l0 -1.015625q0.875 -0.421875 1.53125 -1.0q0.671875 -0.59375 0.953125 -1.15625l0.671875 0l0 8.625z" fill-rule="nonzero"></path><path fill="#000000" fill-opacity="0.0" d="m146.92943 392.64227l39.212646 0l0 37.233612l-39.212646 0z" fill-rule="nonzero"></path><path fill="#000000" d="m160.8513 418.5329l0 -12.0l-4.46875 0l0 -1.59375l10.765625 0l0 1.59375l-4.5 0l0 12.0l-1.796875 0z" fill-rule="nonzero"></path><path fill="#000000" d="m171.20041 425.5329l0 -2.0625l-3.71875 0l0 -0.96875l3.921875 -5.5625l0.859375 0l0 5.5625l1.15625 0l0 0.96875l-1.15625 0l0 2.0625l-1.0625 0zm0 -3.03125l0 -3.859375l-2.6875 3.859375l2.6875 0z" fill-rule="nonzero"></path><path fill="#000000" fill-opacity="0.0" d="m335.1493 176.676l39.212646 0l0 37.233612l-39.212646 0z" fill-rule="nonzero"></path><path fill="#000000" d="m349.07117 202.56662l0 -12.0l-4.46875 0l0 -1.59375l10.765625 0l0 1.59375l-4.5 0l0 12.0l-1.796875 0z" fill-rule="nonzero"></path><path fill="#000000" d="m361.59213 208.551l0 1.015625l-5.6875 0q0 -0.375 0.125 -0.734375q0.21875 -0.578125 0.6875 -1.140625q0.484375 -0.5625 1.390625 -1.296875q1.40625 -1.15625 1.890625 -1.828125q0.5 -0.671875 0.5 -1.265625q0 -0.625 -0.453125 -1.046875q-0.453125 -0.4375 -1.171875 -0.4375q-0.765625 0 -1.21875 0.453125q-0.453125 0.453125 -0.46875 1.265625l-1.078125 -0.109375q0.109375 -1.21875 0.828125 -1.84375q0.734375 -0.640625 1.96875 -0.640625q1.234375 0 1.953125 0.6875q0.71875 0.6875 0.71875 1.703125q0 0.515625 -0.21875 1.015625q-0.203125 0.484375 -0.703125 1.046875q-0.484375 0.546875 -1.609375 1.5q-0.953125 0.796875 -1.234375 1.09375q-0.265625 0.28125 -0.4375 0.5625l4.21875 0z" fill-rule="nonzero"></path><path fill="#000000" fill-opacity="0.0" d="m516.312 188.7472l39.212646 0l0 37.233597l-39.212646 0z" fill-rule="nonzero"></path><path fill="#000000" d="m530.2339 214.63782l0 -12.0l-4.46875 0l0 -1.59375l10.765625 0l0 1.59375l-4.5 0l0 12.0l-1.796875 0z" fill-rule="nonzero"></path><path fill="#000000" d="m537.208 219.3722l1.0625 -0.140625q0.171875 0.890625 0.609375 1.296875q0.4375 0.390625 1.0625 0.390625q0.75 0 1.265625 -0.515625q0.515625 -0.515625 0.515625 -1.28125q0 -0.71875 -0.484375 -1.1875q-0.46875 -0.484375 -1.203125 -0.484375q-0.296875 0 -0.75 0.125l0.125 -0.9375q0.109375 0.015625 0.171875 0.015625q0.671875 0 1.203125 -0.34375q0.546875 -0.359375 0.546875 -1.09375q0 -0.578125 -0.390625 -0.953125q-0.390625 -0.390625 -1.015625 -0.390625q-0.609375 0 -1.03125 0.390625q-0.40625 0.390625 -0.515625 1.15625l-1.0625 -0.1875q0.1875 -1.046875 0.875 -1.625q0.6875 -0.59375 1.703125 -0.59375q0.703125 0 1.296875 0.3125q0.59375 0.296875 0.90625 0.8125q0.3125 0.515625 0.3125 1.109375q0 0.546875 -0.296875 1.015625q-0.296875 0.453125 -0.875 0.71875q0.75 0.171875 1.171875 0.734375q0.421875 0.546875 0.421875 1.390625q0 1.125 -0.828125 1.90625q-0.8125 0.78125 -2.0625 0.78125q-1.125 0 -1.875 -0.671875q-0.75 -0.6875 -0.859375 -1.75z" fill-rule="nonzero"></path><path fill="#000000" fill-opacity="0.0" d="m516.31305 398.76236l39.212646 0l0 37.233612l-39.212646 0z" fill-rule="nonzero"></path><path fill="#000000" d="m530.2349 424.65298l0 -12.0l-4.46875 0l0 -1.59375l10.765625 0l0 1.59375l-4.5 0l0 12.0l-1.796875 0z" fill-rule="nonzero"></path><path fill="#000000" d="m542.6778 425.1686l-1.046875 0.078125q-0.140625 -0.625 -0.390625 -0.90625q-0.4375 -0.453125 -1.0625 -0.453125q-0.5 0 -0.890625 0.28125q-0.484375 0.375 -0.78125 1.078125q-0.28125 0.6875 -0.296875 1.96875q0.375 -0.578125 0.921875 -0.859375q0.5625 -0.28125 1.171875 -0.28125q1.046875 0 1.78125 0.78125q0.75 0.78125 0.75 2.0q0 0.8125 -0.359375 1.515625q-0.34375 0.6875 -0.953125 1.0625q-0.609375 0.359375 -1.375 0.359375q-1.328125 0 -2.15625 -0.96875q-0.828125 -0.96875 -0.828125 -3.1875q0 -2.5 0.921875 -3.625q0.796875 -0.984375 2.15625 -0.984375q1.015625 0 1.65625 0.578125q0.65625 0.5625 0.78125 1.5625zm-4.296875 3.703125q0 0.546875 0.21875 1.046875q0.234375 0.484375 0.640625 0.75q0.421875 0.265625 0.890625 0.265625q0.65625 0 1.140625 -0.53125q0.484375 -0.546875 0.484375 -1.46875q0 -0.890625 -0.484375 -1.40625q-0.46875 -0.515625 -1.1875 -0.515625q-0.71875 0 -1.21875 0.515625q-0.484375 0.515625 -0.484375 1.34375z" fill-rule="nonzero"></path><path fill="#000000" fill-opacity="0.0" d="m375.1492 435.8575l39.212646 0l0 37.233612l-39.212646 0z" fill-rule="nonzero"></path><path fill="#000000" d="m389.07108 461.74814l0 -12.0l-4.46875 0l0 -1.59375l10.765625 0l0 1.59375l-4.5 0l0 12.0l-1.796875 0z" fill-rule="nonzero"></path><path fill="#000000" d="m396.04517 466.49814l1.109375 -0.09375q0.125 0.8125 0.5625 1.21875q0.453125 0.40625 1.09375 0.40625q0.75 0 1.28125 -0.578125q0.53125 -0.578125 0.53125 -1.515625q0 -0.90625 -0.515625 -1.421875q-0.5 -0.53125 -1.328125 -0.53125q-0.5 0 -0.921875 0.234375q-0.40625 0.234375 -0.640625 0.59375l-0.984375 -0.125l0.828125 -4.40625l4.28125 0l0 1.0l-3.4375 0l-0.453125 2.3125q0.765625 -0.546875 1.609375 -0.546875q1.125 0 1.890625 0.78125q0.78125 0.78125 0.78125 2.015625q0 1.15625 -0.671875 2.015625q-0.828125 1.03125 -2.25 1.03125q-1.171875 0 -1.921875 -0.65625q-0.734375 -0.65625 -0.84375 -1.734375z" fill-rule="nonzero"></path><path fill="#000000" fill-opacity="0.0" d="m730.3336 434.63937l0 0c0 -13.37207 12.472717 -24.21225 27.858582 -24.21225l0 0c15.385925 0 27.858643 10.840179 27.858643 24.21225l0 0c0 13.37204 -12.472717 24.21225 -27.858643 24.21225l0 0c-15.385864 0 -27.858582 -10.84021 -27.858582 -24.21225z" fill-rule="nonzero"></path><path stroke="#000000" stroke-width="3.0" stroke-linejoin="round" stroke-linecap="butt" d="m730.3336 434.63937l0 0c0 -13.37207 12.472717 -24.21225 27.858582 -24.21225l0 0c15.385925 0 27.858643 10.840179 27.858643 24.21225l0 0c0 13.37204 -12.472717 24.21225 -27.858643 24.21225l0 0c-15.385864 0 -27.858582 -10.84021 -27.858582 -24.21225z" fill-rule="nonzero"></path><path fill="#000000" d="m749.98065 438.06906l0 -13.59375l5.125 0q1.359375 0 2.078125 0.125q1.0 0.171875 1.671875 0.640625q0.671875 0.46875 1.078125 1.3125q0.421875 0.84375 0.421875 1.84375q0 1.734375 -1.109375 2.9375q-1.09375 1.203125 -3.984375 1.203125l-3.484375 0l0 5.53125l-1.796875 0zm1.796875 -7.140625l3.515625 0q1.75 0 2.46875 -0.640625q0.734375 -0.65625 0.734375 -1.828125q0 -0.859375 -0.4375 -1.46875q-0.421875 -0.609375 -1.125 -0.796875q-0.453125 -0.125 -1.671875 -0.125l-3.484375 0l0 4.859375z" fill-rule="nonzero"></path><path fill="#000000" d="m761.4555 442.80344l1.0625 -0.140625q0.171875 0.890625 0.609375 1.296875q0.4375 0.390625 1.0625 0.390625q0.75 0 1.265625 -0.515625q0.515625 -0.515625 0.515625 -1.28125q0 -0.71875 -0.484375 -1.1875q-0.46875 -0.484375 -1.203125 -0.484375q-0.296875 0 -0.75 0.125l0.125 -0.9375q0.109375 0.015625 0.171875 0.015625q0.671875 0 1.203125 -0.34375q0.546875 -0.359375 0.546875 -1.09375q0 -0.578125 -0.390625 -0.953125q-0.390625 -0.390625 -1.015625 -0.390625q-0.609375 0 -1.03125 0.390625q-0.40625 0.390625 -0.515625 1.15625l-1.0625 -0.1875q0.1875 -1.046875 0.875 -1.625q0.6875 -0.59375 1.703125 -0.59375q0.703125 0 1.296875 0.3125q0.59375 0.296875 0.90625 0.8125q0.3125 0.515625 0.3125 1.109375q0 0.546875 -0.296875 1.015625q-0.296875 0.453125 -0.875 0.71875q0.75 0.171875 1.171875 0.734375q0.421875 0.546875 0.421875 1.390625q0 1.125 -0.828125 1.90625q-0.8125 0.78125 -2.0625 0.78125q-1.125 0 -1.875 -0.671875q-0.75 -0.6875 -0.859375 -1.75z" fill-rule="nonzero"></path><path fill="#000000" fill-opacity="0.0" d="m723.9814 355.31042l68.42169 0" fill-rule="nonzero"></path><path stroke="#000000" stroke-width="3.0" stroke-linejoin="round" stroke-linecap="butt" d="m723.9814 355.31042l68.42169 0" fill-rule="nonzero"></path><path fill="#000000" fill-opacity="0.0" d="m723.9814 514.66394l68.42169 0" fill-rule="nonzero"></path><path stroke="#000000" stroke-width="3.0" stroke-linejoin="round" stroke-linecap="butt" d="m723.9814 514.66394l68.42169 0" fill-rule="nonzero"></path><path fill="#000000" fill-opacity="0.0" d="m757.9483 458.37723l0.48779297 57.230682" fill-rule="nonzero"></path><path stroke="#000000" stroke-width="2.0" stroke-linejoin="round" stroke-linecap="butt" d="m757.9483 458.37726l0.38549805 45.23114" fill-rule="evenodd"></path><path fill="#000000" stroke="#000000" stroke-width="2.0" stroke-linecap="butt" d="m755.0305 503.63654l3.3806763 9.0477295l3.2260132 -9.104034z" fill-rule="evenodd"></path><path fill="#000000" fill-opacity="0.0" d="m758.68005 356.19553l-0.487854 54.231598" fill-rule="nonzero"></path><path stroke="#000000" stroke-width="2.0" stroke-linejoin="round" stroke-linecap="butt" d="m758.68005 356.1955l-0.37994385 42.232117" fill-rule="evenodd"></path><path fill="#000000" stroke="#000000" stroke-width="2.0" stroke-linecap="butt" d="m754.99677 398.3979l3.2217407 9.10556l3.3849487 -9.046112z" fill-rule="evenodd"></path><path fill="#000000" fill-opacity="0.0" d="m742.12054 316.8347l80.57471 0l0 29.112l-80.57471 0z" fill-rule="nonzero"></path><path fill="#000000" d="m756.0424 342.7253l0 -12.0l-4.46875 0l0 -1.59375l10.765625 0l0 1.59375l-4.5 0l0 12.0l-1.796875 0z" fill-rule="nonzero"></path><path fill="#000000" d="m766.39154 349.7253l0 -2.0625l-3.71875 0l0 -0.96875l3.921875 -5.5625l0.859375 0l0 5.5625l1.15625 0l0 0.96875l-1.15625 0l0 2.0625l-1.0625 0zm0 -3.03125l0 -3.859375l-2.6875 3.859375l2.6875 0z" fill-rule="nonzero"></path><path fill="#000000" fill-opacity="0.0" d="m748.83295 512.8167l55.717224 0l0 29.112l-55.717224 0z" fill-rule="nonzero"></path><path fill="#000000" d="m762.7548 538.70734l0 -12.0l-4.46875 0l0 -1.59375l10.765625 0l0 1.59375l-4.5 0l0 12.0l-1.796875 0zm7.739746 -8.78125l-0.4375 -2.546875l0 -2.265625l1.90625 0l0 2.265625l-0.4375 2.546875l-1.03125 0z" fill-rule="nonzero"></path><path fill="#000000" d="m776.6657 545.70734l0 -2.0625l-3.71875 0l0 -0.96875l3.921875 -5.5625l0.859375 0l0 5.5625l1.15625 0l0 0.96875l-1.15625 0l0 2.0625l-1.0625 0zm0 -3.03125l0 -3.859375l-2.6875 3.859375l2.6875 0z" fill-rule="nonzero"></path><path fill="#000000" fill-opacity="0.0" d="m970.4197 524.3313l71.56885 0l0 34.747192l-71.56885 0z" fill-rule="nonzero"></path><path fill="#000000" d="m984.34155 550.2219l0 -12.0l-4.46875 0l0 -1.59375l10.765625 0l0 1.59375l-4.5 0l0 12.0l-1.796875 0zm7.739746 -8.78125l-0.4375 -2.546875l0 -2.265625l1.90625 0l0 2.265625l-0.4375 2.546875l-1.03125 0z" fill-rule="nonzero"></path><path fill="#000000" d="m994.8775 554.9719l1.109375 -0.09375q0.125 0.8125 0.5625 1.21875q0.453125 0.40625 1.09375 0.40625q0.75 0 1.28125 -0.578125q0.53125 -0.578125 0.53125 -1.515625q0 -0.90625 -0.515625 -1.421875q-0.5 -0.53125 -1.328125 -0.53125q-0.5 0 -0.921875 0.234375q-0.40625 0.234375 -0.640625 0.59375l-0.984375 -0.125l0.828125 -4.40625l4.28125 0l0 1.0l-3.4375 0l-0.453125 2.3125q0.765625 -0.546875 1.609375 -0.546875q1.125 0 1.890625 0.78125q0.78125 0.78125 0.78125 2.015625q0 1.15625 -0.671875 2.015625q-0.828125 1.03125 -2.25 1.03125q-1.171875 0 -1.921875 -0.65625q-0.734375 -0.65625 -0.84375 -1.734375z" fill-rule="nonzero"></path><path fill="#000000" fill-opacity="0.0" d="m895.2504 435.11633l0 0c0 -13.856903 12.452332 -25.090118 27.81305 -25.090118l0 0c15.360657 0 27.812988 11.233215 27.812988 25.090118l0 0c0 13.856873 -12.452332 25.090088 -27.812988 25.090088l0 0c-15.360718 0 -27.81305 -11.233215 -27.81305 -25.090088z" fill-rule="nonzero"></path><path stroke="#000000" stroke-width="3.0" stroke-linejoin="round" stroke-linecap="butt" d="m895.2504 435.11633l0 0c0 -13.856903 12.452332 -25.090118 27.81305 -25.090118l0 0c15.360657 0 27.812988 11.233215 27.812988 25.090118l0 0c0 13.856873 -12.452332 25.090088 -27.812988 25.090088l0 0c-15.360718 0 -27.81305 -11.233215 -27.81305 -25.090088z" fill-rule="nonzero"></path><path fill="#000000" d="m914.85187 438.54602l0 -13.59375l5.125 0q1.359375 0 2.078125 0.125q1.0 0.171875 1.671875 0.640625q0.671875 0.46875 1.078125 1.3125q0.421875 0.84375 0.421875 1.84375q0 1.734375 -1.109375 2.9375q-1.09375 1.203125 -3.984375 1.203125l-3.484375 0l0 5.53125l-1.796875 0zm1.796875 -7.140625l3.515625 0q1.75 0 2.46875 -0.640625q0.734375 -0.65625 0.734375 -1.828125q0 -0.859375 -0.4375 -1.46875q-0.421875 -0.609375 -1.125 -0.796875q-0.453125 -0.125 -1.671875 -0.125l-3.484375 0l0 4.859375z" fill-rule="nonzero"></path><path fill="#000000" d="m929.7017 445.54602l0 -2.0625l-3.71875 0l0 -0.96875l3.921875 -5.5625l0.859375 0l0 5.5625l1.15625 0l0 0.96875l-1.15625 0l0 2.0625l-1.0625 0zm0 -3.03125l0 -3.859375l-2.6875 3.859375l2.6875 0z" fill-rule="nonzero"></path><path fill="#000000" fill-opacity="0.0" d="m1004.0957 437.99072l0 0c0 -13.856903 12.4522705 -25.090118 27.812988 -25.090118l0 0c15.360718 0 27.812988 11.233215 27.812988 25.090118l0 0c0 13.856873 -12.4522705 25.090118 -27.812988 25.090118l0 0c-15.360718 0 -27.812988 -11.233246 -27.812988 -25.090118z" fill-rule="nonzero"></path><path stroke="#000000" stroke-width="3.0" stroke-linejoin="round" stroke-linecap="butt" d="m1004.0957 437.99072l0 0c0 -13.856903 12.4522705 -25.090118 27.812988 -25.090118l0 0c15.360718 0 27.812988 11.233215 27.812988 25.090118l0 0c0 13.856873 -12.4522705 25.090118 -27.812988 25.090118l0 0c-15.360718 0 -27.812988 -11.233246 -27.812988 -25.090118z" fill-rule="nonzero"></path><path fill="#000000" d="m1023.69714 441.4204l0 -13.59375l5.125 0q1.359375 0 2.078125 0.125q1.0 0.171875 1.671875 0.640625q0.671875 0.46875 1.078125 1.3125q0.421875 0.84375 0.421875 1.84375q0 1.734375 -1.109375 2.9375q-1.09375 1.203125 -3.984375 1.203125l-3.484375 0l0 5.53125l-1.796875 0zm1.796875 -7.140625l3.515625 0q1.75 0 2.46875 -0.640625q0.734375 -0.65625 0.734375 -1.828125q0 -0.859375 -0.4375 -1.46875q-0.421875 -0.609375 -1.125 -0.796875q-0.453125 -0.125 -1.671875 -0.125l-3.484375 0l0 4.859375z" fill-rule="nonzero"></path><path fill="#000000" d="m1035.172 446.1704l1.109375 -0.09375q0.125 0.8125 0.5625 1.21875q0.453125 0.40625 1.09375 0.40625q0.75 0 1.28125 -0.578125q0.53125 -0.578125 0.53125 -1.515625q0 -0.90625 -0.515625 -1.421875q-0.5 -0.53125 -1.328125 -0.53125q-0.5 0 -0.921875 0.234375q-0.40625 0.234375 -0.640625 0.59375l-0.984375 -0.125l0.828125 -4.40625l4.28125 0l0 1.0l-3.4375 0l-0.453125 2.3125q0.765625 -0.546875 1.609375 -0.546875q1.125 0 1.890625 0.78125q0.78125 0.78125 0.78125 2.015625q0 1.15625 -0.671875 2.015625q-0.828125 1.03125 -2.25 1.03125q-1.171875 0 -1.921875 -0.65625q-0.734375 -0.65625 -0.84375 -1.734375z" fill-rule="nonzero"></path><path fill="#000000" fill-opacity="0.0" d="m946.5427 523.07025l68.30975 0" fill-rule="nonzero"></path><path stroke="#000000" stroke-width="3.0" stroke-linejoin="round" stroke-linecap="butt" d="m946.5427 523.07025l68.30975 0" fill-rule="nonzero"></path><path fill="#000000" fill-opacity="0.0" d="m1059.4888 523.07025l68.309814 0" fill-rule="nonzero"></path><path stroke="#000000" stroke-width="3.0" stroke-linejoin="round" stroke-linecap="butt" d="m1059.4888 523.07025l68.309814 0" fill-rule="nonzero"></path><path fill="#000000" fill-opacity="0.0" d="m1054.1105 352.91113l68.30969 0" fill-rule="nonzero"></path><path stroke="#000000" stroke-width="3.0" stroke-linejoin="round" stroke-linecap="butt" d="m1054.1105 352.91113l68.30969 0" fill-rule="nonzero"></path><path fill="#000000" fill-opacity="0.0" d="m935.78595 352.91113l68.30975 0" fill-rule="nonzero"></path><path stroke="#000000" stroke-width="3.0" stroke-linejoin="round" stroke-linecap="butt" d="m935.78595 352.91113l68.30975 0" fill-rule="nonzero"></path><path fill="#000000" fill-opacity="0.0" d="m967.8551 354.68362l64.05359 58.21698" fill-rule="nonzero"></path><path stroke="#000000" stroke-width="2.0" stroke-linejoin="round" stroke-linecap="butt" d="m967.85504 354.6836l55.1734 50.145966" fill-rule="evenodd"></path><path fill="#000000" stroke="#000000" stroke-width="2.0" stroke-linecap="butt" d="m1020.80664 407.27417l8.9383545 3.659912l-4.494629 -8.549164z" fill-rule="evenodd"></path><path fill="#000000" fill-opacity="0.0" d="m1093.4637 356.7027l-61.555054 56.197906" fill-rule="nonzero"></path><path stroke="#000000" stroke-width="2.0" stroke-linejoin="round" stroke-linecap="butt" d="m1093.4636 356.70273l-52.69275 48.106995" fill-rule="evenodd"></path><path fill="#000000" stroke="#000000" stroke-width="2.0" stroke-linecap="butt" d="m1038.5436 402.37006l-4.475586 8.559174l8.930176 -3.6798706z" fill-rule="evenodd"></path><path fill="#000000" fill-opacity="0.0" d="m965.3918 354.2836l-42.32831 55.742615" fill-rule="nonzero"></path><path stroke="#000000" stroke-width="2.0" stroke-linejoin="round" stroke-linecap="butt" d="m965.3917 354.2836l-35.071167 46.18567" fill-rule="evenodd"></path><path fill="#000000" stroke="#000000" stroke-width="2.0" stroke-linecap="butt" d="m927.68964 398.4715l-2.8579712 9.226166l8.119812 -5.230591z" fill-rule="evenodd"></path><path fill="#000000" fill-opacity="0.0" d="m923.0635 460.20642l58.67517 65.12543" fill-rule="nonzero"></path><path stroke="#000000" stroke-width="2.0" stroke-linejoin="round" stroke-linecap="butt" d="m923.0635 460.20645l50.642883 56.210114" fill-rule="evenodd"></path><path fill="#000000" stroke="#000000" stroke-width="2.0" stroke-linecap="butt" d="m971.25214 518.62775l8.52948 4.5319214l-3.6209717 -8.954285z" fill-rule="evenodd"></path><path fill="#000000" fill-opacity="0.0" d="m1031.9087 463.08084l-47.749023 61.483124" fill-rule="nonzero"></path><path stroke="#000000" stroke-width="2.0" stroke-linejoin="round" stroke-linecap="butt" d="m1031.9087 463.08084l-40.38861 52.005585" fill-rule="evenodd"></path><path fill="#000000" stroke="#000000" stroke-width="2.0" stroke-linecap="butt" d="m988.911 513.0602l-2.9580078 9.19458l8.176147 -5.14209z" fill-rule="evenodd"></path><path fill="#000000" fill-opacity="0.0" d="m1031.9087 463.08084l71.57068 63.145905" fill-rule="nonzero"></path><path stroke="#000000" stroke-width="2.0" stroke-linejoin="round" stroke-linecap="butt" d="m1031.9087 463.08084l62.572266 55.206757" fill-rule="evenodd"></path><path fill="#000000" stroke="#000000" stroke-width="2.0" stroke-linecap="butt" d="m1092.2954 520.7648l8.991455 3.527588l-4.6203613 -8.481873z" fill-rule="evenodd"></path><path fill="#000000" fill-opacity="0.0" d="m950.9579 310.32568l55.626038 0l0 30.167542l-55.626038 0z" fill-rule="nonzero"></path><path fill="#000000" d="m964.87976 336.2163l0 -12.0l-4.46875 0l0 -1.59375l10.765625 0l0 1.59375l-4.5 0l0 12.0l-1.796875 0z" fill-rule="nonzero"></path><path fill="#000000" d="m971.8538 340.9663l1.109375 -0.09375q0.125 0.8125 0.5625 1.21875q0.453125 0.40625 1.09375 0.40625q0.75 0 1.28125 -0.578125q0.53125 -0.578125 0.53125 -1.515625q0 -0.90625 -0.515625 -1.421875q-0.5 -0.53125 -1.328125 -0.53125q-0.5 0 -0.921875 0.234375q-0.40625 0.234375 -0.640625 0.59375l-0.984375 -0.125l0.828125 -4.40625l4.28125 0l0 1.0l-3.4375 0l-0.453125 2.3125q0.765625 -0.546875 1.609375 -0.546875q1.125 0 1.890625 0.78125q0.78125 0.78125 0.78125 2.015625q0 1.15625 -0.671875 2.015625q-0.828125 1.03125 -2.25 1.03125q-1.171875 0 -1.921875 -0.65625q-0.734375 -0.65625 -0.84375 -1.734375z" fill-rule="nonzero"></path><path fill="#000000" fill-opacity="0.0" d="m1077.0309 310.32568l47.749023 0l0 30.167542l-47.749023 0z" fill-rule="nonzero"></path><path fill="#000000" d="m1090.9528 336.2163l0 -12.0l-4.46875 0l0 -1.59375l10.765625 0l0 1.59375l-4.5 0l0 12.0l-1.796875 0z" fill-rule="nonzero"></path><path fill="#000000" d="m1103.3955 336.73193l-1.046875 0.078125q-0.140625 -0.625 -0.390625 -0.90625q-0.4375 -0.453125 -1.0625 -0.453125q-0.5 0 -0.890625 0.28125q-0.484375 0.375 -0.78125 1.078125q-0.28125 0.6875 -0.296875 1.96875q0.375 -0.578125 0.921875 -0.859375q0.5625 -0.28125 1.171875 -0.28125q1.046875 0 1.78125 0.78125q0.75 0.78125 0.75 2.0q0 0.8125 -0.359375 1.515625q-0.34375 0.6875 -0.953125 1.0625q-0.609375 0.359375 -1.375 0.359375q-1.328125 0 -2.15625 -0.96875q-0.828125 -0.96875 -0.828125 -3.1875q0 -2.5 0.921875 -3.625q0.796875 -0.984375 2.15625 -0.984375q1.015625 0 1.65625 0.578125q0.65625 0.5625 0.78125 1.5625zm-4.296875 3.703125q0 0.546875 0.21875 1.046875q0.234375 0.484375 0.640625 0.75q0.421875 0.265625 0.890625 0.265625q0.65625 0 1.140625 -0.53125q0.484375 -0.546875 0.484375 -1.46875q0 -0.890625 -0.484375 -1.40625q-0.46875 -0.515625 -1.1875 -0.515625q-0.71875 0 -1.21875 0.515625q-0.484375 0.515625 -0.484375 1.34375z" fill-rule="nonzero"></path><path fill="#000000" fill-opacity="0.0" d="m1079.2545 524.3313l80.55127 0l0 34.747192l-80.55127 0z" fill-rule="nonzero"></path><path fill="#000000" d="m1093.1764 550.2219l0 -12.0l-4.46875 0l0 -1.59375l10.765625 0l0 1.59375l-4.5 0l0 12.0l-1.796875 0zm7.739746 -8.78125l-0.4375 -2.546875l0 -2.265625l1.90625 0l0 2.265625l-0.4375 2.546875l-1.03125 0z" fill-rule="nonzero"></path><path fill="#000000" d="m1109.181 550.73755l-1.046875 0.078125q-0.140625 -0.625 -0.390625 -0.90625q-0.4375 -0.453125 -1.0625 -0.453125q-0.5 0 -0.890625 0.28125q-0.484375 0.375 -0.78125 1.078125q-0.28125 0.6875 -0.296875 1.96875q0.375 -0.578125 0.921875 -0.859375q0.5625 -0.28125 1.171875 -0.28125q1.046875 0 1.78125 0.78125q0.75 0.78125 0.75 2.0q0 0.8125 -0.359375 1.515625q-0.34375 0.6875 -0.953125 1.0625q-0.609375 0.359375 -1.375 0.359375q-1.328125 0 -2.15625 -0.96875q-0.828125 -0.96875 -0.828125 -3.1875q0 -2.5 0.921875 -3.625q0.796875 -0.984375 2.15625 -0.984375q1.015625 0 1.65625 0.578125q0.65625 0.5625 0.78125 1.5625zm-4.296875 3.703125q0 0.546875 0.21875 1.046875q0.234375 0.484375 0.640625 0.75q0.421875 0.265625 0.890625 0.265625q0.65625 0 1.140625 -0.53125q0.484375 -0.546875 0.484375 -1.46875q0 -0.890625 -0.484375 -1.40625q-0.46875 -0.515625 -1.1875 -0.515625q-0.71875 0 -1.21875 0.515625q-0.484375 0.515625 -0.484375 1.34375z" fill-rule="nonzero"></path><path fill="#000000" fill-opacity="0.0" d="m766.72034 143.59369l0 0c0 -15.402664 12.218994 -27.888992 27.29187 -27.888992l0 0c7.23822 0 14.179993 2.9382935 19.298218 8.168495c5.118225 5.2302017 7.9935913 12.323875 7.9935913 19.720497l0 0c0 15.402664 -12.218994 27.888992 -27.29181 27.888992l0 0c-15.072876 0 -27.29187 -12.486328 -27.29187 -27.888992z" fill-rule="nonzero"></path><path stroke="#000000" stroke-width="3.0" stroke-linejoin="round" stroke-linecap="butt" d="m766.72034 143.59369l0 0c0 -15.402664 12.218994 -27.888992 27.29187 -27.888992l0 0c7.23822 0 14.179993 2.9382935 19.298218 8.168495c5.118225 5.2302017 7.9935913 12.323875 7.9935913 19.720497l0 0c0 15.402664 -12.218994 27.888992 -27.29181 27.888992l0 0c-15.072876 0 -27.29187 -12.486328 -27.29187 -27.888992z" fill-rule="nonzero"></path><path fill="#000000" d="m785.8006 147.02338l0 -13.59375l5.125 0q1.359375 0 2.078125 0.125q1.0 0.171875 1.671875 0.640625q0.671875 0.46875 1.078125 1.3125q0.421875 0.84375 0.421875 1.84375q0 1.734375 -1.109375 2.9375q-1.09375 1.203125 -3.984375 1.203125l-3.484375 0l0 5.53125l-1.796875 0zm1.796875 -7.140625l3.515625 0q1.75 0 2.46875 -0.640625q0.734375 -0.65625 0.734375 -1.828125q0 -0.859375 -0.4375 -1.46875q-0.421875 -0.609375 -1.125 -0.796875q-0.453125 -0.125 -1.671875 -0.125l-3.484375 0l0 4.859375z" fill-rule="nonzero"></path><path fill="#000000" d="m801.2442 154.02338l-1.046875 0l0 -6.71875q-0.390625 0.359375 -1.015625 0.734375q-0.609375 0.359375 -1.09375 0.53125l0 -1.015625q0.875 -0.421875 1.53125 -1.0q0.671875 -0.59375 0.953125 -1.15625l0.671875 0l0 8.625z" fill-rule="nonzero"></path><path fill="#000000" fill-opacity="0.0" d="m918.44525 143.59369l0 0c0 -15.402664 12.218994 -27.888992 27.29187 -27.888992l0 0c7.23822 0 14.180054 2.9382935 19.298218 8.168495c5.118225 5.2302017 7.9935913 12.323875 7.9935913 19.720497l0 0c0 15.402664 -12.218933 27.888992 -27.29181 27.888992l0 0c-15.072876 0 -27.29187 -12.486328 -27.29187 -27.888992z" fill-rule="nonzero"></path><path stroke="#000000" stroke-width="3.0" stroke-linejoin="round" stroke-linecap="butt" d="m918.44525 143.59369l0 0c0 -15.402664 12.218994 -27.888992 27.29187 -27.888992l0 0c7.23822 0 14.180054 2.9382935 19.298218 8.168495c5.118225 5.2302017 7.9935913 12.323875 7.9935913 19.720497l0 0c0 15.402664 -12.218933 27.888992 -27.29181 27.888992l0 0c-15.072876 0 -27.29187 -12.486328 -27.29187 -27.888992z" fill-rule="nonzero"></path><path fill="#000000" d="m937.5256 147.02338l0 -13.59375l5.125 0q1.359375 0 2.078125 0.125q1.0 0.171875 1.671875 0.640625q0.671875 0.46875 1.078125 1.3125q0.421875 0.84375 0.421875 1.84375q0 1.734375 -1.109375 2.9375q-1.09375 1.203125 -3.984375 1.203125l-3.484375 0l0 5.53125l-1.796875 0zm1.796875 -7.140625l3.515625 0q1.75 0 2.46875 -0.640625q0.734375 -0.65625 0.734375 -1.828125q0 -0.859375 -0.4375 -1.46875q-0.421875 -0.609375 -1.125 -0.796875q-0.453125 -0.125 -1.671875 -0.125l-3.484375 0l0 4.859375z" fill-rule="nonzero"></path><path fill="#000000" d="m954.54724 153.00775l0 1.015625l-5.6875 0q0 -0.375 0.125 -0.734375q0.21875 -0.578125 0.6875 -1.140625q0.484375 -0.5625 1.390625 -1.296875q1.40625 -1.15625 1.890625 -1.828125q0.5 -0.671875 0.5 -1.265625q0 -0.625 -0.453125 -1.046875q-0.453125 -0.4375 -1.171875 -0.4375q-0.765625 0 -1.21875 0.453125q-0.453125 0.453125 -0.46875 1.265625l-1.078125 -0.109375q0.109375 -1.21875 0.828125 -1.84375q0.734375 -0.640625 1.96875 -0.640625q1.234375 0 1.953125 0.6875q0.71875 0.6875 0.71875 1.703125q0 0.515625 -0.21875 1.015625q-0.203125 0.484375 -0.703125 1.046875q-0.484375 0.546875 -1.609375 1.5q-0.953125 0.796875 -1.234375 1.09375q-0.265625 0.28125 -0.4375 0.5625l4.21875 0z" fill-rule="nonzero"></path><path fill="#000000" fill-opacity="0.0" d="m794.0122 171.48268l-27.136047 61.322784" fill-rule="nonzero"></path><path stroke="#000000" stroke-width="2.0" stroke-linejoin="round" stroke-linecap="butt" d="m794.0122 171.48268l-22.28009 50.349197" fill-rule="evenodd"></path><path fill="#000000" stroke="#000000" stroke-width="2.0" stroke-linecap="butt" d="m768.7112 220.49509l-0.65185547 9.636658l6.6936646 -6.963089z" fill-rule="evenodd"></path><path fill="#000000" fill-opacity="0.0" d="m945.7371 171.48268l-59.819702 63.347076" fill-rule="nonzero"></path><path stroke="#000000" stroke-width="2.0" stroke-linejoin="round" stroke-linecap="butt" d="m945.7371 171.48268l-51.58081 54.622345" fill-rule="evenodd"></path><path fill="#000000" stroke="#000000" stroke-width="2.0" stroke-linecap="butt" d="m891.75446 223.83696l-3.8296509 8.867004l8.633301 -4.3308563z" fill-rule="evenodd"></path><path fill="#000000" fill-opacity="0.0" d="m945.7371 171.48268l59.88208 63.41307" fill-rule="nonzero"></path><path stroke="#000000" stroke-width="2.0" stroke-linejoin="round" stroke-linecap="butt" d="m945.7371 171.48268l51.643127 54.688354" fill-rule="evenodd"></path><path fill="#000000" stroke="#000000" stroke-width="2.0" stroke-linecap="butt" d="m994.97845 228.43912l8.633301 4.3308563l-3.8296509 -8.867004z" fill-rule="evenodd"></path><path fill="#000000" fill-opacity="0.0" d="m850.3542 235.1497l67.02966 0" fill-rule="nonzero"></path><path stroke="#000000" stroke-width="3.0" stroke-linejoin="round" stroke-linecap="butt" d="m850.3542 235.1497l67.02966 0" fill-rule="nonzero"></path><path fill="#000000" fill-opacity="0.0" d="m966.46136 235.1497l67.029724 0" fill-rule="nonzero"></path><path stroke="#000000" stroke-width="3.0" stroke-linejoin="round" stroke-linecap="butt" d="m966.46136 235.1497l67.029724 0" fill-rule="nonzero"></path><path fill="#000000" fill-opacity="0.0" d="m739.5246 235.1497l67.02966 0" fill-rule="nonzero"></path><path stroke="#000000" stroke-width="3.0" stroke-linejoin="round" stroke-linecap="butt" d="m739.5246 235.1497l67.02966 0" fill-rule="nonzero"></path><path fill="#000000" fill-opacity="0.0" d="m794.0122 171.48268l95.869446 64.865295" fill-rule="nonzero"></path><path stroke="#000000" stroke-width="2.0" stroke-linejoin="round" stroke-linecap="butt" d="m794.0122 171.48268l85.9306 58.1407" fill-rule="evenodd"></path><path fill="#000000" stroke="#000000" stroke-width="2.0" stroke-linecap="butt" d="m878.0916 232.35942l9.368408 2.3500977l-5.6659546 -7.8221893z" fill-rule="evenodd"></path><path fill="#000000" fill-opacity="0.0" d="m852.948 54.168304l67.02966 0" fill-rule="nonzero"></path><path stroke="#000000" stroke-width="3.0" stroke-linejoin="round" stroke-linecap="butt" d="m852.948 54.168304l67.02966 0" fill-rule="nonzero"></path><path fill="#000000" fill-opacity="0.0" d="m963.7776 54.168304l67.02966 0" fill-rule="nonzero"></path><path stroke="#000000" stroke-width="3.0" stroke-linejoin="round" stroke-linecap="butt" d="m963.7776 54.168304l67.02966 0" fill-rule="nonzero"></path><path fill="#000000" fill-opacity="0.0" d="m736.84076 54.168304l67.029724 0" fill-rule="nonzero"></path><path stroke="#000000" stroke-width="3.0" stroke-linejoin="round" stroke-linecap="butt" d="m736.84076 54.168304l67.029724 0" fill-rule="nonzero"></path><path fill="#000000" fill-opacity="0.0" d="m794.0122 115.44066l-27.136047 -61.322777" fill-rule="nonzero"></path><path stroke="#000000" stroke-width="2.0" stroke-linejoin="round" stroke-linecap="butt" d="m794.0122 115.44066l-22.28009 -50.349182" fill-rule="evenodd"></path><path fill="#000000" stroke="#000000" stroke-width="2.0" stroke-linecap="butt" d="m774.753 63.75469l-6.6936646 -6.9630814l0.65185547 9.636662z" fill-rule="evenodd"></path><path fill="#000000" fill-opacity="0.0" d="m794.0122 115.7047l82.4469 -61.74084" fill-rule="nonzero"></path><path stroke="#000000" stroke-width="2.0" stroke-linejoin="round" stroke-linecap="butt" d="m794.0122 115.7047l72.84161 -54.54787" fill-rule="evenodd"></path><path fill="#000000" stroke="#000000" stroke-width="2.0" stroke-linecap="butt" d="m868.8339 63.80105l5.28479 -8.084621l-9.245056 2.796177z" fill-rule="evenodd"></path><path fill="#000000" fill-opacity="0.0" d="m945.7371 115.7047l-73.74097 -62.92901" fill-rule="nonzero"></path><path stroke="#000000" stroke-width="2.0" stroke-linejoin="round" stroke-linecap="butt" d="m945.7371 115.7047l-64.612915 -55.139336" fill-rule="evenodd"></path><path fill="#000000" stroke="#000000" stroke-width="2.0" stroke-linecap="butt" d="m883.2686 58.052517l-9.048401 -3.378872l4.7595825 8.40456z" fill-rule="evenodd"></path><path fill="#000000" fill-opacity="0.0" d="m945.7371 115.7047l52.630554 -60.55267" fill-rule="nonzero"></path><path stroke="#000000" stroke-width="2.0" stroke-linejoin="round" stroke-linecap="butt" d="m945.7371 115.7047l44.758423 -51.495636" fill-rule="evenodd"></path><path fill="#000000" stroke="#000000" stroke-width="2.0" stroke-linecap="butt" d="m992.9889 66.37617l3.4607544 -9.017391l-8.447327 4.6831856z" fill-rule="evenodd"></path><path fill="#000000" fill-opacity="0.0" d="m757.0363 236.62587l59.88202 0l0 33.53279l-59.88202 0z" fill-rule="nonzero"></path><path fill="#000000" d="m770.9582 262.5165l0 -12.000015l-4.46875 0l0 -1.59375l10.765625 0l0 1.59375l-4.5 0l0 12.000015l-1.796875 0zm7.739746 -8.781265l-0.4375 -2.546875l0 -2.265625l1.90625 0l0 2.265625l-0.4375 2.546875l-1.03125 0z" fill-rule="nonzero"></path><path fill="#000000" d="m785.4628 269.5165l-1.046875 0l0 -6.71875q-0.390625 0.359375 -1.015625 0.734375q-0.609375 0.359375 -1.09375 0.53125l0 -1.015625q0.875 -0.421875 1.53125 -1.0q0.671875 -0.59375 0.953125 -1.15625l0.671875 0l0 8.625z" fill-rule="nonzero"></path><path fill="#000000" fill-opacity="0.0" d="m873.14514 236.62587l59.88202 0l0 33.53279l-59.88202 0z" fill-rule="nonzero"></path><path fill="#000000" d="m887.067 262.5165l0 -12.000015l-4.46875 0l0 -1.59375l10.765625 0l0 1.59375l-4.5 0l0 12.000015l-1.796875 0zm7.739685 -8.781265l-0.4375 -2.546875l0 -2.265625l1.90625 0l0 2.265625l-0.4375 2.546875l-1.03125 0z" fill-rule="nonzero"></path><path fill="#000000" d="m903.1498 268.5009l0 1.015625l-5.6875 0q0 -0.375 0.125 -0.734375q0.21875 -0.578125 0.6875 -1.140625q0.484375 -0.5625 1.390625 -1.296875q1.40625 -1.15625 1.890625 -1.828125q0.5 -0.671875 0.5 -1.265625q0 -0.625 -0.453125 -1.046875q-0.453125 -0.4375 -1.171875 -0.4375q-0.765625 0 -1.21875 0.453125q-0.453125 0.453125 -0.46875 1.265625l-1.078125 -0.109375q0.109375 -1.21875 0.828125 -1.84375q0.734375 -0.640625 1.96875 -0.640625q1.234375 0 1.953125 0.6875q0.71875 0.6875 0.71875 1.703125q0 0.515625 -0.21875 1.015625q-0.203125 0.484375 -0.703125 1.046875q-0.484375 0.546875 -1.609375 1.5q-0.953125 0.796875 -1.234375 1.09375q-0.265625 0.28125 -0.4375 0.5625l4.21875 0z" fill-rule="nonzero"></path><path fill="#000000" fill-opacity="0.0" d="m989.2502 236.62587l59.88202 0l0 33.53279l-59.88202 0z" fill-rule="nonzero"></path><path fill="#000000" d="m1003.17206 262.5165l0 -12.000015l-4.46875 0l0 -1.59375l10.765625 0l0 1.59375l-4.5 0l0 12.000015l-1.796875 0zm7.739685 -8.781265l-0.4375 -2.546875l0 -2.265625l1.90625 0l0 2.265625l-0.4375 2.546875l-1.03125 0z" fill-rule="nonzero"></path><path fill="#000000" d="m1013.70795 267.2509l1.0625 -0.140625q0.171875 0.890625 0.609375 1.296875q0.4375 0.390625 1.0625 0.390625q0.75 0 1.265625 -0.515625q0.515625 -0.515625 0.515625 -1.28125q0 -0.71875 -0.484375 -1.1875q-0.46875 -0.484375 -1.203125 -0.484375q-0.296875 0 -0.75 0.125l0.125 -0.9375q0.109375 0.015625 0.171875 0.015625q0.671875 0 1.203125 -0.34375q0.546875 -0.359375 0.546875 -1.09375q0 -0.578125 -0.390625 -0.953125q-0.390625 -0.390625 -1.015625 -0.390625q-0.609375 0 -1.03125 0.390625q-0.40625 0.390625 -0.515625 1.15625l-1.0625 -0.1875q0.1875 -1.046875 0.875 -1.625q0.6875 -0.59375 1.703125 -0.59375q0.703125 0 1.296875 0.3125q0.59375 0.296875 0.90625 0.8125q0.3125 0.515625 0.3125 1.109375q0 0.546875 -0.296875 1.015625q-0.296875 0.453125 -0.875 0.71875q0.75 0.171875 1.171875 0.734375q0.421875 0.546875 0.421875 1.390625q0 1.125 -0.828125 1.90625q-0.8125 0.78125 -2.0625 0.78125q-1.125 0 -1.875 -0.671875q-0.75 -0.6875 -0.859375 -1.75z" fill-rule="nonzero"></path><path fill="#000000" fill-opacity="0.0" d="m983.97363 10.66404l67.02966 0l0 33.5328l-67.02966 0z" fill-rule="nonzero"></path><path fill="#000000" d="m997.8955 36.554665l0 -12.0l-4.46875 0l0 -1.59375l10.765625 0l0 1.59375l-4.5 0l0 12.0l-1.796875 0z" fill-rule="nonzero"></path><path fill="#000000" d="m1004.8696 41.28904l1.0625 -0.140625q0.171875 0.890625 0.609375 1.296875q0.4375 0.390625 1.0625 0.390625q0.75 0 1.265625 -0.515625q0.515625 -0.515625 0.515625 -1.28125q0 -0.71875 -0.484375 -1.1875q-0.46875 -0.484375 -1.203125 -0.484375q-0.296875 0 -0.75 0.125l0.125 -0.9375q0.109375 0.015625 0.171875 0.015625q0.671875 0 1.203125 -0.34375q0.546875 -0.359375 0.546875 -1.09375q0 -0.578125 -0.390625 -0.953125q-0.390625 -0.390625 -1.015625 -0.390625q-0.609375 0 -1.03125 0.390625q-0.40625 0.390625 -0.515625 1.15625l-1.0625 -0.1875q0.1875 -1.046875 0.875 -1.625q0.6875 -0.59375 1.703125 -0.59375q0.703125 0 1.296875 0.3125q0.59375 0.296875 0.90625 0.8125q0.3125 0.515625 0.3125 1.109375q0 0.546875 -0.296875 1.015625q-0.296875 0.453125 -0.875 0.71875q0.75 0.171875 1.171875 0.734375q0.421875 0.546875 0.421875 1.390625q0 1.125 -0.828125 1.90625q-0.8125 0.78125 -2.0625 0.78125q-1.125 0 -1.875 -0.671875q-0.75 -0.6875 -0.859375 -1.75z" fill-rule="nonzero"></path><path fill="#000000" fill-opacity="0.0" d="m862.5868 10.66404l67.02966 0l0 33.5328l-67.02966 0z" fill-rule="nonzero"></path><path fill="#000000" d="m876.50867 36.554665l0 -12.0l-4.46875 0l0 -1.59375l10.765625 0l0 1.59375l-4.5 0l0 12.0l-1.796875 0z" fill-rule="nonzero"></path><path fill="#000000" d="m889.02966 42.53904l0 1.015625l-5.6875 0q0 -0.375 0.125 -0.734375q0.21875 -0.578125 0.6875 -1.140625q0.484375 -0.5625 1.390625 -1.296875q1.40625 -1.15625 1.890625 -1.828125q0.5 -0.671875 0.5 -1.265625q0 -0.625 -0.453125 -1.046875q-0.453125 -0.4375 -1.171875 -0.4375q-0.765625 0 -1.21875 0.453125q-0.453125 0.453125 -0.46875 1.265625l-1.078125 -0.109375q0.109375 -1.21875 0.828125 -1.84375q0.734375 -0.640625 1.96875 -0.640625q1.234375 0 1.953125 0.6875q0.71875 0.6875 0.71875 1.703125q0 0.515625 -0.21875 1.015625q-0.203125 0.484375 -0.703125 1.046875q-0.484375 0.546875 -1.609375 1.5q-0.953125 0.796875 -1.234375 1.09375q-0.265625 0.28125 -0.4375 0.5625l4.21875 0z" fill-rule="nonzero"></path><path fill="#000000" fill-opacity="0.0" d="m751.7578 10.66404l59.88202 0l0 33.5328l-59.88202 0z" fill-rule="nonzero"></path><path fill="#000000" d="m765.6797 36.554665l0 -12.0l-4.46875 0l0 -1.59375l10.765625 0l0 1.59375l-4.5 0l0 12.0l-1.796875 0z" fill-rule="nonzero"></path><path fill="#000000" d="m776.6225 43.554665l-1.046875 0l0 -6.71875q-0.390625 0.359375 -1.015625 0.734375q-0.609375 0.359375 -1.09375 0.53125l0 -1.015625q0.875 -0.421875 1.53125 -1.0q0.671875 -0.59375 0.953125 -1.15625l0.671875 0l0 8.625z" fill-rule="nonzero"></path><path fill="#000000" fill-opacity="0.0" d="m850.28345 279.33072l87.275635 0l0 48.0l-87.275635 0z" fill-rule="nonzero"></path><path fill="#000000" d="m888.20825 309.22134l-1.796875 0q-1.40625 -2.140625 -2.15625 -4.453125q-0.734375 -2.3125 -0.734375 -4.46875q0 -2.6875 0.90625 -5.078125q0.796875 -2.078125 2.03125 -3.828125l1.78125 0q-1.28125 2.8125 -1.765625 4.78125q-0.46875 1.96875 -0.46875 4.171875q0 1.53125 0.28125 3.125q0.28125 1.59375 0.78125 3.03125q0.328125 0.953125 1.140625 2.71875zm8.0095215 -4.0l-2.609375 0l0 -9.828125q-1.4375 1.34375 -3.375 1.984375l0 -2.375q1.03125 -0.328125 2.21875 -1.25q1.203125 -0.9375 1.640625 -2.1875l2.125 0l0 13.65625zm3.5319824 4.0q0.765625 -1.65625 1.078125 -2.546875q0.328125 -0.875 0.59375 -2.015625q0.265625 -1.15625 0.390625 -2.1875q0.140625 -1.03125 0.140625 -2.125q0 -2.203125 -0.484375 -4.171875q-0.46875 -1.96875 -1.734375 -4.78125l1.765625 0q1.40625 1.984375 2.171875 4.234375q0.78125 2.234375 0.78125 4.53125q0 1.9375 -0.609375 4.15625q-0.703125 2.484375 -2.296875 4.90625l-1.796875 0z" fill-rule="nonzero"></path><path fill="#000000" fill-opacity="0.0" d="m733.1522 556.5066l59.68506 0l0 36.97632l-59.68506 0z" fill-rule="nonzero"></path><path fill="#000000" d="m757.28174 586.3972l-1.796875 0q-1.40625 -2.140625 -2.15625 -4.453125q-0.734375 -2.3125 -0.734375 -4.46875q0 -2.6875 0.90625 -5.078125q0.796875 -2.078125 2.03125 -3.828125l1.78125 0q-1.28125 2.8125 -1.765625 4.78125q-0.46875 1.96875 -0.46875 4.171875q0 1.53125 0.28125 3.125q0.28125 1.59375 0.78125 3.03125q0.328125 0.953125 1.140625 2.71875zm1.2438965 -7.609375l2.515625 -0.3125q0.125 0.96875 0.65625 1.484375q0.53125 0.5 1.28125 0.5q0.796875 0 1.34375 -0.609375q0.5625 -0.609375 0.5625 -1.640625q0 -0.984375 -0.53125 -1.5625q-0.53125 -0.578125 -1.28125 -0.578125q-0.5 0 -1.203125 0.203125l0.28125 -2.125q1.0625 0.015625 1.609375 -0.46875q0.5625 -0.484375 0.5625 -1.296875q0 -0.6875 -0.40625 -1.09375q-0.40625 -0.40625 -1.078125 -0.40625q-0.671875 0 -1.140625 0.46875q-0.46875 0.46875 -0.578125 1.359375l-2.40625 -0.421875q0.25 -1.234375 0.75 -1.96875q0.515625 -0.734375 1.421875 -1.15625q0.90625 -0.421875 2.03125 -0.421875q1.90625 0 3.078125 1.21875q0.953125 1.0 0.953125 2.265625q0 1.796875 -1.953125 2.859375q1.15625 0.25 1.859375 1.125q0.703125 0.875 0.703125 2.109375q0 1.78125 -1.3125 3.046875q-1.296875 1.265625 -3.25 1.265625q-1.84375 0 -3.0625 -1.0625q-1.21875 -1.0625 -1.40625 -2.78125zm10.297607 7.609375q0.765625 -1.65625 1.078125 -2.546875q0.328125 -0.875 0.59375 -2.015625q0.265625 -1.15625 0.390625 -2.1875q0.140625 -1.03125 0.140625 -2.125q0 -2.203125 -0.484375 -4.171875q-0.46875 -1.96875 -1.734375 -4.78125l1.765625 0q1.40625 1.984375 2.171875 4.234375q0.78125 2.234375 0.78125 4.53125q0 1.9375 -0.609375 4.15625q-0.703125 2.484375 -2.296875 4.90625l-1.796875 0z" fill-rule="nonzero"></path><path fill="#000000" fill-opacity="0.0" d="m1007.45404 548.5066l87.27557 0l0 48.0l-87.27557 0z" fill-rule="nonzero"></path><path fill="#000000" d="m1045.3788 578.3972l-1.796875 0q-1.40625 -2.140625 -2.15625 -4.453125q-0.734375 -2.3125 -0.734375 -4.46875q0 -2.6875 0.90625 -5.078125q0.796875 -2.078125 2.03125 -3.828125l1.78125 0q-1.28125 2.8125 -1.765625 4.78125q-0.46875 1.96875 -0.46875 4.171875q0 1.53125 0.28125 3.125q0.28125 1.59375 0.78125 3.03125q0.328125 0.953125 1.140625 2.71875zm10.134644 -6.421875l0 2.421875l-9.140625 0q0.15625 -1.375 0.890625 -2.59375q0.75 -1.234375 2.9375 -3.265625q1.765625 -1.640625 2.15625 -2.234375q0.546875 -0.796875 0.546875 -1.59375q0 -0.875 -0.46875 -1.34375q-0.46875 -0.46875 -1.296875 -0.46875q-0.8125 0 -1.296875 0.5q-0.484375 0.484375 -0.5625 1.625l-2.59375 -0.25q0.234375 -2.15625 1.453125 -3.09375q1.21875 -0.9375 3.0625 -0.9375q2.015625 0 3.15625 1.09375q1.15625 1.078125 1.15625 2.6875q0 0.921875 -0.328125 1.75q-0.328125 0.828125 -1.046875 1.734375q-0.46875 0.609375 -1.703125 1.75q-1.234375 1.125 -1.5625 1.5q-0.328125 0.359375 -0.53125 0.71875l5.171875 0zm1.4068604 6.421875q0.765625 -1.65625 1.078125 -2.546875q0.328125 -0.875 0.59375 -2.015625q0.265625 -1.15625 0.390625 -2.1875q0.140625 -1.03125 0.140625 -2.125q0 -2.203125 -0.484375 -4.171875q-0.46875 -1.96875 -1.734375 -4.78125l1.765625 0q1.40625 1.984375 2.171875 4.234375q0.78125 2.234375 0.78125 4.53125q0 1.9375 -0.609375 4.15625q-0.703125 2.484375 -2.296875 4.90625l-1.796875 0z" fill-rule="nonzero"></path></g></svg>

