<?xml version="1.0" standalone="yes"?>

<svg version="1.1" viewBox="0.0 0.0 868.0 172.0" fill="none" stroke="none" stroke-linecap="square" stroke-miterlimit="10" xmlns="http://www.w3.org/2000/svg" xmlns:xlink="http://www.w3.org/1999/xlink"><clipPath id="p.0"><path d="m0 0l868.0 0l0 172.0l-868.0 0l0 -172.0z" clip-rule="nonzero"></path></clipPath><g clip-path="url(#p.0)"><path fill="#000000" fill-opacity="0.0" d="m0 0l868.1155 0l0 172.55643l-868.1155 0z" fill-rule="nonzero"></path><path fill="#000000" fill-opacity="0.0" d="m28.031496 69.70604l135.74803 0" fill-rule="nonzero"></path><path stroke="#000000" stroke-width="2.0" stroke-linejoin="round" stroke-linecap="butt" d="m28.031496 69.70604l123.74803 0" fill-rule="evenodd"></path><path fill="#000000" stroke="#000000" stroke-width="2.0" stroke-linecap="butt" d="m151.77953 73.0095l9.076202 -3.3034592l-9.076202 -3.3034668z" fill-rule="evenodd"></path><path fill="#000000" fill-opacity="0.0" d="m180.0 16.593176l92.944885 0" fill-rule="nonzero"></path><path stroke="#000000" stroke-width="2.0" stroke-linejoin="round" stroke-linecap="butt" d="m180.0 16.593176l92.944885 0" fill-rule="nonzero"></path><path fill="#000000" fill-opacity="0.0" d="m272.95013 18.068241l0 125.41733" fill-rule="nonzero"></path><path stroke="#000000" stroke-width="2.0" stroke-linejoin="round" stroke-linecap="butt" d="m272.95013 18.068241l0 125.41733" fill-rule="nonzero"></path><path fill="#000000" fill-opacity="0.0" d="m274.4252 142.00262l-100.31497 0" fill-rule="nonzero"></path><path stroke="#000000" stroke-width="2.0" stroke-linejoin="round" stroke-linecap="butt" d="m274.4252 142.00262l-100.31497 0" fill-rule="nonzero"></path><path fill="#000000" fill-opacity="0.0" d="m241.29396 18.35433l0 122.173225" fill-rule="nonzero"></path><path stroke="#000000" stroke-width="2.0" stroke-linejoin="round" stroke-linecap="butt" d="m241.29396 18.35433l0 122.173225" fill-rule="nonzero"></path><path fill="#000000" fill-opacity="0.0" d="m213.93439 18.068241l0 123.93701" fill-rule="nonzero"></path><path stroke="#000000" stroke-width="2.0" stroke-linejoin="round" stroke-linecap="butt" d="m213.93439 18.068241l0 123.93701" fill-rule="nonzero"></path><path fill="#000000" fill-opacity="0.0" d="m274.4252 69.70604l0 0c0 -28.109993 24.76886 -50.89764 55.322815 -50.89764l0 0c30.553986 0 55.322845 22.787647 55.322845 50.89764l0 0c0 28.109985 -24.76886 50.897636 -55.322845 50.897636l0 0c-30.553955 0 -55.322815 -22.787651 -55.322815 -50.897636z" fill-rule="nonzero"></path><path stroke="#000000" stroke-width="2.0" stroke-linejoin="round" stroke-linecap="butt" d="m274.4252 69.70604l0 0c0 -28.109993 24.76886 -50.89764 55.322815 -50.89764l0 0c30.553986 0 55.322845 22.787647 55.322845 50.89764l0 0c0 28.109985 -24.76886 50.897636 -55.322845 50.897636l0 0c-30.553955 0 -55.322815 -22.787651 -55.322815 -50.897636z" fill-rule="nonzero"></path><path fill="#000000" fill-opacity="0.0" d="m385.07086 69.70604l116.566925 0" fill-rule="nonzero"></path><path stroke="#000000" stroke-width="2.0" stroke-linejoin="round" stroke-linecap="butt" d="m385.07086 69.70604l104.566925 0" fill-rule="evenodd"></path><path fill="#000000" stroke="#000000" stroke-width="2.0" stroke-linecap="butt" d="m489.6378 73.0095l9.076202 -3.3034592l-9.076202 -3.3034668z" fill-rule="evenodd"></path><path fill="#000000" fill-opacity="0.0" d="m507.52756 15.994751l92.944855 0" fill-rule="nonzero"></path><path stroke="#000000" stroke-width="2.0" stroke-linejoin="round" stroke-linecap="butt" d="m507.52756 15.994751l92.944855 0" fill-rule="nonzero"></path><path fill="#000000" fill-opacity="0.0" d="m600.47766 17.469816l0 125.41733" fill-rule="nonzero"></path><path stroke="#000000" stroke-width="2.0" stroke-linejoin="round" stroke-linecap="butt" d="m600.47766 17.469816l0 125.41733" fill-rule="nonzero"></path><path fill="#000000" fill-opacity="0.0" d="m601.95276 141.4042l-100.31497 0" fill-rule="nonzero"></path><path stroke="#000000" stroke-width="2.0" stroke-linejoin="round" stroke-linecap="butt" d="m601.95276 141.4042l-100.31497 0" fill-rule="nonzero"></path><path fill="#000000" fill-opacity="0.0" d="m568.82153 17.755905l0 122.17323" fill-rule="nonzero"></path><path stroke="#000000" stroke-width="2.0" stroke-linejoin="round" stroke-linecap="butt" d="m568.82153 17.755905l0 122.17323" fill-rule="nonzero"></path><path fill="#000000" fill-opacity="0.0" d="m541.4619 17.469816l0 123.93701" fill-rule="nonzero"></path><path stroke="#000000" stroke-width="2.0" stroke-linejoin="round" stroke-linecap="butt" d="m541.4619 17.469816l0 123.93701" fill-rule="nonzero"></path><path fill="#000000" fill-opacity="0.0" d="m601.95276 69.10761l0 0c0 -28.10999 24.76886 -50.897636 55.322815 -50.897636l0 0c30.553955 0 55.322876 22.78765 55.322876 50.897636l0 0c0 28.109985 -24.76892 50.897636 -55.322876 50.897636l0 0c-30.553955 0 -55.322815 -22.787651 -55.322815 -50.897636z" fill-rule="nonzero"></path><path stroke="#000000" stroke-width="2.0" stroke-linejoin="round" stroke-linecap="butt" d="m601.95276 69.10761l0 0c0 -28.10999 24.76886 -50.897636 55.322815 -50.897636l0 0c30.553955 0 55.322876 22.78765 55.322876 50.897636l0 0c0 28.109985 -24.76892 50.897636 -55.322876 50.897636l0 0c-30.553955 0 -55.322815 -22.787651 -55.322815 -50.897636z" fill-rule="nonzero"></path><path fill="#000000" fill-opacity="0.0" d="m712.59845 69.10761l116.566895 0" fill-rule="nonzero"></path><path stroke="#000000" stroke-width="2.0" stroke-linejoin="round" stroke-linecap="butt" d="m712.59845 69.10761l104.566895 0" fill-rule="evenodd"></path><path fill="#000000" stroke="#000000" stroke-width="2.0" stroke-linecap="butt" d="m817.16534 72.41108l9.076233 -3.3034668l-9.076233 -3.3034668z" fill-rule="evenodd"></path><path fill="#000000" fill-opacity="0.0" d="m-107.902885 1.4435695l384.0 0l0 48.0l-384.0 0z" fill-rule="nonzero"></path><path fill="#000000" fill-opacity="0.0" d="m309.10367 45.107613l42.960632 0l0 48.0l-42.960632 0z" fill-rule="nonzero"></path><path fill="#000000" d="m319.40054 63.388863l3.28125 0l0 5.640625q0 2.4375 0.484375 3.3125q0.625 1.140625 1.84375 1.140625q0.65625 0 1.234375 -0.421875q0.59375 -0.421875 0.875 -1.171875q0.28125 -0.75 0.28125 -2.828125l0 -5.671875l3.328125 0l0 12.453125l-3.078125 0l0 -1.5q-0.34375 0.65625 -0.671875 0.984375q-0.3125 0.328125 -0.84375 0.578125q-0.53125 0.25 -0.96875 0.25q-0.84375 0 -1.484375 -0.46875q-0.453125 -0.34375 -1.0 -1.34375l0 6.265625l-3.28125 0l0 -17.21875z" fill-rule="nonzero"></path><path fill="#000000" d="m338.22867 84.84199l-2.1875 0l0 -8.28125q-1.203125 1.125 -2.84375 1.671875l0 -2.0q0.859375 -0.28125 1.859375 -1.0625q1.015625 -0.78125 1.390625 -1.828125l1.78125 0l0 11.5z" fill-rule="nonzero"></path><path fill="#000000" fill-opacity="0.0" d="m635.05774 49.35958l42.960632 0l0 39.496063l-42.960632 0z" fill-rule="nonzero"></path><path fill="#000000" d="m645.3546 67.64083l3.28125 0l0 5.640625q0 2.4375 0.484375 3.3125q0.625 1.140625 1.84375 1.140625q0.65625 0 1.234375 -0.421875q0.59375 -0.421875 0.875 -1.171875q0.28125 -0.75 0.28125 -2.828125l0 -5.671875l3.328125 0l0 12.453125l-3.078125 0l0 -1.5q-0.34375 0.65625 -0.671875 0.984375q-0.3125 0.328125 -0.84375 0.578125q-0.53125 0.25 -0.96875 0.25q-0.84375 0 -1.484375 -0.46875q-0.453125 -0.34375 -1.0 -1.34375l0 6.265625l-3.28125 0l0 -17.21875z" fill-rule="nonzero"></path><path fill="#000000" d="m665.9796 87.04708l0 2.046875l-7.6875 0q0.125 -1.15625 0.75 -2.1875q0.625 -1.046875 2.46875 -2.75q1.484375 -1.390625 1.8125 -1.875q0.453125 -0.6875 0.453125 -1.34375q0 -0.734375 -0.390625 -1.125q-0.390625 -0.40625 -1.09375 -0.40625q-0.6875 0 -1.09375 0.421875q-0.40625 0.40625 -0.46875 1.375l-2.1875 -0.21875q0.203125 -1.8125 1.234375 -2.59375q1.03125 -0.796875 2.578125 -0.796875q1.6875 0 2.65625 0.921875q0.96875 0.90625 0.96875 2.265625q0 0.765625 -0.28125 1.46875q-0.265625 0.703125 -0.875 1.46875q-0.390625 0.5 -1.4375 1.453125q-1.03125 0.953125 -1.3125 1.265625q-0.28125 0.3125 -0.453125 0.609375l4.359375 0z" fill-rule="nonzero"></path><path fill="#000000" fill-opacity="0.0" d="m74.16273 18.8084l67.96851 0l0 39.496063l-67.96851 0z" fill-rule="nonzero"></path><path fill="#000000" d="m99.97509 49.542774l-3.40625 0l-2.140625 -5.65625q-0.40625 -1.046875 -0.953125 -2.8125q-0.453125 1.5 -0.921875 2.765625l-2.140625 5.703125l-3.375 0l4.78125 -12.4375l-1.8125 -4.75l3.25 0l1.859375 4.75l4.859375 12.4375z" fill-rule="nonzero"></path></g></svg>

